<?xml version="1.0" encoding="UTF-8"?>
<svg width="363px" height="276px" viewBox="0 0 363 276" version="1.1" xmlns="http://www.w3.org/2000/svg" xmlns:xlink="http://www.w3.org/1999/xlink">
    <!-- Generator: Sketch 51.3 (57544) - http://www.bohemiancoding.com/sketch -->
    <title>Abc</title>
    <desc>Created with Sketch.</desc>
    <defs></defs>
    <g id="Abc" stroke="none" stroke-width="1" fill="none" fill-rule="evenodd">
        <g id="Group-2" fill="#171717">
            <path d="M138.6,134 L106.4,134 L98,111.4 L40.8,111.4 L32.4,134 L0.2,134 L51.6,0.6 L87.2,0.6 L138.6,134 Z M90.2,86.4 L69.4,29 L48.6,86.4 L90.2,86.4 Z M175.586667,103 C179.986667,109.2 189.186667,113.8 197.586667,113.8 C212.186667,113.8 221.986667,102.4 221.986667,85.6 C221.986667,69 212.186667,57.6 197.586667,57.6 C189.186667,57.6 179.986667,62.4 175.586667,68.8 L175.586667,103 Z M175.586667,134 L150.186667,134 L150.186667,0.6 L175.586667,0.6 L175.586667,49.8 C183.186667,39.8 193.986667,35 205.386667,35 C229.986667,35 248.186667,54.2 248.186667,85.6 C248.186667,118 229.786667,136.4 205.386667,136.4 C193.786667,136.4 183.186667,131.2 175.586667,121.6 L175.586667,134 Z M312.173333,136.4 C282.573333,136.4 260.973333,115.4 260.973333,85.6 C260.973333,56 282.573333,35 312.173333,35 C331.973333,35 343.973333,43.6 350.373333,52.4 L333.773333,68 C329.173333,61.2 322.173333,57.6 313.373333,57.6 C297.973333,57.6 287.173333,68.8 287.173333,85.6 C287.173333,102.4 297.973333,113.8 313.373333,113.8 C322.173333,113.8 329.173333,109.8 333.773333,103.2 L350.373333,118.8 C343.973333,127.6 331.973333,136.4 312.173333,136.4 Z" id="Abc"></path>
            <path d="M12.632,197 L10.378,197 L9.79,195.418 L5.786,195.418 L5.198,197 L2.944,197 L6.542,187.662 L9.034,187.662 L12.632,197 Z M9.244,193.668 L7.788,189.65 L6.332,193.668 L9.244,193.668 Z M21.935,197 L20.143,197 L20.143,196.286 C19.681,196.846 18.883,197.168 18.001,197.168 C16.923,197.168 15.663,196.44 15.663,194.928 C15.663,193.332 16.923,192.744 18.001,192.744 C18.911,192.744 19.695,193.038 20.143,193.57 L20.143,192.716 C20.143,192.03 19.555,191.582 18.659,191.582 C17.945,191.582 17.273,191.862 16.713,192.38 L16.013,191.134 C16.839,190.392 17.903,190.07 18.967,190.07 C20.521,190.07 21.935,190.686 21.935,192.632 L21.935,197 Z M18.715,195.964 C19.289,195.964 19.849,195.768 20.143,195.376 L20.143,194.536 C19.849,194.144 19.289,193.934 18.715,193.934 C18.015,193.934 17.441,194.312 17.441,194.956 C17.441,195.6 18.015,195.964 18.715,195.964 Z M37.643,197 L32.575,197 L32.575,187.662 L37.489,187.662 C39.267,187.662 40.177,188.796 40.177,190.042 C40.177,191.204 39.449,192.002 38.567,192.184 C39.575,192.338 40.359,193.304 40.359,194.466 C40.359,195.88 39.435,197 37.643,197 Z M37.055,191.372 C37.727,191.372 38.147,190.994 38.147,190.392 C38.147,189.818 37.727,189.412 37.055,189.412 L34.563,189.412 L34.563,191.372 L37.055,191.372 Z M37.139,195.25 C37.881,195.25 38.329,194.858 38.329,194.186 C38.329,193.598 37.909,193.122 37.139,193.122 L34.563,193.122 L34.563,195.25 L37.139,195.25 Z M46.218,194.83 C46.526,195.264 47.17,195.586 47.758,195.586 C48.78,195.586 49.466,194.788 49.466,193.612 C49.466,192.45 48.78,191.652 47.758,191.652 C47.17,191.652 46.526,191.988 46.218,192.436 L46.218,194.83 Z M46.218,197 L44.44,197 L44.44,187.662 L46.218,187.662 L46.218,191.106 C46.75,190.406 47.506,190.07 48.304,190.07 C50.026,190.07 51.3,191.414 51.3,193.612 C51.3,195.88 50.012,197.168 48.304,197.168 C47.492,197.168 46.75,196.804 46.218,196.132 L46.218,197 Z M66.07,197.168 C63.256,197.168 61.086,195.208 61.086,192.338 C61.086,189.454 63.256,187.508 66.07,187.508 C68.114,187.508 69.304,188.614 69.962,189.79 L68.254,190.63 C67.862,189.874 67.022,189.272 66.07,189.272 C64.362,189.272 63.13,190.574 63.13,192.338 C63.13,194.102 64.362,195.404 66.07,195.404 C67.022,195.404 67.862,194.802 68.254,194.046 L69.962,194.872 C69.304,196.034 68.114,197.168 66.07,197.168 Z M76.885,197.168 C74.813,197.168 73.301,195.698 73.301,193.612 C73.301,191.54 74.813,190.07 76.885,190.07 C78.271,190.07 79.111,190.672 79.559,191.288 L78.397,192.38 C78.075,191.904 77.585,191.652 76.969,191.652 C75.891,191.652 75.135,192.436 75.135,193.612 C75.135,194.788 75.891,195.586 76.969,195.586 C77.585,195.586 78.075,195.306 78.397,194.844 L79.559,195.936 C79.111,196.552 78.271,197.168 76.885,197.168 Z M93.307,197 L89.611,197 L89.611,187.662 L93.293,187.662 C96.219,187.662 98.249,189.524 98.249,192.324 C98.249,195.152 96.219,197 93.307,197 Z M93.293,195.25 C95.141,195.25 96.219,193.92 96.219,192.324 C96.219,190.686 95.211,189.412 93.307,189.412 L91.599,189.412 L91.599,195.25 L93.293,195.25 Z M108.686,197 L106.894,197 L106.894,196.132 C106.362,196.804 105.634,197.168 104.808,197.168 C103.114,197.168 101.812,195.88 101.812,193.612 C101.812,191.414 103.086,190.07 104.808,190.07 C105.606,190.07 106.362,190.406 106.894,191.106 L106.894,187.662 L108.686,187.662 L108.686,197 Z M105.368,195.586 C105.956,195.586 106.6,195.264 106.894,194.816 L106.894,192.422 C106.6,191.974 105.956,191.652 105.368,191.652 C104.346,191.652 103.646,192.45 103.646,193.612 C103.646,194.788 104.346,195.586 105.368,195.586 Z M125.948,197 L119.34,197 L119.34,187.662 L125.948,187.662 L125.948,189.412 L121.328,189.412 L121.328,191.372 L125.85,191.372 L125.85,193.122 L121.328,193.122 L121.328,195.25 L125.948,195.25 L125.948,197 Z M133.263,197.168 C131.205,197.168 129.651,195.782 129.651,193.612 C129.651,191.652 131.107,190.07 133.151,190.07 C135.181,190.07 136.539,191.582 136.539,193.78 L136.539,194.2 L131.513,194.2 C131.639,195.026 132.311,195.712 133.459,195.712 C134.033,195.712 134.817,195.474 135.251,195.054 L136.049,196.23 C135.377,196.846 134.313,197.168 133.263,197.168 Z M134.831,192.968 C134.775,192.324 134.327,191.526 133.151,191.526 C132.045,191.526 131.569,192.296 131.499,192.968 L134.831,192.968 Z M148.705,197 L146.717,197 L146.717,187.662 L153.325,187.662 L153.325,189.412 L148.705,189.412 L148.705,191.372 L153.227,191.372 L153.227,193.122 L148.705,193.122 L148.705,197 Z M159.478,197 L157.7,197 L157.7,191.792 L156.58,191.792 L156.58,190.238 L157.7,190.238 L157.7,189.958 C157.7,188.432 158.61,187.522 159.968,187.522 C160.626,187.522 161.326,187.704 161.732,188.166 L161.06,189.244 C160.878,189.076 160.64,188.978 160.318,188.978 C159.814,188.978 159.478,189.3 159.478,189.958 L159.478,190.238 L160.85,190.238 L160.85,191.792 L159.478,191.792 L159.478,197 Z M175.298,197.168 C172.554,197.168 170.314,195.278 170.314,192.338 C170.314,189.384 172.554,187.508 175.298,187.508 C177.23,187.508 178.448,188.488 179.148,189.594 L177.51,190.49 C177.076,189.832 176.278,189.272 175.298,189.272 C173.59,189.272 172.358,190.574 172.358,192.338 C172.358,194.102 173.59,195.404 175.298,195.404 C176.124,195.404 176.894,195.04 177.272,194.69 L177.272,193.57 L174.808,193.57 L174.808,191.834 L179.26,191.834 L179.26,195.418 C178.308,196.482 176.978,197.168 175.298,197.168 Z M186.197,199.744 C185.049,199.744 184.139,199.478 183.285,198.736 L184.083,197.462 C184.629,198.05 185.357,198.288 186.197,198.288 C187.051,198.288 188.073,197.924 188.073,196.552 L188.073,195.894 C187.541,196.566 186.813,196.944 185.973,196.944 C184.293,196.944 182.991,195.768 182.991,193.514 C182.991,191.302 184.265,190.07 185.973,190.07 C186.785,190.07 187.527,190.406 188.073,191.106 L188.073,190.238 L189.851,190.238 L189.851,196.552 C189.851,199.114 187.863,199.744 186.197,199.744 Z M186.547,195.376 C187.121,195.376 187.765,195.04 188.073,194.606 L188.073,192.408 C187.765,191.974 187.121,191.652 186.547,191.652 C185.525,191.652 184.825,192.352 184.825,193.514 C184.825,194.676 185.525,195.376 186.547,195.376 Z M208.905,197 L206.903,197 L206.903,193.066 L202.493,193.066 L202.493,197 L200.505,197 L200.505,187.662 L202.493,187.662 L202.493,191.33 L206.903,191.33 L206.903,187.662 L208.905,187.662 L208.905,197 Z M219.678,197 L217.9,197 L217.9,192.884 C217.9,191.946 217.41,191.652 216.654,191.652 C215.954,191.652 215.408,192.044 215.114,192.436 L215.114,197 L213.322,197 L213.322,187.662 L215.114,187.662 L215.114,191.106 C215.548,190.602 216.374,190.07 217.48,190.07 C218.964,190.07 219.678,190.882 219.678,192.198 L219.678,197 Z M232.32,197 L230.332,197 L230.332,187.662 L232.32,187.662 L232.32,197 Z M237.633,189.51 C237.059,189.51 236.583,189.034 236.583,188.446 C236.583,187.858 237.059,187.396 237.633,187.396 C238.221,187.396 238.697,187.858 238.697,188.446 C238.697,189.034 238.221,189.51 237.633,189.51 Z M238.529,197 L236.751,197 L236.751,190.238 L238.529,190.238 L238.529,197 Z M250.863,197.168 C249.911,197.168 249.015,196.902 248.343,196.244 L249.211,194.732 C249.575,195.082 250.051,195.404 250.695,195.404 C251.577,195.404 252.151,194.802 252.151,193.906 L252.151,187.662 L254.153,187.662 L254.153,193.934 C254.153,196.132 252.767,197.168 250.863,197.168 Z M259.452,189.51 C258.878,189.51 258.402,189.034 258.402,188.446 C258.402,187.858 258.878,187.396 259.452,187.396 C260.04,187.396 260.516,187.858 260.516,188.446 C260.516,189.034 260.04,189.51 259.452,189.51 Z M257.94,199.744 C257.086,199.744 256.75,199.604 256.26,199.254 L256.736,197.938 C257.002,198.162 257.24,198.288 257.646,198.288 C258.192,198.288 258.57,197.938 258.57,197.182 L258.57,190.238 L260.348,190.238 L260.348,197.182 C260.348,198.722 259.564,199.744 257.94,199.744 Z M278.996,197 L276.546,197 L273.718,193.248 L272.99,194.13 L272.99,197 L271.002,197 L271.002,187.662 L272.99,187.662 L272.99,191.82 L276.294,187.662 L278.744,187.662 L275.034,192.044 L278.996,197 Z M289.097,197 L286.871,197 L285.079,194.396 L284.267,195.264 L284.267,197 L282.489,197 L282.489,187.662 L284.267,187.662 L284.267,193.248 L286.829,190.238 L289.013,190.238 L286.339,193.304 L289.097,197 Z M304.749,197 L298.799,197 L298.799,187.662 L300.801,187.662 L300.801,195.25 L304.749,195.25 L304.749,197 Z M310.454,197 L308.676,197 L308.676,187.662 L310.454,187.662 L310.454,197 Z M331.23,197 L329.228,197 L329.228,190.266 L326.596,197 L325.728,197 L323.096,190.266 L323.096,197 L321.108,197 L321.108,187.662 L323.894,187.662 L326.162,193.5 L328.43,187.662 L331.23,187.662 L331.23,197 Z M345.839,197 L344.047,197 L344.047,192.73 C344.047,192.1 343.767,191.652 343.039,191.652 C342.409,191.652 341.891,192.072 341.639,192.436 L341.639,197 L339.847,197 L339.847,192.73 C339.847,192.1 339.567,191.652 338.839,191.652 C338.223,191.652 337.705,192.072 337.439,192.436 L337.439,197 L335.661,197 L335.661,190.238 L337.439,190.238 L337.439,191.106 C337.733,190.714 338.615,190.07 339.651,190.07 C340.645,190.07 341.289,190.532 341.527,191.288 C341.919,190.686 342.815,190.07 343.851,190.07 C345.097,190.07 345.839,190.728 345.839,192.114 L345.839,197 Z M12.282,236 L10.364,236 L5.912,229.91 L5.912,236 L3.924,236 L3.924,226.662 L5.968,226.662 L10.294,232.528 L10.294,226.662 L12.282,226.662 L12.282,236 Z M23.069,236 L21.277,236 L21.277,231.912 C21.277,230.974 20.787,230.652 20.031,230.652 C19.331,230.652 18.799,231.044 18.491,231.436 L18.491,236 L16.713,236 L16.713,229.238 L18.491,229.238 L18.491,230.106 C18.925,229.602 19.765,229.07 20.857,229.07 C22.355,229.07 23.069,229.91 23.069,231.226 L23.069,236 Z M38.147,236.168 C35.319,236.168 33.261,234.152 33.261,231.338 C33.261,228.524 35.319,226.508 38.147,226.508 C40.961,226.508 43.019,228.524 43.019,231.338 C43.019,234.152 40.961,236.168 38.147,236.168 Z M38.147,234.404 C39.869,234.404 40.975,233.074 40.975,231.338 C40.975,229.588 39.869,228.272 38.147,228.272 C36.411,228.272 35.305,229.588 35.305,231.338 C35.305,233.074 36.411,234.404 38.147,234.404 Z M50.138,236.168 C47.912,236.168 46.568,234.53 46.568,232.612 C46.568,230.694 47.912,229.07 50.138,229.07 C52.378,229.07 53.722,230.694 53.722,232.612 C53.722,234.53 52.378,236.168 50.138,236.168 Z M50.138,234.586 C51.258,234.586 51.874,233.676 51.874,232.612 C51.874,231.562 51.258,230.652 50.138,230.652 C49.032,230.652 48.416,231.562 48.416,232.612 C48.416,233.676 49.032,234.586 50.138,234.586 Z M65.93,236 L63.942,236 L63.942,226.662 L68.31,226.662 C70.34,226.662 71.446,228.034 71.446,229.672 C71.446,231.296 70.326,232.668 68.31,232.668 L65.93,232.668 L65.93,236 Z M68.03,230.918 C68.814,230.918 69.416,230.442 69.416,229.672 C69.416,228.888 68.814,228.412 68.03,228.412 L65.93,228.412 L65.93,230.918 L68.03,230.918 Z M79.139,236.168 C78.341,236.168 77.613,235.832 77.053,235.132 L77.053,238.576 L75.275,238.576 L75.275,229.238 L77.053,229.238 L77.053,230.092 C77.571,229.434 78.313,229.07 79.139,229.07 C80.875,229.07 82.135,230.358 82.135,232.612 C82.135,234.866 80.875,236.168 79.139,236.168 Z M78.579,234.586 C79.601,234.586 80.301,233.788 80.301,232.612 C80.301,231.45 79.601,230.652 78.579,230.652 C78.005,230.652 77.361,230.974 77.053,231.422 L77.053,233.802 C77.347,234.236 78.005,234.586 78.579,234.586 Z M96.765,236.168 C93.937,236.168 91.879,234.152 91.879,231.338 C91.879,228.524 93.937,226.508 96.765,226.508 C99.579,226.508 101.637,228.524 101.637,231.338 C101.637,232.654 101.175,233.802 100.419,234.642 L101.105,235.44 L99.719,236.574 L98.963,235.706 C98.319,236 97.563,236.168 96.765,236.168 Z M96.765,234.404 C97.115,234.404 97.437,234.348 97.731,234.25 L96.709,233.046 L98.095,231.912 L99.117,233.116 C99.425,232.626 99.593,232.01 99.593,231.338 C99.593,229.588 98.487,228.272 96.765,228.272 C95.029,228.272 93.923,229.588 93.923,231.338 C93.923,233.074 95.029,234.404 96.765,234.404 Z M108.714,234.586 C109.302,234.586 109.946,234.236 110.24,233.802 L110.24,231.422 C109.946,230.974 109.302,230.652 108.714,230.652 C107.706,230.652 107.006,231.45 107.006,232.612 C107.006,233.788 107.706,234.586 108.714,234.586 Z M108.154,236.168 C106.432,236.168 105.172,234.866 105.172,232.612 C105.172,230.358 106.432,229.07 108.154,229.07 C108.98,229.07 109.722,229.434 110.24,230.092 L110.24,229.238 L112.032,229.238 L112.032,238.576 L110.24,238.576 L110.24,235.132 C109.694,235.832 108.966,236.168 108.154,236.168 Z M130.246,236 L127.95,236 L126.116,232.682 L124.66,232.682 L124.66,236 L122.672,236 L122.672,226.662 L127.04,226.662 C128.986,226.662 130.19,227.936 130.19,229.672 C130.19,231.31 129.14,232.206 128.132,232.444 L130.246,236 Z M126.76,230.932 C127.544,230.932 128.146,230.456 128.146,229.658 C128.146,228.888 127.544,228.412 126.76,228.412 L124.66,228.412 L124.66,230.932 L126.76,230.932 Z M136.035,236 L134.257,236 L134.257,229.238 L136.035,229.238 L136.035,230.148 C136.525,229.56 137.351,229.07 138.191,229.07 L138.191,230.806 C138.065,230.778 137.911,230.764 137.701,230.764 C137.113,230.764 136.329,231.1 136.035,231.534 L136.035,236 Z M151.519,236.168 C149.713,236.168 148.425,235.566 147.543,234.684 L148.635,233.13 C149.293,233.816 150.315,234.404 151.603,234.404 C152.709,234.404 153.227,233.914 153.227,233.368 C153.227,231.744 147.851,232.878 147.851,229.364 C147.851,227.81 149.195,226.522 151.393,226.522 C152.877,226.522 154.109,226.97 155.033,227.824 L153.927,229.308 C153.171,228.608 152.163,228.286 151.211,228.286 C150.371,228.286 149.895,228.65 149.895,229.21 C149.895,230.68 155.257,229.686 155.257,233.172 C155.257,234.88 154.025,236.168 151.519,236.168 Z M161.606,236.168 C160.43,236.168 159.296,235.776 158.582,235.118 L159.352,233.83 C159.856,234.306 160.85,234.768 161.69,234.768 C162.46,234.768 162.824,234.474 162.824,234.054 C162.824,232.948 158.82,233.858 158.82,231.198 C158.82,230.064 159.8,229.07 161.592,229.07 C162.726,229.07 163.636,229.462 164.308,229.994 L163.594,231.254 C163.188,230.834 162.418,230.47 161.592,230.47 C160.948,230.47 160.528,230.75 160.528,231.128 C160.528,232.122 164.546,231.282 164.546,234.012 C164.546,235.258 163.482,236.168 161.606,236.168 Z M178.896,236 L176.894,236 L176.894,228.412 L174.164,228.412 L174.164,226.662 L181.612,226.662 L181.612,228.412 L178.896,228.412 L178.896,236 Z M187.737,236.168 C186.491,236.168 185.833,235.524 185.833,234.306 L185.833,230.792 L184.713,230.792 L184.713,229.238 L185.833,229.238 L185.833,227.39 L187.611,227.39 L187.611,229.238 L188.983,229.238 L188.983,230.792 L187.611,230.792 L187.611,233.83 C187.611,234.264 187.835,234.586 188.227,234.586 C188.493,234.586 188.745,234.488 188.843,234.376 L189.221,235.734 C188.955,235.972 188.479,236.168 187.737,236.168 Z M203.305,236.168 C200.463,236.168 199.091,234.572 199.091,232.262 L199.091,226.662 L201.107,226.662 L201.107,232.206 C201.107,233.508 201.863,234.404 203.305,234.404 C204.747,234.404 205.489,233.508 205.489,232.206 L205.489,226.662 L207.519,226.662 L207.519,232.262 C207.519,234.572 206.147,236.168 203.305,236.168 Z M218.292,236 L216.514,236 L216.514,235.146 C216.052,235.65 215.24,236.168 214.134,236.168 C212.65,236.168 211.95,235.356 211.95,234.04 L211.95,229.238 L213.728,229.238 L213.728,233.34 C213.728,234.278 214.218,234.586 214.974,234.586 C215.66,234.586 216.206,234.208 216.514,233.816 L216.514,229.238 L218.292,229.238 L218.292,236 Z M234.056,236 L231.564,236 L227.966,226.662 L230.22,226.662 L232.81,233.83 L235.4,226.662 L237.654,226.662 L234.056,236 Z M244.535,236 L242.617,236 L239.901,229.238 L241.805,229.238 L243.569,233.942 L245.347,229.238 L247.251,229.238 L244.535,236 Z M266.193,236 L264.079,236 L262.441,229.588 L260.817,236 L258.703,236 L256.029,226.662 L258.255,226.662 L259.893,233.41 L261.671,226.662 L263.225,226.662 L264.989,233.41 L266.627,226.662 L268.853,226.662 L266.193,236 Z M280.214,236 L278.31,236 L276.882,231.394 L275.454,236 L273.55,236 L271.492,229.238 L273.34,229.238 L274.6,233.788 L276.084,229.238 L277.666,229.238 L279.15,233.788 L280.41,229.238 L282.272,229.238 L280.214,236 Z M300.514,236 L298.134,236 L295.796,232.584 L293.444,236 L291.078,236 L294.466,231.212 L291.288,226.662 L293.654,226.662 L295.796,229.854 L297.91,226.662 L300.304,226.662 L297.126,231.198 L300.514,236 Z M310.153,236 L308.165,236 L306.625,233.718 L305.071,236 L303.097,236 L305.505,232.528 L303.237,229.238 L305.225,229.238 L306.625,231.31 L308.011,229.238 L309.999,229.238 L307.745,232.528 L310.153,236 Z M324.517,236 L322.529,236 L322.529,232.178 L318.945,226.662 L321.213,226.662 L323.523,230.4 L325.833,226.662 L328.087,226.662 L324.517,232.178 L324.517,236 Z M330.474,238.632 L330.726,237.05 C330.88,237.12 331.118,237.162 331.286,237.162 C331.748,237.162 332.056,237.036 332.224,236.672 L332.476,236.084 L329.732,229.238 L331.636,229.238 L333.4,233.942 L335.178,229.238 L337.082,229.238 L333.904,237.106 C333.4,238.38 332.504,238.716 331.342,238.744 C331.146,238.744 330.684,238.702 330.474,238.632 Z M353.546,236 L346.434,236 L346.434,234.39 L350.844,228.412 L346.434,228.412 L346.434,226.662 L353.448,226.662 L353.448,228.258 L349.038,234.25 L353.546,234.25 L353.546,236 Z M362.877,236 L357.347,236 L357.347,234.67 L360.399,230.792 L357.347,230.792 L357.347,229.238 L362.821,229.238 L362.821,230.512 L359.713,234.446 L362.877,234.446 L362.877,236 Z M7.34,275.168 C4.666,275.168 3.476,272.746 3.476,270.338 C3.476,267.93 4.666,265.522 7.34,265.522 C10.014,265.522 11.204,267.93 11.204,270.338 C11.204,272.746 10.014,275.168 7.34,275.168 Z M7.34,273.404 C8.67,273.404 9.174,272.06 9.174,270.338 C9.174,268.616 8.684,267.286 7.34,267.286 C6.01,267.286 5.506,268.616 5.506,270.338 C5.506,272.06 6.01,273.404 7.34,273.404 Z M25.358,275 L23.37,275 L23.37,268.224 L21.816,269.806 L20.682,268.616 L23.622,265.662 L25.358,265.662 L25.358,275 Z M42.816,275 L35.788,275 L35.788,273.432 C39.61,270.604 40.73,269.652 40.73,268.504 C40.73,267.678 39.988,267.286 39.218,267.286 C38.154,267.286 37.342,267.706 36.712,268.364 L35.578,267.048 C36.488,265.998 37.874,265.522 39.176,265.522 C41.178,265.522 42.746,266.642 42.746,268.504 C42.746,270.1 41.43,271.486 39.008,273.25 L42.816,273.25 L42.816,275 Z M56.34,275.168 C54.632,275.168 53.344,274.51 52.658,273.67 L53.708,272.34 C54.338,273.012 55.36,273.404 56.27,273.404 C57.404,273.404 58.034,272.914 58.034,272.214 C58.034,271.472 57.46,271.136 56.158,271.136 C55.766,271.136 55.136,271.15 54.996,271.164 L54.996,269.372 C55.164,269.386 55.808,269.386 56.158,269.386 C57.194,269.386 57.894,269.078 57.894,268.392 C57.894,267.65 57.124,267.286 56.158,267.286 C55.248,267.286 54.436,267.622 53.778,268.252 L52.784,267.006 C53.54,266.152 54.716,265.522 56.354,265.522 C58.538,265.522 59.882,266.502 59.882,268.056 C59.882,269.232 58.874,270.002 57.838,270.184 C58.79,270.282 60.022,271.024 60.022,272.424 C60.022,274.034 58.58,275.168 56.34,275.168 Z M76.248,275 L74.26,275 L74.26,273.068 L69.794,273.068 L69.794,271.5 L73.504,265.662 L76.248,265.662 L76.248,271.318 L77.452,271.318 L77.452,273.068 L76.248,273.068 L76.248,275 Z M74.26,271.318 L74.26,267.426 L71.74,271.318 L74.26,271.318 Z M90.934,275.168 C89.31,275.168 88.134,274.636 87.336,273.768 L88.442,272.382 C89.072,273.04 89.94,273.404 90.92,273.404 C92.026,273.404 92.656,272.774 92.656,272.018 C92.656,271.192 92.04,270.632 90.976,270.632 C90.206,270.632 89.576,270.856 89.016,271.388 L87.63,271.01 L87.63,265.662 L94.042,265.662 L94.042,267.412 L89.618,267.412 L89.618,269.694 C90.066,269.246 90.822,268.91 91.676,268.91 C93.258,268.91 94.672,270.044 94.672,271.934 C94.672,273.908 93.188,275.168 90.934,275.168 Z M108.518,275.168 C105.676,275.168 104.486,272.984 104.486,270.352 C104.486,267.524 106.082,265.522 108.84,265.522 C109.974,265.522 110.926,265.9 111.598,266.488 L110.702,268.014 C110.198,267.538 109.666,267.286 108.84,267.286 C107.468,267.286 106.502,268.448 106.502,269.932 C106.502,270.002 106.502,270.058 106.516,270.128 C106.95,269.498 107.888,268.924 108.91,268.924 C110.59,268.924 112.102,269.974 112.102,271.962 C112.102,273.782 110.646,275.168 108.518,275.168 Z M108.406,273.404 C109.484,273.404 110.072,272.676 110.072,272.032 C110.072,271.052 109.232,270.632 108.35,270.632 C107.65,270.632 106.964,270.954 106.516,271.514 C106.6,272.41 107.104,273.404 108.406,273.404 Z M125.248,275 L123.064,275 L126.41,267.412 L121.706,267.412 L121.706,265.662 L128.72,265.662 L128.72,267.048 L125.248,275 Z M142.09,275.168 C140.13,275.168 138.338,274.314 138.338,272.578 C138.338,271.444 139.22,270.576 140.34,270.184 C139.304,269.82 138.492,269.148 138.492,267.986 C138.492,266.222 140.354,265.522 142.09,265.522 C143.812,265.522 145.688,266.222 145.688,267.986 C145.688,269.148 144.862,269.82 143.84,270.184 C144.946,270.576 145.842,271.444 145.842,272.578 C145.842,274.314 144.05,275.168 142.09,275.168 Z M142.09,269.4 C142.664,269.302 143.658,269.008 143.658,268.322 C143.658,267.664 143,267.286 142.09,267.286 C141.166,267.286 140.508,267.664 140.508,268.322 C140.508,269.008 141.516,269.302 142.09,269.4 Z M142.09,273.404 C143.042,273.404 143.826,272.97 143.826,272.298 C143.826,271.528 142.664,271.164 142.09,271.08 C141.502,271.164 140.354,271.528 140.354,272.298 C140.354,272.97 141.11,273.404 142.09,273.404 Z M158.862,275.154 C157.728,275.154 156.776,274.776 156.118,274.188 L157,272.662 C157.504,273.138 158.036,273.39 158.862,273.39 C160.402,273.39 161.2,272.088 161.2,270.758 L161.2,270.548 C160.752,271.178 159.814,271.752 158.792,271.752 C157.112,271.752 155.614,270.702 155.614,268.714 C155.614,266.894 157.056,265.508 159.184,265.508 C162.026,265.508 163.216,267.692 163.216,270.324 C163.216,273.152 161.62,275.154 158.862,275.154 Z M159.352,270.044 C160.066,270.044 160.738,269.722 161.186,269.162 C161.102,268.266 160.598,267.272 159.296,267.272 C158.218,267.272 157.63,268 157.63,268.644 C157.63,269.624 158.484,270.044 159.352,270.044 Z" id="Aa-Bb-Cc-Dd-Ee-Ff-Gg"></path>
        </g>
    </g>
</svg>