<?xml version="1.0" encoding="UTF-8"?>
<svg width="353px" height="283px" viewBox="0 0 353 283" version="1.1" xmlns="http://www.w3.org/2000/svg" xmlns:xlink="http://www.w3.org/1999/xlink">
    <!-- Generator: Sketch 52.6 (67491) - http://www.bohemiancoding.com/sketch -->
    <title>Group</title>
    <desc>Created with Sketch.</desc>
    <g id="Symbols" stroke="none" stroke-width="1" fill="none" fill-rule="evenodd">
        <g id="Abc" transform="translate(-1.000000, -9.000000)" fill="#171717">
            <g id="Group" transform="translate(1.000000, 9.000000)">
                <path d="M102.984375,140.917969 L100.835938,134.814453 C99.4036387,130.745422 97.7597749,126.057969 95.9042969,120.751953 C94.0488188,115.445937 92.4049551,110.758484 90.9726562,106.689453 L88.8242188,100.585938 L32.7695312,100.585938 L18.609375,140.917969 L0.15234375,140.917969 L52.1054688,0 L69.4882812,0 L121.441406,140.917969 L102.984375,140.917969 Z M60.5039062,21.3867188 L58.2089844,27.8808594 C56.6790288,32.2103081 54.8073027,37.5650723 52.59375,43.9453125 C50.3801973,50.3255527 48.1504019,56.7056973 45.9042969,63.0859375 C43.6581919,69.4661777 41.7701899,74.8209419 40.2402344,79.1503906 L37.9453125,85.6445312 L83.6484375,85.6445312 L61.0898438,21.3867188 L60.5039062,21.3867188 Z M185.192917,142.675781 C177.771004,142.675781 171.228101,140.98309 165.56401,137.597656 C159.89992,134.212223 155.440329,129.589873 152.185104,123.730469 L151.794479,123.730469 L151.794479,140.917969 L135.583542,140.917969 L135.583542,0 L152.575729,0 L152.575729,56.3476562 L152.966354,56.3476562 C156.156474,50.5533564 160.583513,45.9798345 166.247604,42.6269531 C171.911695,39.2740718 178.324391,37.5976562 185.485885,37.5976562 C198.31147,37.5976562 208.662929,42.3664888 216.540573,51.9042969 C224.418216,61.442105 228.356979,74.1861182 228.356979,90.1367187 C228.356979,106.087319 224.418216,118.831333 216.540573,128.369141 C208.662929,137.906949 198.213815,142.675781 185.192917,142.675781 Z M181.872604,52.5390625 C173.278811,52.5390625 166.231356,55.9895488 160.730026,62.890625 C155.228696,69.7917012 152.478073,78.8736416 152.478073,90.1367188 C152.478073,101.4649 155.228696,110.563117 160.730026,117.431641 C166.231356,124.300165 173.278811,127.734375 181.872604,127.734375 C190.857024,127.734375 197.953307,124.365268 203.161667,117.626953 C208.370026,110.888638 210.974167,101.725318 210.974167,90.1367188 C210.974167,78.6132236 208.370026,69.4661797 203.161667,62.6953125 C197.953307,55.9244453 190.857024,52.5390625 181.872604,52.5390625 Z M329.706146,72.65625 C329.706146,72.65625 328.876076,72.65625 327.215911,72.65625 C325.555747,72.65625 323.618917,72.65625 321.405364,72.65625 C319.191812,72.65625 317.254982,72.65625 315.594818,72.65625 C313.934653,72.65625 313.104583,72.65625 313.104583,72.65625 C311.867598,67.1223682 309.100698,62.3860874 304.803802,58.4472656 C300.506905,54.5084438 294.615037,52.5390625 287.128021,52.5390625 C278.338914,52.5390625 271.226355,55.9244453 265.79013,62.6953125 C260.353905,69.4661797 257.635833,78.6132236 257.635833,90.1367188 C257.635833,101.920632 260.386457,111.132779 265.887786,117.773438 C271.389116,124.414096 278.534227,127.734375 287.323333,127.734375 C294.289514,127.734375 299.986071,126.009132 304.413177,122.558594 C308.840282,119.108056 311.769941,114.322947 313.202239,108.203125 L329.901458,108.203125 C328.599368,118.294321 324.042122,126.562468 316.229583,133.007812 C308.417044,139.453157 298.749172,142.675781 287.225677,142.675781 C273.163107,142.675781 261.835095,138.004604 253.241302,128.662109 C244.647509,119.319615 240.350677,106.477946 240.350677,90.1367188 C240.350677,74.1210137 244.631233,61.3607246 253.192474,51.8554688 C261.753715,42.3502129 273.032899,37.5976562 287.030364,37.5976562 C299.72574,37.5976562 309.751682,41.1620737 317.108489,48.2910156 C324.465297,55.4199575 328.664474,63.5416211 329.706146,72.65625 Z" id="Abc"></path>
                <path d="M8.45996094,201.320312 L4.29003906,201.320312 L3.35351562,203.917969 L2,203.917969 L5.80078125,193.964844 L6.94921875,193.964844 L10.7568359,203.917969 L9.41015625,203.917969 L8.45996094,201.320312 Z M4.68652344,200.240234 L8.0703125,200.240234 L6.375,195.584961 L4.68652344,200.240234 Z M19.0898438,203.917969 C19.0169267,203.772135 18.9576825,203.512372 18.9121094,203.138672 C18.3242158,203.749352 17.6223999,204.054688 16.8066406,204.054688 C16.0774703,204.054688 15.4793318,203.848472 15.012207,203.436035 C14.5450823,203.023598 14.3115234,202.500654 14.3115234,201.867188 C14.3115234,201.097001 14.6043265,200.498863 15.1899414,200.072754 C15.7755563,199.646645 16.5992785,199.433594 17.6611328,199.433594 L18.8916016,199.433594 L18.8916016,198.852539 C18.8916016,198.41048 18.7594414,198.058432 18.4951172,197.796387 C18.2307929,197.534341 17.8411484,197.40332 17.3261719,197.40332 C16.8749977,197.40332 16.4967463,197.517251 16.1914062,197.745117 C15.8860662,197.972983 15.7333984,198.248696 15.7333984,198.572266 L14.4619141,198.572266 C14.4619141,198.203123 14.5929349,197.846519 14.8549805,197.502441 C15.117026,197.158364 15.4724912,196.886069 15.9213867,196.685547 C16.3702822,196.485025 16.8636041,196.384766 17.4013672,196.384766 C18.253585,196.384766 18.9212215,196.597817 19.4042969,197.023926 C19.8873722,197.450035 20.1380207,198.03678 20.15625,198.78418 L20.15625,202.188477 C20.15625,202.867516 20.2428377,203.40755 20.4160156,203.808594 L20.4160156,203.917969 L19.0898438,203.917969 Z M16.9912109,202.954102 C17.3876973,202.954102 17.7636701,202.851564 18.1191406,202.646484 C18.4746112,202.441405 18.7320956,202.174806 18.8916016,201.84668 L18.8916016,200.329102 L17.9003906,200.329102 C16.3509037,200.329102 15.5761719,200.782548 15.5761719,201.689453 C15.5761719,202.085939 15.708332,202.395832 15.9726562,202.619141 C16.2369805,202.842449 16.5764953,202.954102 16.9912109,202.954102 Z M31.0527344,203.917969 L31.0527344,193.964844 L34.3066406,193.964844 C35.3867242,193.964844 36.1990533,194.188149 36.7436523,194.634766 C37.2882514,195.081382 37.5605469,195.742183 37.5605469,196.617188 C37.5605469,197.082034 37.4283867,197.493325 37.1640625,197.851074 C36.8997383,198.208823 36.5397158,198.485676 36.0839844,198.681641 C36.6217475,198.832032 37.0467107,199.117999 37.3588867,199.539551 C37.6710628,199.961102 37.8271484,200.463539 37.8271484,201.046875 C37.8271484,201.940109 37.5377633,202.641925 36.9589844,203.152344 C36.3802054,203.662763 35.5621798,203.917969 34.5048828,203.917969 L31.0527344,203.917969 Z M32.3652344,199.262695 L32.3652344,202.844727 L34.5322266,202.844727 C35.1429067,202.844727 35.6248355,202.686362 35.9780273,202.369629 C36.3312192,202.052896 36.5078125,201.616539 36.5078125,201.060547 C36.5078125,199.861973 35.8561263,199.262695 34.5527344,199.262695 L32.3652344,199.262695 Z M32.3652344,198.209961 L34.3476562,198.209961 C34.9218779,198.209961 35.3810204,198.066408 35.7250977,197.779297 C36.0691749,197.492186 36.2412109,197.102542 36.2412109,196.610352 C36.2412109,196.063474 36.0817073,195.665854 35.7626953,195.41748 C35.4436833,195.169107 34.9583366,195.044922 34.3066406,195.044922 L32.3652344,195.044922 L32.3652344,198.209961 Z M48.4570312,200.301758 C48.4570312,201.431972 48.1972682,202.340003 47.6777344,203.025879 C47.1582005,203.711755 46.4609419,204.054688 45.5859375,204.054688 C44.651688,204.054688 43.9293645,203.724287 43.4189453,203.063477 L43.3574219,203.917969 L42.1953125,203.917969 L42.1953125,193.417969 L43.4599609,193.417969 L43.4599609,197.334961 C43.9703802,196.701494 44.6744747,196.384766 45.5722656,196.384766 C46.4700566,196.384766 47.1752904,196.72428 47.6879883,197.40332 C48.2006862,198.08236 48.4570312,199.012038 48.4570312,200.192383 L48.4570312,200.301758 Z M47.1923828,200.158203 C47.1923828,199.296871 47.0260433,198.631513 46.6933594,198.162109 C46.3606754,197.692706 45.8821646,197.458008 45.2578125,197.458008 C44.423824,197.458008 43.8245461,197.845374 43.4599609,198.620117 L43.4599609,201.819336 C43.8473327,202.594079 44.4511678,202.981445 45.2714844,202.981445 C45.8776072,202.981445 46.3492822,202.746747 46.6865234,202.277344 C47.0237647,201.80794 47.1923828,201.101567 47.1923828,200.158203 Z M66.2851562,200.759766 C66.1621088,201.812505 65.7736035,202.624834 65.1196289,203.196777 C64.4656543,203.76872 63.5963596,204.054688 62.5117188,204.054688 C61.3359316,204.054688 60.393721,203.633142 59.6850586,202.790039 C58.9763962,201.946936 58.6220703,200.819017 58.6220703,199.40625 L58.6220703,198.449219 C58.6220703,197.524084 58.7872705,196.710615 59.1176758,196.008789 C59.4480811,195.306963 59.9163381,194.768068 60.5224609,194.39209 C61.1285838,194.016111 61.8303997,193.828125 62.6279297,193.828125 C63.6852266,193.828125 64.5328744,194.123207 65.1708984,194.713379 C65.8089225,195.303551 66.180338,196.120437 66.2851562,197.164062 L64.9658203,197.164062 C64.8518875,196.37109 64.6046569,195.796877 64.2241211,195.441406 C63.8435853,195.085936 63.3115269,194.908203 62.6279297,194.908203 C61.7893838,194.908203 61.1320011,195.218096 60.6557617,195.837891 C60.1795224,196.457685 59.9414062,197.339513 59.9414062,198.483398 L59.9414062,199.447266 C59.9414062,200.527349 60.1669899,201.38639 60.6181641,202.024414 C61.0693382,202.662438 61.7005168,202.981445 62.5117188,202.981445 C63.2408891,202.981445 63.800291,202.816245 64.1899414,202.48584 C64.5795918,202.155435 64.8382155,201.580082 64.9658203,200.759766 L66.2851562,200.759766 Z M73.4697266,203.022461 C73.9209007,203.022461 74.3151025,202.885744 74.6523438,202.612305 C74.989585,202.338866 75.1764321,201.997072 75.2128906,201.586914 L76.4091797,201.586914 C76.3863931,202.010744 76.2405612,202.414061 75.9716797,202.796875 C75.7027981,203.179689 75.343915,203.485025 74.8950195,203.712891 C74.4461241,203.940756 73.9710312,204.054688 73.4697266,204.054688 C72.4625601,204.054688 71.6616241,203.718591 71.0668945,203.046387 C70.472165,202.374183 70.1748047,201.454758 70.1748047,200.288086 L70.1748047,200.076172 C70.1748047,199.356116 70.3069648,198.715823 70.5712891,198.155273 C70.8356133,197.594724 71.215004,197.159507 71.7094727,196.849609 C72.2039413,196.539712 72.7884081,196.384766 73.4628906,196.384766 C74.2923219,196.384766 74.9816053,196.633136 75.5307617,197.129883 C76.0799181,197.62663 76.3727212,198.27148 76.4091797,199.064453 L75.2128906,199.064453 C75.1764321,198.585935 74.9952816,198.192873 74.6694336,197.885254 C74.3435856,197.577635 73.9414086,197.423828 73.4628906,197.423828 C72.8203093,197.423828 72.3224302,197.655108 71.9692383,198.117676 C71.6160464,198.580243 71.4394531,199.249019 71.4394531,200.124023 L71.4394531,200.363281 C71.4394531,201.215499 71.6149071,201.871742 71.9658203,202.332031 C72.3167335,202.79232 72.8180306,203.022461 73.4697266,203.022461 Z M86.7451172,203.917969 L86.7451172,193.964844 L89.5546875,193.964844 C90.4205772,193.964844 91.1861946,194.156248 91.8515625,194.539062 C92.5169304,194.921877 93.0307599,195.466468 93.3930664,196.172852 C93.7553729,196.879235 93.9388021,197.690425 93.9433594,198.606445 L93.9433594,199.242188 C93.9433594,200.180994 93.7622088,201.003577 93.3999023,201.709961 C93.0375958,202.416345 92.5203484,202.958657 91.8481445,203.336914 C91.1759406,203.715171 90.3932336,203.908854 89.5,203.917969 L86.7451172,203.917969 Z M88.0576172,195.044922 L88.0576172,202.844727 L89.4384766,202.844727 C90.4502004,202.844727 91.2374646,202.530277 91.800293,201.901367 C92.3631213,201.272458 92.6445312,200.376959 92.6445312,199.214844 L92.6445312,198.633789 C92.6445312,197.503575 92.3790717,196.625166 91.8481445,195.998535 C91.3172174,195.371904 90.5641325,195.054037 89.5888672,195.044922 L88.0576172,195.044922 Z M98.0449219,200.158203 C98.0449219,199.023432 98.3137994,198.110843 98.8515625,197.42041 C99.3893256,196.729977 100.09342,196.384766 100.963867,196.384766 C101.829757,196.384766 102.515622,196.680987 103.021484,197.273438 L103.021484,193.417969 L104.286133,193.417969 L104.286133,203.917969 L103.124023,203.917969 L103.0625,203.125 C102.556638,203.744795 101.852544,204.054688 100.950195,204.054688 C100.09342,204.054688 99.3950222,203.70378 98.8549805,203.001953 C98.3149387,202.300127 98.0449219,201.38412 98.0449219,200.253906 L98.0449219,200.158203 Z M99.3095703,200.301758 C99.3095703,201.140304 99.4827457,201.796547 99.8291016,202.270508 C100.175457,202.744469 100.653968,202.981445 101.264648,202.981445 C102.066736,202.981445 102.652342,202.621423 103.021484,201.901367 L103.021484,198.503906 C102.643227,197.806637 102.062178,197.458008 101.27832,197.458008 C100.658526,197.458008 100.175457,197.697263 99.8291016,198.175781 C99.4827457,198.654299 99.3095703,199.362951 99.3095703,200.301758 Z M120.788086,199.317383 L116.474609,199.317383 L116.474609,202.844727 L121.485352,202.844727 L121.485352,203.917969 L115.162109,203.917969 L115.162109,193.964844 L121.416992,193.964844 L121.416992,195.044922 L116.474609,195.044922 L116.474609,198.244141 L120.788086,198.244141 L120.788086,199.317383 Z M128.485352,204.054688 C127.482742,204.054688 126.666995,203.725426 126.038086,203.066895 C125.409177,202.408363 125.094727,201.527675 125.094727,200.424805 L125.094727,200.192383 C125.094727,199.458655 125.234862,198.803551 125.515137,198.227051 C125.795412,197.650551 126.187335,197.199383 126.690918,196.873535 C127.194501,196.547687 127.740231,196.384766 128.328125,196.384766 C129.289718,196.384766 130.037107,196.701494 130.570312,197.334961 C131.103518,197.968428 131.370117,198.87532 131.370117,200.055664 L131.370117,200.582031 L126.359375,200.582031 C126.377604,201.311202 126.590656,201.900226 126.998535,202.349121 C127.406415,202.798017 127.924802,203.022461 128.553711,203.022461 C129.000328,203.022461 129.378579,202.931316 129.688477,202.749023 C129.998374,202.566731 130.26953,202.325197 130.501953,202.024414 L131.274414,202.625977 C130.654619,203.578455 129.724941,204.054688 128.485352,204.054688 Z M128.328125,197.423828 C127.817706,197.423828 127.389325,197.609536 127.042969,197.980957 C126.696613,198.352378 126.482422,198.873044 126.400391,199.542969 L130.105469,199.542969 L130.105469,199.447266 C130.06901,198.804684 129.895835,198.306805 129.585938,197.953613 C129.27604,197.600421 128.856773,197.423828 128.328125,197.423828 Z M147.236328,199.522461 L143.05957,199.522461 L143.05957,203.917969 L141.74707,203.917969 L141.74707,193.964844 L147.913086,193.964844 L147.913086,195.044922 L143.05957,195.044922 L143.05957,198.449219 L147.236328,198.449219 L147.236328,199.522461 Z M152.53418,203.917969 L152.53418,197.499023 L151.365234,197.499023 L151.365234,196.521484 L152.53418,196.521484 L152.53418,195.762695 C152.53418,194.969723 152.746092,194.356773 153.169922,193.923828 C153.593752,193.490883 154.19303,193.274414 154.967773,193.274414 C155.259442,193.274414 155.548827,193.313151 155.835938,193.390625 L155.767578,194.416016 C155.553384,194.375 155.325522,194.354492 155.083984,194.354492 C154.673826,194.354492 154.357097,194.47412 154.133789,194.713379 C153.910481,194.952638 153.798828,195.295571 153.798828,195.742188 L153.798828,196.521484 L155.37793,196.521484 L155.37793,197.499023 L153.798828,197.499023 L153.798828,203.917969 L152.53418,203.917969 Z M173.035156,202.612305 C172.697915,203.09538 172.227379,203.456542 171.623535,203.695801 C171.019691,203.93506 170.316736,204.054688 169.514648,204.054688 C168.703446,204.054688 167.983402,203.864422 167.354492,203.483887 C166.725583,203.103351 166.239097,202.562178 165.89502,201.860352 C165.550942,201.158525 165.374349,200.345057 165.365234,199.419922 L165.365234,198.551758 C165.365234,197.052401 165.715003,195.890304 166.414551,195.06543 C167.114099,194.240556 168.097324,193.828125 169.364258,193.828125 C170.403326,193.828125 171.23958,194.093585 171.873047,194.624512 C172.506514,195.155439 172.89388,195.908524 173.035156,196.883789 L171.722656,196.883789 C171.476561,195.566725 170.692715,194.908203 169.371094,194.908203 C168.491532,194.908203 167.825035,195.216957 167.371582,195.834473 C166.918129,196.451989 166.689128,197.346348 166.68457,198.517578 L166.68457,199.331055 C166.68457,200.447597 166.939776,201.33512 167.450195,201.993652 C167.960615,202.652184 168.651037,202.981445 169.521484,202.981445 C170.013674,202.981445 170.444334,202.926758 170.813477,202.817383 C171.182619,202.708007 171.487955,202.523439 171.729492,202.263672 L171.729492,200.02832 L169.425781,200.02832 L169.425781,198.961914 L173.035156,198.961914 L173.035156,202.612305 Z M177.348633,200.158203 C177.348633,199.005203 177.615232,198.088057 178.148438,197.406738 C178.681643,196.72542 179.388016,196.384766 180.267578,196.384766 C181.169926,196.384766 181.874021,196.703773 182.379883,197.341797 L182.441406,196.521484 L183.59668,196.521484 L183.59668,203.740234 C183.59668,204.69727 183.312991,205.451495 182.745605,206.00293 C182.17822,206.554365 181.41602,206.830078 180.458984,206.830078 C179.925779,206.830078 179.403974,206.716147 178.893555,206.488281 C178.383135,206.260416 177.993491,205.948244 177.724609,205.551758 L178.380859,204.792969 C178.92318,205.462894 179.586259,205.797852 180.370117,205.797852 C180.985355,205.797852 181.465005,205.624676 181.809082,205.27832 C182.153159,204.931964 182.325195,204.444339 182.325195,203.81543 L182.325195,203.179688 C181.819333,203.763024 181.128911,204.054688 180.253906,204.054688 C179.388017,204.054688 178.68734,203.706058 178.151855,203.008789 C177.616371,202.31152 177.348633,201.361334 177.348633,200.158203 Z M178.620117,200.301758 C178.620117,201.135746 178.791014,201.79085 179.132812,202.26709 C179.474611,202.743329 179.953122,202.981445 180.568359,202.981445 C181.365889,202.981445 181.951496,202.619144 182.325195,201.894531 L182.325195,198.517578 C181.937824,197.811194 181.356775,197.458008 180.582031,197.458008 C179.966794,197.458008 179.486004,197.697263 179.139648,198.175781 C178.793293,198.654299 178.620117,199.362951 178.620117,200.301758 Z M202.067383,203.917969 L200.748047,203.917969 L200.748047,199.317383 L195.730469,199.317383 L195.730469,203.917969 L194.417969,203.917969 L194.417969,193.964844 L195.730469,193.964844 L195.730469,198.244141 L200.748047,198.244141 L200.748047,193.964844 L202.067383,193.964844 L202.067383,203.917969 Z M208.089844,197.416992 C208.650393,196.728838 209.379553,196.384766 210.277344,196.384766 C211.840503,196.384766 212.628906,197.266593 212.642578,199.030273 L212.642578,203.917969 L211.37793,203.917969 L211.37793,199.023438 C211.373372,198.490232 211.251466,198.09603 211.012207,197.84082 C210.772948,197.585611 210.400393,197.458008 209.894531,197.458008 C209.484373,197.458008 209.124351,197.567382 208.814453,197.786133 C208.504556,198.004884 208.263022,198.29199 208.089844,198.647461 L208.089844,203.917969 L206.825195,203.917969 L206.825195,193.417969 L208.089844,193.417969 L208.089844,197.416992 Z M224.858398,203.917969 L223.545898,203.917969 L223.545898,193.964844 L224.858398,193.964844 L224.858398,203.917969 Z M231.058594,203.917969 L229.793945,203.917969 L229.793945,196.521484 L231.058594,196.521484 L231.058594,203.917969 Z M229.691406,194.55957 C229.691406,194.354491 229.754068,194.181316 229.879395,194.040039 C230.004721,193.898762 230.190428,193.828125 230.436523,193.828125 C230.682618,193.828125 230.869466,193.898762 230.99707,194.040039 C231.124675,194.181316 231.188477,194.354491 231.188477,194.55957 C231.188477,194.764649 231.124675,194.935546 230.99707,195.072266 C230.869466,195.208985 230.682618,195.277344 230.436523,195.277344 C230.190428,195.277344 230.004721,195.208985 229.879395,195.072266 C229.754068,194.935546 229.691406,194.764649 229.691406,194.55957 Z M246.166016,193.964844 L247.485352,193.964844 L247.485352,201.012695 C247.485352,201.965174 247.199384,202.710284 246.627441,203.248047 C246.055498,203.78581 245.293299,204.054688 244.34082,204.054688 C243.351883,204.054688 242.581708,203.80176 242.030273,203.295898 C241.478838,202.790037 241.203125,202.081385 241.203125,201.169922 L242.515625,201.169922 C242.515625,201.739586 242.671711,202.183918 242.983887,202.50293 C243.296063,202.821942 243.748369,202.981445 244.34082,202.981445 C244.883141,202.981445 245.321776,202.810549 245.656738,202.46875 C245.991701,202.126951 246.161458,201.648441 246.166016,201.033203 L246.166016,193.964844 Z M253.453125,196.521484 L253.453125,204.772461 C253.453125,206.194343 252.808275,206.905273 251.518555,206.905273 C251.240559,206.905273 250.983074,206.864258 250.746094,206.782227 L250.746094,205.770508 C250.891928,205.806966 251.083332,205.825195 251.320312,205.825195 C251.602866,205.825195 251.818196,205.748861 251.966309,205.596191 C252.114421,205.443521 252.188477,205.178062 252.188477,204.799805 L252.188477,196.521484 L253.453125,196.521484 Z M252.058594,194.55957 C252.058594,194.359048 252.121256,194.187012 252.246582,194.043457 C252.371908,193.899902 252.555337,193.828125 252.796875,193.828125 C253.04297,193.828125 253.229817,193.898762 253.357422,194.040039 C253.485027,194.181316 253.548828,194.354491 253.548828,194.55957 C253.548828,194.764649 253.485027,194.935546 253.357422,195.072266 C253.229817,195.208985 253.04297,195.277344 252.796875,195.277344 C252.55078,195.277344 252.366212,195.208985 252.243164,195.072266 C252.120117,194.935546 252.058594,194.764649 252.058594,194.55957 Z M266.933594,199.290039 L265.716797,200.554688 L265.716797,203.917969 L264.404297,203.917969 L264.404297,193.964844 L265.716797,193.964844 L265.716797,198.886719 L270.139648,193.964844 L271.725586,193.964844 L267.808594,198.360352 L272.033203,203.917969 L270.460938,203.917969 L266.933594,199.290039 Z M277.672852,200.493164 L276.879883,201.320312 L276.879883,203.917969 L275.615234,203.917969 L275.615234,193.417969 L276.879883,193.417969 L276.879883,199.768555 L277.556641,198.955078 L279.860352,196.521484 L281.398438,196.521484 L278.520508,199.611328 L281.733398,203.917969 L280.25,203.917969 L277.672852,200.493164 Z M292.9375,202.844727 L297.654297,202.844727 L297.654297,203.917969 L291.618164,203.917969 L291.618164,193.964844 L292.9375,193.964844 L292.9375,202.844727 Z M302.952148,203.917969 L301.6875,203.917969 L301.6875,193.417969 L302.952148,193.417969 L302.952148,203.917969 Z M315.584961,193.964844 L318.838867,202.085938 L322.092773,193.964844 L323.794922,193.964844 L323.794922,203.917969 L322.482422,203.917969 L322.482422,200.041992 L322.605469,195.858398 L319.337891,203.917969 L318.333008,203.917969 L315.072266,195.878906 L315.202148,200.041992 L315.202148,203.917969 L313.889648,203.917969 L313.889648,193.964844 L315.584961,193.964844 Z M329.728516,196.521484 L329.762695,197.341797 C330.305016,196.703773 331.036454,196.384766 331.957031,196.384766 C332.991542,196.384766 333.695636,196.781246 334.069336,197.574219 C334.315431,197.218748 334.635577,196.931642 335.029785,196.712891 C335.423993,196.49414 335.889971,196.384766 336.427734,196.384766 C338.050138,196.384766 338.875,197.243807 338.902344,198.961914 L338.902344,203.917969 L337.637695,203.917969 L337.637695,199.037109 C337.637695,198.508461 337.516928,198.11312 337.275391,197.851074 C337.033853,197.589029 336.628258,197.458008 336.058594,197.458008 C335.58919,197.458008 335.199546,197.598143 334.889648,197.878418 C334.579751,198.158693 334.39974,198.535805 334.349609,199.009766 L334.349609,203.917969 L333.078125,203.917969 L333.078125,199.071289 C333.078125,197.995763 332.551763,197.458008 331.499023,197.458008 C330.669592,197.458008 330.102215,197.811194 329.796875,198.517578 L329.796875,203.917969 L328.532227,203.917969 L328.532227,196.521484 L329.728516,196.521484 Z M10.6132812,242.917969 L9.29394531,242.917969 L4.28320312,235.248047 L4.28320312,242.917969 L2.96386719,242.917969 L2.96386719,232.964844 L4.28320312,232.964844 L9.30761719,240.668945 L9.30761719,232.964844 L10.6132812,232.964844 L10.6132812,242.917969 Z M16.5673828,235.521484 L16.6083984,236.451172 C17.1735054,235.740231 17.9117793,235.384766 18.8232422,235.384766 C20.386401,235.384766 21.1748046,236.266593 21.1884766,238.030273 L21.1884766,242.917969 L19.9238281,242.917969 L19.9238281,238.023438 C19.9192708,237.490232 19.7973645,237.09603 19.5581055,236.84082 C19.3188465,236.585611 18.9462916,236.458008 18.4404297,236.458008 C18.0302714,236.458008 17.6702489,236.567382 17.3603516,236.786133 C17.0504542,237.004884 16.8089201,237.29199 16.6357422,237.647461 L16.6357422,242.917969 L15.3710938,242.917969 L15.3710938,235.521484 L16.5673828,235.521484 Z M39.6660156,238.262695 C39.6660156,239.237961 39.5019548,240.089026 39.1738281,240.815918 C38.8457015,241.54281 38.3808624,242.097654 37.7792969,242.480469 C37.1777314,242.863283 36.4759155,243.054688 35.6738281,243.054688 C34.88997,243.054688 34.19499,242.862144 33.5888672,242.477051 C32.9827444,242.091958 32.5122087,241.54281 32.1772461,240.82959 C31.8422835,240.11637 31.6702474,239.290369 31.6611328,238.351562 L31.6611328,237.633789 C31.6611328,236.676753 31.8274723,235.831384 32.1601562,235.097656 C32.4928402,234.363929 32.9633759,233.802248 33.5717773,233.412598 C34.1801788,233.022947 34.8762982,232.828125 35.6601562,232.828125 C36.4576863,232.828125 37.1606415,233.020669 37.769043,233.405762 C38.3774444,233.790855 38.8457015,234.349117 39.1738281,235.080566 C39.5019548,235.812015 39.6660156,236.663081 39.6660156,237.633789 L39.6660156,238.262695 Z M38.3603516,237.620117 C38.3603516,236.439773 38.1233748,235.53402 37.6494141,234.902832 C37.1754534,234.271644 36.5123741,233.956055 35.6601562,233.956055 C34.830725,233.956055 34.1778995,234.271644 33.7016602,234.902832 C33.2254208,235.53402 32.9804688,236.410151 32.9667969,237.53125 L32.9667969,238.262695 C32.9667969,239.406581 33.2071916,240.305498 33.6879883,240.959473 C34.168785,241.613447 34.830725,241.94043 35.6738281,241.94043 C36.5214886,241.94043 37.1777321,241.631676 37.6425781,241.01416 C38.1074242,240.396644 38.3466796,239.511399 38.3603516,238.358398 L38.3603516,237.620117 Z M43.7265625,239.151367 C43.7265625,238.426754 43.8689764,237.775068 44.1538086,237.196289 C44.4386407,236.61751 44.8351212,236.1709 45.3432617,235.856445 C45.8514023,235.541991 46.4313118,235.384766 47.0830078,235.384766 C48.0901743,235.384766 48.904782,235.733395 49.5268555,236.430664 C50.1489289,237.127933 50.4599609,238.055333 50.4599609,239.212891 L50.4599609,239.301758 C50.4599609,240.021813 50.3221042,240.667803 50.0463867,241.239746 C49.7706692,241.811689 49.3764674,242.25716 48.8637695,242.576172 C48.3510717,242.895184 47.7620476,243.054688 47.0966797,243.054688 C46.0940705,243.054688 45.2817414,242.706058 44.659668,242.008789 C44.0375945,241.31152 43.7265625,240.388678 43.7265625,239.240234 L43.7265625,239.151367 Z M44.9980469,239.301758 C44.9980469,240.122074 45.1883119,240.780596 45.5688477,241.277344 C45.9493834,241.774091 46.4586557,242.022461 47.0966797,242.022461 C47.739261,242.022461 48.2496726,241.770673 48.6279297,241.26709 C49.0061868,240.763507 49.1953125,240.058273 49.1953125,239.151367 C49.1953125,238.340165 49.0027689,237.682782 48.6176758,237.179199 C48.2325827,236.675616 47.7210318,236.423828 47.0830078,236.423828 C46.4586557,236.423828 45.95508,236.672198 45.5722656,237.168945 C45.1894512,237.665693 44.9980469,238.376623 44.9980469,239.301758 Z M62.2724609,239.021484 L62.2724609,242.917969 L60.9599609,242.917969 L60.9599609,232.964844 L64.6308594,232.964844 C65.7200575,232.964844 66.5734019,233.242836 67.190918,233.798828 C67.8084341,234.35482 68.1171875,235.090816 68.1171875,236.006836 C68.1171875,236.972987 67.8152699,237.716957 67.2114258,238.23877 C66.6075816,238.760582 65.7428442,239.021484 64.6171875,239.021484 L62.2724609,239.021484 Z M62.2724609,237.948242 L64.6308594,237.948242 C65.3326858,237.948242 65.8704408,237.783042 66.2441406,237.452637 C66.6178404,237.122231 66.8046875,236.64486 66.8046875,236.020508 C66.8046875,235.428057 66.6178404,234.954103 66.2441406,234.598633 C65.8704408,234.243162 65.3577507,234.058594 64.7060547,234.044922 L62.2724609,234.044922 L62.2724609,237.948242 Z M78.4667969,239.301758 C78.4667969,240.427414 78.2093125,241.334306 77.6943359,242.022461 C77.1793594,242.710615 76.4821008,243.054688 75.6025391,243.054688 C74.7047481,243.054688 73.998375,242.76986 73.4833984,242.200195 L73.4833984,245.761719 L72.21875,245.761719 L72.21875,235.521484 L73.3740234,235.521484 L73.4355469,236.341797 C73.9505234,235.703773 74.666011,235.384766 75.5820312,235.384766 C76.4707076,235.384766 77.1736628,235.719723 77.690918,236.389648 C78.2081732,237.059574 78.4667969,237.99153 78.4667969,239.185547 L78.4667969,239.301758 Z M77.2021484,239.158203 C77.2021484,238.324215 77.0244158,237.665693 76.6689453,237.182617 C76.3134748,236.699542 75.8258495,236.458008 75.2060547,236.458008 C74.4404259,236.458008 73.8662129,236.797523 73.4833984,237.476562 L73.4833984,241.010742 C73.8616555,241.685225 74.4404258,242.022461 75.2197266,242.022461 C75.8258494,242.022461 76.3077782,241.782066 76.6655273,241.30127 C77.0232765,240.820473 77.2021484,240.106125 77.2021484,239.158203 Z M96.5888672,238.262695 C96.5888672,239.224289 96.4361994,240.052568 96.1308594,240.747559 C95.8255193,241.442549 95.3971382,241.986001 94.8457031,242.37793 L96.6230469,243.772461 L95.7275391,244.599609 L93.6289062,242.931641 C93.3007796,243.013672 92.9544289,243.054688 92.5898438,243.054688 C91.8059857,243.054688 91.1110056,242.862144 90.5048828,242.477051 C89.89876,242.091958 89.4282243,241.54281 89.0932617,240.82959 C88.7582991,240.11637 88.5862631,239.290369 88.5771484,238.351562 L88.5771484,237.633789 C88.5771484,236.676753 88.7434879,235.831384 89.0761719,235.097656 C89.4088558,234.363929 89.8793915,233.802248 90.487793,233.412598 C91.0961944,233.022947 91.7923138,232.828125 92.5761719,232.828125 C93.3782592,232.828125 94.0834931,233.021808 94.6918945,233.40918 C95.300296,233.796551 95.768553,234.353675 96.0966797,235.080566 C96.4248063,235.807458 96.5888672,236.656245 96.5888672,237.626953 L96.5888672,238.262695 Z M95.2763672,237.620117 C95.2763672,236.448887 95.0428083,235.545413 94.5756836,234.909668 C94.1085589,234.273923 93.4420616,233.956055 92.5761719,233.956055 C91.751298,233.956055 91.1007511,234.271644 90.6245117,234.902832 C90.1482724,235.53402 89.9033204,236.410151 89.8896484,237.53125 L89.8896484,238.262695 C89.8896484,239.402024 90.1277645,240.299801 90.6040039,240.956055 C91.0802433,241.612308 91.7421833,241.94043 92.5898438,241.94043 C93.4375042,241.94043 94.0937477,241.631676 94.5585938,241.01416 C95.0234398,240.396644 95.2626952,239.511399 95.2763672,238.358398 L95.2763672,237.620117 Z M100.731445,239.158203 C100.731445,237.996088 100.998044,237.076664 101.53125,236.399902 C102.064456,235.723141 102.779943,235.384766 103.677734,235.384766 C104.552739,235.384766 105.243162,235.678708 105.749023,236.266602 L105.803711,235.521484 L106.96582,235.521484 L106.96582,245.761719 L105.701172,245.761719 L105.701172,242.234375 C105.190753,242.781253 104.511723,243.054688 103.664062,243.054688 C102.770829,243.054688 102.058759,242.707197 101.527832,242.012207 C100.996905,241.317217 100.731445,240.395514 100.731445,239.24707 L100.731445,239.158203 Z M101.996094,239.301758 C101.996094,240.149418 102.174966,240.814776 102.532715,241.297852 C102.890464,241.780927 103.372393,242.022461 103.978516,242.022461 C104.730473,242.022461 105.304686,241.689782 105.701172,241.024414 L105.701172,237.401367 C105.300128,236.749671 104.730472,236.423828 103.992188,236.423828 C103.381507,236.423828 102.896161,236.666501 102.536133,237.151855 C102.176105,237.637209 101.996094,238.353836 101.996094,239.301758 Z M121.560547,238.891602 L119.222656,238.891602 L119.222656,242.917969 L117.90332,242.917969 L117.90332,232.964844 L121.198242,232.964844 C122.319342,232.964844 123.1818,233.22005 123.785645,233.730469 C124.389489,234.240888 124.691406,234.983719 124.691406,235.958984 C124.691406,236.578779 124.523927,237.118813 124.188965,237.579102 C123.854002,238.03939 123.388024,238.383462 122.791016,238.611328 L125.128906,242.835938 L125.128906,242.917969 L123.720703,242.917969 L121.560547,238.891602 Z M119.222656,237.818359 L121.239258,237.818359 C121.890954,237.818359 122.409341,237.649741 122.794434,237.3125 C123.179527,236.975259 123.37207,236.524091 123.37207,235.958984 C123.37207,235.343747 123.188641,234.872072 122.821777,234.543945 C122.454914,234.215819 121.925134,234.049479 121.232422,234.044922 L119.222656,234.044922 L119.222656,237.818359 Z M132.532227,236.65625 C132.340819,236.624349 132.133465,236.608398 131.910156,236.608398 C131.080725,236.608398 130.517905,236.961585 130.22168,237.667969 L130.22168,242.917969 L128.957031,242.917969 L128.957031,235.521484 L130.1875,235.521484 L130.208008,236.375977 C130.622723,235.715166 131.210608,235.384766 131.97168,235.384766 C132.217775,235.384766 132.404622,235.416666 132.532227,235.480469 L132.532227,236.65625 Z M145.541016,238.481445 C144.415359,238.157876 143.596194,237.760256 143.083496,237.288574 C142.570798,236.816892 142.314453,236.234704 142.314453,235.541992 C142.314453,234.758134 142.627764,234.109866 143.254395,233.597168 C143.881025,233.08447 144.695633,232.828125 145.698242,232.828125 C146.381839,232.828125 146.991371,232.960285 147.526855,233.224609 C148.06234,233.488934 148.477049,233.853513 148.770996,234.318359 C149.064943,234.783205 149.211914,235.291338 149.211914,235.842773 L147.892578,235.842773 C147.892578,235.241208 147.701174,234.768394 147.318359,234.424316 C146.935545,234.080239 146.395511,233.908203 145.698242,233.908203 C145.051104,233.908203 144.546389,234.050617 144.184082,234.335449 C143.821776,234.620281 143.640625,235.015622 143.640625,235.521484 C143.640625,235.927085 143.812661,236.270018 144.156738,236.550293 C144.500816,236.830568 145.086422,237.086913 145.913574,237.319336 C146.740727,237.551759 147.387856,237.808104 147.85498,238.088379 C148.322105,238.368654 148.668456,238.695636 148.894043,239.069336 C149.11963,239.443036 149.232422,239.88281 149.232422,240.388672 C149.232422,241.195317 148.917972,241.841306 148.289062,242.32666 C147.660153,242.812014 146.819341,243.054688 145.766602,243.054688 C145.083004,243.054688 144.44499,242.923667 143.852539,242.661621 C143.260088,242.399576 142.803224,242.040692 142.481934,241.584961 C142.160643,241.129229 142,240.611982 142,240.033203 L143.319336,240.033203 C143.319336,240.634769 143.541502,241.109862 143.98584,241.458496 C144.430178,241.807131 145.023759,241.981445 145.766602,241.981445 C146.459313,241.981445 146.990233,241.840171 147.359375,241.557617 C147.728517,241.275064 147.913086,240.889976 147.913086,240.402344 C147.913086,239.914711 147.742189,239.537599 147.400391,239.270996 C147.058592,239.004393 146.438807,238.741212 145.541016,238.481445 Z M157.647461,240.956055 C157.647461,240.614256 157.518719,240.348797 157.26123,240.159668 C157.003742,239.970539 156.554853,239.807618 155.914551,239.670898 C155.274248,239.534179 154.766115,239.370118 154.390137,239.178711 C154.014158,238.987304 153.736166,238.759441 153.556152,238.495117 C153.376138,238.230793 153.286133,237.916343 153.286133,237.551758 C153.286133,236.945635 153.542478,236.432945 154.055176,236.013672 C154.567874,235.594399 155.222978,235.384766 156.020508,235.384766 C156.859054,235.384766 157.539223,235.601235 158.061035,236.03418 C158.582848,236.467125 158.84375,237.02083 158.84375,237.695312 L157.572266,237.695312 C157.572266,237.348957 157.425294,237.050457 157.131348,236.799805 C156.837401,236.549152 156.467125,236.423828 156.020508,236.423828 C155.560219,236.423828 155.200197,236.524088 154.94043,236.724609 C154.680663,236.925131 154.550781,237.187173 154.550781,237.510742 C154.550781,237.816082 154.671548,238.046223 154.913086,238.201172 C155.154624,238.356121 155.59098,238.504231 156.222168,238.645508 C156.853356,238.786785 157.364907,238.955403 157.756836,239.151367 C158.148765,239.347332 158.439289,239.583169 158.628418,239.858887 C158.817547,240.134604 158.912109,240.470701 158.912109,240.867188 C158.912109,241.527998 158.647789,242.057778 158.119141,242.456543 C157.590492,242.855308 156.904627,243.054688 156.061523,243.054688 C155.469073,243.054688 154.944989,242.949871 154.489258,242.740234 C154.033526,242.530598 153.676922,242.237795 153.419434,241.861816 C153.161945,241.485838 153.033203,241.079104 153.033203,240.641602 L154.297852,240.641602 C154.320638,241.065432 154.490396,241.401529 154.807129,241.649902 C155.123862,241.898276 155.54199,242.022461 156.061523,242.022461 C156.540041,242.022461 156.923989,241.925619 157.213379,241.731934 C157.502768,241.538248 157.647461,241.279624 157.647461,240.956055 Z M176.077148,234.044922 L172.87793,234.044922 L172.87793,242.917969 L171.572266,242.917969 L171.572266,234.044922 L168.379883,234.044922 L168.379883,232.964844 L176.077148,232.964844 L176.077148,234.044922 Z M181.696289,233.730469 L181.696289,235.521484 L183.077148,235.521484 L183.077148,236.499023 L181.696289,236.499023 L181.696289,241.085938 C181.696289,241.382163 181.757812,241.604329 181.880859,241.752441 C182.003907,241.900554 182.21354,241.974609 182.509766,241.974609 C182.6556,241.974609 182.856119,241.947266 183.111328,241.892578 L183.111328,242.917969 C182.778644,243.009115 182.45508,243.054688 182.140625,243.054688 C181.575518,243.054688 181.149415,242.883791 180.862305,242.541992 C180.575194,242.200194 180.431641,241.714847 180.431641,241.085938 L180.431641,236.499023 L179.084961,236.499023 L179.084961,235.521484 L180.431641,235.521484 L180.431641,233.730469 L181.696289,233.730469 Z M200.474609,232.964844 L200.474609,239.732422 C200.470052,240.671229 200.17497,241.439125 199.589355,242.036133 C199.003741,242.633141 198.20964,242.968099 197.207031,243.041016 L196.858398,243.054688 C195.7692,243.054688 194.901045,242.760745 194.253906,242.172852 C193.606768,241.584958 193.278646,240.776047 193.269531,239.746094 L193.269531,232.964844 L194.568359,232.964844 L194.568359,239.705078 C194.568359,240.425134 194.7666,240.984536 195.163086,241.383301 C195.559572,241.782066 196.124671,241.981445 196.858398,241.981445 C197.601241,241.981445 198.169757,241.783205 198.563965,241.386719 C198.958173,240.990232 199.155273,240.43197 199.155273,239.711914 L199.155273,232.964844 L200.474609,232.964844 Z M209.539062,242.186523 C209.046873,242.765302 208.324549,243.054688 207.37207,243.054688 C206.583655,243.054688 205.983238,242.825686 205.570801,242.367676 C205.158364,241.909666 204.94987,241.231775 204.945312,240.333984 L204.945312,235.521484 L206.209961,235.521484 L206.209961,240.299805 C206.209961,241.420904 206.665686,241.981445 207.577148,241.981445 C208.543299,241.981445 209.185871,241.621423 209.504883,240.901367 L209.504883,235.521484 L210.769531,235.521484 L210.769531,242.917969 L209.566406,242.917969 L209.539062,242.186523 Z M224.899414,241.174805 L227.743164,232.964844 L229.178711,232.964844 L225.487305,242.917969 L224.325195,242.917969 L220.640625,232.964844 L222.069336,232.964844 L224.899414,241.174805 Z M235.303711,241.202148 L237.135742,235.521484 L238.427734,235.521484 L235.775391,242.917969 L234.811523,242.917969 L232.131836,235.521484 L233.423828,235.521484 L235.303711,241.202148 Z M250.705078,239.780273 L250.896484,241.092773 L251.176758,239.910156 L253.145508,232.964844 L254.25293,232.964844 L256.173828,239.910156 L256.447266,241.113281 L256.65918,239.773438 L258.204102,232.964844 L259.523438,232.964844 L257.110352,242.917969 L255.914062,242.917969 L253.863281,235.665039 L253.706055,234.90625 L253.548828,235.665039 L251.422852,242.917969 L250.226562,242.917969 L247.820312,232.964844 L249.132812,232.964844 L250.705078,239.780273 Z M269.955078,241.174805 L271.376953,235.521484 L272.641602,235.521484 L270.488281,242.917969 L269.462891,242.917969 L267.665039,237.3125 L265.915039,242.917969 L264.889648,242.917969 L262.743164,235.521484 L264.000977,235.521484 L265.457031,241.058594 L267.179688,235.521484 L268.198242,235.521484 L269.955078,241.174805 Z M286.087891,236.779297 L288.473633,232.964844 L290.018555,232.964844 L286.874023,237.900391 L290.09375,242.917969 L288.535156,242.917969 L286.087891,239.035156 L283.626953,242.917969 L282.075195,242.917969 L285.301758,237.900391 L282.150391,232.964844 L283.688477,232.964844 L286.087891,236.779297 Z M296.526367,238.22168 L298.166992,235.521484 L299.643555,235.521484 L297.223633,239.178711 L299.71875,242.917969 L298.255859,242.917969 L296.546875,240.149414 L294.837891,242.917969 L293.368164,242.917969 L295.863281,239.178711 L293.443359,235.521484 L294.90625,235.521484 L296.526367,238.22168 Z M312.932617,237.961914 L315.530273,232.964844 L317.020508,232.964844 L313.588867,239.206055 L313.588867,242.917969 L312.276367,242.917969 L312.276367,239.206055 L308.844727,232.964844 L310.348633,232.964844 L312.932617,237.961914 Z M323.015625,241.06543 L324.738281,235.521484 L326.091797,235.521484 L323.118164,244.05957 C322.657875,245.290045 321.926437,245.905273 320.923828,245.905273 L320.68457,245.884766 L320.212891,245.795898 L320.212891,244.770508 L320.554688,244.797852 C320.983075,244.797852 321.316893,244.711264 321.556152,244.538086 C321.795411,244.364908 321.992512,244.048179 322.147461,243.587891 L322.427734,242.835938 L319.789062,235.521484 L321.169922,235.521484 L323.015625,241.06543 Z M337.118164,241.844727 L342.8125,241.844727 L342.8125,242.917969 L335.566406,242.917969 L335.566406,241.933594 L341.021484,234.044922 L335.655273,234.044922 L335.655273,232.964844 L342.59375,232.964844 L342.59375,233.928711 L337.118164,241.844727 Z M348.130859,241.885742 L352.458008,241.885742 L352.458008,242.917969 L346.585938,242.917969 L346.585938,241.988281 L350.666992,236.567383 L346.647461,236.567383 L346.647461,235.521484 L352.25293,235.521484 L352.25293,236.416992 L348.130859,241.885742 Z M8.87695312,277.672852 C8.87695312,279.153979 8.62402597,280.254554 8.11816406,280.974609 C7.61230216,281.694665 6.82161996,282.054688 5.74609375,282.054688 C4.68423948,282.054688 3.89811453,281.70264 3.38769531,280.998535 C2.87727609,280.29443 2.61295582,279.242846 2.59472656,277.84375 L2.59472656,276.155273 C2.59472656,274.692375 2.84765372,273.605472 3.35351562,272.894531 C3.85937753,272.18359 4.65233835,271.828125 5.73242188,271.828125 C6.80339077,271.828125 7.59179435,272.171058 8.09765625,272.856934 C8.60351815,273.542809 8.86328118,274.60123 8.87695312,276.032227 L8.87695312,277.672852 Z M7.61230469,275.943359 C7.61230469,274.87239 7.46191557,274.091962 7.16113281,273.602051 C6.86035006,273.112139 6.38411784,272.867188 5.73242188,272.867188 C5.08528322,272.867188 4.61360825,273.111 4.31738281,273.598633 C4.02115737,274.086265 3.86848963,274.835932 3.859375,275.847656 L3.859375,277.871094 C3.859375,278.94662 4.01546068,279.74072 4.32763672,280.253418 C4.63981276,280.766116 5.11262704,281.022461 5.74609375,281.022461 C6.37044583,281.022461 6.83414562,280.780927 7.13720703,280.297852 C7.44026844,279.814776 7.59863274,279.053716 7.61230469,278.014648 L7.61230469,275.943359 Z M23.3691406,281.917969 L22.0976562,281.917969 L22.0976562,273.489258 L19.5478516,274.425781 L19.5478516,273.277344 L23.1708984,271.916992 L23.3691406,271.916992 L23.3691406,281.917969 Z M42.3115234,281.917969 L35.7900391,281.917969 L35.7900391,281.008789 L39.2353516,277.180664 C39.7457708,276.601885 40.097818,276.131349 40.2915039,275.769043 C40.4851898,275.406736 40.5820312,275.031903 40.5820312,274.644531 C40.5820312,274.124997 40.4248063,273.698895 40.1103516,273.366211 C39.7958969,273.033527 39.3766302,272.867188 38.8525391,272.867188 C38.2236297,272.867188 37.734865,273.046059 37.3862305,273.403809 C37.0375959,273.761558 36.8632812,274.259437 36.8632812,274.897461 L35.5986328,274.897461 C35.5986328,273.981441 35.8937145,273.240888 36.4838867,272.675781 C37.0740589,272.110674 37.8636018,271.828125 38.8525391,271.828125 C39.7776739,271.828125 40.5091119,272.070798 41.046875,272.556152 C41.5846381,273.041506 41.8535156,273.687496 41.8535156,274.494141 C41.8535156,275.473963 41.2291729,276.640618 39.9804688,277.994141 L37.3144531,280.885742 L42.3115234,280.885742 L42.3115234,281.917969 Z M54.2060547,276.326172 L55.15625,276.326172 C55.7532582,276.317057 56.2226545,276.159832 56.5644531,275.854492 C56.9062517,275.549152 57.0771484,275.136721 57.0771484,274.617188 C57.0771484,273.450515 56.4960996,272.867188 55.3339844,272.867188 C54.7871066,272.867188 54.3507503,273.023273 54.0249023,273.335449 C53.6990544,273.647625 53.5361328,274.061195 53.5361328,274.576172 L52.2714844,274.576172 C52.2714844,273.787756 52.5597302,273.132652 53.1362305,272.61084 C53.7127307,272.089027 54.4453081,271.828125 55.3339844,271.828125 C56.2727912,271.828125 57.0087864,272.076495 57.5419922,272.573242 C58.075198,273.069989 58.3417969,273.760412 58.3417969,274.644531 C58.3417969,275.077476 58.2016616,275.496743 57.9213867,275.902344 C57.6411119,276.307945 57.2594425,276.611002 56.7763672,276.811523 C57.3232449,276.984701 57.7459295,277.271808 58.0444336,277.672852 C58.3429377,278.073895 58.4921875,278.563799 58.4921875,279.142578 C58.4921875,280.035812 58.2005238,280.744464 57.6171875,281.268555 C57.0338512,281.792646 56.2750698,282.054688 55.3408203,282.054688 C54.4065708,282.054688 53.6466501,281.80176 53.0610352,281.295898 C52.4754202,280.790037 52.1826172,280.1224 52.1826172,279.292969 L53.4541016,279.292969 C53.4541016,279.81706 53.6249983,280.236327 53.9667969,280.550781 C54.3085955,280.865236 54.7665987,281.022461 55.3408203,281.022461 C55.9515004,281.022461 56.4186182,280.862957 56.7421875,280.543945 C57.0657568,280.224933 57.2275391,279.76693 57.2275391,279.169922 C57.2275391,278.591143 57.0498065,278.146811 56.6943359,277.836914 C56.3388654,277.527017 55.8261752,277.367513 55.15625,277.358398 L54.2060547,277.358398 L54.2060547,276.326172 Z M74.2832031,278.575195 L75.6640625,278.575195 L75.6640625,279.607422 L74.2832031,279.607422 L74.2832031,281.917969 L73.0117188,281.917969 L73.0117188,279.607422 L68.4794922,279.607422 L68.4794922,278.862305 L72.9365234,271.964844 L74.2832031,271.964844 L74.2832031,278.575195 Z M69.9150391,278.575195 L73.0117188,278.575195 L73.0117188,273.694336 L72.8613281,273.967773 L69.9150391,278.575195 Z M86.1025391,276.927734 L86.6083984,271.964844 L91.7080078,271.964844 L91.7080078,273.133789 L87.6816406,273.133789 L87.3808594,275.847656 C87.868492,275.560545 88.4221974,275.416992 89.0419922,275.416992 C89.9488978,275.416992 90.6689426,275.716631 91.2021484,276.315918 C91.7353542,276.915205 92.0019531,277.725255 92.0019531,278.746094 C92.0019531,279.77149 91.7251004,280.579261 91.1713867,281.169434 C90.617673,281.759606 89.8440805,282.054688 88.8505859,282.054688 C87.9710242,282.054688 87.253258,281.810875 86.6972656,281.323242 C86.1412733,280.83561 85.8245447,280.161137 85.7470703,279.299805 L86.9433594,279.299805 C87.0208337,279.869469 87.2236312,280.298989 87.5517578,280.588379 C87.8798845,280.877768 88.3128228,281.022461 88.8505859,281.022461 C89.4384795,281.022461 89.8999007,280.821942 90.2348633,280.420898 C90.5698259,280.019855 90.7373047,279.466149 90.7373047,278.759766 C90.7373047,278.094398 90.5561542,277.560061 90.1938477,277.156738 C89.8315412,276.753416 89.3496124,276.551758 88.7480469,276.551758 C88.1966118,276.551758 87.7636734,276.672525 87.4492188,276.914062 L87.1142578,277.1875 L86.1025391,276.927734 Z M107.061523,271.958008 L107.061523,273.03125 L106.829102,273.03125 C105.844722,273.049479 105.060875,273.341143 104.477539,273.90625 C103.894203,274.471357 103.556967,275.266596 103.46582,276.291992 C103.989911,275.690427 104.705399,275.389648 105.612305,275.389648 C106.478194,275.389648 107.169757,275.694984 107.687012,276.305664 C108.204267,276.916344 108.462891,277.704748 108.462891,278.670898 C108.462891,279.696294 108.183759,280.516598 107.625488,281.131836 C107.067217,281.747073 106.31869,282.054688 105.379883,282.054688 C104.427404,282.054688 103.654951,281.688969 103.0625,280.95752 C102.470049,280.226071 102.173828,279.28386 102.173828,278.130859 L102.173828,277.645508 C102.173828,275.813467 102.564612,274.413254 103.346191,273.444824 C104.127771,272.476395 105.291008,271.980794 106.835938,271.958008 L107.061523,271.958008 Z M105.400391,276.442383 C104.967446,276.442383 104.568687,276.572264 104.204102,276.832031 C103.839516,277.091798 103.586589,277.417641 103.445312,277.80957 L103.445312,278.274414 C103.445312,279.094731 103.629881,279.755531 103.999023,280.256836 C104.368166,280.758141 104.828448,281.008789 105.379883,281.008789 C105.949547,281.008789 106.397297,280.799156 106.723145,280.379883 C107.048993,279.96061 107.211914,279.411462 107.211914,278.732422 C107.211914,278.048825 107.046714,277.496259 106.716309,277.074707 C106.385903,276.653155 105.947268,276.442383 105.400391,276.442383 Z M125.101562,272.675781 L120.979492,281.917969 L119.65332,281.917969 L123.761719,273.003906 L118.375,273.003906 L118.375,271.964844 L125.101562,271.964844 L125.101562,272.675781 Z M141.289062,274.5625 C141.289062,275.059247 141.158042,275.5013 140.895996,275.888672 C140.633951,276.276044 140.279625,276.5791 139.833008,276.797852 C140.352542,277.02116 140.763833,277.347003 141.066895,277.775391 C141.369956,278.203778 141.521484,278.689125 141.521484,279.231445 C141.521484,280.092778 141.23096,280.778643 140.649902,281.289062 C140.068845,281.799482 139.304367,282.054688 138.356445,282.054688 C137.399409,282.054688 136.632653,281.798342 136.056152,281.285645 C135.479652,280.772947 135.191406,280.08822 135.191406,279.231445 C135.191406,278.693682 135.338377,278.208335 135.632324,277.775391 C135.926271,277.342446 136.333005,277.014324 136.852539,276.791016 C136.41048,276.572265 136.06185,276.269208 135.806641,275.881836 C135.551431,275.494464 135.423828,275.05469 135.423828,274.5625 C135.423828,273.723954 135.692706,273.058596 136.230469,272.566406 C136.768232,272.074216 137.476884,271.828125 138.356445,271.828125 C139.23145,271.828125 139.938962,272.074216 140.479004,272.566406 C141.019046,273.058596 141.289062,273.723954 141.289062,274.5625 Z M140.256836,279.204102 C140.256836,278.648109 140.080243,278.194663 139.727051,277.84375 C139.373859,277.492837 138.912438,277.317383 138.342773,277.317383 C137.773109,277.317383 137.316245,277.490558 136.972168,277.836914 C136.628091,278.18327 136.456055,278.638995 136.456055,279.204102 C136.456055,279.769209 136.623533,280.21354 136.958496,280.537109 C137.293459,280.860679 137.759437,281.022461 138.356445,281.022461 C138.948896,281.022461 139.413735,280.859539 139.750977,280.533691 C140.088218,280.207843 140.256836,279.764651 140.256836,279.204102 Z M138.356445,272.867188 C137.859698,272.867188 137.457521,273.020995 137.149902,273.328613 C136.842284,273.636232 136.688477,274.054359 136.688477,274.583008 C136.688477,275.08887 136.840005,275.497883 137.143066,275.810059 C137.446128,276.122235 137.850583,276.27832 138.356445,276.27832 C138.862307,276.27832 139.266763,276.122235 139.569824,275.810059 C139.872886,275.497883 140.024414,275.08887 140.024414,274.583008 C140.024414,274.077146 139.867189,273.664715 139.552734,273.345703 C139.23828,273.026691 138.839521,272.867188 138.356445,272.867188 Z M156.676758,277.542969 C156.412434,277.857423 156.096844,278.110351 155.72998,278.301758 C155.363117,278.493165 154.96094,278.588867 154.523438,278.588867 C153.949216,278.588867 153.449058,278.447593 153.022949,278.165039 C152.59684,277.882486 152.267579,277.484866 152.035156,276.972168 C151.802733,276.45947 151.686523,275.893232 151.686523,275.273438 C151.686523,274.60807 151.812987,274.008792 152.065918,273.475586 C152.318849,272.94238 152.677732,272.534507 153.142578,272.251953 C153.607424,271.9694 154.149736,271.828125 154.769531,271.828125 C155.753911,271.828125 156.529782,272.196123 157.097168,272.932129 C157.664554,273.668135 157.948242,274.671869 157.948242,275.943359 L157.948242,276.3125 C157.948242,278.249359 157.565434,279.663244 156.799805,280.554199 C156.034176,281.445154 154.878914,281.902018 153.333984,281.924805 L153.087891,281.924805 L153.087891,280.858398 L153.354492,280.858398 C154.398117,280.840169 155.200193,280.567874 155.760742,280.041504 C156.321292,279.515134 156.626627,278.682297 156.676758,277.542969 Z M154.728516,277.542969 C155.152346,277.542969 155.54313,277.413087 155.900879,277.15332 C156.258628,276.893553 156.51953,276.572268 156.683594,276.189453 L156.683594,275.683594 C156.683594,274.854163 156.503583,274.17969 156.143555,273.660156 C155.783527,273.140622 155.327802,272.880859 154.776367,272.880859 C154.220375,272.880859 153.773765,273.093911 153.436523,273.52002 C153.099282,273.946128 152.930664,274.507809 152.930664,275.205078 C152.930664,275.884118 153.093586,276.44352 153.419434,276.883301 C153.745282,277.323082 154.181638,277.542969 154.728516,277.542969 Z" id="Aa-Bb-Cc-Dd-Ee-Ff-Gg"></path>
            </g>
        </g>
    </g>
</svg>