<?xml version="1.0" encoding="UTF-8"?>
<svg width="357px" height="292px" viewBox="0 0 357 292" version="1.1" xmlns="http://www.w3.org/2000/svg" xmlns:xlink="http://www.w3.org/1999/xlink">
    <!-- Generator: Sketch 52.6 (67491) - http://www.bohemiancoding.com/sketch -->
    <title>Group 2</title>
    <desc>Created with Sketch.</desc>
    <g id="Symbols" stroke="none" stroke-width="1" fill="none" fill-rule="evenodd">
        <g id="Abc" fill="#171717">
            <g id="Group-2">
                <path d="M92.96875,120.703125 L41.6015625,120.703125 L31.8359375,150 L0.68359375,150 L53.6132812,7.8125 L80.7617188,7.8125 L133.984375,150 L102.832031,150 L92.96875,120.703125 Z M49.5117188,96.9726562 L85.0585938,96.9726562 L67.1875,43.75 L49.5117188,96.9726562 Z M240.411667,98.1445312 C240.411667,115.071699 236.798421,128.271437 229.571823,137.744141 C222.345224,147.216844 212.254179,151.953125 199.298385,151.953125 C187.839995,151.953125 178.692951,147.558638 171.856979,138.769531 L170.587448,150 L145.196823,150 L145.196823,0 L173.419479,0 L173.419479,53.8085937 C179.929928,46.1913682 188.491041,42.3828125 199.103073,42.3828125 C211.993762,42.3828125 222.101083,47.1190933 229.425338,56.5917969 C236.749594,66.0645005 240.411667,79.3944453 240.411667,96.5820312 L240.411667,98.1445312 Z M212.18901,96.09375 C212.18901,85.4166133 210.496319,77.6204673 207.110885,72.7050781 C203.725452,67.789689 198.679929,65.3320312 191.974167,65.3320312 C182.989747,65.3320312 176.804913,69.0103799 173.419479,76.3671875 L173.419479,118.066406 C176.870017,125.488318 183.119955,129.199219 192.169479,129.199219 C201.284108,129.199219 207.273631,124.707076 210.138229,115.722656 C211.505423,111.42576 212.18901,104.882856 212.18901,96.09375 Z M301.526458,129.199219 C306.734818,129.199219 310.966546,127.766941 314.221771,124.902344 C317.476995,122.037746 319.169687,118.22919 319.299896,113.476562 L345.764739,113.476562 C345.699635,120.638057 343.746529,127.197236 339.905364,133.154297 C336.064199,139.111358 330.807091,143.733708 324.13388,147.021484 C317.46067,150.309261 310.087696,151.953125 302.014739,151.953125 C286.910497,151.953125 274.996554,147.151741 266.272552,137.548828 C257.54855,127.945916 253.186614,114.681074 253.186614,97.7539062 L253.186614,95.8984375 C253.186614,79.6223145 257.515998,66.6341631 266.174896,56.9335938 C274.833793,47.2330244 286.715185,42.3828125 301.819427,42.3828125 C315.035639,42.3828125 325.631236,46.1425405 333.606536,53.6621094 C341.581837,61.1816782 345.63453,71.1913437 345.764739,83.6914062 L319.299896,83.6914062 C319.169687,78.2226289 317.476995,73.779314 314.221771,70.3613281 C310.966546,66.9433423 306.669714,65.234375 301.331146,65.234375 C294.755592,65.234375 289.791449,67.6269292 286.438568,72.4121094 C283.085686,77.1972896 281.409271,84.9608838 281.409271,95.703125 L281.409271,98.6328125 C281.409271,109.505263 283.06941,117.317685 286.389739,122.070312 C289.710069,126.82294 294.755591,129.199219 301.526458,129.199219 Z" id="Abc"></path>
                <path d="M8.5078125,210.949219 L4.91210938,210.949219 L4.22851562,213 L2.04785156,213 L5.75292969,203.046875 L7.65332031,203.046875 L11.3789062,213 L9.19824219,213 L8.5078125,210.949219 Z M5.46582031,209.288086 L7.95410156,209.288086 L6.703125,205.5625 L5.46582031,209.288086 Z M19.0898438,213 C18.9986975,212.822265 18.9326174,212.601238 18.8916016,212.336914 C18.4130835,212.87012 17.7910195,213.136719 17.0253906,213.136719 C16.3007776,213.136719 15.7003605,212.927085 15.2241211,212.507812 C14.7478817,212.08854 14.5097656,211.559899 14.5097656,210.921875 C14.5097656,210.138017 14.8002901,209.53646 15.3813477,209.117188 C15.9624052,208.697915 16.8020778,208.486003 17.9003906,208.481445 L18.8095703,208.481445 L18.8095703,208.057617 C18.8095703,207.715819 18.7218433,207.442384 18.5463867,207.237305 C18.3709301,207.032226 18.0940774,206.929688 17.7158203,206.929688 C17.3831364,206.929688 17.122234,207.009439 16.9331055,207.168945 C16.7439769,207.328451 16.6494141,207.547199 16.6494141,207.825195 L14.6738281,207.825195 C14.6738281,207.396808 14.8059883,207.000327 15.0703125,206.635742 C15.3346367,206.271157 15.7083309,205.98519 16.1914062,205.777832 C16.6744816,205.570474 17.2167939,205.466797 17.8183594,205.466797 C18.7298223,205.466797 19.4532851,205.695798 19.9887695,206.153809 C20.524254,206.611819 20.7919922,207.25553 20.7919922,208.084961 L20.7919922,211.291016 C20.7965495,211.992842 20.8945303,212.523761 21.0859375,212.883789 L21.0859375,213 L19.0898438,213 Z M17.4560547,211.625977 C17.7477228,211.625977 18.0166003,211.561036 18.2626953,211.431152 C18.5087903,211.301269 18.6910801,211.126954 18.8095703,210.908203 L18.8095703,209.636719 L18.0712891,209.636719 C17.0823518,209.636719 16.5559899,209.978512 16.4921875,210.662109 L16.4853516,210.77832 C16.4853516,211.024415 16.5719392,211.227213 16.7451172,211.386719 C16.9182951,211.546225 17.1552719,211.625977 17.4560547,211.625977 Z M31.1757812,213 L31.1757812,203.046875 L34.6621094,203.046875 C35.8697977,203.046875 36.7858042,203.278155 37.4101562,203.740723 C38.0345083,204.20329 38.3466797,204.88118 38.3466797,205.774414 C38.3466797,206.262047 38.2213554,206.691567 37.9707031,207.062988 C37.7200508,207.434409 37.3714215,207.706705 36.9248047,207.879883 C37.4352239,208.007488 37.8374009,208.264972 38.1313477,208.652344 C38.4252944,209.039715 38.5722656,209.513669 38.5722656,210.074219 C38.5722656,211.031255 38.2669301,211.755857 37.65625,212.248047 C37.0455699,212.740237 36.1751359,212.990885 35.0449219,213 L31.1757812,213 Z M33.2265625,208.666016 L33.2265625,211.352539 L34.9833984,211.352539 C35.4664738,211.352539 35.8435859,211.237469 36.1147461,211.007324 C36.3859063,210.77718 36.5214844,210.459312 36.5214844,210.053711 C36.5214844,209.142248 36.0498094,208.679688 35.1064453,208.666016 L33.2265625,208.666016 Z M33.2265625,207.216797 L34.7441406,207.216797 C35.778651,207.198568 36.2958984,206.786137 36.2958984,205.979492 C36.2958984,205.528318 36.1648776,205.203614 35.902832,205.005371 C35.6407865,204.807128 35.2272164,204.708008 34.6621094,204.708008 L33.2265625,204.708008 L33.2265625,207.216797 Z M49.2705078,209.370117 C49.2705078,210.555019 49.0175807,211.479001 48.5117188,212.14209 C48.0058568,212.805179 47.2994837,213.136719 46.3925781,213.136719 C45.5904908,213.136719 44.9501977,212.829105 44.4716797,212.213867 L44.3828125,213 L42.6054688,213 L42.6054688,202.5 L44.5810547,202.5 L44.5810547,206.266602 C45.0367861,205.733396 45.636064,205.466797 46.3789062,205.466797 C47.2812545,205.466797 47.988767,205.798337 48.5014648,206.461426 C49.0141627,207.124515 49.2705078,208.057611 49.2705078,209.260742 L49.2705078,209.370117 Z M47.2949219,209.226562 C47.2949219,208.479163 47.1764335,207.933433 46.9394531,207.589355 C46.7024728,207.245278 46.3492862,207.073242 45.8798828,207.073242 C45.2509734,207.073242 44.818035,207.330727 44.5810547,207.845703 L44.5810547,210.764648 C44.8225924,211.284182 45.260088,211.543945 45.8935547,211.543945 C46.5315787,211.543945 46.9508454,211.229495 47.1513672,210.600586 C47.2470708,210.299803 47.2949219,209.8418 47.2949219,209.226562 Z M67.1669922,209.68457 C67.0895178,210.755539 66.6941767,211.59863 65.980957,212.213867 C65.2677373,212.829105 64.3278053,213.136719 63.1611328,213.136719 C61.8850848,213.136719 60.8813513,212.707198 60.1499023,211.848145 C59.4184534,210.989091 59.0527344,209.809903 59.0527344,208.310547 L59.0527344,207.702148 C59.0527344,206.745112 59.2213525,205.902022 59.5585938,205.172852 C59.895835,204.443681 60.3777638,203.884279 61.0043945,203.494629 C61.6310253,203.104979 62.3590453,202.910156 63.1884766,202.910156 C64.3369198,202.910156 65.2620408,203.21777 65.9638672,203.833008 C66.6656936,204.448245 67.0712885,205.311843 67.1806641,206.423828 L65.1298828,206.423828 C65.0797524,205.781247 64.9008804,205.315268 64.5932617,205.025879 C64.285643,204.736489 63.817386,204.591797 63.1884766,204.591797 C62.5048794,204.591797 61.9933285,204.836749 61.6538086,205.32666 C61.3142887,205.816571 61.139974,206.576492 61.1308594,207.606445 L61.1308594,208.358398 C61.1308594,209.433925 61.2937809,210.22005 61.6196289,210.716797 C61.9454769,211.213544 62.4593064,211.461914 63.1611328,211.461914 C63.7945995,211.461914 64.2674138,211.317221 64.5795898,211.027832 C64.8917659,210.738443 65.0706378,210.290693 65.1162109,209.68457 L67.1669922,209.68457 Z M74.0849609,211.543945 C74.4495461,211.543945 74.7457671,211.443686 74.9736328,211.243164 C75.2014985,211.042642 75.3199869,210.776043 75.3291016,210.443359 L77.1816406,210.443359 C77.1770833,210.944664 77.0403659,211.403807 76.7714844,211.820801 C76.5026028,212.237795 76.1346052,212.56136 75.6674805,212.791504 C75.2003557,213.021648 74.6842476,213.136719 74.1191406,213.136719 C73.0618437,213.136719 72.2278676,212.800622 71.6171875,212.128418 C71.0065074,211.456214 70.7011719,210.527675 70.7011719,209.342773 L70.7011719,209.212891 C70.7011719,208.073562 71.0042287,207.164391 71.6103516,206.485352 C72.2164744,205.806312 73.0481718,205.466797 74.1054688,205.466797 C75.0306036,205.466797 75.7722954,205.729978 76.3305664,206.256348 C76.8888374,206.782717 77.172526,207.483394 77.1816406,208.358398 L75.3291016,208.358398 C75.3199869,207.975584 75.2014985,207.664552 74.9736328,207.425293 C74.7457671,207.186034 74.4449888,207.066406 74.0712891,207.066406 C73.6110003,207.066406 73.2635103,207.233885 73.0288086,207.568848 C72.7941069,207.90381 72.6767578,208.447262 72.6767578,209.199219 L72.6767578,209.404297 C72.6767578,210.165368 72.7929676,210.712238 73.0253906,211.044922 C73.2578137,211.377606 73.6110002,211.543945 74.0849609,211.543945 Z M87.1757812,213 L87.1757812,203.046875 L90.2382812,203.046875 C91.1132856,203.046875 91.8959926,203.243976 92.5864258,203.638184 C93.2768589,204.032391 93.8157533,204.592933 94.203125,205.319824 C94.5904967,206.046716 94.7841797,206.872717 94.7841797,207.797852 L94.7841797,208.255859 C94.7841797,209.180994 94.5939147,210.003577 94.2133789,210.723633 C93.8328431,211.443688 93.2962274,212.001951 92.6035156,212.398438 C91.9108038,212.794924 91.1292361,212.995443 90.2587891,213 L87.1757812,213 Z M89.2265625,204.708008 L89.2265625,211.352539 L90.2177734,211.352539 C91.0198608,211.352539 91.6328104,211.090497 92.0566406,210.566406 C92.4804709,210.042315 92.6969401,209.292648 92.7060547,208.317383 L92.7060547,207.791016 C92.7060547,206.779292 92.4964214,206.012535 92.0771484,205.490723 C91.6578755,204.96891 91.0449259,204.708008 90.2382812,204.708008 L89.2265625,204.708008 Z M98.4619141,209.24707 C98.4619141,208.09407 98.7205378,207.175785 99.237793,206.492188 C99.7550482,205.80859 100.462561,205.466797 101.360352,205.466797 C102.080407,205.466797 102.675128,205.735674 103.144531,206.273438 L103.144531,202.5 L105.126953,202.5 L105.126953,213 L103.342773,213 L103.24707,212.213867 C102.75488,212.829105 102.121423,213.136719 101.34668,213.136719 C100.476233,213.136719 99.7778347,212.793786 99.2514648,212.10791 C98.725095,211.422034 98.4619141,210.468431 98.4619141,209.24707 Z M100.4375,209.390625 C100.4375,210.083337 100.558267,210.614256 100.799805,210.983398 C101.041342,211.352541 101.39225,211.537109 101.852539,211.537109 C102.463219,211.537109 102.893879,211.279625 103.144531,210.764648 L103.144531,207.845703 C102.898436,207.330727 102.472334,207.073242 101.866211,207.073242 C100.913732,207.073242 100.4375,207.845695 100.4375,209.390625 Z M121.512695,208.686523 L117.575195,208.686523 L117.575195,211.352539 L122.196289,211.352539 L122.196289,213 L115.524414,213 L115.524414,203.046875 L122.182617,203.046875 L122.182617,204.708008 L117.575195,204.708008 L117.575195,207.080078 L121.512695,207.080078 L121.512695,208.686523 Z M129.168945,213.136719 C128.084304,213.136719 127.201338,212.80404 126.52002,212.138672 C125.838701,211.473304 125.498047,210.58692 125.498047,209.479492 L125.498047,209.288086 C125.498047,208.545244 125.6416,207.881025 125.928711,207.29541 C126.215822,206.709795 126.622556,206.258628 127.148926,205.941895 C127.675296,205.625161 128.275713,205.466797 128.950195,205.466797 C129.961919,205.466797 130.758298,205.785804 131.339355,206.423828 C131.920413,207.061852 132.210938,207.966465 132.210938,209.137695 L132.210938,209.944336 L127.500977,209.944336 C127.564779,210.427411 127.757323,210.814777 128.078613,211.106445 C128.399904,211.398113 128.806638,211.543945 129.298828,211.543945 C130.0599,211.543945 130.65462,211.268232 131.083008,210.716797 L132.053711,211.803711 C131.757485,212.222984 131.356448,212.549966 130.850586,212.784668 C130.344724,213.01937 129.784183,213.136719 129.168945,213.136719 Z M128.943359,207.066406 C128.55143,207.066406 128.233562,207.198566 127.989746,207.462891 C127.74593,207.727215 127.589844,208.105466 127.521484,208.597656 L130.269531,208.597656 L130.269531,208.44043 C130.260417,208.002927 130.141928,207.664552 129.914062,207.425293 C129.686197,207.186034 129.362632,207.066406 128.943359,207.066406 Z M148.186523,208.932617 L144.249023,208.932617 L144.249023,213 L142.198242,213 L142.198242,203.046875 L148.678711,203.046875 L148.678711,204.708008 L144.249023,204.708008 L144.249023,207.27832 L148.186523,207.27832 L148.186523,208.932617 Z M152.90332,213 L152.90332,207.052734 L151.802734,207.052734 L151.802734,205.603516 L152.90332,205.603516 L152.90332,204.974609 C152.90332,204.145178 153.141436,203.501467 153.617676,203.043457 C154.093915,202.585447 154.760412,202.356445 155.617188,202.356445 C155.890626,202.356445 156.225584,202.402018 156.62207,202.493164 L156.601562,204.024414 C156.437499,203.983398 156.23698,203.962891 156,203.962891 C155.257158,203.962891 154.885742,204.31152 154.885742,205.008789 L154.885742,205.603516 L156.355469,205.603516 L156.355469,207.052734 L154.885742,207.052734 L154.885742,213 L152.90332,213 Z M174.12207,211.742188 C173.752928,212.184247 173.231123,212.52718 172.556641,212.770996 C171.882158,213.014812 171.13477,213.136719 170.314453,213.136719 C169.453121,213.136719 168.697757,212.948732 168.04834,212.572754 C167.398923,212.196775 166.897625,211.651045 166.544434,210.935547 C166.191242,210.220049 166.010091,209.379237 166.000977,208.413086 L166.000977,207.736328 C166.000977,206.742834 166.168455,205.882653 166.503418,205.155762 C166.838381,204.42887 167.321449,203.872886 167.952637,203.487793 C168.583825,203.1027 169.323238,202.910156 170.170898,202.910156 C171.351243,202.910156 172.274085,203.191566 172.939453,203.754395 C173.604821,204.317223 173.999023,205.136388 174.12207,206.211914 L172.125977,206.211914 C172.03483,205.64225 171.833172,205.225262 171.520996,204.960938 C171.20882,204.696613 170.7793,204.564453 170.232422,204.564453 C169.535153,204.564453 169.004234,204.826495 168.639648,205.350586 C168.275063,205.874677 168.090495,206.653966 168.085938,207.688477 L168.085938,208.324219 C168.085938,209.367844 168.284178,210.156247 168.680664,210.689453 C169.07715,211.222659 169.658199,211.489258 170.423828,211.489258 C171.194014,211.489258 171.743162,211.325197 172.071289,210.99707 L172.071289,209.28125 L170.205078,209.28125 L170.205078,207.770508 L174.12207,207.770508 L174.12207,211.742188 Z M177.991211,209.24707 C177.991211,208.112299 178.261228,207.198571 178.80127,206.505859 C179.341311,205.813148 180.069331,205.466797 180.985352,205.466797 C181.796554,205.466797 182.427732,205.744789 182.878906,206.300781 L182.960938,205.603516 L184.751953,205.603516 L184.751953,212.753906 C184.751953,213.401045 184.604982,213.963865 184.311035,214.442383 C184.017088,214.920901 183.603518,215.285481 183.070312,215.536133 C182.537107,215.786785 181.912764,215.912109 181.197266,215.912109 C180.654945,215.912109 180.126305,215.803875 179.611328,215.587402 C179.096352,215.37093 178.706707,215.091799 178.442383,214.75 L179.317383,213.546875 C179.809573,214.09831 180.406572,214.374023 181.108398,214.374023 C181.63249,214.374023 182.040363,214.233888 182.332031,213.953613 C182.623699,213.673338 182.769531,213.275719 182.769531,212.760742 L182.769531,212.364258 C182.3138,212.879234 181.714522,213.136719 180.97168,213.136719 C180.083003,213.136719 179.364098,212.789229 178.814941,212.094238 C178.265785,211.399248 177.991211,210.477545 177.991211,209.329102 L177.991211,209.24707 Z M179.966797,209.390625 C179.966797,210.06055 180.101236,210.585773 180.370117,210.966309 C180.638999,211.346844 181.008136,211.537109 181.477539,211.537109 C182.079105,211.537109 182.509764,211.311526 182.769531,210.860352 L182.769531,207.75 C182.505207,207.298826 182.079105,207.073242 181.491211,207.073242 C181.01725,207.073242 180.644695,207.266925 180.373535,207.654297 C180.102375,208.041669 179.966797,208.620439 179.966797,209.390625 Z M203.236328,213 L201.185547,213 L201.185547,208.734375 L197.186523,208.734375 L197.186523,213 L195.135742,213 L195.135742,203.046875 L197.186523,203.046875 L197.186523,207.080078 L201.185547,207.080078 L201.185547,203.046875 L203.236328,203.046875 L203.236328,213 Z M209.450195,206.410156 C209.974286,205.781247 210.632809,205.466797 211.425781,205.466797 C213.029956,205.466797 213.843424,206.398754 213.866211,208.262695 L213.866211,213 L211.890625,213 L211.890625,208.317383 C211.890625,207.893553 211.79948,207.580242 211.617188,207.377441 C211.434895,207.174641 211.131838,207.073242 210.708008,207.073242 C210.129229,207.073242 209.709962,207.296547 209.450195,207.743164 L209.450195,213 L207.474609,213 L207.474609,202.5 L209.450195,202.5 L209.450195,206.410156 Z M226.40332,213 L224.352539,213 L224.352539,203.046875 L226.40332,203.046875 L226.40332,213 Z M232.883789,213 L230.901367,213 L230.901367,205.603516 L232.883789,205.603516 L232.883789,213 Z M230.785156,203.689453 C230.785156,203.393228 230.884276,203.149415 231.08252,202.958008 C231.280763,202.766601 231.55078,202.670898 231.892578,202.670898 C232.229819,202.670898 232.498697,202.766601 232.699219,202.958008 C232.899741,203.149415 233,203.393228 233,203.689453 C233,203.990236 232.898601,204.236327 232.695801,204.427734 C232.493,204.619142 232.225262,204.714844 231.892578,204.714844 C231.559894,204.714844 231.292156,204.619142 231.089355,204.427734 C230.886555,204.236327 230.785156,203.990236 230.785156,203.689453 Z M247.389648,203.046875 L249.44043,203.046875 L249.44043,209.9375 C249.44043,210.570967 249.300294,211.130369 249.02002,211.615723 C248.739745,212.101077 248.344404,212.47591 247.833984,212.740234 C247.323565,213.004559 246.747074,213.136719 246.104492,213.136719 C245.051753,213.136719 244.231448,212.868981 243.643555,212.333496 C243.055661,211.798012 242.761719,211.040369 242.761719,210.060547 L244.826172,210.060547 C244.826172,210.54818 244.92871,210.908202 245.133789,211.140625 C245.338868,211.373048 245.662433,211.489258 246.104492,211.489258 C246.496421,211.489258 246.808593,211.354819 247.041016,211.085938 C247.273439,210.817056 247.389648,210.434247 247.389648,209.9375 L247.389648,203.046875 Z M255.78418,205.603516 L255.78418,213.40332 C255.78418,214.21908 255.56771,214.853676 255.134766,215.307129 C254.701821,215.760582 254.077478,215.987305 253.261719,215.987305 C252.91992,215.987305 252.594077,215.948568 252.28418,215.871094 L252.28418,214.305664 C252.52116,214.34668 252.728515,214.367188 252.90625,214.367188 C253.503258,214.367188 253.801758,214.050459 253.801758,213.416992 L253.801758,205.603516 L255.78418,205.603516 Z M253.644531,203.689453 C253.644531,203.393228 253.743651,203.149415 253.941895,202.958008 C254.140138,202.766601 254.410155,202.670898 254.751953,202.670898 C255.093752,202.670898 255.363769,202.766601 255.562012,202.958008 C255.760255,203.149415 255.859375,203.393228 255.859375,203.689453 C255.859375,203.990236 255.757976,204.236327 255.555176,204.427734 C255.352375,204.619142 255.084637,204.714844 254.751953,204.714844 C254.419269,204.714844 254.151531,204.619142 253.94873,204.427734 C253.74593,204.236327 253.644531,203.990236 253.644531,203.689453 Z M269.3125,209.007812 L268.246094,210.15625 L268.246094,213 L266.195312,213 L266.195312,203.046875 L268.246094,203.046875 L268.246094,207.558594 L269.148438,206.321289 L271.68457,203.046875 L274.207031,203.046875 L270.672852,207.469727 L274.30957,213 L271.869141,213 L269.3125,209.007812 Z M280.263672,210.033203 L279.552734,210.744141 L279.552734,213 L277.577148,213 L277.577148,202.5 L279.552734,202.5 L279.552734,208.317383 L279.935547,207.825195 L281.829102,205.603516 L284.201172,205.603516 L281.52832,208.686523 L284.433594,213 L282.164062,213 L280.263672,210.033203 Z M295.972656,211.352539 L300.327148,211.352539 L300.327148,213 L293.921875,213 L293.921875,203.046875 L295.972656,203.046875 L295.972656,211.352539 Z M306.083008,213 L304.100586,213 L304.100586,202.5 L306.083008,202.5 L306.083008,213 Z M319.255859,203.046875 L321.8125,210.265625 L324.355469,203.046875 L327.048828,203.046875 L327.048828,213 L324.991211,213 L324.991211,210.279297 L325.196289,205.583008 L322.509766,213 L321.101562,213 L318.421875,205.589844 L318.626953,210.279297 L318.626953,213 L316.576172,213 L316.576172,203.046875 L319.255859,203.046875 Z M333.1875,205.603516 L333.249023,206.430664 C333.773115,205.788083 334.481766,205.466797 335.375,205.466797 C336.327479,205.466797 336.981444,205.84277 337.336914,206.594727 C337.856448,205.84277 338.597,205.466797 339.558594,205.466797 C340.360681,205.466797 340.95768,205.700356 341.349609,206.16748 C341.741538,206.634605 341.9375,207.33756 341.9375,208.276367 L341.9375,213 L339.955078,213 L339.955078,208.283203 C339.955078,207.86393 339.873048,207.557455 339.708984,207.36377 C339.544921,207.170084 339.255536,207.073242 338.84082,207.073242 C338.248369,207.073242 337.838217,207.355791 337.610352,207.920898 L337.617188,213 L335.641602,213 L335.641602,208.290039 C335.641602,207.861652 335.557293,207.551759 335.388672,207.360352 C335.220051,207.168944 334.932945,207.073242 334.527344,207.073242 C333.966794,207.073242 333.561199,207.305662 333.310547,207.770508 L333.310547,213 L331.334961,213 L331.334961,205.603516 L333.1875,205.603516 Z M10.9824219,252 L8.93164062,252 L4.93945312,245.451172 L4.93945312,252 L2.88867188,252 L2.88867188,242.046875 L4.93945312,242.046875 L8.93847656,248.609375 L8.93847656,242.046875 L10.9824219,242.046875 L10.9824219,252 Z M17.0869141,244.603516 L17.1484375,245.458008 C17.677086,244.797197 18.3857377,244.466797 19.2744141,244.466797 C20.0582721,244.466797 20.6415996,244.696938 21.0244141,245.157227 C21.4072285,245.617515 21.6031901,246.305659 21.6123047,247.22168 L21.6123047,252 L19.6367188,252 L19.6367188,247.269531 C19.6367188,246.850258 19.5455738,246.546062 19.3632812,246.356934 C19.1809887,246.167805 18.8779318,246.073242 18.4541016,246.073242 C17.8981092,246.073242 17.4811212,246.310219 17.203125,246.78418 L17.203125,252 L15.2275391,252 L15.2275391,244.603516 L17.0869141,244.603516 Z M40.1513672,247.249023 C40.1513672,248.228846 39.9781918,249.087887 39.6318359,249.826172 C39.28548,250.564457 38.7898795,251.134113 38.1450195,251.535156 C37.5001595,251.9362 36.7607464,252.136719 35.9267578,252.136719 C35.1018839,252.136719 34.3658887,251.938479 33.71875,251.541992 C33.0716113,251.145506 32.5703143,250.579268 32.2148438,249.843262 C31.8593732,249.107255 31.679362,248.260747 31.6748047,247.303711 L31.6748047,246.811523 C31.6748047,245.831701 31.851398,244.969242 32.2045898,244.224121 C32.5577817,243.479 33.0568002,242.907066 33.7016602,242.508301 C34.3465202,242.109536 35.0836547,241.910156 35.9130859,241.910156 C36.7425172,241.910156 37.4796517,242.109536 38.1245117,242.508301 C38.7693717,242.907066 39.2683902,243.479 39.621582,244.224121 C39.9747739,244.969242 40.1513672,245.829422 40.1513672,246.804688 L40.1513672,247.249023 Z M38.0732422,246.797852 C38.0732422,245.754227 37.8863951,244.961266 37.5126953,244.418945 C37.1389955,243.876625 36.6057977,243.605469 35.9130859,243.605469 C35.2249315,243.605469 34.6940123,243.873207 34.3203125,244.408691 C33.9466127,244.944176 33.757487,245.729161 33.7529297,246.763672 L33.7529297,247.249023 C33.7529297,248.265305 33.9397768,249.053708 34.3134766,249.614258 C34.6871763,250.174807 35.2249314,250.455078 35.9267578,250.455078 C36.6149123,250.455078 37.1435528,250.185061 37.5126953,249.64502 C37.8818378,249.104978 38.0686849,248.317714 38.0732422,247.283203 L38.0732422,246.797852 Z M43.8291016,248.233398 C43.8291016,247.499671 43.9703762,246.845706 44.2529297,246.271484 C44.5354832,245.697263 44.9422174,245.252931 45.4731445,244.938477 C46.0040717,244.624022 46.6204392,244.466797 47.3222656,244.466797 C48.3203175,244.466797 49.1349252,244.772132 49.7661133,245.382812 C50.3973013,245.993493 50.7493486,246.822911 50.8222656,247.871094 L50.8359375,248.376953 C50.8359375,249.511724 50.5192089,250.422034 49.8857422,251.10791 C49.2522755,251.793786 48.4023491,252.136719 47.3359375,252.136719 C46.2695259,252.136719 45.4184602,251.794925 44.7827148,251.111328 C44.1469695,250.427731 43.8291016,249.498053 43.8291016,248.322266 L43.8291016,248.233398 Z M45.8046875,248.376953 C45.8046875,249.07878 45.9368476,249.615395 46.2011719,249.986816 C46.4654961,250.358238 46.8437475,250.543945 47.3359375,250.543945 C47.8144555,250.543945 48.1881497,250.360516 48.4570312,249.993652 C48.7259128,249.626789 48.8603516,249.040043 48.8603516,248.233398 C48.8603516,247.545244 48.7259128,247.012046 48.4570312,246.633789 C48.1881497,246.255532 47.8098983,246.066406 47.3222656,246.066406 C46.8391903,246.066406 46.4654961,246.254393 46.2011719,246.630371 C45.9368476,247.00635 45.8046875,247.588538 45.8046875,248.376953 Z M62.9697266,248.493164 L62.9697266,252 L60.9189453,252 L60.9189453,242.046875 L64.8017578,242.046875 C65.5491574,242.046875 66.2065401,242.183592 66.7739258,242.457031 C67.3413114,242.73047 67.7776677,243.118975 68.0830078,243.622559 C68.3883479,244.126142 68.5410156,244.699216 68.5410156,245.341797 C68.5410156,246.317062 68.2071973,247.086097 67.5395508,247.648926 C66.8719042,248.211754 65.9479226,248.493164 64.7675781,248.493164 L62.9697266,248.493164 Z M62.9697266,246.832031 L64.8017578,246.832031 C65.3440782,246.832031 65.7576483,246.704428 66.0424805,246.449219 C66.3273126,246.194009 66.4697266,245.829429 66.4697266,245.355469 C66.4697266,244.867836 66.3261733,244.473634 66.0390625,244.172852 C65.7519517,243.872069 65.3554713,243.717122 64.8496094,243.708008 L62.9697266,243.708008 L62.9697266,246.832031 Z M79.1025391,248.370117 C79.1025391,249.509446 78.8439153,250.422034 78.3266602,251.10791 C77.809405,251.793786 77.111007,252.136719 76.2314453,252.136719 C75.4840457,252.136719 74.8802106,251.876956 74.4199219,251.357422 L74.4199219,254.84375 L72.4443359,254.84375 L72.4443359,244.603516 L74.2763672,244.603516 L74.3447266,245.328125 C74.8232446,244.753903 75.4475873,244.466797 76.2177734,244.466797 C77.1292363,244.466797 77.8378881,244.804033 78.34375,245.478516 C78.8496119,246.152998 79.1025391,247.082676 79.1025391,248.267578 L79.1025391,248.370117 Z M77.1269531,248.226562 C77.1269531,247.538408 77.0050468,247.007489 76.7612305,246.633789 C76.5174141,246.260089 76.1630883,246.073242 75.6982422,246.073242 C75.0784474,246.073242 74.6523449,246.310219 74.4199219,246.78418 L74.4199219,249.8125 C74.6614595,250.300133 75.0921193,250.543945 75.7119141,250.543945 C76.6552782,250.543945 77.1269531,249.771492 77.1269531,248.226562 Z M97.3544922,247.249023 C97.3544922,248.178716 97.2041031,248.986487 96.9033203,249.672363 C96.6025376,250.358239 96.1855495,250.908527 95.6523438,251.323242 L97.3066406,252.62207 L96.0009766,253.777344 L93.8818359,252.075195 C93.6402983,252.116211 93.3896497,252.136719 93.1298828,252.136719 C92.3050089,252.136719 91.5690137,251.938479 90.921875,251.541992 C90.2747363,251.145506 89.7734393,250.579268 89.4179688,249.843262 C89.0624982,249.107255 88.882487,248.260747 88.8779297,247.303711 L88.8779297,246.811523 C88.8779297,245.831701 89.054523,244.969242 89.4077148,244.224121 C89.7609067,243.479 90.2599252,242.907066 90.9047852,242.508301 C91.5496452,242.109536 92.2867797,241.910156 93.1162109,241.910156 C93.9456422,241.910156 94.6827767,242.109536 95.3276367,242.508301 C95.9724967,242.907066 96.4715152,243.479 96.824707,244.224121 C97.1778989,244.969242 97.3544922,245.829422 97.3544922,246.804688 L97.3544922,247.249023 Z M95.2763672,246.797852 C95.2763672,245.754227 95.0895201,244.961266 94.7158203,244.418945 C94.3421205,243.876625 93.8089227,243.605469 93.1162109,243.605469 C92.4280565,243.605469 91.8971373,243.873207 91.5234375,244.408691 C91.1497377,244.944176 90.960612,245.729161 90.9560547,246.763672 L90.9560547,247.249023 C90.9560547,248.265305 91.1429018,249.053708 91.5166016,249.614258 C91.8903013,250.174807 92.4280564,250.455078 93.1298828,250.455078 C93.8180373,250.455078 94.3466778,250.185061 94.7158203,249.64502 C95.0849628,249.104978 95.2718099,248.317714 95.2763672,247.283203 L95.2763672,246.797852 Z M101.045898,248.233398 C101.045898,247.071283 101.304522,246.152998 101.821777,245.478516 C102.339033,244.804033 103.048824,244.466797 103.951172,244.466797 C104.744145,244.466797 105.375323,244.769854 105.844727,245.375977 L105.974609,244.603516 L107.710938,244.603516 L107.710938,254.84375 L105.728516,254.84375 L105.728516,251.364258 C105.272784,251.879234 104.675785,252.136719 103.9375,252.136719 C103.057938,252.136719 102.356122,251.794925 101.832031,251.111328 C101.30794,250.427731 101.045898,249.468431 101.045898,248.233398 Z M103.021484,248.376953 C103.021484,249.083337 103.145669,249.621092 103.394043,249.990234 C103.642417,250.359377 103.992185,250.543945 104.443359,250.543945 C105.049482,250.543945 105.477863,250.302411 105.728516,249.819336 L105.728516,246.763672 C105.482421,246.298826 105.058597,246.066406 104.457031,246.066406 C104.0013,246.066406 103.648113,246.250975 103.397461,246.620117 C103.146809,246.98926 103.021484,247.574866 103.021484,248.376953 Z M121.813477,248.356445 L120.179688,248.356445 L120.179688,252 L118.128906,252 L118.128906,242.046875 L121.827148,242.046875 C123.002936,242.046875 123.909828,242.308917 124.547852,242.833008 C125.185876,243.357099 125.504883,244.097651 125.504883,245.054688 C125.504883,245.733727 125.357912,246.299965 125.063965,246.753418 C124.770018,247.206871 124.324547,247.568033 123.727539,247.836914 L125.880859,251.904297 L125.880859,252 L123.679688,252 L121.813477,248.356445 Z M120.179688,246.695312 L121.833984,246.695312 C122.348961,246.695312 122.74772,246.564292 123.030273,246.302246 C123.312827,246.040201 123.454102,245.679039 123.454102,245.21875 C123.454102,244.749347 123.320802,244.38021 123.054199,244.111328 C122.787596,243.842447 122.378583,243.708008 121.827148,243.708008 L120.179688,243.708008 L120.179688,246.695312 Z M133.714844,246.456055 C133.445962,246.419596 133.208985,246.401367 133.003906,246.401367 C132.256507,246.401367 131.766603,246.654294 131.53418,247.160156 L131.53418,252 L129.558594,252 L129.558594,244.603516 L131.424805,244.603516 L131.479492,245.485352 C131.875979,244.806312 132.425127,244.466797 133.126953,244.466797 C133.345704,244.466797 133.55078,244.496419 133.742188,244.555664 L133.714844,246.456055 Z M148.692383,249.388672 C148.692383,249.0013 148.555665,248.70394 148.282227,248.496582 C148.008788,248.289224 147.516605,248.070476 146.805664,247.840332 C146.094723,247.610188 145.531903,247.383465 145.117188,247.160156 C143.986974,246.549476 143.421875,245.726893 143.421875,244.692383 C143.421875,244.15462 143.573403,243.67497 143.876465,243.253418 C144.179526,242.831866 144.614743,242.502605 145.182129,242.265625 C145.749515,242.028645 146.38639,241.910156 147.092773,241.910156 C147.803714,241.910156 148.437172,242.038898 148.993164,242.296387 C149.549156,242.553875 149.980955,242.917315 150.288574,243.386719 C150.596193,243.856122 150.75,244.38932 150.75,244.986328 L148.699219,244.986328 C148.699219,244.530597 148.555665,244.176271 148.268555,243.92334 C147.981444,243.670409 147.578128,243.543945 147.058594,243.543945 C146.557289,243.543945 146.167645,243.649901 145.889648,243.861816 C145.611652,244.073732 145.472656,244.352863 145.472656,244.699219 C145.472656,245.022788 145.635578,245.293944 145.961426,245.512695 C146.287274,245.731446 146.766924,245.936522 147.400391,246.12793 C148.567063,246.478843 149.41699,246.91406 149.950195,247.433594 C150.483401,247.953128 150.75,248.600257 150.75,249.375 C150.75,250.236332 150.424157,250.911944 149.772461,251.401855 C149.120765,251.891767 148.243495,252.136719 147.140625,252.136719 C146.374996,252.136719 145.677738,251.996583 145.048828,251.716309 C144.419919,251.436034 143.940269,251.052086 143.609863,250.564453 C143.279458,250.07682 143.114258,249.511722 143.114258,248.869141 L145.171875,248.869141 C145.171875,249.967453 145.828118,250.516602 147.140625,250.516602 C147.628258,250.516602 148.008788,250.417481 148.282227,250.219238 C148.555665,250.020995 148.692383,249.744142 148.692383,249.388672 Z M158.638672,249.956055 C158.638672,249.714517 158.519044,249.524252 158.279785,249.385254 C158.040526,249.246256 157.656578,249.122071 157.12793,249.012695 C155.368806,248.643553 154.489258,247.896164 154.489258,246.770508 C154.489258,246.114255 154.761553,245.566246 155.306152,245.126465 C155.850751,244.686684 156.562821,244.466797 157.442383,244.466797 C158.38119,244.466797 159.131996,244.687823 159.694824,245.129883 C160.257653,245.571942 160.539062,246.146155 160.539062,246.852539 L158.563477,246.852539 C158.563477,246.569986 158.472332,246.336427 158.290039,246.151855 C158.107746,245.967284 157.822919,245.875 157.435547,245.875 C157.102863,245.875 156.845379,245.950195 156.663086,246.100586 C156.480793,246.250977 156.389648,246.442382 156.389648,246.674805 C156.389648,246.893556 156.493326,247.070149 156.700684,247.20459 C156.908041,247.339031 157.25781,247.45524 157.75,247.553223 C158.24219,247.651205 158.656899,247.761718 158.994141,247.884766 C160.037766,248.26758 160.55957,248.930659 160.55957,249.874023 C160.55957,250.548506 160.270185,251.094236 159.691406,251.51123 C159.112627,251.928225 158.365239,252.136719 157.449219,252.136719 C156.829424,252.136719 156.279137,252.026206 155.79834,251.805176 C155.317543,251.584146 154.940431,251.281089 154.666992,250.895996 C154.393553,250.510903 154.256836,250.095054 154.256836,249.648438 L156.129883,249.648438 C156.148112,249.999351 156.277994,250.268228 156.519531,250.455078 C156.761069,250.641928 157.084633,250.735352 157.490234,250.735352 C157.868491,250.735352 158.154459,250.663575 158.348145,250.52002 C158.54183,250.376464 158.638672,250.188478 158.638672,249.956055 Z M177.779297,243.708008 L174.730469,243.708008 L174.730469,252 L172.679688,252 L172.679688,243.708008 L169.671875,243.708008 L169.671875,242.046875 L177.779297,242.046875 L177.779297,243.708008 Z M183.808594,242.785156 L183.808594,244.603516 L185.073242,244.603516 L185.073242,246.052734 L183.808594,246.052734 L183.808594,249.744141 C183.808594,250.017579 183.861002,250.213541 183.96582,250.332031 C184.070639,250.450521 184.271157,250.509766 184.567383,250.509766 C184.786134,250.509766 184.979817,250.493815 185.148438,250.461914 L185.148438,251.958984 C184.761066,252.077475 184.362307,252.136719 183.952148,252.136719 C182.566725,252.136719 181.860352,251.437181 181.833008,250.038086 L181.833008,246.052734 L180.75293,246.052734 L180.75293,244.603516 L181.833008,244.603516 L181.833008,242.785156 L183.808594,242.785156 Z M202.573242,242.046875 L202.573242,248.602539 C202.573242,249.691737 202.232588,250.553057 201.55127,251.186523 C200.869951,251.81999 199.939134,252.136719 198.758789,252.136719 C197.596674,252.136719 196.673832,251.829105 195.990234,251.213867 C195.306637,250.59863 194.958008,249.753261 194.944336,248.677734 L194.944336,242.046875 L196.995117,242.046875 L196.995117,248.616211 C196.995117,249.267907 197.151203,249.743 197.463379,250.041504 C197.775555,250.340008 198.207354,250.489258 198.758789,250.489258 C199.91179,250.489258 200.497396,249.883144 200.515625,248.670898 L200.515625,242.046875 L202.573242,242.046875 Z M211.179688,251.248047 C210.692055,251.840498 210.017582,252.136719 209.15625,252.136719 C208.363277,252.136719 207.758303,251.908856 207.341309,251.453125 C206.924314,250.997394 206.711263,250.329757 206.702148,249.450195 L206.702148,244.603516 L208.677734,244.603516 L208.677734,249.381836 C208.677734,250.152022 209.028642,250.537109 209.730469,250.537109 C210.400394,250.537109 210.860676,250.30469 211.111328,249.839844 L211.111328,244.603516 L213.09375,244.603516 L213.09375,252 L211.234375,252 L211.179688,251.248047 Z M227.12793,249.532227 L229.383789,242.046875 L231.666992,242.046875 L228.201172,252 L226.061523,252 L222.609375,242.046875 L224.885742,242.046875 L227.12793,249.532227 Z M237.791992,249.586914 L239.166016,244.603516 L241.230469,244.603516 L238.735352,252 L236.848633,252 L234.353516,244.603516 L236.417969,244.603516 L237.791992,249.586914 Z M258.716797,249.128906 L260.056641,242.046875 L262.100586,242.046875 L259.892578,252 L257.828125,252 L256.208008,245.341797 L254.587891,252 L252.523438,252 L250.31543,242.046875 L252.359375,242.046875 L253.706055,249.115234 L255.34668,242.046875 L257.083008,242.046875 L258.716797,249.128906 Z M272.135742,249.313477 L273.106445,244.603516 L275.013672,244.603516 L273.126953,252 L271.472656,252 L270.071289,247.344727 L268.669922,252 L267.022461,252 L265.135742,244.603516 L267.042969,244.603516 L268.006836,249.306641 L269.360352,244.603516 L270.789062,244.603516 L272.135742,249.313477 Z M288.418945,245.478516 L290.285156,242.046875 L292.643555,242.046875 L289.745117,246.982422 L292.71875,252 L290.333008,252 L288.418945,248.513672 L286.504883,252 L284.119141,252 L287.092773,246.982422 L284.194336,242.046875 L286.552734,242.046875 L288.418945,245.478516 Z M299.0625,246.811523 L300.306641,244.603516 L302.418945,244.603516 L300.313477,248.226562 L302.507812,252 L300.388672,252 L299.069336,249.675781 L297.756836,252 L295.630859,252 L297.825195,248.226562 L295.726562,244.603516 L297.845703,244.603516 L299.0625,246.811523 Z M315.666992,246.53125 L317.738281,242.046875 L319.980469,242.046875 L316.712891,248.390625 L316.712891,252 L314.62793,252 L314.62793,248.390625 L311.360352,242.046875 L313.609375,242.046875 L315.666992,246.53125 Z M326.009766,249.204102 L327.376953,244.603516 L329.496094,244.603516 L326.522461,253.148438 L326.358398,253.538086 C325.916339,254.504237 325.18718,254.987305 324.170898,254.987305 C323.883788,254.987305 323.592124,254.944011 323.295898,254.857422 L323.295898,253.360352 L323.59668,253.367188 C323.970379,253.367188 324.249511,253.310222 324.434082,253.196289 C324.618653,253.082356 324.763346,252.89323 324.868164,252.628906 L325.100586,252.020508 L322.509766,244.603516 L324.635742,244.603516 L326.009766,249.204102 Z M341.31543,250.352539 L346.333008,250.352539 L346.333008,252 L338.751953,252 L338.751953,250.796875 L343.673828,243.708008 L338.758789,243.708008 L338.758789,242.046875 L346.223633,242.046875 L346.223633,243.222656 L341.31543,250.352539 Z M352.389648,250.407227 L356.005859,250.407227 L356.005859,252 L349.867188,252 L349.867188,250.796875 L353.34668,246.203125 L349.969727,246.203125 L349.969727,244.603516 L355.896484,244.603516 L355.896484,245.772461 L352.389648,250.407227 Z M9.37597656,286.884766 C9.37597656,288.261075 9.09114868,289.313798 8.52148438,290.042969 C7.95182007,290.772139 7.11784403,291.136719 6.01953125,291.136719 C4.93489041,291.136719 4.10547162,290.778975 3.53125,290.063477 C2.95702838,289.347978 2.66308601,288.322598 2.64941406,286.987305 L2.64941406,285.155273 C2.64941406,283.765293 2.93765988,282.71029 3.51416016,281.990234 C4.09066043,281.270179 4.92121854,280.910156 6.00585938,280.910156 C7.09050021,280.910156 7.919919,281.266761 8.49414062,281.97998 C9.06836225,282.6932 9.36230462,283.717441 9.37597656,285.052734 L9.37597656,286.884766 Z M7.40039062,284.875 C7.40039062,284.050126 7.28759878,283.449709 7.06201172,283.07373 C6.83642465,282.697752 6.48437739,282.509766 6.00585938,282.509766 C5.5410133,282.509766 5.19808053,282.688638 4.97705078,283.046387 C4.75602103,283.404136 4.63867194,283.963538 4.625,284.724609 L4.625,287.144531 C4.625,287.955733 4.73551322,288.558429 4.95654297,288.952637 C5.17757272,289.346844 5.5318986,289.543945 6.01953125,289.543945 C6.50260658,289.543945 6.85123591,289.35482 7.06542969,288.976562 C7.27962347,288.598305 7.391276,288.019535 7.40039062,287.240234 L7.40039062,284.875 Z M24.2441406,291 L22.2685547,291 L22.2685547,283.384766 L19.9101562,284.116211 L19.9101562,282.509766 L24.0322266,281.033203 L24.2441406,281.033203 L24.2441406,291 Z M43.0361328,291 L36.2138672,291 L36.2138672,289.646484 L39.4335938,286.214844 C39.8756533,285.731768 40.2026357,285.310223 40.4145508,284.950195 C40.6264659,284.590167 40.7324219,284.248374 40.7324219,283.924805 C40.7324219,283.482745 40.6207693,283.135255 40.3974609,282.882324 C40.1741525,282.629393 39.8551453,282.50293 39.4404297,282.50293 C38.9938129,282.50293 38.6417656,282.656737 38.3842773,282.964355 C38.1267891,283.271974 37.9980469,283.67643 37.9980469,284.177734 L36.015625,284.177734 C36.015625,283.571612 36.1603176,283.017906 36.449707,282.516602 C36.7390965,282.015297 37.1481093,281.622234 37.6767578,281.337402 C38.2054063,281.05257 38.8046842,280.910156 39.4746094,280.910156 C40.5000051,280.910156 41.2963839,281.156248 41.8637695,281.648438 C42.4311552,282.140627 42.7148438,282.835607 42.7148438,283.733398 C42.7148438,284.225588 42.5872409,284.726885 42.3320312,285.237305 C42.0768216,285.747724 41.639326,286.342445 41.0195312,287.021484 L38.7568359,289.407227 L43.0361328,289.407227 L43.0361328,291 Z M54.9921875,285.148438 L56.0449219,285.148438 C56.5462265,285.148438 56.917642,285.023113 57.1591797,284.772461 C57.4007174,284.521809 57.5214844,284.18913 57.5214844,283.774414 C57.5214844,283.37337 57.4018567,283.061199 57.1625977,282.837891 C56.9233386,282.614582 56.5940776,282.50293 56.1748047,282.50293 C55.7965476,282.50293 55.479819,282.606607 55.2246094,282.813965 C54.9693998,283.021323 54.8417969,283.291339 54.8417969,283.624023 L52.8662109,283.624023 C52.8662109,283.10449 53.0063463,282.638511 53.2866211,282.226074 C53.5668959,281.813637 53.9588191,281.491212 54.4624023,281.258789 C54.9659856,281.026366 55.5208303,280.910156 56.1269531,280.910156 C57.1796928,280.910156 58.0045543,281.161944 58.6015625,281.665527 C59.1985707,282.169111 59.4970703,282.862951 59.4970703,283.74707 C59.4970703,284.202802 59.3580743,284.622068 59.0800781,285.004883 C58.8020819,285.387697 58.4375023,285.68164 57.9863281,285.886719 C58.5468778,286.087241 58.9650051,286.388019 59.2407227,286.789062 C59.5164402,287.190106 59.6542969,287.66406 59.6542969,288.210938 C59.6542969,289.095057 59.3318717,289.803708 58.6870117,290.336914 C58.0421517,290.87012 57.1888074,291.136719 56.1269531,291.136719 C55.1334586,291.136719 54.3211295,290.874677 53.6899414,290.350586 C53.0587534,289.826495 52.7431641,289.133793 52.7431641,288.272461 L54.71875,288.272461 C54.71875,288.646161 54.8588853,288.951496 55.1391602,289.188477 C55.419435,289.425457 55.7646464,289.543945 56.1748047,289.543945 C56.6442081,289.543945 57.0122057,289.41976 57.2788086,289.171387 C57.5454115,288.923013 57.6787109,288.593752 57.6787109,288.183594 C57.6787109,287.190099 57.1318414,286.693359 56.0380859,286.693359 L54.9921875,286.693359 L54.9921875,285.148438 Z M75.5957031,287.253906 L76.7236328,287.253906 L76.7236328,288.84668 L75.5957031,288.84668 L75.5957031,291 L73.6201172,291 L73.6201172,288.84668 L69.5390625,288.84668 L69.4501953,287.602539 L73.5996094,281.046875 L75.5957031,281.046875 L75.5957031,287.253906 Z M71.4189453,287.253906 L73.6201172,287.253906 L73.6201172,283.740234 L73.4902344,283.96582 L71.4189453,287.253906 Z M86.8134766,286.105469 L87.3876953,281.046875 L92.9658203,281.046875 L92.9658203,282.694336 L89.0078125,282.694336 L88.7617188,284.833984 C89.2311221,284.583332 89.7301406,284.458008 90.2587891,284.458008 C91.2067105,284.458008 91.9495416,284.75195 92.4873047,285.339844 C93.0250678,285.927737 93.2939453,286.75032 93.2939453,287.807617 C93.2939453,288.450199 93.1583672,289.025551 92.887207,289.533691 C92.6160468,290.041832 92.2275416,290.436034 91.7216797,290.716309 C91.2158178,290.996583 90.6188185,291.136719 89.9306641,291.136719 C89.3290986,291.136719 88.7708359,291.014812 88.2558594,290.770996 C87.7408828,290.52718 87.3341486,290.184247 87.0356445,289.742188 C86.7371404,289.300128 86.5787761,288.796552 86.5605469,288.231445 L88.515625,288.231445 C88.5566408,288.646161 88.7013334,288.968586 88.949707,289.19873 C89.1980807,289.428875 89.5227845,289.543945 89.9238281,289.543945 C90.3704449,289.543945 90.714517,289.383302 90.9560547,289.062012 C91.1975924,288.740721 91.3183594,288.286136 91.3183594,287.698242 C91.3183594,287.133135 91.1793634,286.700197 90.9013672,286.399414 C90.623371,286.098631 90.2291692,285.948242 89.71875,285.948242 C89.2493466,285.948242 88.8688166,286.071288 88.5771484,286.317383 L88.3857422,286.495117 L86.8134766,286.105469 Z M108.647461,280.944336 L108.647461,282.571289 L108.456055,282.571289 C107.562821,282.584961 106.843915,282.817381 106.299316,283.268555 C105.754717,283.719729 105.427735,284.34635 105.318359,285.148438 C105.847008,284.610674 106.514644,284.341797 107.321289,284.341797 C108.187179,284.341797 108.875323,284.65169 109.385742,285.271484 C109.896161,285.891279 110.151367,286.707026 110.151367,287.71875 C110.151367,288.365889 110.011232,288.951495 109.730957,289.475586 C109.450682,289.999677 109.054202,290.407551 108.541504,290.699219 C108.028806,290.990887 107.448896,291.136719 106.801758,291.136719 C105.753575,291.136719 104.907067,290.772139 104.262207,290.042969 C103.617347,289.313798 103.294922,288.340826 103.294922,287.124023 L103.294922,286.413086 C103.294922,285.333002 103.498859,284.379399 103.906738,283.552246 C104.314618,282.725094 104.900224,282.0848 105.663574,281.631348 C106.426924,281.177895 107.312169,280.948893 108.319336,280.944336 L108.647461,280.944336 Z M106.719727,285.927734 C106.400715,285.927734 106.111329,286.010904 105.851562,286.177246 C105.591796,286.343588 105.400391,286.563475 105.277344,286.836914 L105.277344,287.438477 C105.277344,288.099287 105.407225,288.615395 105.666992,288.986816 C105.926759,289.358238 106.291339,289.543945 106.760742,289.543945 C107.184572,289.543945 107.527505,289.376467 107.789551,289.041504 C108.051596,288.706541 108.182617,288.272464 108.182617,287.739258 C108.182617,287.196937 108.050457,286.759442 107.786133,286.426758 C107.521809,286.094074 107.166343,285.927734 106.719727,285.927734 Z M126.824219,282.154297 L122.975586,291 L120.890625,291 L124.746094,282.646484 L119.796875,282.646484 L119.796875,281.046875 L126.824219,281.046875 L126.824219,282.154297 Z M143.3125,283.692383 C143.3125,284.175458 143.191733,284.603839 142.950195,284.977539 C142.708658,285.351239 142.375979,285.649738 141.952148,285.873047 C142.435224,286.10547 142.818032,286.425616 143.100586,286.833496 C143.383139,287.241376 143.524414,287.721026 143.524414,288.272461 C143.524414,289.15658 143.223636,289.854978 142.62207,290.367676 C142.020505,290.880374 141.202479,291.136719 140.167969,291.136719 C139.133458,291.136719 138.313154,290.879234 137.707031,290.364258 C137.100908,289.849281 136.797852,289.152023 136.797852,288.272461 C136.797852,287.721026 136.939126,287.240236 137.22168,286.830078 C137.504233,286.41992 137.884763,286.100913 138.363281,285.873047 C137.939451,285.649738 137.607911,285.351239 137.368652,284.977539 C137.129393,284.603839 137.009766,284.175458 137.009766,283.692383 C137.009766,282.844722 137.292315,282.169111 137.857422,281.665527 C138.422529,281.161944 139.190425,280.910156 140.161133,280.910156 C141.127283,280.910156 141.89404,281.159665 142.461426,281.658691 C143.028811,282.157717 143.3125,282.835608 143.3125,283.692383 Z M141.541992,288.128906 C141.541992,287.695961 141.416668,287.349611 141.166016,287.089844 C140.915363,286.830077 140.578127,286.700195 140.154297,286.700195 C139.735024,286.700195 139.400066,286.828938 139.149414,287.086426 C138.898762,287.343914 138.773438,287.691404 138.773438,288.128906 C138.773438,288.552736 138.896483,288.89453 139.142578,289.154297 C139.388673,289.414064 139.730467,289.543945 140.167969,289.543945 C140.596356,289.543945 140.932453,289.418621 141.17627,289.167969 C141.420086,288.917316 141.541992,288.570966 141.541992,288.128906 Z M141.336914,283.788086 C141.336914,283.400714 141.234376,283.089682 141.029297,282.85498 C140.824218,282.620279 140.534833,282.50293 140.161133,282.50293 C139.79199,282.50293 139.504884,282.616861 139.299805,282.844727 C139.094726,283.072592 138.992188,283.387042 138.992188,283.788086 C138.992188,284.184572 139.094726,284.50358 139.299805,284.745117 C139.504884,284.986655 139.794269,285.107422 140.167969,285.107422 C140.541669,285.107422 140.829914,284.986655 141.032715,284.745117 C141.235515,284.50358 141.336914,284.184572 141.336914,283.788086 Z M158.214844,287.021484 C157.699867,287.527346 157.098311,287.780273 156.410156,287.780273 C155.530595,287.780273 154.8265,287.478356 154.297852,286.874512 C153.769203,286.270668 153.504883,285.45606 153.504883,284.430664 C153.504883,283.778968 153.647297,283.18083 153.932129,282.63623 C154.216961,282.091631 154.614581,281.667808 155.125,281.364746 C155.635419,281.061685 156.209632,280.910156 156.847656,280.910156 C157.50391,280.910156 158.087237,281.074217 158.597656,281.402344 C159.108075,281.73047 159.504556,282.202145 159.787109,282.817383 C160.069663,283.43262 160.213216,284.136715 160.217773,284.929688 L160.217773,285.661133 C160.217773,287.319995 159.805343,288.623368 158.980469,289.571289 C158.155595,290.51921 156.986661,291.025065 155.473633,291.088867 L154.988281,291.095703 L154.988281,289.448242 L155.425781,289.441406 C157.143889,289.363932 158.073567,288.557299 158.214844,287.021484 Z M156.895508,286.269531 C157.21452,286.269531 157.489094,286.187501 157.719238,286.023438 C157.949383,285.859374 158.123697,285.661134 158.242188,285.428711 L158.242188,284.615234 C158.242188,283.945309 158.114585,283.425783 157.859375,283.056641 C157.604165,282.687498 157.262372,282.50293 156.833984,282.50293 C156.437498,282.50293 156.111655,282.68408 155.856445,283.046387 C155.601236,283.408693 155.473633,283.863279 155.473633,284.410156 C155.473633,284.952477 155.597818,285.397947 155.846191,285.746582 C156.094565,286.095217 156.444334,286.269531 156.895508,286.269531 Z" id="Aa-Bb-Cc-Dd-Ee-Ff-Gg"></path>
            </g>
        </g>
    </g>
</svg>