<?xml version="1.0" encoding="UTF-8"?>
<svg width="363px" height="276px" viewBox="0 0 363 276" version="1.1" xmlns="http://www.w3.org/2000/svg" xmlns:xlink="http://www.w3.org/1999/xlink">
    <!-- Generator: Sketch 51.3 (57544) - http://www.bohemiancoding.com/sketch -->
    <title>Abc</title>
    <desc>Created with Sketch.</desc>
    <defs></defs>
    <g id="Abc" stroke="none" stroke-width="1" fill="none" fill-rule="evenodd">
        <g id="Group" transform="translate(3.000000, 0.000000)" fill="#171717">
            <path d="M128,133.4 L109,133.4 L97.2,103.6 L30.8,103.6 L19,133.4 L0,133.4 L53.8,0 L74.4,0 L128,133.4 Z M92.4,89 L64,17 L35.8,89 L92.4,89 Z M159.586667,107.2 C164.786667,115.6 176.586667,122.4 188.586667,122.4 C207.986667,122.4 219.586667,106.6 219.586667,85.2 C219.586667,63.8 207.986667,47.8 188.586667,47.8 C176.586667,47.8 164.786667,55 159.586667,63.4 L159.586667,107.2 Z M159.586667,133.4 L144.586667,133.4 L144.586667,0 L159.586667,0 L159.586667,51.4 C167.386667,40.8 179.186667,34.4 192.186667,34.4 C217.586667,34.4 235.186667,54.2 235.186667,85.2 C235.186667,116.6 217.386667,135.8 192.186667,135.8 C178.586667,135.8 166.786667,128.8 159.586667,119 L159.586667,133.4 Z M301.973333,135.8 C273.173333,135.8 253.773333,113.6 253.773333,85 C253.773333,56.4 273.173333,34.4 301.973333,34.4 C319.573333,34.4 329.973333,41.6 337.373333,51.2 L327.373333,60.2 C320.973333,51.4 312.773333,47.8 302.773333,47.8 C282.373333,47.8 269.373333,63.6 269.373333,85 C269.373333,106.4 282.373333,122.4 302.773333,122.4 C312.773333,122.4 320.973333,118.4 327.373333,109.8 L337.373333,119 C329.973333,128.6 319.573333,135.8 301.973333,135.8 Z" id="Abc"></path>
            <path d="M9.286,196.4 L7.956,196.4 L7.13,194.314 L2.482,194.314 L1.656,196.4 L0.326,196.4 L4.092,187.062 L5.534,187.062 L9.286,196.4 Z M6.794,193.292 L4.806,188.252 L2.832,193.292 L6.794,193.292 Z M18.365,196.4 L17.315,196.4 L17.315,195.63 C16.769,196.246 15.985,196.568 15.075,196.568 C13.941,196.568 12.723,195.798 12.723,194.328 C12.723,192.802 13.927,192.102 15.075,192.102 C15.999,192.102 16.769,192.396 17.315,193.012 L17.315,191.794 C17.315,190.898 16.587,190.38 15.607,190.38 C14.795,190.38 14.137,190.66 13.535,191.318 L13.045,190.59 C13.773,189.834 14.641,189.47 15.747,189.47 C17.189,189.47 18.365,190.114 18.365,191.752 L18.365,196.4 Z M15.467,195.812 C16.195,195.812 16.909,195.532 17.315,194.972 L17.315,193.684 C16.909,193.138 16.195,192.858 15.467,192.858 C14.473,192.858 13.787,193.474 13.787,194.328 C13.787,195.196 14.473,195.812 15.467,195.812 Z M33.653,196.4 L29.397,196.4 L29.397,187.062 L33.555,187.062 C35.179,187.062 36.173,188.042 36.173,189.442 C36.173,190.618 35.389,191.402 34.535,191.584 C35.529,191.738 36.355,192.76 36.355,193.88 C36.355,195.378 35.361,196.4 33.653,196.4 Z M33.359,191.108 C34.409,191.108 34.969,190.464 34.969,189.61 C34.969,188.77 34.409,188.098 33.359,188.098 L30.559,188.098 L30.559,191.108 L33.359,191.108 Z M33.429,195.364 C34.507,195.364 35.151,194.748 35.151,193.754 C35.151,192.9 34.563,192.144 33.429,192.144 L30.559,192.144 L30.559,195.364 L33.429,195.364 Z M41.836,194.566 C42.2,195.154 43.026,195.63 43.866,195.63 C45.224,195.63 46.036,194.524 46.036,193.026 C46.036,191.528 45.224,190.408 43.866,190.408 C43.026,190.408 42.2,190.912 41.836,191.5 L41.836,194.566 Z M41.836,196.4 L40.786,196.4 L40.786,187.062 L41.836,187.062 L41.836,190.66 C42.382,189.918 43.208,189.47 44.118,189.47 C45.896,189.47 47.128,190.856 47.128,193.026 C47.128,195.224 45.882,196.568 44.118,196.568 C43.166,196.568 42.34,196.078 41.836,195.392 L41.836,196.4 Z M62.178,196.568 C59.49,196.568 57.376,194.608 57.376,191.738 C57.376,188.868 59.49,186.908 62.178,186.908 C63.83,186.908 64.978,187.692 65.72,188.756 L64.754,189.302 C64.222,188.504 63.242,187.944 62.178,187.944 C60.134,187.944 58.58,189.498 58.58,191.738 C58.58,193.95 60.134,195.532 62.178,195.532 C63.242,195.532 64.222,194.958 64.754,194.174 L65.734,194.706 C64.95,195.784 63.83,196.568 62.178,196.568 Z M72.783,196.568 C70.767,196.568 69.409,195.014 69.409,193.012 C69.409,191.01 70.767,189.47 72.783,189.47 C74.015,189.47 74.743,189.974 75.261,190.646 L74.561,191.276 C74.113,190.66 73.539,190.408 72.839,190.408 C71.411,190.408 70.501,191.514 70.501,193.012 C70.501,194.51 71.411,195.63 72.839,195.63 C73.539,195.63 74.113,195.35 74.561,194.748 L75.261,195.392 C74.743,196.064 74.015,196.568 72.783,196.568 Z M88.855,196.4 L85.663,196.4 L85.663,187.062 L88.855,187.062 C91.767,187.062 93.643,189.092 93.643,191.738 C93.643,194.398 91.767,196.4 88.855,196.4 Z M88.855,195.364 C91.123,195.364 92.439,193.74 92.439,191.738 C92.439,189.722 91.165,188.098 88.855,188.098 L86.825,188.098 L86.825,195.364 L88.855,195.364 Z M103.996,196.4 L102.946,196.4 L102.946,195.392 C102.442,196.078 101.616,196.568 100.664,196.568 C98.9,196.568 97.654,195.224 97.654,193.026 C97.654,190.856 98.9,189.47 100.664,189.47 C101.574,189.47 102.4,189.918 102.946,190.66 L102.946,187.062 L103.996,187.062 L103.996,196.4 Z M100.93,195.63 C101.756,195.63 102.582,195.14 102.946,194.552 L102.946,191.5 C102.582,190.912 101.756,190.408 100.93,190.408 C99.558,190.408 98.746,191.528 98.746,193.026 C98.746,194.524 99.558,195.63 100.93,195.63 Z M121.132,196.4 L115.014,196.4 L115.014,187.062 L121.132,187.062 L121.132,188.098 L116.176,188.098 L116.176,191.108 L121.034,191.108 L121.034,192.144 L116.176,192.144 L116.176,195.364 L121.132,195.364 L121.132,196.4 Z M128.629,196.568 C126.613,196.568 125.171,195.126 125.171,193.012 C125.171,191.052 126.571,189.47 128.503,189.47 C130.547,189.47 131.751,191.066 131.751,193.096 L131.751,193.362 L126.291,193.362 C126.375,194.636 127.257,195.7 128.713,195.7 C129.497,195.7 130.267,195.392 130.813,194.832 L131.317,195.518 C130.631,196.19 129.721,196.568 128.629,196.568 Z M130.715,192.578 C130.701,191.584 130.029,190.338 128.489,190.338 C127.047,190.338 126.333,191.556 126.277,192.578 L130.715,192.578 Z M143.525,196.4 L142.363,196.4 L142.363,187.062 L148.481,187.062 L148.481,188.098 L143.525,188.098 L143.525,191.108 L148.383,191.108 L148.383,192.144 L143.525,192.144 L143.525,196.4 Z M154.004,196.4 L152.954,196.4 L152.954,190.562 L151.834,190.562 L151.834,189.638 L152.954,189.638 L152.954,189.12 C152.954,187.734 153.724,186.922 154.914,186.922 C155.46,186.922 155.922,187.048 156.342,187.44 L155.908,188.112 C155.684,187.916 155.418,187.79 155.082,187.79 C154.382,187.79 154.004,188.252 154.004,189.12 L154.004,189.638 L155.376,189.638 L155.376,190.562 L154.004,190.562 L154.004,196.4 Z M169.978,196.582 C167.318,196.582 165.176,194.636 165.176,191.738 C165.176,188.826 167.318,186.908 169.978,186.908 C171.644,186.908 172.792,187.636 173.604,188.644 L172.68,189.232 C172.092,188.476 171.098,187.944 169.978,187.944 C167.934,187.944 166.38,189.498 166.38,191.738 C166.38,193.95 167.934,195.532 169.978,195.532 C171.098,195.532 172.022,195 172.498,194.524 L172.498,192.634 L169.278,192.634 L169.278,191.598 L173.646,191.598 L173.646,194.958 C172.778,195.938 171.504,196.582 169.978,196.582 Z M180.835,199.144 C179.701,199.144 178.917,198.92 178.105,198.122 L178.637,197.366 C179.197,198.024 179.869,198.276 180.835,198.276 C181.955,198.276 183.019,197.73 183.019,196.302 L183.019,195.28 C182.515,195.966 181.689,196.484 180.737,196.484 C178.973,196.484 177.727,195.168 177.727,192.984 C177.727,190.814 178.959,189.47 180.737,189.47 C181.647,189.47 182.473,189.918 183.019,190.66 L183.019,189.638 L184.069,189.638 L184.069,196.302 C184.069,198.444 182.487,199.144 180.835,199.144 Z M181.003,195.546 C181.829,195.546 182.641,195.042 183.019,194.454 L183.019,191.486 C182.641,190.912 181.829,190.408 181.003,190.408 C179.631,190.408 178.819,191.486 178.819,192.984 C178.819,194.468 179.631,195.546 181.003,195.546 Z M202.871,196.4 L201.709,196.4 L201.709,192.116 L196.249,192.116 L196.249,196.4 L195.087,196.4 L195.087,187.062 L196.249,187.062 L196.249,191.08 L201.709,191.08 L201.709,187.062 L202.871,187.062 L202.871,196.4 Z M213.266,196.4 L212.216,196.4 L212.216,191.948 C212.216,190.744 211.614,190.408 210.69,190.408 C209.878,190.408 209.094,190.912 208.702,191.458 L208.702,196.4 L207.652,196.4 L207.652,187.062 L208.702,187.062 L208.702,190.618 C209.164,190.044 210.088,189.47 211.11,189.47 C212.524,189.47 213.266,190.156 213.266,191.626 L213.266,196.4 Z M225.446,196.4 L224.284,196.4 L224.284,187.062 L225.446,187.062 L225.446,196.4 Z M230.745,188.672 C230.353,188.672 230.031,188.364 230.031,187.972 C230.031,187.58 230.353,187.258 230.745,187.258 C231.137,187.258 231.445,187.58 231.445,187.972 C231.445,188.364 231.137,188.672 230.745,188.672 Z M231.263,196.4 L230.213,196.4 L230.213,189.638 L231.263,189.638 L231.263,196.4 Z M243.779,196.568 C242.799,196.568 241.987,196.246 241.343,195.49 L241.959,194.608 C242.351,195.098 242.897,195.532 243.709,195.532 C244.857,195.532 245.585,194.734 245.585,193.572 L245.585,187.062 L246.747,187.062 L246.747,193.586 C246.747,195.602 245.445,196.568 243.779,196.568 Z M252.046,188.672 C251.654,188.672 251.332,188.364 251.332,187.972 C251.332,187.58 251.654,187.258 252.046,187.258 C252.438,187.258 252.746,187.58 252.746,187.972 C252.746,188.364 252.438,188.672 252.046,188.672 Z M250.562,199.144 C249.876,199.144 249.512,198.976 249.092,198.64 L249.456,197.856 C249.694,198.094 250.002,198.276 250.422,198.276 C251.052,198.276 251.514,197.912 251.514,197.058 L251.514,189.638 L252.564,189.638 L252.564,197.058 C252.564,198.388 251.864,199.144 250.562,199.144 Z M270.68,196.4 L269.224,196.4 L265.682,192.2 L264.744,193.264 L264.744,196.4 L263.582,196.4 L263.582,187.062 L264.744,187.062 L264.744,191.878 L268.874,187.062 L270.33,187.062 L266.438,191.486 L270.68,196.4 Z M280.529,196.4 L279.185,196.4 L276.763,193.362 L275.629,194.468 L275.629,196.4 L274.579,196.4 L274.579,187.062 L275.629,187.062 L275.629,193.236 L279.185,189.638 L280.515,189.638 L277.519,192.704 L280.529,196.4 Z M296.041,196.4 L290.539,196.4 L290.539,187.062 L291.701,187.062 L291.701,195.364 L296.041,195.364 L296.041,196.4 Z M301.228,196.4 L300.178,196.4 L300.178,187.062 L301.228,187.062 L301.228,196.4 Z M321.388,196.4 L320.226,196.4 L320.226,188.546 L317.062,196.4 L316.586,196.4 L313.408,188.546 L313.408,196.4 L312.246,196.4 L312.246,187.062 L313.912,187.062 L316.824,194.258 L319.722,187.062 L321.388,187.062 L321.388,196.4 Z M335.367,196.4 L334.317,196.4 L334.317,191.808 C334.317,190.954 333.953,190.408 333.071,190.408 C332.371,190.408 331.629,190.898 331.279,191.444 L331.279,196.4 L330.229,196.4 L330.229,191.808 C330.229,190.954 329.879,190.408 328.983,190.408 C328.297,190.408 327.569,190.912 327.205,191.458 L327.205,196.4 L326.155,196.4 L326.155,189.638 L327.205,189.638 L327.205,190.618 C327.499,190.184 328.395,189.47 329.403,189.47 C330.425,189.47 331.013,190.03 331.209,190.73 C331.587,190.114 332.497,189.47 333.477,189.47 C334.709,189.47 335.367,190.156 335.367,191.514 L335.367,196.4 Z M9.02,235.4 L7.9,235.4 L2.454,227.952 L2.454,235.4 L1.292,235.4 L1.292,226.062 L2.482,226.062 L7.858,233.356 L7.858,226.062 L9.02,226.062 L9.02,235.4 Z M19.401,235.4 L18.365,235.4 L18.365,230.976 C18.365,229.772 17.749,229.408 16.839,229.408 C16.013,229.408 15.243,229.912 14.837,230.458 L14.837,235.4 L13.787,235.4 L13.787,228.638 L14.837,228.638 L14.837,229.618 C15.313,229.044 16.237,228.47 17.259,228.47 C18.659,228.47 19.401,229.184 19.401,230.654 L19.401,235.4 Z M34.689,235.568 C31.931,235.568 30.055,233.496 30.055,230.738 C30.055,227.98 31.931,225.908 34.689,225.908 C37.447,225.908 39.337,227.98 39.337,230.738 C39.337,233.496 37.447,235.568 34.689,235.568 Z M34.689,234.532 C36.775,234.532 38.133,232.908 38.133,230.738 C38.133,228.554 36.775,226.944 34.689,226.944 C32.589,226.944 31.259,228.554 31.259,230.738 C31.259,232.908 32.589,234.532 34.689,234.532 Z M46.68,235.568 C44.622,235.568 43.334,233.972 43.334,232.012 C43.334,230.052 44.622,228.47 46.68,228.47 C48.738,228.47 50.026,230.052 50.026,232.012 C50.026,233.972 48.738,235.568 46.68,235.568 Z M46.68,234.63 C48.122,234.63 48.92,233.398 48.92,232.012 C48.92,230.64 48.122,229.408 46.68,229.408 C45.238,229.408 44.44,230.64 44.44,232.012 C44.44,233.398 45.238,234.63 46.68,234.63 Z M61.814,235.4 L60.652,235.4 L60.652,226.062 L64.404,226.062 C66.28,226.062 67.33,227.35 67.33,228.876 C67.33,230.402 66.266,231.69 64.404,231.69 L61.814,231.69 L61.814,235.4 Z M64.264,230.654 C65.37,230.654 66.126,229.926 66.126,228.876 C66.126,227.826 65.37,227.098 64.264,227.098 L61.814,227.098 L61.814,230.654 L64.264,230.654 Z M74.785,235.568 C73.861,235.568 73.063,235.12 72.503,234.378 L72.503,237.976 L71.453,237.976 L71.453,228.638 L72.503,228.638 L72.503,229.646 C72.993,228.96 73.833,228.47 74.785,228.47 C76.563,228.47 77.795,229.814 77.795,232.012 C77.795,234.196 76.563,235.568 74.785,235.568 Z M74.519,234.63 C75.877,234.63 76.689,233.51 76.689,232.012 C76.689,230.514 75.877,229.408 74.519,229.408 C73.693,229.408 72.867,229.898 72.503,230.486 L72.503,233.538 C72.867,234.126 73.693,234.63 74.519,234.63 Z M92.635,235.568 C89.877,235.568 88.001,233.496 88.001,230.738 C88.001,227.98 89.877,225.908 92.635,225.908 C95.393,225.908 97.283,227.98 97.283,230.738 C97.283,232.124 96.807,233.328 95.995,234.196 L96.877,235.134 L96.079,235.834 L95.169,234.868 C94.469,235.316 93.601,235.568 92.635,235.568 Z M92.635,234.532 C93.307,234.532 93.909,234.364 94.413,234.056 L93.083,232.614 L93.895,231.928 L95.211,233.356 C95.757,232.684 96.079,231.774 96.079,230.738 C96.079,228.554 94.721,226.944 92.635,226.944 C90.535,226.944 89.205,228.554 89.205,230.738 C89.205,232.908 90.535,234.532 92.635,234.532 Z M104.514,234.63 C105.34,234.63 106.166,234.126 106.53,233.538 L106.53,230.486 C106.166,229.898 105.34,229.408 104.514,229.408 C103.156,229.408 102.344,230.514 102.344,232.012 C102.344,233.51 103.156,234.63 104.514,234.63 Z M104.248,235.568 C102.47,235.568 101.238,234.196 101.238,232.012 C101.238,229.814 102.47,228.47 104.248,228.47 C105.2,228.47 106.04,228.96 106.53,229.646 L106.53,228.638 L107.58,228.638 L107.58,237.976 L106.53,237.976 L106.53,234.378 C105.97,235.12 105.172,235.568 104.248,235.568 Z M125.374,235.4 L124.002,235.4 L121.636,231.69 L119.76,231.69 L119.76,235.4 L118.598,235.4 L118.598,226.062 L122.35,226.062 C124.058,226.062 125.29,227.154 125.29,228.876 C125.29,230.556 124.128,231.48 122.854,231.592 L125.374,235.4 Z M122.21,230.668 C123.316,230.668 124.086,229.926 124.086,228.876 C124.086,227.812 123.316,227.098 122.21,227.098 L119.76,227.098 L119.76,230.668 L122.21,230.668 Z M130.757,235.4 L129.707,235.4 L129.707,228.638 L130.757,228.638 L130.757,229.716 C131.303,229.016 132.087,228.484 133.011,228.484 L133.011,229.562 C132.885,229.548 132.759,229.534 132.605,229.534 C131.947,229.534 131.065,230.066 130.757,230.612 L130.757,235.4 Z M146.269,235.568 C144.659,235.568 143.455,234.952 142.685,234.084 L143.385,233.188 C143.987,233.888 144.995,234.532 146.311,234.532 C147.977,234.532 148.509,233.636 148.509,232.908 C148.509,230.5 142.979,231.844 142.979,228.512 C142.979,226.972 144.351,225.908 146.199,225.908 C147.613,225.908 148.719,226.398 149.503,227.224 L148.803,228.078 C148.103,227.294 147.123,226.958 146.101,226.958 C144.995,226.958 144.183,227.56 144.183,228.442 C144.183,230.542 149.713,229.338 149.713,232.824 C149.713,234.168 148.789,235.568 146.269,235.568 Z M156.188,235.568 C155.068,235.568 154.144,235.218 153.458,234.504 L153.99,233.748 C154.438,234.266 155.292,234.714 156.216,234.714 C157.252,234.714 157.826,234.224 157.826,233.552 C157.826,231.914 153.64,232.922 153.64,230.416 C153.64,229.352 154.536,228.47 156.146,228.47 C157.308,228.47 158.12,228.904 158.652,229.45 L158.162,230.178 C157.756,229.688 157.028,229.324 156.146,229.324 C155.222,229.324 154.648,229.786 154.648,230.388 C154.648,231.858 158.834,230.892 158.834,233.524 C158.834,234.658 157.924,235.568 156.188,235.568 Z M172.932,235.4 L171.77,235.4 L171.77,227.098 L168.816,227.098 L168.816,226.062 L175.9,226.062 L175.9,227.098 L172.932,227.098 L172.932,235.4 Z M181.745,235.568 C180.737,235.568 180.233,234.994 180.233,233.986 L180.233,229.562 L179.113,229.562 L179.113,228.638 L180.233,228.638 L180.233,226.79 L181.297,226.79 L181.297,228.638 L182.669,228.638 L182.669,229.562 L181.297,229.562 L181.297,233.762 C181.297,234.266 181.521,234.63 181.969,234.63 C182.277,234.63 182.543,234.49 182.683,234.336 L182.991,235.134 C182.725,235.386 182.347,235.568 181.745,235.568 Z M196.865,235.568 C194.345,235.568 193.057,234.07 193.057,231.774 L193.057,226.062 L194.233,226.062 L194.233,231.746 C194.233,233.454 195.143,234.532 196.865,234.532 C198.587,234.532 199.511,233.454 199.511,231.746 L199.511,226.062 L200.687,226.062 L200.687,231.76 C200.687,234.084 199.399,235.568 196.865,235.568 Z M211.068,235.4 L210.018,235.4 L210.018,234.448 C209.5,235.036 208.618,235.568 207.61,235.568 C206.196,235.568 205.454,234.868 205.454,233.412 L205.454,228.638 L206.504,228.638 L206.504,233.09 C206.504,234.28 207.106,234.63 208.03,234.63 C208.842,234.63 209.626,234.154 210.018,233.608 L210.018,228.638 L211.068,228.638 L211.068,235.4 Z M226.328,235.4 L224.886,235.4 L221.12,226.062 L222.45,226.062 L225.6,234.126 L228.75,226.062 L230.08,226.062 L226.328,235.4 Z M236.653,235.4 L235.505,235.4 L232.691,228.638 L233.839,228.638 L236.079,234.182 L238.333,228.638 L239.467,228.638 L236.653,235.4 Z M257.877,235.4 L256.617,235.4 L254.559,227.868 L252.501,235.4 L251.241,235.4 L248.581,226.062 L249.869,226.062 L251.941,233.846 L254.083,226.062 L255.049,226.062 L257.191,233.846 L259.249,226.062 L260.551,226.062 L257.877,235.4 Z M271.338,235.4 L270.274,235.4 L268.51,229.968 L266.746,235.4 L265.696,235.4 L263.54,228.638 L264.632,228.638 L266.284,234.028 L268.062,228.638 L268.972,228.638 L270.736,234.028 L272.388,228.638 L273.494,228.638 L271.338,235.4 Z M291.484,235.4 L290.07,235.4 L287.088,231.424 L284.106,235.4 L282.692,235.4 L286.332,230.612 L282.902,226.062 L284.316,226.062 L287.088,229.786 L289.846,226.062 L291.274,226.062 L287.844,230.598 L291.484,235.4 Z M300.927,235.4 L299.723,235.4 L297.679,232.628 L295.649,235.4 L294.445,235.4 L297.035,231.928 L294.585,228.638 L295.803,228.638 L297.679,231.214 L299.569,228.638 L300.773,228.638 L298.323,231.928 L300.927,235.4 Z M314.941,235.4 L313.779,235.4 L313.779,231.452 L310.097,226.062 L311.455,226.062 L314.353,230.402 L317.251,226.062 L318.609,226.062 L314.941,231.452 L314.941,235.4 Z M321.206,238.046 L321.36,237.094 C321.514,237.164 321.766,237.206 321.934,237.206 C322.396,237.206 322.704,237.052 322.942,236.492 L323.39,235.47 L320.562,228.638 L321.71,228.638 L323.95,234.182 L326.204,228.638 L327.338,228.638 L323.95,236.772 C323.544,237.752 322.858,238.13 321.962,238.144 C321.738,238.144 321.388,238.102 321.206,238.046 Z M343.774,235.4 L336.928,235.4 L336.928,234.434 L342.178,227.098 L336.928,227.098 L336.928,226.062 L343.676,226.062 L343.676,227.028 L338.412,234.364 L343.774,234.364 L343.774,235.4 Z M352.951,235.4 L347.799,235.4 L347.799,234.574 L351.523,229.562 L347.799,229.562 L347.799,228.638 L352.895,228.638 L352.895,229.436 L349.143,234.476 L352.951,234.476 L352.951,235.4 Z M4.484,274.568 C1.922,274.568 0.914,272.006 0.914,269.738 C0.914,267.456 1.922,264.922 4.484,264.922 C7.032,264.922 8.054,267.456 8.054,269.738 C8.054,272.006 7.032,274.568 4.484,274.568 Z M4.484,273.532 C6.262,273.532 6.864,271.6 6.864,269.738 C6.864,267.876 6.262,265.958 4.484,265.958 C2.706,265.958 2.104,267.876 2.104,269.738 C2.104,271.6 2.706,273.532 4.484,273.532 Z M21.298,274.4 L20.136,274.4 L20.136,266.588 L18.638,268.184 L17.938,267.47 L20.276,265.062 L21.298,265.062 L21.298,274.4 Z M38.434,274.4 L32.022,274.4 L32.022,273.462 C35.382,270.83 37.216,269.276 37.216,267.666 C37.216,266.462 36.222,265.958 35.256,265.958 C34.136,265.958 33.268,266.434 32.722,267.134 L32.008,266.392 C32.722,265.44 33.94,264.922 35.256,264.922 C36.81,264.922 38.392,265.804 38.392,267.666 C38.392,269.57 36.46,271.306 33.856,273.364 L38.434,273.364 L38.434,274.4 Z M52.098,274.568 C50.516,274.568 49.354,273.868 48.78,273.028 L49.466,272.3 C50.012,273.028 50.964,273.532 52.07,273.532 C53.428,273.532 54.254,272.846 54.254,271.782 C54.254,270.62 53.302,270.13 51.93,270.13 C51.538,270.13 51.104,270.13 50.964,270.144 L50.964,269.08 C51.118,269.094 51.552,269.094 51.93,269.094 C53.106,269.094 54.1,268.632 54.1,267.554 C54.1,266.518 53.148,265.958 52.014,265.958 C50.992,265.958 50.236,266.35 49.55,267.092 L48.906,266.364 C49.578,265.538 50.656,264.922 52.112,264.922 C53.904,264.922 55.262,265.832 55.262,267.4 C55.262,268.758 54.128,269.43 53.26,269.57 C54.1,269.654 55.416,270.368 55.416,271.88 C55.416,273.434 54.156,274.568 52.098,274.568 Z M71.096,274.4 L69.934,274.4 L69.934,272.034 L65.496,272.034 L65.496,271.068 L69.5,265.062 L71.096,265.062 L71.096,271.012 L72.412,271.012 L72.412,272.034 L71.096,272.034 L71.096,274.4 Z M69.934,271.012 L69.934,266.14 L66.658,271.012 L69.934,271.012 Z M85.95,274.568 C84.382,274.568 83.36,273.994 82.66,273.07 L83.374,272.286 C83.99,273.084 84.816,273.532 85.95,273.532 C87.224,273.532 88.106,272.664 88.106,271.53 C88.106,270.298 87.224,269.514 85.964,269.514 C85.152,269.514 84.438,269.78 83.808,270.382 L82.954,270.088 L82.954,265.062 L88.666,265.062 L88.666,266.098 L84.116,266.098 L84.116,269.346 C84.578,268.898 85.362,268.506 86.3,268.506 C87.868,268.506 89.282,269.556 89.282,271.488 C89.282,273.378 87.826,274.568 85.95,274.568 Z M103.198,274.568 C100.58,274.568 99.586,272.286 99.586,269.738 C99.586,267.218 100.762,264.922 103.394,264.922 C104.584,264.922 105.396,265.37 105.97,266.042 L105.382,266.91 C104.906,266.35 104.36,265.958 103.394,265.958 C101.574,265.958 100.762,267.792 100.762,269.626 L100.762,269.99 C101.168,269.346 102.204,268.534 103.408,268.534 C105.088,268.534 106.46,269.528 106.46,271.516 C106.46,273.126 105.228,274.568 103.198,274.568 Z M103.142,273.532 C104.584,273.532 105.284,272.44 105.284,271.558 C105.284,270.186 104.332,269.542 103.142,269.542 C102.204,269.542 101.308,270.116 100.804,270.928 C100.902,272.09 101.518,273.532 103.142,273.532 Z M119.004,274.4 L117.716,274.4 L121.482,266.098 L116.456,266.098 L116.456,265.062 L122.826,265.062 L122.826,265.86 L119.004,274.4 Z M136.182,274.568 C134.334,274.568 132.836,273.63 132.836,272.034 C132.836,270.788 133.9,269.934 135.062,269.584 C133.984,269.276 132.99,268.562 132.99,267.344 C132.99,265.664 134.628,264.922 136.182,264.922 C137.722,264.922 139.388,265.664 139.388,267.344 C139.388,268.562 138.38,269.276 137.302,269.584 C138.464,269.934 139.528,270.788 139.528,272.034 C139.528,273.616 138.016,274.568 136.182,274.568 Z M136.182,269.108 C136.756,269.01 138.212,268.632 138.212,267.498 C138.212,266.532 137.302,265.958 136.182,265.958 C135.048,265.958 134.166,266.532 134.166,267.498 C134.166,268.632 135.622,269.01 136.182,269.108 Z M136.182,273.532 C137.33,273.532 138.352,272.916 138.352,271.908 C138.352,270.69 136.756,270.172 136.182,270.102 C135.608,270.172 134.012,270.69 134.012,271.908 C134.012,272.916 135.02,273.532 136.182,273.532 Z M152.898,274.554 C151.708,274.554 150.896,274.092 150.308,273.434 L150.896,272.566 C151.372,273.126 151.932,273.518 152.898,273.518 C154.788,273.518 155.53,271.628 155.53,269.85 C155.53,269.738 155.53,269.612 155.516,269.486 C155.11,270.13 154.074,270.942 152.884,270.942 C151.204,270.942 149.818,269.948 149.818,267.96 C149.818,266.35 151.05,264.908 153.094,264.908 C155.698,264.908 156.706,267.19 156.706,269.738 C156.706,272.258 155.516,274.554 152.898,274.554 Z M153.15,269.934 C154.074,269.934 154.984,269.36 155.488,268.534 C155.376,267.386 154.76,265.944 153.136,265.944 C151.708,265.944 150.994,267.022 150.994,267.918 C150.994,269.29 151.946,269.934 153.15,269.934 Z" id="Aa-Bb-Cc-Dd-Ee-Ff-Gg"></path>
        </g>
    </g>
</svg>