<?xml version="1.0" encoding="UTF-8"?>
<svg width="390px" height="313px" viewBox="0 0 390 313" version="1.1" xmlns="http://www.w3.org/2000/svg" xmlns:xlink="http://www.w3.org/1999/xlink">
    <!-- Generator: Sketch 52.6 (67491) - http://www.bohemiancoding.com/sketch -->
    <title>Abc</title>
    <desc>Created with Sketch.</desc>
    <g id="Abc" stroke="none" stroke-width="1" fill="none" fill-rule="evenodd">
        <g id="Abc-Copy" transform="translate(1.000000, 6.000000)" fill="#171717">
            <path d="M113.6,160 L101.6,124.2 L35.6,124.2 L23.6,160 L1.6,160 L56.8,10 L81.2,10 L136.6,160 L113.6,160 Z M68.8,25 L63.8,40.6 L41.6,106.4 L95.8,106.4 L74,40.6 L69.4,25 L68.8,25 Z M256.186667,100 C256.186667,144.8 238.786667,162.2 208.586667,162.2 C193.786667,162.2 181.386667,156.6 173.986667,147.4 L173.386667,147.6 L170.386667,160 L157.786667,160 L157.786667,2 L176.586667,0.8 L176.586667,35.8 L176.386667,51.8 L176.786667,52 C185.386667,43 197.586667,38.6 210.786667,38.6 C238.586667,38.6 256.186667,54.8 256.186667,100 Z M236.986667,100.4 C236.986667,64.2 225.386667,55.8 205.786667,55.8 C193.186667,55.8 182.786667,61 176.586667,70 L176.586667,131.8 C181.386667,139.6 191.386667,146.4 205.986667,146.4 C224.586667,146.4 236.986667,137.4 236.986667,100.4 Z M355.973333,44.8 L354.773333,61.8 C347.773333,58.6 339.173333,56.4 330.573333,56.4 C304.773333,56.4 295.173333,68.8 295.173333,99.6 C295.173333,133.2 307.373333,145.6 330.173333,145.6 C339.573333,145.6 348.373333,143.2 355.573333,138.8 L356.973333,154.4 C349.973333,159.2 338.773333,162.6 326.173333,162.6 C292.773333,162.6 275.573333,143.4 275.573333,99.6 C275.573333,59.4 291.173333,39 326.773333,39 C337.373333,39 348.173333,41.4 355.973333,44.8 Z"></path>
            <path d="M8.092,223 L7.252,220.494 L2.632,220.494 L1.792,223 L0.252,223 L4.116,212.5 L5.824,212.5 L9.702,223 L8.092,223 Z M4.956,213.55 L4.606,214.642 L3.052,219.248 L6.846,219.248 L5.32,214.642 L4.998,213.55 L4.956,213.55 Z M18.459,223 L18.333,221.978 L18.291,221.964 C17.801,222.678 16.891,223.126 15.813,223.126 C14.287,223.126 13.251,222.328 13.251,220.452 C13.251,218.884 14.259,217.918 16.247,217.918 C16.961,217.918 17.647,218.058 18.165,218.24 L18.165,217.414 C18.165,216.098 17.577,215.636 16.219,215.636 C15.337,215.636 14.623,215.79 13.881,216.14 L13.755,215.034 C14.553,214.67 15.449,214.488 16.443,214.488 C18.641,214.488 19.467,215.412 19.467,217.61 L19.467,223 L18.459,223 Z M18.151,220.634 L18.151,219.192 C17.941,219.066 17.325,218.884 16.485,218.884 C15.099,218.884 14.497,219.444 14.497,220.438 C14.497,221.628 15.211,222.034 16.177,222.034 C17.213,222.034 18.151,221.334 18.151,220.634 Z M38.703,220.018 C38.703,221.88 37.751,223 35.329,223 L31.311,223 L31.311,212.5 L35.161,212.5 C37.233,212.5 38.283,213.396 38.283,215.118 C38.283,216.42 37.653,217.148 36.785,217.442 L36.785,217.47 C37.989,217.75 38.703,218.548 38.703,220.018 Z M37.275,219.906 C37.275,218.688 36.645,218.128 35.287,218.128 L32.697,218.128 L32.697,221.768 L35.343,221.768 C36.575,221.768 37.275,221.292 37.275,219.906 Z M36.911,215.37 C36.911,214.208 36.351,213.76 35.119,213.76 L32.697,213.76 L32.697,217.008 L35.217,217.008 C36.365,217.008 36.911,216.476 36.911,215.37 Z M50.316,218.8 C50.316,221.936 49.098,223.154 46.984,223.154 C45.948,223.154 45.08,222.762 44.562,222.118 L44.52,222.132 L44.31,223 L43.428,223 L43.428,211.94 L44.744,211.856 L44.744,214.306 L44.73,215.426 L44.758,215.44 C45.36,214.81 46.214,214.502 47.138,214.502 C49.084,214.502 50.316,215.636 50.316,218.8 Z M48.972,218.828 C48.972,216.294 48.16,215.706 46.788,215.706 C45.906,215.706 45.178,216.07 44.744,216.7 L44.744,221.026 C45.08,221.572 45.78,222.048 46.802,222.048 C48.104,222.048 48.972,221.418 48.972,218.828 Z M68.334,212.808 L68.152,214.096 C67.606,213.844 66.794,213.662 65.954,213.662 C63.742,213.662 62.804,214.642 62.804,217.652 C62.804,220.872 63.756,221.88 65.996,221.88 C66.85,221.88 67.578,221.684 68.194,221.376 L68.376,222.58 C67.718,222.916 66.738,223.196 65.814,223.196 C62.706,223.196 61.292,221.474 61.292,217.652 C61.292,214.04 62.72,212.318 65.884,212.318 C66.752,212.318 67.76,212.542 68.334,212.808 Z M77.819,214.936 L77.735,216.126 C77.245,215.902 76.643,215.748 76.041,215.748 C74.235,215.748 73.563,216.616 73.563,218.772 C73.563,221.124 74.417,221.992 76.013,221.992 C76.671,221.992 77.287,221.824 77.791,221.516 L77.889,222.608 C77.399,222.944 76.615,223.182 75.733,223.182 C73.395,223.182 72.191,221.838 72.191,218.772 C72.191,215.958 73.283,214.53 75.775,214.53 C76.517,214.53 77.273,214.698 77.819,214.936 Z M97.405,217.708 C97.405,221.53 95.935,223 92.911,223 L89.285,223 L89.285,212.5 L92.883,212.5 C96.075,212.5 97.405,214.026 97.405,217.708 Z M95.907,217.708 C95.907,214.684 95.025,213.844 92.869,213.844 L90.713,213.844 L90.713,221.67 L92.883,221.67 C94.941,221.67 95.907,220.886 95.907,217.708 Z M108.458,223 L107.436,223 L107.268,222.132 L107.226,222.118 C106.708,222.804 105.882,223.168 104.762,223.168 C102.508,223.168 101.556,221.796 101.556,218.814 C101.556,215.986 102.55,214.502 104.776,214.502 C105.7,214.502 106.54,214.824 107.128,215.44 L107.156,215.426 L107.128,214.306 L107.128,211.954 L108.458,211.87 L108.458,223 Z M107.128,221.04 L107.128,216.686 C106.778,216.112 106.036,215.734 105.14,215.734 C103.516,215.734 102.928,216.602 102.928,218.87 C102.928,221.208 103.46,222.062 105.126,222.062 C106.288,222.062 106.89,221.488 107.128,221.04 Z M121.884,221.698 L127.19,221.698 L127.148,223 L120.456,223 L120.456,212.5 L126.91,212.5 L126.952,213.816 L121.884,213.816 L121.884,216.938 L126.224,216.938 L126.224,218.142 L121.884,218.142 L121.884,221.698 Z M134.953,223.168 C132.209,223.168 131.075,221.726 131.075,218.604 C131.075,215.986 132.223,214.516 134.519,214.516 C136.507,214.516 137.809,215.692 137.809,218.366 C137.809,218.576 137.795,218.828 137.781,219.01 L132.433,219.01 C132.503,221.208 133.315,221.964 135.107,221.964 C135.947,221.964 136.661,221.782 137.375,221.432 L137.529,222.552 C136.829,222.93 135.961,223.168 134.953,223.168 Z M132.405,218.1 L136.591,218.1 C136.563,216.336 135.737,215.664 134.533,215.664 C133.119,215.664 132.489,216.448 132.405,218.1 Z M155.771,213.858 L150.731,213.858 L150.731,217.078 L154.959,217.078 L154.945,218.352 L150.731,218.352 L150.731,223 L149.289,223 L149.289,212.5 L155.743,212.5 L155.771,213.858 Z M161.896,223 L160.566,223 L160.566,215.678 L159.334,215.678 L159.334,214.656 L160.566,214.656 L160.566,214.278 C160.566,212.878 161.378,211.856 163.296,211.856 C163.73,211.856 164.22,211.926 164.528,212.024 L164.444,212.934 C164.178,212.864 163.856,212.822 163.534,212.822 C162.372,212.822 161.896,213.368 161.896,214.292 L161.896,214.656 L164.038,214.656 L164.038,215.678 L161.896,215.678 L161.896,223 Z M182.602,217.442 L182.602,222.594 C181.846,222.958 180.698,223.196 179.55,223.196 C176.232,223.196 174.818,221.53 174.818,217.778 C174.818,213.97 176.288,212.318 179.592,212.318 C180.572,212.318 181.636,212.528 182.378,212.836 L182.21,214.124 C181.482,213.816 180.614,213.634 179.662,213.634 C177.324,213.634 176.33,214.586 176.33,217.764 C176.33,220.844 177.212,221.852 179.508,221.852 C180.222,221.852 180.81,221.754 181.328,221.558 L181.328,217.442 L182.602,217.442 Z M190.057,219.472 C189.665,219.472 189.273,219.444 188.895,219.346 C188.489,219.458 188.265,219.682 188.265,219.962 C188.265,220.242 188.489,220.48 188.993,220.522 L191.023,220.69 C193.039,220.858 193.697,221.53 193.697,222.706 C193.697,224.232 192.745,225.212 190.141,225.212 C187.887,225.212 186.935,224.316 186.935,223.014 C186.935,222.426 187.215,221.866 187.747,221.446 C187.355,221.222 187.047,220.83 187.047,220.284 C187.047,219.752 187.411,219.262 188.097,218.982 C187.495,218.618 187.103,218.002 187.103,217.008 C187.103,215.468 187.929,214.516 190.057,214.516 C190.785,214.516 191.541,214.642 192.115,215.034 L193.487,214.488 L193.781,215.16 L192.773,215.86 C192.913,216.182 192.997,216.546 192.997,217.008 C192.997,218.59 192.227,219.472 190.057,219.472 Z M190.799,221.866 L188.769,221.684 C188.307,222.006 188.083,222.454 188.083,222.846 C188.083,223.686 188.671,224.162 190.113,224.162 C192.003,224.162 192.479,223.644 192.479,222.888 C192.479,222.3 192.171,221.992 190.799,221.866 Z M190.071,215.566 C188.853,215.566 188.419,216.042 188.419,217.036 C188.419,218.212 189.105,218.492 190.043,218.492 C191.331,218.492 191.723,218.016 191.723,217.036 C191.723,215.944 191.233,215.566 190.071,215.566 Z M212.765,223 L211.323,223 L211.323,218.226 L206.367,218.226 L206.367,223 L204.939,223 L204.939,212.5 L206.367,212.5 L206.367,216.896 L211.323,216.896 L211.323,212.5 L212.765,212.5 L212.765,223 Z M224.476,223 L223.16,223 L223.16,217.47 C223.16,216.35 222.558,215.734 221.27,215.734 C220.402,215.734 219.646,216.154 219.31,216.686 L219.31,223 L217.994,223 L217.994,211.954 L219.31,211.87 L219.31,214.292 L219.296,215.412 L219.324,215.426 C219.926,214.796 220.78,214.502 221.662,214.502 C223.482,214.502 224.476,215.566 224.476,217.47 L224.476,223 Z M236.488,223 L236.488,212.5 L237.958,212.5 L237.958,223 L236.488,223 Z M244.951,223 L243.621,223 L243.621,214.698 L244.951,214.628 L244.951,223 Z M245.147,212.542 C245.147,213.032 244.867,213.256 244.293,213.256 C243.719,213.256 243.439,213.074 243.439,212.542 C243.439,212.08 243.719,211.828 244.293,211.828 C244.867,211.828 245.147,212.08 245.147,212.542 Z M262.269,212.5 L262.269,219.458 C262.269,222.02 260.897,223.196 258.559,223.196 C257.663,223.196 256.963,222.972 256.445,222.622 L256.557,221.348 C257.005,221.684 257.607,221.88 258.377,221.88 C259.917,221.88 260.813,221.11 260.813,219.444 L260.813,212.5 L262.269,212.5 Z M269.08,214.628 L269.08,223.126 C269.08,224.708 268.226,225.212 267.092,225.212 C266.756,225.212 266.392,225.142 266.126,225.044 L266.196,224.064 C266.378,224.12 266.588,224.162 266.784,224.162 C267.358,224.162 267.764,223.854 267.764,223.084 L267.764,214.698 L269.08,214.628 Z M269.262,212.514 C269.262,213.004 268.996,213.242 268.408,213.242 C267.834,213.242 267.54,213.046 267.54,212.514 C267.54,212.052 267.834,211.8 268.408,211.8 C268.996,211.8 269.262,212.052 269.262,212.514 Z M289.52,223 L287.728,223 L284.354,218.156 L282.828,218.156 L282.828,223 L281.4,223 L281.4,212.5 L282.828,212.5 L282.828,216.938 L284.382,216.938 L287.602,212.5 L289.31,212.5 L285.684,217.47 L289.52,223 Z M295.071,211.87 L295.071,217.946 L296.345,217.946 L298.809,214.656 L300.363,214.656 L297.507,218.464 L300.475,223 L298.921,223 L296.359,219.066 L295.071,219.066 L295.071,223 L293.755,223 L293.755,211.954 L295.071,211.87 Z M313.005,221.656 L317.891,221.656 L317.849,223 L311.563,223 L311.563,212.5 L313.005,212.5 L313.005,221.656 Z M323.61,223 L322.28,223 L322.28,211.954 L323.61,211.87 L323.61,223 Z M335.846,212.5 L337.47,212.5 L340.48,219.92 L340.886,220.97 L340.928,220.97 L341.32,219.92 L344.33,212.5 L345.94,212.5 L345.94,223 L344.638,223 L344.638,216.056 L344.666,214.922 L344.624,214.908 L344.218,215.972 L341.376,223 L340.368,223 L337.54,216.028 L337.134,214.964 L337.106,214.978 L337.12,216.112 L337.12,223 L335.846,223 L335.846,212.5 Z M361.823,223 L360.507,223 L360.507,217.456 C360.507,216.28 359.849,215.748 358.771,215.748 C357.875,215.748 357.119,216.266 357.119,217.316 L357.119,223 L355.803,223 L355.803,217.316 C355.803,216.182 355.089,215.734 354.165,215.734 C353.465,215.734 352.751,216.112 352.415,216.672 L352.415,223 L351.085,223 L351.085,214.684 L352.037,214.614 L352.275,215.51 L352.317,215.51 C352.821,214.894 353.633,214.53 354.473,214.53 C355.593,214.53 356.335,214.95 356.727,215.804 L356.755,215.804 C357.231,214.936 358.085,214.516 359.107,214.516 C360.717,214.516 361.823,215.468 361.823,217.442 L361.823,223 Z M9.254,262 L8.232,262 L3.276,254.776 L2.66,253.824 L2.632,253.838 L2.646,254.972 L2.646,262 L1.358,262 L1.358,251.5 L2.66,251.5 L7.98,259.438 L8.008,259.424 L7.98,258.304 L7.98,251.5 L9.254,251.5 L9.254,262 Z M20.881,262 L19.565,262 L19.565,256.484 C19.565,255.252 18.907,254.734 17.675,254.734 C16.961,254.734 16.121,255.07 15.729,255.672 L15.729,262 L14.399,262 L14.399,253.684 L15.351,253.614 L15.575,254.496 L15.617,254.496 C16.191,253.866 17.101,253.502 18.039,253.502 C19.803,253.502 20.881,254.496 20.881,256.484 L20.881,262 Z M40.901,256.75 C40.901,260.614 39.697,262.196 36.561,262.196 C33.453,262.196 32.207,260.586 32.207,256.75 C32.207,252.914 33.439,251.332 36.561,251.332 C39.697,251.332 40.901,252.914 40.901,256.75 Z M39.403,256.75 C39.403,253.53 38.633,252.662 36.561,252.662 C34.503,252.662 33.719,253.53 33.719,256.75 C33.719,259.956 34.503,260.852 36.561,260.852 C38.619,260.852 39.403,259.956 39.403,256.75 Z M52.276,257.856 C52.276,260.95 51.198,262.182 48.692,262.182 C46.172,262.182 45.052,260.95 45.052,257.856 C45.052,254.762 46.186,253.516 48.692,253.516 C51.212,253.516 52.276,254.762 52.276,257.856 Z M46.424,257.856 C46.424,260.25 47.054,261.062 48.692,261.062 C50.302,261.062 50.918,260.236 50.918,257.856 C50.918,255.462 50.302,254.65 48.692,254.65 C47.054,254.65 46.424,255.462 46.424,257.856 Z M70.938,254.79 C70.938,256.946 69.874,258.066 67.27,258.066 L65.212,258.066 L65.212,262 L63.784,262 L63.784,251.5 L67.27,251.5 C69.846,251.5 70.938,252.508 70.938,254.79 Z M69.468,254.79 C69.468,253.264 68.796,252.746 67.27,252.746 L65.212,252.746 L65.212,256.862 L67.27,256.862 C68.754,256.862 69.468,256.4 69.468,254.79 Z M82.243,257.814 C82.243,260.894 80.983,262.154 78.981,262.154 C78.099,262.154 77.287,261.93 76.713,261.244 L76.685,261.258 L76.699,262.392 L76.699,264.072 L75.341,264.072 L75.341,253.698 L76.293,253.628 L76.573,254.496 C77.175,253.88 78.043,253.516 79.051,253.516 C81.095,253.516 82.243,254.58 82.243,257.814 Z M80.871,257.814 C80.871,255.392 80.129,254.734 78.729,254.734 C77.833,254.734 77.133,255.084 76.699,255.714 L76.699,259.998 C77.021,260.544 77.679,261.02 78.659,261.02 C79.961,261.02 80.871,260.39 80.871,257.814 Z M101.913,256.75 C101.913,260.082 101.017,261.706 98.763,262.07 L101.045,263.708 L99.253,264.156 L97.293,262.196 C94.381,262.098 93.219,260.474 93.219,256.75 C93.219,252.914 94.451,251.332 97.573,251.332 C100.709,251.332 101.913,252.914 101.913,256.75 Z M100.415,256.75 C100.415,253.53 99.645,252.662 97.573,252.662 C95.515,252.662 94.731,253.53 94.731,256.75 C94.731,259.956 95.515,260.852 97.573,260.852 C99.631,260.852 100.415,259.956 100.415,256.75 Z M112.938,264.072 L111.608,264.086 L111.608,262.42 L111.636,261.286 L111.608,261.272 C111.062,261.818 110.278,262.126 109.34,262.126 C107.352,262.126 106.064,260.936 106.064,257.842 C106.064,254.846 107.198,253.516 109.382,253.516 C110.432,253.516 111.314,253.88 111.86,254.58 L111.902,254.58 L112.084,253.656 L112.938,253.656 L112.938,264.072 Z M111.608,259.858 L111.608,255.742 C111.342,255.196 110.558,254.748 109.634,254.748 C108.066,254.748 107.436,255.476 107.436,257.842 C107.436,260.18 108.136,260.964 109.634,260.964 C110.81,260.964 111.524,260.362 111.608,259.858 Z M131.866,254.496 C131.866,256.106 131.138,257.086 129.808,257.31 L132.552,262 L130.844,262 L128.478,257.576 L126.364,257.576 L126.364,262 L124.936,262 L124.936,251.5 L128.492,251.5 C130.788,251.5 131.866,252.466 131.866,254.496 Z M130.382,254.552 C130.382,253.236 129.808,252.746 128.492,252.746 L126.364,252.746 L126.364,256.442 L128.436,256.442 C129.78,256.442 130.382,255.938 130.382,254.552 Z M137.963,262 L136.633,262 L136.633,253.712 L137.697,253.642 L137.809,255.434 L137.837,255.434 C138.355,254.23 139.265,253.53 140.399,253.53 C140.707,253.53 141.001,253.572 141.225,253.642 L141.141,254.986 C140.889,254.902 140.609,254.874 140.315,254.874 C139.013,254.874 137.963,255.98 137.963,257.772 L137.963,262 Z M158.529,259.004 C158.529,260.978 157.255,262.196 154.945,262.196 C153.741,262.196 152.705,261.888 151.865,261.398 L152.089,260.096 C152.943,260.614 153.853,260.894 154.931,260.894 C156.415,260.894 157.143,260.222 157.143,259.102 C157.143,256.722 151.949,257.758 151.949,254.272 C151.949,252.62 153.013,251.332 155.407,251.332 C156.429,251.332 157.423,251.528 158.179,251.892 L157.983,253.138 C157.157,252.816 156.359,252.634 155.477,252.634 C153.895,252.634 153.335,253.362 153.335,254.188 C153.335,256.47 158.529,255.406 158.529,259.004 Z M167.916,259.55 C167.916,261.118 167.034,262.168 164.976,262.168 C163.982,262.168 163.058,261.93 162.414,261.468 L162.582,260.32 C163.212,260.796 164.164,261.048 164.962,261.048 C166.18,261.048 166.684,260.46 166.684,259.676 C166.684,257.786 162.414,258.668 162.414,255.854 C162.414,254.44 163.408,253.516 165.326,253.516 C166.138,253.516 166.908,253.684 167.58,253.992 L167.468,255.112 C166.768,254.818 165.97,254.664 165.298,254.664 C164.304,254.664 163.674,255.098 163.674,255.784 C163.674,257.562 167.916,256.638 167.916,259.55 Z M185.906,252.844 L182.784,252.844 L182.784,262 L181.328,262 L181.328,252.844 L178.206,252.844 L178.248,251.5 L185.878,251.5 L185.906,252.844 Z M193.669,254.692 L191.611,254.692 L191.611,259.816 C191.611,260.684 192.073,261.034 192.829,261.034 C193.067,261.034 193.361,260.992 193.529,260.922 L193.613,261.93 C193.361,262.056 192.899,262.14 192.451,262.14 C191.023,262.14 190.281,261.342 190.281,259.858 L190.281,254.692 L189.119,254.692 L189.119,253.656 L190.323,253.656 L190.575,251.584 L191.611,251.472 L191.611,253.656 L193.669,253.656 L193.669,254.692 Z M212.737,251.5 L212.737,258.22 C212.737,260.978 211.309,262.196 208.747,262.196 C206.185,262.196 204.743,260.978 204.743,258.22 L204.743,251.5 L206.171,251.5 L206.171,258.206 C206.171,260.04 207.011,260.838 208.747,260.838 C210.497,260.838 211.309,260.026 211.309,258.206 L211.309,251.5 L212.737,251.5 Z M224.042,253.656 L224.042,259.256 C224.042,261.104 222.992,262.154 220.794,262.154 C218.61,262.154 217.56,261.09 217.56,259.256 L217.56,253.656 L218.876,253.656 L218.876,259.228 C218.876,260.348 219.52,260.936 220.808,260.936 C222.068,260.936 222.726,260.362 222.726,259.228 L222.726,253.656 L224.042,253.656 Z M242.424,251.5 L243.936,251.5 L240.198,262 L238.56,262 L234.822,251.5 L236.418,251.5 L239.064,259.55 L239.4,260.628 L239.442,260.628 L239.764,259.55 L242.424,251.5 Z M253.687,253.656 L255.157,253.656 L251.923,262 L250.383,262 L247.149,253.656 L248.619,253.656 L250.775,259.76 L251.139,260.824 L251.181,260.824 L251.531,259.76 L253.687,253.656 Z M271.369,251.5 L272.965,251.5 L274.883,259.494 L275.135,260.6 L275.177,260.6 L275.387,259.494 L277.109,251.5 L278.537,251.5 L276.003,262 L274.253,262 L272.391,254.006 L272.167,252.886 L272.125,252.886 L271.887,254.006 L270.039,262 L268.289,262 L265.741,251.5 L267.239,251.5 L268.961,259.536 L269.185,260.642 L269.227,260.642 L269.465,259.536 L271.369,251.5 Z M287.154,253.656 L288.568,253.656 L290.094,259.872 L290.346,260.978 L290.388,260.978 L290.598,259.872 L291.914,253.656 L293.216,253.656 L291.2,262 L289.548,262 L288.148,256.134 L287.91,255.014 L287.868,255.014 L287.616,256.134 L286.174,262 L284.55,262 L282.436,253.656 L283.766,253.656 L285.152,259.83 L285.376,260.936 L285.418,260.936 L285.656,259.83 L287.154,253.656 Z M312.41,251.5 L309.288,256.526 L312.62,262 L310.968,262 L308.252,257.38 L305.592,262 L303.912,262 L307.174,256.554 L304.01,251.5 L305.746,251.5 L308.266,255.728 L310.758,251.5 L312.41,251.5 Z M322.077,262 L319.935,258.402 L317.835,262 L316.337,262 L319.053,257.772 L316.393,253.656 L317.961,253.656 L320.019,257.128 L322.049,253.656 L323.561,253.656 L320.971,257.73 L323.645,262 L322.077,262 Z M333.949,251.5 L335.601,251.5 L337.883,256.106 L338.373,257.128 L338.415,257.128 L338.877,256.106 L341.159,251.5 L342.741,251.5 L339.101,258.444 L339.101,262 L337.645,262 L337.645,258.444 L333.949,251.5 Z M347.97,263.204 C348.614,263.204 349.062,262.952 349.426,262.14 L349.468,262 L345.814,253.656 L347.354,253.656 L349.734,259.718 L350.126,260.768 L350.168,260.768 L350.476,259.69 L352.394,253.656 L353.822,253.656 L350.784,262.098 C350.224,263.624 349.412,264.24 348.194,264.24 C347.732,264.24 347.27,264.142 346.906,263.974 L347.032,262.98 C347.354,263.134 347.662,263.204 347.97,263.204 Z M371.602,262 L364.406,262 L364.406,261.034 L369.25,253.782 L369.88,252.872 L369.866,252.844 L364.56,252.844 L364.616,251.5 L371.616,251.5 L371.616,252.592 L366.828,259.746 L366.198,260.628 L366.212,260.67 L371.644,260.67 L371.602,262 Z M381.619,254.622 L377.923,259.928 L377.265,260.81 L377.279,260.852 L381.703,260.852 L381.661,262 L375.725,262 L375.725,261.048 L379.435,255.728 L380.093,254.832 L380.079,254.804 L375.879,254.804 L375.921,253.656 L381.619,253.656 L381.619,254.622 Z M8.288,295.764 C8.288,299.642 7.168,301.154 4.55,301.154 C1.89,301.154 0.798,299.642 0.798,295.764 C0.798,291.774 1.89,290.374 4.55,290.374 C7.182,290.374 8.288,291.774 8.288,295.764 Z M6.916,295.75 C6.916,292.404 6.174,291.634 4.55,291.634 C2.912,291.634 2.156,292.418 2.156,295.75 C2.156,299.138 2.912,299.894 4.55,299.894 C6.188,299.894 6.916,299.11 6.916,295.75 Z M21.07,301 L21.07,299.936 L22.932,299.936 L22.932,293.44 L22.96,292.32 L22.932,292.292 L21.98,292.908 L20.692,293.72 L20.538,292.502 L23.534,290.472 L24.36,290.472 L24.36,299.936 L26.18,299.936 L26.18,301 L21.07,301 Z M45.024,293.272 C45.024,295.428 42.994,297.29 40.166,299.67 L40.166,299.712 L45.08,299.712 L45.038,301 L38.276,301 L38.276,300.034 C40.964,297.472 43.596,295.344 43.596,293.412 C43.596,292.432 42.938,291.676 41.356,291.676 C40.348,291.676 39.396,292.096 38.654,292.698 L38.276,291.536 C39.088,290.878 40.25,290.388 41.58,290.388 C43.82,290.388 45.024,291.494 45.024,293.272 Z M63.728,297.864 C63.728,299.824 62.524,301.126 59.878,301.126 C58.478,301.126 57.484,300.748 56.728,300.286 L57.022,299.138 C57.834,299.628 58.73,299.908 59.85,299.908 C61.586,299.908 62.37,299.04 62.37,297.808 C62.37,296.548 61.502,295.974 59.024,295.974 L59.024,294.924 C61.334,294.924 62.146,294.28 62.146,293.16 C62.146,292.138 61.32,291.634 59.934,291.634 C58.786,291.634 57.918,292.012 57.148,292.642 L56.784,291.522 C57.526,290.892 58.674,290.388 60.004,290.388 C62.16,290.388 63.434,291.34 63.434,293.062 C63.434,294.294 62.748,295.022 61.712,295.386 L61.712,295.414 C63,295.75 63.728,296.506 63.728,297.864 Z M82.53,298.718 L81.256,298.718 L81.256,301 L79.968,301 L79.968,298.718 L75.11,298.718 L74.998,297.808 L79.562,290.5 L81.256,290.5 L81.256,297.5 L82.572,297.5 L82.53,298.718 Z M80.01,297.5 L80.08,292.852 L80.122,291.718 L80.094,291.704 L79.506,292.684 L77.154,296.548 L76.552,297.458 L76.566,297.5 L80.01,297.5 Z M100.674,297.416 C100.674,299.796 99.498,301.126 97.006,301.126 C95.774,301.126 94.78,300.832 93.954,300.286 L94.22,299.11 C95.032,299.614 95.802,299.908 96.894,299.908 C98.56,299.908 99.316,299.124 99.316,297.542 C99.316,296.156 98.574,295.568 96.978,295.568 C96.068,295.568 95.158,295.792 94.542,296.1 L94.01,295.554 L94.43,290.5 L100.156,290.5 L100.212,291.788 L95.522,291.788 L95.284,294.714 C95.914,294.49 96.642,294.378 97.342,294.378 C99.54,294.378 100.674,295.386 100.674,297.416 Z M119.364,297.388 C119.364,299.88 118.132,301.126 115.822,301.126 C113.414,301.126 112.098,299.81 112.098,296.072 C112.098,292.222 113.624,290.374 116.48,290.374 C117.334,290.374 118.048,290.5 118.804,290.794 L118.678,292.026 C118.006,291.774 117.418,291.662 116.648,291.662 C114.604,291.662 113.568,292.754 113.428,295.204 L113.47,295.232 C114.184,294.658 115.122,294.308 116.102,294.308 C118.328,294.308 119.364,295.316 119.364,297.388 Z M118.006,297.374 C118.006,296.03 117.348,295.414 115.85,295.414 C115.052,295.414 114.016,295.806 113.498,296.422 C113.54,298.998 114.212,299.908 115.822,299.908 C117.264,299.908 118.006,299.068 118.006,297.374 Z M138.012,290.514 L138.012,291.718 L133.574,301 L131.992,301 L136.626,291.872 L130.69,291.872 L130.76,290.514 L138.012,290.514 Z M149.156,298.088 C149.156,296.926 149.884,295.988 151.018,295.47 L151.018,295.428 C150.178,295.008 149.562,294.322 149.562,293.062 C149.562,291.396 150.528,290.388 152.852,290.388 C155.106,290.388 156.128,291.34 156.128,293.062 C156.128,294.126 155.582,294.966 154.602,295.484 L154.602,295.512 C155.666,295.918 156.52,296.59 156.52,298.088 C156.52,300.118 155.26,301.126 152.852,301.126 C150.304,301.126 149.156,300.104 149.156,298.088 Z M155.162,298.186 C155.162,296.758 153.692,296.45 152.25,295.974 C151.256,296.422 150.486,297.052 150.486,298.102 C150.486,299.362 151.158,299.978 152.88,299.978 C154.28,299.978 155.162,299.446 155.162,298.186 Z M150.85,293.118 C150.85,294.378 152.082,294.714 153.398,295.092 C154.42,294.602 154.896,294.028 154.896,293.174 C154.896,292.082 154.252,291.536 152.838,291.536 C151.48,291.536 150.85,292.082 150.85,293.118 Z M174.958,295.232 C174.958,299.446 173.558,301.126 170.772,301.126 C169.792,301.126 169.106,300.986 168.336,300.636 L168.532,299.46 C169.218,299.754 169.834,299.894 170.646,299.894 C172.606,299.894 173.53,298.76 173.642,295.974 L173.614,295.96 C172.928,296.534 172.046,296.8 171.052,296.8 C168.728,296.8 167.678,295.568 167.678,293.678 C167.678,291.648 168.798,290.374 171.192,290.374 C173.572,290.374 174.958,291.97 174.958,295.232 Z M173.586,294.728 C173.558,292.46 172.634,291.592 171.178,291.592 C169.736,291.592 169.008,292.278 169.008,293.622 C169.008,294.91 169.708,295.666 171.276,295.666 C172.214,295.666 173.04,295.386 173.586,294.728 Z" id="Aa-Bb-Cc-Dd-Ee-Ff-Gg-Copy"></path>
        </g>
    </g>
</svg>