<?xml version="1.0" encoding="UTF-8"?>
<svg width="313px" height="639px" viewBox="0 0 313 639" version="1.1" xmlns="http://www.w3.org/2000/svg" xmlns:xlink="http://www.w3.org/1999/xlink">
    <!-- Generator: Sketch 51.3 (57544) - http://www.bohemiancoding.com/sketch -->
    <title>Wire Social</title>
    <desc>Created with Sketch.</desc>
    <defs></defs>
    <g id="Projets" stroke="none" stroke-width="1" fill="none" fill-rule="evenodd">
        <g id="ENGIE" transform="translate(-853.000000, -3395.000000)">
            <g id="WIRES" transform="translate(150.000000, 3395.000000)">
                <g id="Wire-Social" transform="translate(704.000000, 1.000000)">
                    <g id="Phone" stroke="#FFFFFF">
                        <path d="M39,-5.1159077e-13 L272,-5.1159077e-13 C293.539105,-5.15547439e-13 311,17.4608948 311,39 L311,598 C311,619.539105 293.539105,637 272,637 L39,637 C17.4608948,637 -1.41844769e-12,619.539105 -1.42108547e-12,598 L-1.42108547e-12,39 C-1.42372325e-12,17.4608948 17.4608948,-5.076341e-13 39,-5.1159077e-13 Z" id="base" stroke-opacity="0.49572577"></path>
                        <path d="M10.7163934,597.330554 L10.7163934,38.6502462 C10.7163934,22.7798717 23.8106607,9.692 39.6983521,9.692 C44.7959618,9.692 44.7959618,9.692 48.0290377,9.692 C50.3590315,9.692 50.3590315,9.692 50.9412306,9.692 L65.1822099,9.692 L67.4351537,9.692 C70.6065431,9.692 73.1774622,12.2629191 73.177073,15.4540329 C72.7908685,25.2364229 80.6007077,33.0424282 90.6660677,32.9079377 L219.591187,32.9079837 C229.502587,33.0423899 237.315237,25.2335762 237.073013,15.4343085 C237.073013,12.2629191 239.643932,9.692 242.815321,9.692 L271.301648,9.692 C287.189339,9.692 300.283607,22.7798717 300.283607,38.6502462 L300.283607,597.330554 C300.283607,613.200928 287.189339,626.2888 271.301648,626.2888 L39.6983521,626.2888 C23.8106607,626.2888 10.7163934,613.200928 10.7163934,597.330554 Z" id="Mask" stroke-opacity="0.497310915"></path>
                    </g>
                    <g id="Social-Media" transform="translate(11.000000, 92.000000)">
                        <g id="TW" transform="translate(21.000000, 122.000000)">
                            <circle id="-" stroke-opacity="0.5" stroke="#FFFFFF" fill-rule="nonzero" cx="55" cy="55" r="55"></circle>
                            <path d="M32.1271237,131.250822 L28.1131237,131.250822 L28.1131237,143.022822 L26.2411237,143.022822 L26.2411237,131.250822 L22.2271237,131.250822 L22.2811237,129.522822 L32.0911237,129.522822 L32.1271237,131.250822 Z M39.4171237,132.294822 L41.2351237,132.294822 L43.1971237,140.286822 L43.5211237,141.708822 L43.5751237,141.708822 L43.8451237,140.286822 L45.5371237,132.294822 L47.2111237,132.294822 L44.6191237,143.022822 L42.4951237,143.022822 L40.6951237,135.480822 L40.3891237,134.040822 L40.3351237,134.040822 L40.0111237,135.480822 L38.1571237,143.022822 L36.0691237,143.022822 L33.3511237,132.294822 L35.0611237,132.294822 L36.8431237,140.232822 L37.1311237,141.654822 L37.1851237,141.654822 L37.4911237,140.232822 L39.4171237,132.294822 Z M51.7831237,143.022822 L50.0731237,143.022822 L50.0731237,132.348822 L51.7831237,132.258822 L51.7831237,143.022822 Z M52.0351237,129.576822 C52.0351237,130.206822 51.6751237,130.494822 50.9371237,130.494822 C50.1991237,130.494822 49.8391237,130.260822 49.8391237,129.576822 C49.8391237,128.982822 50.1991237,128.658822 50.9371237,128.658822 C51.6751237,128.658822 52.0351237,128.982822 52.0351237,129.576822 Z M60.1891237,133.626822 L57.5431237,133.626822 L57.5431237,140.214822 C57.5431237,141.330822 58.1371237,141.780822 59.1091237,141.780822 C59.4151237,141.780822 59.7931237,141.726822 60.0091237,141.636822 L60.1171237,142.932822 C59.7931237,143.094822 59.1991237,143.202822 58.6231237,143.202822 C56.7871237,143.202822 55.8331237,142.176822 55.8331237,140.268822 L55.8331237,133.626822 L54.3391237,133.626822 L54.3391237,132.294822 L55.8871237,132.294822 L56.2111237,129.630822 L57.5431237,129.486822 L57.5431237,132.294822 L60.1891237,132.294822 L60.1891237,133.626822 Z M67.2451237,133.626822 L64.5991237,133.626822 L64.5991237,140.214822 C64.5991237,141.330822 65.1931237,141.780822 66.1651237,141.780822 C66.4711237,141.780822 66.8491237,141.726822 67.0651237,141.636822 L67.1731237,142.932822 C66.8491237,143.094822 66.2551237,143.202822 65.6791237,143.202822 C63.8431237,143.202822 62.8891237,142.176822 62.8891237,140.268822 L62.8891237,133.626822 L61.3951237,133.626822 L61.3951237,132.294822 L62.9431237,132.294822 L63.2671237,129.630822 L64.5991237,129.486822 L64.5991237,132.294822 L67.2451237,132.294822 L67.2451237,133.626822 Z M73.7251237,143.238822 C70.1971237,143.238822 68.7391237,141.384822 68.7391237,137.370822 C68.7391237,134.004822 70.2151237,132.114822 73.1671237,132.114822 C75.7231237,132.114822 77.3971237,133.626822 77.3971237,137.064822 C77.3971237,137.334822 77.3791237,137.658822 77.3611237,137.892822 L70.4851237,137.892822 C70.5751237,140.718822 71.6191237,141.690822 73.9231237,141.690822 C75.0031237,141.690822 75.9211237,141.456822 76.8391237,141.006822 L77.0371237,142.446822 C76.1371237,142.932822 75.0211237,143.238822 73.7251237,143.238822 Z M70.4491237,136.722822 L75.8311237,136.722822 C75.7951237,134.454822 74.7331237,133.590822 73.1851237,133.590822 C71.3671237,133.590822 70.5571237,134.598822 70.4491237,136.722822 Z M81.4651237,143.022822 L79.7551237,143.022822 L79.7551237,132.366822 L81.1231237,132.276822 L81.2671237,134.580822 L81.3031237,134.580822 C81.9691237,133.032822 83.1391237,132.132822 84.5971237,132.132822 C84.9931237,132.132822 85.3711237,132.186822 85.6591237,132.276822 L85.5511237,134.004822 C85.2271237,133.896822 84.8671237,133.860822 84.4891237,133.860822 C82.8151237,133.860822 81.4651237,135.282822 81.4651237,137.586822 L81.4651237,143.022822 Z" id="Twitter" fill-opacity="0.500566123" fill="#FFFFFF"></path>
                            <path d="M40.0051237,60.0888216 L38.3671237,60.0888216 L38.3671237,63.0228216 L36.7111237,63.0228216 L36.7111237,60.0888216 L30.4651237,60.0888216 L30.3211237,58.9188216 L36.1891237,49.5228216 L38.3671237,49.5228216 L38.3671237,58.5228216 L40.0591237,58.5228216 L40.0051237,60.0888216 Z M36.7651237,58.5228216 L36.8551237,52.5468216 L36.9091237,51.0888216 L36.8731237,51.0708216 L36.1171237,52.3308216 L33.0931237,57.2988216 L32.3191237,58.4688216 L32.3371237,58.5228216 L36.7651237,58.5228216 Z M44.2891237,62.1048216 C44.2891237,62.8068216 43.9471237,63.2208216 43.1731237,63.2208216 C42.3991237,63.2208216 42.0571237,62.9148216 42.0571237,62.1048216 C42.0571237,61.4028216 42.3991237,61.0068216 43.1731237,61.0068216 C43.9471237,61.0068216 44.2891237,61.4028216 44.2891237,62.1048216 Z M56.0611237,49.5408216 L56.0611237,51.0888216 L50.3551237,63.0228216 L48.3211237,63.0228216 L54.2791237,51.2868216 L46.6471237,51.2868216 L46.7371237,49.5408216 L56.0611237,49.5408216 Z M67.7431237,49.5408216 L67.7431237,51.0888216 L62.0371237,63.0228216 L60.0031237,63.0228216 L65.9611237,51.2868216 L58.3291237,51.2868216 L58.4191237,49.5408216 L67.7431237,49.5408216 Z M79.4251237,49.5408216 L79.4251237,51.0888216 L73.7191237,63.0228216 L71.6851237,63.0228216 L77.6431237,51.2868216 L70.0111237,51.2868216 L70.1011237,49.5408216 L79.4251237,49.5408216 Z" id="4.777" fill-opacity="0.500566123" fill="#FFFFFF"></path>
                            <polygon id="Path-2" fill="#FFFFFF" fill-rule="nonzero" opacity="0.497935268" points="48 168 48 169 59.5 169 56.5 172 57 173 61.5 168.5 57 164 56.5 165 59.5 168"></polygon>
                        </g>
                        <g id="FB" transform="translate(158.000000, 122.000000)">
                            <circle id="-" stroke-opacity="0.5" stroke="#FFFFFF" fill-rule="nonzero" cx="55" cy="55" r="55"></circle>
                            <path d="M22.7071237,131.268822 L16.2271237,131.268822 L16.2271237,135.408822 L21.6631237,135.408822 L21.6451237,137.046822 L16.2271237,137.046822 L16.2271237,143.022822 L14.3731237,143.022822 L14.3731237,129.522822 L22.6711237,129.522822 L22.7071237,131.268822 Z M31.0051237,143.022822 L30.8431237,141.708822 L30.7891237,141.690822 C30.1591237,142.608822 28.9891237,143.184822 27.6031237,143.184822 C25.6411237,143.184822 24.3091237,142.158822 24.3091237,139.746822 C24.3091237,137.730822 25.6051237,136.488822 28.1611237,136.488822 C29.0791237,136.488822 29.9611237,136.668822 30.6271237,136.902822 L30.6271237,135.840822 C30.6271237,134.148822 29.8711237,133.554822 28.1251237,133.554822 C26.9911237,133.554822 26.0731237,133.752822 25.1191237,134.202822 L24.9571237,132.780822 C25.9831237,132.312822 27.1351237,132.078822 28.4131237,132.078822 C31.2391237,132.078822 32.3011237,133.266822 32.3011237,136.092822 L32.3011237,143.022822 L31.0051237,143.022822 Z M30.6091237,139.980822 L30.6091237,138.126822 C30.3391237,137.964822 29.5471237,137.730822 28.4671237,137.730822 C26.6851237,137.730822 25.9111237,138.450822 25.9111237,139.728822 C25.9111237,141.258822 26.8291237,141.780822 28.0711237,141.780822 C29.4031237,141.780822 30.6091237,140.880822 30.6091237,139.980822 Z M41.7511237,132.654822 L41.6431237,134.184822 C41.0131237,133.896822 40.2391237,133.698822 39.4651237,133.698822 C37.1431237,133.698822 36.2791237,134.814822 36.2791237,137.586822 C36.2791237,140.610822 37.3771237,141.726822 39.4291237,141.726822 C40.2751237,141.726822 41.0671237,141.510822 41.7151237,141.114822 L41.8411237,142.518822 C41.2111237,142.950822 40.2031237,143.256822 39.0691237,143.256822 C36.0631237,143.256822 34.5151237,141.528822 34.5151237,137.586822 C34.5151237,133.968822 35.9191237,132.132822 39.1231237,132.132822 C40.0771237,132.132822 41.0491237,132.348822 41.7511237,132.654822 Z M48.4651237,143.238822 C44.9371237,143.238822 43.4791237,141.384822 43.4791237,137.370822 C43.4791237,134.004822 44.9551237,132.114822 47.9071237,132.114822 C50.4631237,132.114822 52.1371237,133.626822 52.1371237,137.064822 C52.1371237,137.334822 52.1191237,137.658822 52.1011237,137.892822 L45.2251237,137.892822 C45.3151237,140.718822 46.3591237,141.690822 48.6631237,141.690822 C49.7431237,141.690822 50.6611237,141.456822 51.5791237,141.006822 L51.7771237,142.446822 C50.8771237,142.932822 49.7611237,143.238822 48.4651237,143.238822 Z M45.1891237,136.722822 L50.5711237,136.722822 C50.5351237,134.454822 49.4731237,133.590822 47.9251237,133.590822 C46.1071237,133.590822 45.2971237,134.598822 45.1891237,136.722822 Z M63.4591237,137.622822 C63.4591237,141.654822 61.8931237,143.220822 59.1751237,143.220822 C57.8431237,143.220822 56.7271237,142.716822 56.0611237,141.888822 L56.0071237,141.906822 L55.7371237,143.022822 L54.6031237,143.022822 L54.6031237,128.802822 L56.2951237,128.694822 L56.2951237,131.844822 L56.2771237,133.284822 L56.3131237,133.302822 C57.0871237,132.492822 58.1851237,132.096822 59.3731237,132.096822 C61.8751237,132.096822 63.4591237,133.554822 63.4591237,137.622822 Z M61.7311237,137.658822 C61.7311237,134.400822 60.6871237,133.644822 58.9231237,133.644822 C57.7891237,133.644822 56.8531237,134.112822 56.2951237,134.922822 L56.2951237,140.484822 C56.7271237,141.186822 57.6271237,141.798822 58.9411237,141.798822 C60.6151237,141.798822 61.7311237,140.988822 61.7311237,137.658822 Z M74.5111237,137.694822 C74.5111237,141.672822 73.1251237,143.256822 69.9031237,143.256822 C66.6631237,143.256822 65.2231237,141.672822 65.2231237,137.694822 C65.2231237,133.716822 66.6811237,132.114822 69.9031237,132.114822 C73.1431237,132.114822 74.5111237,133.716822 74.5111237,137.694822 Z M66.9871237,137.694822 C66.9871237,140.772822 67.7971237,141.816822 69.9031237,141.816822 C71.9731237,141.816822 72.7651237,140.754822 72.7651237,137.694822 C72.7651237,134.616822 71.9731237,133.572822 69.9031237,133.572822 C67.7971237,133.572822 66.9871237,134.616822 66.9871237,137.694822 Z M85.5811237,137.694822 C85.5811237,141.672822 84.1951237,143.256822 80.9731237,143.256822 C77.7331237,143.256822 76.2931237,141.672822 76.2931237,137.694822 C76.2931237,133.716822 77.7511237,132.114822 80.9731237,132.114822 C84.2131237,132.114822 85.5811237,133.716822 85.5811237,137.694822 Z M78.0571237,137.694822 C78.0571237,140.772822 78.8671237,141.816822 80.9731237,141.816822 C83.0431237,141.816822 83.8351237,140.754822 83.8351237,137.694822 C83.8351237,134.616822 83.0431237,133.572822 80.9731237,133.572822 C78.8671237,133.572822 78.0571237,134.616822 78.0571237,137.694822 Z M89.7751237,128.712822 L89.7751237,136.524822 L91.4131237,136.524822 L94.5811237,132.294822 L96.5791237,132.294822 L92.9071237,137.190822 L96.7231237,143.022822 L94.7251237,143.022822 L91.4311237,137.964822 L89.7751237,137.964822 L89.7751237,143.022822 L88.0831237,143.022822 L88.0831237,128.820822 L89.7751237,128.712822 Z" id="Facebook" fill-opacity="0.500566123" fill="#FFFFFF"></path>
                            <path d="M33.6061237,53.0868216 C33.6061237,55.8588216 30.9961237,58.2528216 27.3601237,61.3128216 L27.3601237,61.3668216 L33.6781237,61.3668216 L33.6241237,63.0228216 L24.9301237,63.0228216 L24.9301237,61.7808216 C28.3861237,58.4868216 31.7701237,55.7508216 31.7701237,53.2668216 C31.7701237,52.0068216 30.9241237,51.0348216 28.8901237,51.0348216 C27.5941237,51.0348216 26.3701237,51.5748216 25.4161237,52.3488216 L24.9301237,50.8548216 C25.9741237,50.0088216 27.4681237,49.3788216 29.1781237,49.3788216 C32.0581237,49.3788216 33.6061237,50.8008216 33.6061237,53.0868216 Z M45.2881237,53.0868216 C45.2881237,55.8588216 42.6781237,58.2528216 39.0421237,61.3128216 L39.0421237,61.3668216 L45.3601237,61.3668216 L45.3061237,63.0228216 L36.6121237,63.0228216 L36.6121237,61.7808216 C40.0681237,58.4868216 43.4521237,55.7508216 43.4521237,53.2668216 C43.4521237,52.0068216 42.6061237,51.0348216 40.5721237,51.0348216 C39.2761237,51.0348216 38.0521237,51.5748216 37.0981237,52.3488216 L36.6121237,50.8548216 C37.6561237,50.0088216 39.1501237,49.3788216 40.8601237,49.3788216 C43.7401237,49.3788216 45.2881237,50.8008216 45.2881237,53.0868216 Z M50.1301237,62.1048216 C50.1301237,62.8068216 49.7881237,63.2208216 49.0141237,63.2208216 C48.2401237,63.2208216 47.8981237,62.9148216 47.8981237,62.1048216 C47.8981237,61.4028216 48.2401237,61.0068216 49.0141237,61.0068216 C49.7881237,61.0068216 50.1301237,61.4028216 50.1301237,62.1048216 Z M61.7581237,58.3788216 C61.7581237,61.5828216 60.1741237,63.1848216 57.2041237,63.1848216 C54.1081237,63.1848216 52.4161237,61.4928216 52.4161237,56.6868216 C52.4161237,51.7368216 54.3781237,49.3608216 58.0501237,49.3608216 C59.1481237,49.3608216 60.0661237,49.5228216 61.0381237,49.9008216 L60.8761237,51.4848216 C60.0121237,51.1608216 59.2561237,51.0168216 58.2661237,51.0168216 C55.6381237,51.0168216 54.3061237,52.4208216 54.1261237,55.5708216 L54.1801237,55.6068216 C55.0981237,54.8688216 56.3041237,54.4188216 57.5641237,54.4188216 C60.4261237,54.4188216 61.7581237,55.7148216 61.7581237,58.3788216 Z M60.0121237,58.3608216 C60.0121237,56.6328216 59.1661237,55.8408216 57.2401237,55.8408216 C56.2141237,55.8408216 54.8821237,56.3448216 54.2161237,57.1368216 C54.2701237,60.4488216 55.1341237,61.6188216 57.2041237,61.6188216 C59.0581237,61.6188216 60.0121237,60.5388216 60.0121237,58.3608216 Z M73.1881237,53.0868216 C73.1881237,55.8588216 70.5781237,58.2528216 66.9421237,61.3128216 L66.9421237,61.3668216 L73.2601237,61.3668216 L73.2061237,63.0228216 L64.5121237,63.0228216 L64.5121237,61.7808216 C67.9681237,58.4868216 71.3521237,55.7508216 71.3521237,53.2668216 C71.3521237,52.0068216 70.5061237,51.0348216 68.4721237,51.0348216 C67.1761237,51.0348216 65.9521237,51.5748216 64.9981237,52.3488216 L64.5121237,50.8548216 C65.5561237,50.0088216 67.0501237,49.3788216 68.7601237,49.3788216 C71.6401237,49.3788216 73.1881237,50.8008216 73.1881237,53.0868216 Z M84.8701237,53.0868216 C84.8701237,55.8588216 82.2601237,58.2528216 78.6241237,61.3128216 L78.6241237,61.3668216 L84.9421237,61.3668216 L84.8881237,63.0228216 L76.1941237,63.0228216 L76.1941237,61.7808216 C79.6501237,58.4868216 83.0341237,55.7508216 83.0341237,53.2668216 C83.0341237,52.0068216 82.1881237,51.0348216 80.1541237,51.0348216 C78.8581237,51.0348216 77.6341237,51.5748216 76.6801237,52.3488216 L76.1941237,50.8548216 C77.2381237,50.0088216 78.7321237,49.3788216 80.4421237,49.3788216 C83.3221237,49.3788216 84.8701237,50.8008216 84.8701237,53.0868216 Z" id="22.622" fill-opacity="0.500566123" fill="#FFFFFF"></path>
                            <polygon id="Path-2" fill="#FFFFFF" fill-rule="nonzero" opacity="0.497935268" points="49 168 49 169 60.5 169 57.5 172 58 173 62.5 168.5 58 164 57.5 165 60.5 168"></polygon>
                        </g>
                        <g id="INSTG" transform="translate(21.000000, 322.000000)">
                            <circle id="-" stroke-opacity="0.5" stroke="#FFFFFF" fill-rule="nonzero" cx="55" cy="55" r="55"></circle>
                            <path d="M12.5731237,143.022822 L12.5731237,129.522822 L14.4631237,129.522822 L14.4631237,143.022822 L12.5731237,143.022822 Z M26.2531237,143.022822 L24.5611237,143.022822 L24.5611237,135.930822 C24.5611237,134.346822 23.7151237,133.680822 22.1311237,133.680822 C21.2131237,133.680822 20.1331237,134.112822 19.6291237,134.886822 L19.6291237,143.022822 L17.9191237,143.022822 L17.9191237,132.330822 L19.1431237,132.240822 L19.4311237,133.374822 L19.4851237,133.374822 C20.2231237,132.564822 21.3931237,132.096822 22.5991237,132.096822 C24.8671237,132.096822 26.2531237,133.374822 26.2531237,135.930822 L26.2531237,143.022822 Z M35.6671237,139.872822 C35.6671237,141.888822 34.5331237,143.238822 31.8871237,143.238822 C30.6091237,143.238822 29.4211237,142.932822 28.5931237,142.338822 L28.8091237,140.862822 C29.6191237,141.474822 30.8431237,141.798822 31.8691237,141.798822 C33.4351237,141.798822 34.0831237,141.042822 34.0831237,140.034822 C34.0831237,137.604822 28.5931237,138.738822 28.5931237,135.120822 C28.5931237,133.302822 29.8711237,132.114822 32.3371237,132.114822 C33.3811237,132.114822 34.3711237,132.330822 35.2351237,132.726822 L35.0911237,134.166822 C34.1911237,133.788822 33.1651237,133.590822 32.3011237,133.590822 C31.0231237,133.590822 30.2131237,134.148822 30.2131237,135.030822 C30.2131237,137.316822 35.6671237,136.128822 35.6671237,139.872822 Z M42.9031237,133.626822 L40.2571237,133.626822 L40.2571237,140.214822 C40.2571237,141.330822 40.8511237,141.780822 41.8231237,141.780822 C42.1291237,141.780822 42.5071237,141.726822 42.7231237,141.636822 L42.8311237,142.932822 C42.5071237,143.094822 41.9131237,143.202822 41.3371237,143.202822 C39.5011237,143.202822 38.5471237,142.176822 38.5471237,140.268822 L38.5471237,133.626822 L37.0531237,133.626822 L37.0531237,132.294822 L38.6011237,132.294822 L38.9251237,129.630822 L40.2571237,129.486822 L40.2571237,132.294822 L42.9031237,132.294822 L42.9031237,133.626822 Z M51.2011237,143.022822 L51.0391237,141.708822 L50.9851237,141.690822 C50.3551237,142.608822 49.1851237,143.184822 47.7991237,143.184822 C45.8371237,143.184822 44.5051237,142.158822 44.5051237,139.746822 C44.5051237,137.730822 45.8011237,136.488822 48.3571237,136.488822 C49.2751237,136.488822 50.1571237,136.668822 50.8231237,136.902822 L50.8231237,135.840822 C50.8231237,134.148822 50.0671237,133.554822 48.3211237,133.554822 C47.1871237,133.554822 46.2691237,133.752822 45.3151237,134.202822 L45.1531237,132.780822 C46.1791237,132.312822 47.3311237,132.078822 48.6091237,132.078822 C51.4351237,132.078822 52.4971237,133.266822 52.4971237,136.092822 L52.4971237,143.022822 L51.2011237,143.022822 Z M50.8051237,139.980822 L50.8051237,138.126822 C50.5351237,137.964822 49.7431237,137.730822 48.6631237,137.730822 C46.8811237,137.730822 46.1071237,138.450822 46.1071237,139.728822 C46.1071237,141.258822 47.0251237,141.780822 48.2671237,141.780822 C49.5991237,141.780822 50.8051237,140.880822 50.8051237,139.980822 Z M58.9051237,138.486822 C58.4011237,138.486822 57.8971237,138.450822 57.4111237,138.324822 C56.8891237,138.468822 56.6011237,138.756822 56.6011237,139.116822 C56.6011237,139.476822 56.8891237,139.782822 57.5371237,139.836822 L60.1471237,140.052822 C62.7391237,140.268822 63.5851237,141.132822 63.5851237,142.644822 C63.5851237,144.606822 62.3611237,145.866822 59.0131237,145.866822 C56.1151237,145.866822 54.8911237,144.714822 54.8911237,143.040822 C54.8911237,142.284822 55.2511237,141.564822 55.9351237,141.024822 C55.4311237,140.736822 55.0351237,140.232822 55.0351237,139.530822 C55.0351237,138.846822 55.5031237,138.216822 56.3851237,137.856822 C55.6111237,137.388822 55.1071237,136.596822 55.1071237,135.318822 C55.1071237,133.338822 56.1691237,132.114822 58.9051237,132.114822 C59.8411237,132.114822 60.8131237,132.276822 61.5511237,132.780822 L63.3151237,132.078822 L63.6931237,132.942822 L62.3971237,133.842822 C62.5771237,134.256822 62.6851237,134.724822 62.6851237,135.318822 C62.6851237,137.352822 61.6951237,138.486822 58.9051237,138.486822 Z M59.8591237,141.564822 L57.2491237,141.330822 C56.6551237,141.744822 56.3671237,142.320822 56.3671237,142.824822 C56.3671237,143.904822 57.1231237,144.516822 58.9771237,144.516822 C61.4071237,144.516822 62.0191237,143.850822 62.0191237,142.878822 C62.0191237,142.122822 61.6231237,141.726822 59.8591237,141.564822 Z M58.9231237,133.464822 C57.3571237,133.464822 56.7991237,134.076822 56.7991237,135.354822 C56.7991237,136.866822 57.6811237,137.226822 58.8871237,137.226822 C60.5431237,137.226822 61.0471237,136.614822 61.0471237,135.354822 C61.0471237,133.950822 60.4171237,133.464822 58.9231237,133.464822 Z M67.3471237,143.022822 L65.6371237,143.022822 L65.6371237,132.366822 L67.0051237,132.276822 L67.1491237,134.580822 L67.1851237,134.580822 C67.8511237,133.032822 69.0211237,132.132822 70.4791237,132.132822 C70.8751237,132.132822 71.2531237,132.186822 71.5411237,132.276822 L71.4331237,134.004822 C71.1091237,133.896822 70.7491237,133.860822 70.3711237,133.860822 C68.6971237,133.860822 67.3471237,135.282822 67.3471237,137.586822 L67.3471237,143.022822 Z M79.8391237,143.022822 L79.6771237,141.708822 L79.6231237,141.690822 C78.9931237,142.608822 77.8231237,143.184822 76.4371237,143.184822 C74.4751237,143.184822 73.1431237,142.158822 73.1431237,139.746822 C73.1431237,137.730822 74.4391237,136.488822 76.9951237,136.488822 C77.9131237,136.488822 78.7951237,136.668822 79.4611237,136.902822 L79.4611237,135.840822 C79.4611237,134.148822 78.7051237,133.554822 76.9591237,133.554822 C75.8251237,133.554822 74.9071237,133.752822 73.9531237,134.202822 L73.7911237,132.780822 C74.8171237,132.312822 75.9691237,132.078822 77.2471237,132.078822 C80.0731237,132.078822 81.1351237,133.266822 81.1351237,136.092822 L81.1351237,143.022822 L79.8391237,143.022822 Z M79.4431237,139.980822 L79.4431237,138.126822 C79.1731237,137.964822 78.3811237,137.730822 77.3011237,137.730822 C75.5191237,137.730822 74.7451237,138.450822 74.7451237,139.728822 C74.7451237,141.258822 75.6631237,141.780822 76.9051237,141.780822 C78.2371237,141.780822 79.4431237,140.880822 79.4431237,139.980822 Z M97.7671237,143.022822 L96.0751237,143.022822 L96.0751237,135.894822 C96.0751237,134.382822 95.2291237,133.698822 93.8431237,133.698822 C92.6911237,133.698822 91.7191237,134.364822 91.7191237,135.714822 L91.7191237,143.022822 L90.0271237,143.022822 L90.0271237,135.714822 C90.0271237,134.256822 89.1091237,133.680822 87.9211237,133.680822 C87.0211237,133.680822 86.1031237,134.166822 85.6711237,134.886822 L85.6711237,143.022822 L83.9611237,143.022822 L83.9611237,132.330822 L85.1851237,132.240822 L85.4911237,133.392822 L85.5451237,133.392822 C86.1931237,132.600822 87.2371237,132.132822 88.3171237,132.132822 C89.7571237,132.132822 90.7111237,132.672822 91.2151237,133.770822 L91.2511237,133.770822 C91.8631237,132.654822 92.9611237,132.114822 94.2751237,132.114822 C96.3451237,132.114822 97.7671237,133.338822 97.7671237,135.876822 L97.7671237,143.022822 Z" id="Instagram" fill-opacity="0.500566123" fill="#FFFFFF"></path>
                            <path d="M26.6401237,63.0228216 L26.6401237,61.6548216 L29.0341237,61.6548216 L29.0341237,53.3028216 L29.0701237,51.8628216 L29.0341237,51.8268216 L27.8101237,52.6188216 L26.1541237,53.6628216 L25.9561237,52.0968216 L29.8081237,49.4868216 L30.8701237,49.4868216 L30.8701237,61.6548216 L33.2101237,61.6548216 L33.2101237,63.0228216 L26.6401237,63.0228216 Z M36.1801237,59.2788216 C36.1801237,57.7848216 37.1161237,56.5788216 38.5741237,55.9128216 L38.5741237,55.8588216 C37.4941237,55.3188216 36.7021237,54.4368216 36.7021237,52.8168216 C36.7021237,50.6748216 37.9441237,49.3788216 40.9321237,49.3788216 C43.8301237,49.3788216 45.1441237,50.6028216 45.1441237,52.8168216 C45.1441237,54.1848216 44.4421237,55.2648216 43.1821237,55.9308216 L43.1821237,55.9668216 C44.5501237,56.4888216 45.6481237,57.3528216 45.6481237,59.2788216 C45.6481237,61.8888216 44.0281237,63.1848216 40.9321237,63.1848216 C37.6561237,63.1848216 36.1801237,61.8708216 36.1801237,59.2788216 Z M43.9021237,59.4048216 C43.9021237,57.5688216 42.0121237,57.1728216 40.1581237,56.5608216 C38.8801237,57.1368216 37.8901237,57.9468216 37.8901237,59.2968216 C37.8901237,60.9168216 38.7541237,61.7088216 40.9681237,61.7088216 C42.7681237,61.7088216 43.9021237,61.0248216 43.9021237,59.4048216 Z M38.3581237,52.8888216 C38.3581237,54.5088216 39.9421237,54.9408216 41.6341237,55.4268216 C42.9481237,54.7968216 43.5601237,54.0588216 43.5601237,52.9608216 C43.5601237,51.5568216 42.7321237,50.8548216 40.9141237,50.8548216 C39.1681237,50.8548216 38.3581237,51.5568216 38.3581237,52.8888216 Z M50.1301237,62.1048216 C50.1301237,62.8068216 49.7881237,63.2208216 49.0141237,63.2208216 C48.2401237,63.2208216 47.8981237,62.9148216 47.8981237,62.1048216 C47.8981237,61.4028216 48.2401237,61.0068216 49.0141237,61.0068216 C49.7881237,61.0068216 50.1301237,61.4028216 50.1301237,62.1048216 Z M61.7581237,58.3788216 C61.7581237,61.5828216 60.1741237,63.1848216 57.2041237,63.1848216 C54.1081237,63.1848216 52.4161237,61.4928216 52.4161237,56.6868216 C52.4161237,51.7368216 54.3781237,49.3608216 58.0501237,49.3608216 C59.1481237,49.3608216 60.0661237,49.5228216 61.0381237,49.9008216 L60.8761237,51.4848216 C60.0121237,51.1608216 59.2561237,51.0168216 58.2661237,51.0168216 C55.6381237,51.0168216 54.3061237,52.4208216 54.1261237,55.5708216 L54.1801237,55.6068216 C55.0981237,54.8688216 56.3041237,54.4188216 57.5641237,54.4188216 C60.4261237,54.4188216 61.7581237,55.7148216 61.7581237,58.3788216 Z M60.0121237,58.3608216 C60.0121237,56.6328216 59.1661237,55.8408216 57.2401237,55.8408216 C56.2141237,55.8408216 54.8821237,56.3448216 54.2161237,57.1368216 C54.2701237,60.4488216 55.1341237,61.6188216 57.2041237,61.6188216 C59.0581237,61.6188216 60.0121237,60.5388216 60.0121237,58.3608216 Z M73.4221237,55.6068216 C73.4221237,61.0248216 71.6221237,63.1848216 68.0401237,63.1848216 C66.7801237,63.1848216 65.8981237,63.0048216 64.9081237,62.5548216 L65.1601237,61.0428216 C66.0421237,61.4208216 66.8341237,61.6008216 67.8781237,61.6008216 C70.3981237,61.6008216 71.5861237,60.1428216 71.7301237,56.5608216 L71.6941237,56.5428216 C70.8121237,57.2808216 69.6781237,57.6228216 68.4001237,57.6228216 C65.4121237,57.6228216 64.0621237,56.0388216 64.0621237,53.6088216 C64.0621237,50.9988216 65.5021237,49.3608216 68.5801237,49.3608216 C71.6401237,49.3608216 73.4221237,51.4128216 73.4221237,55.6068216 Z M71.6581237,54.9588216 C71.6221237,52.0428216 70.4341237,50.9268216 68.5621237,50.9268216 C66.7081237,50.9268216 65.7721237,51.8088216 65.7721237,53.5368216 C65.7721237,55.1928216 66.6721237,56.1648216 68.6881237,56.1648216 C69.8941237,56.1648216 70.9561237,55.8048216 71.6581237,54.9588216 Z M85.3021237,56.2908216 C85.3021237,61.2768216 83.8621237,63.2208216 80.4961237,63.2208216 C77.0761237,63.2208216 75.6721237,61.2768216 75.6721237,56.2908216 C75.6721237,51.1608216 77.0761237,49.3608216 80.4961237,49.3608216 C83.8801237,49.3608216 85.3021237,51.1608216 85.3021237,56.2908216 Z M83.5381237,56.2728216 C83.5381237,51.9708216 82.5841237,50.9808216 80.4961237,50.9808216 C78.3901237,50.9808216 77.4181237,51.9888216 77.4181237,56.2728216 C77.4181237,60.6288216 78.3901237,61.6008216 80.4961237,61.6008216 C82.6021237,61.6008216 83.5381237,60.5928216 83.5381237,56.2728216 Z" id="18.690" fill-opacity="0.500566123" fill="#FFFFFF"></path>
                            <polygon id="Path-2" fill="#FFFFFF" fill-rule="nonzero" opacity="0.497935268" points="47 169 47 170 58.5 170 55.5 173 56 174 60.5 169.5 56 165 55.5 166 58.5 169"></polygon>
                        </g>
                        <g id="YT" transform="translate(158.000000, 322.000000)">
                            <circle id="-" stroke-opacity="0.5" stroke="#FFFFFF" fill-rule="nonzero" cx="55" cy="55" r="55"></circle>
                            <path d="M18.2611237,129.522822 L20.3851237,129.522822 L23.3191237,135.444822 L23.9491237,136.758822 L24.0031237,136.758822 L24.5971237,135.444822 L27.5311237,129.522822 L29.5651237,129.522822 L24.8851237,138.450822 L24.8851237,143.022822 L23.0131237,143.022822 L23.0131237,138.450822 L18.2611237,129.522822 Z M40.1311237,137.694822 C40.1311237,141.672822 38.7451237,143.256822 35.5231237,143.256822 C32.2831237,143.256822 30.8431237,141.672822 30.8431237,137.694822 C30.8431237,133.716822 32.3011237,132.114822 35.5231237,132.114822 C38.7631237,132.114822 40.1311237,133.716822 40.1311237,137.694822 Z M32.6071237,137.694822 C32.6071237,140.772822 33.4171237,141.816822 35.5231237,141.816822 C37.5931237,141.816822 38.3851237,140.754822 38.3851237,137.694822 C38.3851237,134.616822 37.5931237,133.572822 35.5231237,133.572822 C33.4171237,133.572822 32.6071237,134.616822 32.6071237,137.694822 Z M50.6971237,132.294822 L50.6971237,139.494822 C50.6971237,141.870822 49.3471237,143.220822 46.5211237,143.220822 C43.7131237,143.220822 42.3631237,141.852822 42.3631237,139.494822 L42.3631237,132.294822 L44.0551237,132.294822 L44.0551237,139.458822 C44.0551237,140.898822 44.8831237,141.654822 46.5391237,141.654822 C48.1591237,141.654822 49.0051237,140.916822 49.0051237,139.458822 L49.0051237,132.294822 L50.6971237,132.294822 Z M58.4731237,133.626822 L55.8271237,133.626822 L55.8271237,140.214822 C55.8271237,141.330822 56.4211237,141.780822 57.3931237,141.780822 C57.6991237,141.780822 58.0771237,141.726822 58.2931237,141.636822 L58.4011237,142.932822 C58.0771237,143.094822 57.4831237,143.202822 56.9071237,143.202822 C55.0711237,143.202822 54.1171237,142.176822 54.1171237,140.268822 L54.1171237,133.626822 L52.6231237,133.626822 L52.6231237,132.294822 L54.1711237,132.294822 L54.4951237,129.630822 L55.8271237,129.486822 L55.8271237,132.294822 L58.4731237,132.294822 L58.4731237,133.626822 Z M68.7511237,132.294822 L68.7511237,139.494822 C68.7511237,141.870822 67.4011237,143.220822 64.5751237,143.220822 C61.7671237,143.220822 60.4171237,141.852822 60.4171237,139.494822 L60.4171237,132.294822 L62.1091237,132.294822 L62.1091237,139.458822 C62.1091237,140.898822 62.9371237,141.654822 64.5931237,141.654822 C66.2131237,141.654822 67.0591237,140.916822 67.0591237,139.458822 L67.0591237,132.294822 L68.7511237,132.294822 Z M80.5411237,137.622822 C80.5411237,141.654822 78.9751237,143.220822 76.2571237,143.220822 C74.9251237,143.220822 73.8091237,142.716822 73.1431237,141.888822 L73.0891237,141.906822 L72.8191237,143.022822 L71.6851237,143.022822 L71.6851237,128.802822 L73.3771237,128.694822 L73.3771237,131.844822 L73.3591237,133.284822 L73.3951237,133.302822 C74.1691237,132.492822 75.2671237,132.096822 76.4551237,132.096822 C78.9571237,132.096822 80.5411237,133.554822 80.5411237,137.622822 Z M78.8131237,137.658822 C78.8131237,134.400822 77.7691237,133.644822 76.0051237,133.644822 C74.8711237,133.644822 73.9351237,134.112822 73.3771237,134.922822 L73.3771237,140.484822 C73.8091237,141.186822 74.7091237,141.798822 76.0231237,141.798822 C77.6971237,141.798822 78.8131237,140.988822 78.8131237,137.658822 Z M87.2911237,143.238822 C83.7631237,143.238822 82.3051237,141.384822 82.3051237,137.370822 C82.3051237,134.004822 83.7811237,132.114822 86.7331237,132.114822 C89.2891237,132.114822 90.9631237,133.626822 90.9631237,137.064822 C90.9631237,137.334822 90.9451237,137.658822 90.9271237,137.892822 L84.0511237,137.892822 C84.1411237,140.718822 85.1851237,141.690822 87.4891237,141.690822 C88.5691237,141.690822 89.4871237,141.456822 90.4051237,141.006822 L90.6031237,142.446822 C89.7031237,142.932822 88.5871237,143.238822 87.2911237,143.238822 Z M84.0151237,136.722822 L89.3971237,136.722822 C89.3611237,134.454822 88.2991237,133.590822 86.7511237,133.590822 C84.9331237,133.590822 84.1231237,134.598822 84.0151237,136.722822 Z" id="Youtube" fill-opacity="0.500566123" fill="#FFFFFF"></path>
                            <path d="M34.7491237,63.0228216 L34.7491237,61.6548216 L37.1431237,61.6548216 L37.1431237,53.3028216 L37.1791237,51.8628216 L37.1431237,51.8268216 L35.9191237,52.6188216 L34.2631237,53.6628216 L34.0651237,52.0968216 L37.9171237,49.4868216 L38.9791237,49.4868216 L38.9791237,61.6548216 L41.3191237,61.6548216 L41.3191237,63.0228216 L34.7491237,63.0228216 Z M44.2891237,59.2788216 C44.2891237,57.7848216 45.2251237,56.5788216 46.6831237,55.9128216 L46.6831237,55.8588216 C45.6031237,55.3188216 44.8111237,54.4368216 44.8111237,52.8168216 C44.8111237,50.6748216 46.0531237,49.3788216 49.0411237,49.3788216 C51.9391237,49.3788216 53.2531237,50.6028216 53.2531237,52.8168216 C53.2531237,54.1848216 52.5511237,55.2648216 51.2911237,55.9308216 L51.2911237,55.9668216 C52.6591237,56.4888216 53.7571237,57.3528216 53.7571237,59.2788216 C53.7571237,61.8888216 52.1371237,63.1848216 49.0411237,63.1848216 C45.7651237,63.1848216 44.2891237,61.8708216 44.2891237,59.2788216 Z M52.0111237,59.4048216 C52.0111237,57.5688216 50.1211237,57.1728216 48.2671237,56.5608216 C46.9891237,57.1368216 45.9991237,57.9468216 45.9991237,59.2968216 C45.9991237,60.9168216 46.8631237,61.7088216 49.0771237,61.7088216 C50.8771237,61.7088216 52.0111237,61.0248216 52.0111237,59.4048216 Z M46.4671237,52.8888216 C46.4671237,54.5088216 48.0511237,54.9408216 49.7431237,55.4268216 C51.0571237,54.7968216 51.6691237,54.0588216 51.6691237,52.9608216 C51.6691237,51.5568216 50.8411237,50.8548216 49.0231237,50.8548216 C47.2771237,50.8548216 46.4671237,51.5568216 46.4671237,52.8888216 Z M65.1331237,58.4148216 C65.1331237,61.4748216 63.6211237,63.1848216 60.4171237,63.1848216 C58.8331237,63.1848216 57.5551237,62.8068216 56.4931237,62.1048216 L56.8351237,60.5928216 C57.8791237,61.2408216 58.8691237,61.6188216 60.2731237,61.6188216 C62.4151237,61.6188216 63.3871237,60.6108216 63.3871237,58.5768216 C63.3871237,56.7948216 62.4331237,56.0388216 60.3811237,56.0388216 C59.2111237,56.0388216 58.0411237,56.3268216 57.2491237,56.7228216 L56.5651237,56.0208216 L57.1051237,49.5228216 L64.4671237,49.5228216 L64.5391237,51.1788216 L58.5091237,51.1788216 L58.2031237,54.9408216 C59.0131237,54.6528216 59.9491237,54.5088216 60.8491237,54.5088216 C63.6751237,54.5088216 65.1331237,55.8048216 65.1331237,58.4148216 Z M76.9771237,58.9908216 C76.9771237,61.5108216 75.4291237,63.1848216 72.0271237,63.1848216 C70.2271237,63.1848216 68.9491237,62.6988216 67.9771237,62.1048216 L68.3551237,60.6288216 C69.3991237,61.2588216 70.5511237,61.6188216 71.9911237,61.6188216 C74.2231237,61.6188216 75.2311237,60.5028216 75.2311237,58.9188216 C75.2311237,57.2988216 74.1151237,56.5608216 70.9291237,56.5608216 L70.9291237,55.2108216 C73.8991237,55.2108216 74.9431237,54.3828216 74.9431237,52.9428216 C74.9431237,51.6288216 73.8811237,50.9808216 72.0991237,50.9808216 C70.6231237,50.9808216 69.5071237,51.4668216 68.5171237,52.2768216 L68.0491237,50.8368216 C69.0031237,50.0268216 70.4791237,49.3788216 72.1891237,49.3788216 C74.9611237,49.3788216 76.5991237,50.6028216 76.5991237,52.8168216 C76.5991237,54.4008216 75.7171237,55.3368216 74.3851237,55.8048216 L74.3851237,55.8408216 C76.0411237,56.2728216 76.9771237,57.2448216 76.9771237,58.9908216 Z" id="1853" fill-opacity="0.500566123" fill="#FFFFFF"></path>
                            <polygon id="Path-2" fill="#FFFFFF" fill-rule="nonzero" opacity="0.497935268" points="49 169 49 170 60.5 170 57.5 173 58 174 62.5 169.5 58 165 57.5 166 60.5 169"></polygon>
                        </g>
                        <path d="M100.499869,64.1808216 L96.7158693,64.1808216 L96.7158693,66.2928216 L99.8728693,66.2928216 L99.8618693,67.6238216 L96.7158693,67.6238216 L96.7158693,71.0228216 L95.1978693,71.0228216 L95.1978693,62.7728216 L100.466869,62.7728216 L100.499869,64.1808216 Z M107.165869,67.7338216 C107.165869,70.1868216 106.285869,71.1768216 104.228869,71.1768216 C102.182869,71.1768216 101.258869,70.1868216 101.258869,67.7338216 C101.258869,65.2918216 102.182869,64.2798216 104.228869,64.2798216 C106.285869,64.2798216 107.165869,65.2918216 107.165869,67.7338216 Z M102.710869,67.7338216 C102.710869,69.4718216 103.139869,69.9998216 104.228869,69.9998216 C105.317869,69.9998216 105.724869,69.4718216 105.724869,67.7338216 C105.724869,65.9958216 105.317869,65.4678216 104.228869,65.4678216 C103.128869,65.4678216 102.710869,65.9958216 102.710869,67.7338216 Z M109.992869,71.0228216 L108.584869,71.0228216 L108.584869,62.4098216 L109.992869,62.3328216 L109.992869,71.0228216 Z M113.325869,71.0228216 L111.917869,71.0228216 L111.917869,62.4098216 L113.325869,62.3328216 L113.325869,71.0228216 Z M120.651869,67.7338216 C120.651869,70.1868216 119.771869,71.1768216 117.714869,71.1768216 C115.668869,71.1768216 114.744869,70.1868216 114.744869,67.7338216 C114.744869,65.2918216 115.668869,64.2798216 117.714869,64.2798216 C119.771869,64.2798216 120.651869,65.2918216 120.651869,67.7338216 Z M116.196869,67.7338216 C116.196869,69.4718216 116.625869,69.9998216 117.714869,69.9998216 C118.803869,69.9998216 119.210869,69.4718216 119.210869,67.7338216 C119.210869,65.9958216 118.803869,65.4678216 117.714869,65.4678216 C116.614869,65.4678216 116.196869,65.9958216 116.196869,67.7338216 Z M125.260869,64.4008216 L126.734869,64.4008216 L127.768869,69.0318216 L127.944869,69.9008216 L127.977869,69.9008216 L128.120869,69.0208216 L129.011869,64.4008216 L130.375869,64.4008216 L128.846869,71.0228216 L127.108869,71.0228216 L126.206869,66.7548216 L126.041869,65.8748216 L126.008869,65.8748216 L125.832869,66.7548216 L124.886869,71.0228216 L123.170869,71.0228216 L121.553869,64.4008216 L122.961869,64.4008216 L123.885869,69.0098216 L124.050869,69.8788216 L124.083869,69.8788216 L124.248869,69.0098216 L125.260869,64.4008216 Z M140.000869,64.4008216 L140.000869,68.7568216 C140.000869,70.3078216 139.120869,71.1438216 137.305869,71.1438216 C135.490869,71.1438216 134.621869,70.2748216 134.621869,68.7568216 L134.621869,64.4008216 L136.018869,64.4008216 L136.018869,68.7238216 C136.018869,69.4828216 136.436869,69.8788216 137.316869,69.8788216 C138.174869,69.8788216 138.603869,69.4938216 138.603869,68.7238216 L138.603869,64.4008216 L140.000869,64.4008216 Z M145.742869,69.0098216 C145.742869,70.2968216 145.016869,71.1548216 143.300869,71.1548216 C142.508869,71.1548216 141.793869,70.9898216 141.243869,70.6598216 L141.408869,69.4718216 C141.925869,69.8128216 142.695869,69.9888216 143.300869,69.9888216 C144.103869,69.9888216 144.444869,69.6258216 144.444869,69.1418216 C144.444869,67.8878216 141.221869,68.5368216 141.221869,66.2488216 C141.221869,65.0938216 142.024869,64.2908216 143.641869,64.2908216 C144.301869,64.2908216 144.928869,64.4228216 145.478869,64.6648216 L145.357869,65.8308216 C144.807869,65.5998216 144.125869,65.4898216 143.619869,65.4898216 C142.959869,65.4898216 142.563869,65.7538216 142.563869,66.1938216 C142.563869,67.3598216 145.742869,66.7108216 145.742869,69.0098216 Z M153.827869,71.0228216 L153.706869,70.3188216 L153.673869,70.3078216 C153.266869,70.8248216 152.595869,71.1328216 151.803869,71.1328216 C150.571869,71.1328216 149.757869,70.4508216 149.757869,68.9768216 C149.757869,67.7338216 150.593869,66.9308216 152.133869,66.9308216 C152.650869,66.9308216 153.134869,67.0188216 153.508869,67.1398216 L153.508869,66.6448216 C153.508869,65.8198216 153.112869,65.4898216 152.122869,65.4898216 C151.407869,65.4898216 150.890869,65.5998216 150.285869,65.8638216 L150.164869,64.7088216 C150.813869,64.4228216 151.550869,64.2798216 152.375869,64.2798216 C154.223869,64.2798216 154.894869,65.0718216 154.894869,66.8538216 L154.894869,71.0228216 L153.827869,71.0228216 Z M153.508869,69.0758216 L153.508869,68.1078216 C153.343869,68.0308216 152.936869,67.9208216 152.386869,67.9208216 C151.484869,67.9208216 151.077869,68.2838216 151.077869,68.9548216 C151.077869,69.7248216 151.539869,69.9998216 152.188869,69.9998216 C152.881869,69.9998216 153.508869,69.5598216 153.508869,69.0758216 Z M161.769869,71.0228216 L160.372869,71.0228216 L160.372869,66.7438216 C160.372869,65.9078216 159.921869,65.5558216 159.107869,65.5558216 C158.612869,65.5558216 158.062869,65.7758216 157.787869,66.1608216 L157.787869,71.0228216 L156.390869,71.0228216 L156.390869,64.4338216 L157.391869,64.3568216 L157.611869,64.9948216 C158.106869,64.5328216 158.777869,64.2798216 159.492869,64.2798216 C160.889869,64.2798216 161.769869,65.1268216 161.769869,66.7328216 L161.769869,71.0228216 Z M168.589869,71.0228216 L167.500869,71.0228216 L167.346869,70.3958216 L167.313869,70.3848216 C166.906869,70.8798216 166.312869,71.1548216 165.465869,71.1548216 C163.727869,71.1548216 162.924869,70.0548216 162.924869,67.6898216 C162.924869,65.4898216 163.738869,64.2798216 165.454869,64.2798216 C166.125869,64.2798216 166.741869,64.5108216 167.192869,64.9508216 L167.214869,64.9288216 L167.192869,64.0488216 L167.192869,62.4098216 L168.589869,62.3328216 L168.589869,71.0228216 Z M167.192869,69.3288216 L167.192869,66.1718216 C166.950869,65.8088216 166.466869,65.5668216 165.861869,65.5668216 C164.772869,65.5668216 164.376869,66.1388216 164.376869,67.7448216 C164.376869,69.4278216 164.728869,69.9888216 165.850869,69.9888216 C166.609869,69.9888216 167.016869,69.6368216 167.192869,69.3288216 Z M177.554869,69.0098216 C177.554869,70.2968216 176.828869,71.1548216 175.112869,71.1548216 C174.320869,71.1548216 173.605869,70.9898216 173.055869,70.6598216 L173.220869,69.4718216 C173.737869,69.8128216 174.507869,69.9888216 175.112869,69.9888216 C175.915869,69.9888216 176.256869,69.6258216 176.256869,69.1418216 C176.256869,67.8878216 173.033869,68.5368216 173.033869,66.2488216 C173.033869,65.0938216 173.836869,64.2908216 175.453869,64.2908216 C176.113869,64.2908216 176.740869,64.4228216 177.290869,64.6648216 L177.169869,65.8308216 C176.619869,65.5998216 175.937869,65.4898216 175.431869,65.4898216 C174.771869,65.4898216 174.375869,65.7538216 174.375869,66.1938216 C174.375869,67.3598216 177.554869,66.7108216 177.554869,69.0098216 Z M182.031869,65.4788216 L180.480869,65.4788216 L180.480869,69.1638216 C180.480869,69.7468216 180.788869,69.9888216 181.349869,69.9888216 C181.525869,69.9888216 181.767869,69.9558216 181.888869,69.9118216 L181.976869,70.9568216 C181.756869,71.0558216 181.349869,71.1328216 180.942869,71.1328216 C179.699869,71.1328216 179.083869,70.4178216 179.083869,69.1968216 L179.083869,65.4788216 L178.258869,65.4788216 L178.258869,64.4008216 L179.127869,64.4008216 L179.380869,62.8498216 L180.480869,62.7398216 L180.480869,64.4008216 L182.031869,64.4008216 L182.031869,65.4788216 Z M186.915869,71.0228216 L186.794869,70.3188216 L186.761869,70.3078216 C186.354869,70.8248216 185.683869,71.1328216 184.891869,71.1328216 C183.659869,71.1328216 182.845869,70.4508216 182.845869,68.9768216 C182.845869,67.7338216 183.681869,66.9308216 185.221869,66.9308216 C185.738869,66.9308216 186.222869,67.0188216 186.596869,67.1398216 L186.596869,66.6448216 C186.596869,65.8198216 186.200869,65.4898216 185.210869,65.4898216 C184.495869,65.4898216 183.978869,65.5998216 183.373869,65.8638216 L183.252869,64.7088216 C183.901869,64.4228216 184.638869,64.2798216 185.463869,64.2798216 C187.311869,64.2798216 187.982869,65.0718216 187.982869,66.8538216 L187.982869,71.0228216 L186.915869,71.0228216 Z M186.596869,69.0758216 L186.596869,68.1078216 C186.431869,68.0308216 186.024869,67.9208216 185.474869,67.9208216 C184.572869,67.9208216 184.165869,68.2838216 184.165869,68.9548216 C184.165869,69.7248216 184.627869,69.9998216 185.276869,69.9998216 C185.969869,69.9998216 186.596869,69.5598216 186.596869,69.0758216 Z M190.710869,71.7598216 C191.183869,71.7598216 191.535869,71.5948216 191.788869,71.0338216 L191.821869,70.9348216 L188.950869,64.4008216 L190.556869,64.4008216 L192.195869,68.8008216 L192.492869,69.6368216 L192.525869,69.6368216 L192.745869,68.7788216 L194.032869,64.4008216 L195.528869,64.4008216 L193.185869,71.0448216 C192.701869,72.3428216 191.997869,72.8268216 190.952869,72.8268216 C190.567869,72.8268216 190.193869,72.7608216 189.874869,72.6178216 L189.995869,71.5948216 C190.237869,71.7158216 190.468869,71.7598216 190.710869,71.7598216 Z M122.378869,89.0228216 L120.959869,89.0228216 L120.959869,82.4448216 L122.378869,82.3678216 L122.378869,89.0228216 Z M122.510869,80.8718216 C122.510869,81.3118216 122.246869,81.5208216 121.674869,81.5208216 C121.113869,81.5208216 120.838869,81.3558216 120.838869,80.8718216 C120.838869,80.4428216 121.113869,80.2008216 121.674869,80.2008216 C122.246869,80.2008216 122.510869,80.4428216 122.510869,80.8718216 Z M129.583869,89.0228216 L128.186869,89.0228216 L128.186869,84.7438216 C128.186869,83.9078216 127.735869,83.5558216 126.921869,83.5558216 C126.426869,83.5558216 125.876869,83.7758216 125.601869,84.1608216 L125.601869,89.0228216 L124.204869,89.0228216 L124.204869,82.4338216 L125.205869,82.3568216 L125.425869,82.9948216 C125.920869,82.5328216 126.591869,82.2798216 127.306869,82.2798216 C128.703869,82.2798216 129.583869,83.1268216 129.583869,84.7328216 L129.583869,89.0228216 Z M132.883869,89.0228216 L131.486869,89.0228216 L131.486869,83.4678216 L130.584869,83.4678216 L130.584869,82.4008216 L131.475869,82.4008216 L131.475869,82.1148216 C131.475869,81.0698216 132.146869,80.2448216 133.708869,80.2448216 C134.071869,80.2448216 134.467869,80.3108216 134.731869,80.3988216 L134.643869,81.3228216 C134.445869,81.2788216 134.214869,81.2458216 133.972869,81.2458216 C133.191869,81.2458216 132.883869,81.5868216 132.883869,82.1478216 L132.883869,82.4008216 L134.423869,82.4008216 L134.423869,83.4678216 L132.883869,83.4678216 L132.883869,89.0228216 Z M141.089869,85.7338216 C141.089869,88.1868216 140.209869,89.1768216 138.152869,89.1768216 C136.106869,89.1768216 135.182869,88.1868216 135.182869,85.7338216 C135.182869,83.2918216 136.106869,82.2798216 138.152869,82.2798216 C140.209869,82.2798216 141.089869,83.2918216 141.089869,85.7338216 Z M136.634869,85.7338216 C136.634869,87.4718216 137.063869,87.9998216 138.152869,87.9998216 C139.241869,87.9998216 139.648869,87.4718216 139.648869,85.7338216 C139.648869,83.9958216 139.241869,83.4678216 138.152869,83.4678216 C137.052869,83.4678216 136.634869,83.9958216 136.634869,85.7338216 Z M143.740869,89.0228216 L142.343869,89.0228216 L142.343869,82.4448216 L143.465869,82.3788216 L143.586869,83.6218216 L143.619869,83.6218216 C144.026869,82.7638216 144.708869,82.3018216 145.522869,82.3018216 C145.797869,82.3018216 146.039869,82.3348216 146.215869,82.3898216 L146.127869,83.8088216 C145.918869,83.7428216 145.676869,83.6988216 145.434869,83.6988216 C144.477869,83.6988216 143.740869,84.4468216 143.740869,85.6898216 L143.740869,89.0228216 Z M156.093869,89.0228216 L154.696869,89.0228216 L154.696869,84.7218216 C154.696869,83.9298216 154.256869,83.5668216 153.530869,83.5668216 C152.892869,83.5668216 152.408869,83.9188216 152.408869,84.6448216 L152.408869,89.0228216 L151.011869,89.0228216 L151.011869,84.6448216 C151.011869,83.8638216 150.549869,83.5558216 149.889869,83.5558216 C149.416869,83.5558216 148.943869,83.7978216 148.712869,84.1608216 L148.712869,89.0228216 L147.315869,89.0228216 L147.315869,82.4338216 L148.316869,82.3678216 L148.558869,83.0278216 C149.009869,82.5658216 149.625869,82.2908216 150.263869,82.2908216 C151.121869,82.2908216 151.693869,82.5988216 152.034869,83.2368216 C152.452869,82.5878216 153.112869,82.2908216 153.904869,82.2908216 C155.191869,82.2908216 156.093869,83.0828216 156.093869,84.6998216 L156.093869,89.0228216 Z M160.449869,89.1438216 C158.216869,89.1438216 157.248869,87.9668216 157.248869,85.5908216 C157.248869,83.4898216 158.172869,82.2908216 160.086869,82.2908216 C161.714869,82.2908216 162.759869,83.2478216 162.759869,85.3598216 C162.759869,85.5688216 162.748869,85.8328216 162.726869,86.0308216 L158.700869,86.0308216 C158.766869,87.4168216 159.349869,87.9008216 160.614869,87.9008216 C161.263869,87.9008216 161.835869,87.7798216 162.396869,87.5378216 L162.561869,88.6928216 C162.000869,88.9678216 161.274869,89.1438216 160.449869,89.1438216 Z M158.667869,85.0848216 L161.472869,85.0848216 C161.450869,83.9188216 160.922869,83.4788216 160.097869,83.4788216 C159.140869,83.4788216 158.733869,83.9628216 158.667869,85.0848216 Z M169.315869,89.0228216 L168.226869,89.0228216 L168.072869,88.3958216 L168.039869,88.3848216 C167.632869,88.8798216 167.038869,89.1548216 166.191869,89.1548216 C164.453869,89.1548216 163.650869,88.0548216 163.650869,85.6898216 C163.650869,83.4898216 164.464869,82.2798216 166.180869,82.2798216 C166.851869,82.2798216 167.467869,82.5108216 167.918869,82.9508216 L167.940869,82.9288216 L167.918869,82.0488216 L167.918869,80.4098216 L169.315869,80.3328216 L169.315869,89.0228216 Z M167.918869,87.3288216 L167.918869,84.1718216 C167.676869,83.8088216 167.192869,83.5668216 166.587869,83.5668216 C165.498869,83.5668216 165.102869,84.1388216 165.102869,85.7448216 C165.102869,87.4278216 165.454869,87.9888216 166.576869,87.9888216 C167.335869,87.9888216 167.742869,87.6368216 167.918869,87.3288216 Z" id="Follow-us-and-stay-i" fill-opacity="0.500566123" fill="#FFFFFF"></path>
                        <path d="M80.6011237,40.1828216 C80.6011237,43.3728216 78.4451237,45.3308216 74.7051237,45.3308216 C72.8131237,45.3308216 71.0971237,44.8688216 69.7331237,44.0988216 L70.1511237,41.3928216 C71.5371237,42.1848216 73.0111237,42.6248216 74.6831237,42.6248216 C76.7291237,42.6248216 77.6751237,41.8108216 77.6751237,40.3808216 C77.6751237,37.2788216 69.8211237,38.6208216 69.8211237,33.0988216 C69.8211237,30.4148216 71.5591237,28.2368216 75.5411237,28.2368216 C77.1691237,28.2368216 78.8191237,28.5668216 80.0511237,29.1168216 L79.6551237,31.7348216 C78.3131237,31.2508216 77.0151237,30.9868216 75.6951237,30.9868216 C73.4511237,30.9868216 72.7471237,31.8888216 72.7471237,32.9448216 C72.7471237,35.9588216 80.6011237,34.5728216 80.6011237,40.1828216 Z M95.5651237,38.4448216 C95.5651237,43.3508216 93.8051237,45.3308216 89.6911237,45.3308216 C85.5991237,45.3308216 83.7511237,43.3508216 83.7511237,38.4448216 C83.7511237,33.5608216 85.5991237,31.5368216 89.6911237,31.5368216 C93.8051237,31.5368216 95.5651237,33.5608216 95.5651237,38.4448216 Z M86.6551237,38.4448216 C86.6551237,41.9208216 87.5131237,42.9768216 89.6911237,42.9768216 C91.8691237,42.9768216 92.6831237,41.9208216 92.6831237,38.4448216 C92.6831237,34.9688216 91.8691237,33.9128216 89.6911237,33.9128216 C87.4911237,33.9128216 86.6551237,34.9688216 86.6551237,38.4448216 Z M107.999124,32.1748216 L107.823124,34.6388216 C107.097124,34.3308216 106.217124,34.1328216 105.381124,34.1328216 C102.719124,34.1328216 101.795124,35.3208216 101.795124,38.3788216 C101.795124,41.6128216 103.049124,42.8448216 105.315124,42.8448216 C106.261124,42.8448216 107.185124,42.6248216 107.911124,42.2288216 L108.109124,44.4728216 C107.339124,44.9788216 106.129124,45.3088216 104.721124,45.3088216 C100.893124,45.3088216 98.8911237,43.1088216 98.8911237,38.3788216 C98.8911237,33.9568216 100.673124,31.5808216 104.787124,31.5808216 C105.931124,31.5808216 107.141124,31.8228216 107.999124,32.1748216 Z M115.285124,45.0228216 L112.447124,45.0228216 L112.447124,31.8668216 L115.285124,31.7128216 L115.285124,45.0228216 Z M115.549124,28.7208216 C115.549124,29.6008216 115.021124,30.0188216 113.877124,30.0188216 C112.755124,30.0188216 112.205124,29.6888216 112.205124,28.7208216 C112.205124,27.8628216 112.755124,27.3788216 113.877124,27.3788216 C115.021124,27.3788216 115.549124,27.8628216 115.549124,28.7208216 Z M128.005124,45.0228216 L127.763124,43.6148216 L127.697124,43.5928216 C126.883124,44.6268216 125.541124,45.2428216 123.957124,45.2428216 C121.493124,45.2428216 119.865124,43.8788216 119.865124,40.9308216 C119.865124,38.4448216 121.537124,36.8388216 124.617124,36.8388216 C125.651124,36.8388216 126.619124,37.0148216 127.367124,37.2568216 L127.367124,36.2668216 C127.367124,34.6168216 126.575124,33.9568216 124.595124,33.9568216 C123.165124,33.9568216 122.131124,34.1768216 120.921124,34.7048216 L120.679124,32.3948216 C121.977124,31.8228216 123.451124,31.5368216 125.101124,31.5368216 C128.797124,31.5368216 130.139124,33.1208216 130.139124,36.6848216 L130.139124,45.0228216 L128.005124,45.0228216 Z M127.367124,41.1288216 L127.367124,39.1928216 C127.037124,39.0388216 126.223124,38.8188216 125.123124,38.8188216 C123.319124,38.8188216 122.505124,39.5448216 122.505124,40.8868216 C122.505124,42.4268216 123.429124,42.9768216 124.727124,42.9768216 C126.113124,42.9768216 127.367124,42.0968216 127.367124,41.1288216 Z M137.777124,45.0228216 L134.961124,45.0228216 L134.961124,27.7968216 L137.777124,27.6428216 L137.777124,45.0228216 Z M150.743124,28.5228216 L154.131124,28.5228216 L158.355124,39.0388216 L158.993124,40.6888216 L159.059124,40.6888216 L159.675124,39.0388216 L163.943124,28.5228216 L167.309124,28.5228216 L167.309124,45.0228216 L164.537124,45.0228216 L164.537124,35.4968216 L164.581124,33.7148216 L164.515124,33.6928216 L163.877124,35.3648216 L160.005124,45.0228216 L157.937124,45.0228216 L154.087124,35.3648216 L153.449124,33.6928216 L153.405124,33.7148216 L153.427124,35.4968216 L153.427124,45.0228216 L150.743124,45.0228216 L150.743124,28.5228216 Z M177.939124,45.2648216 C173.473124,45.2648216 171.537124,42.9108216 171.537124,38.1588216 C171.537124,33.9568216 173.385124,31.5588216 177.213124,31.5588216 C180.469124,31.5588216 182.559124,33.4728216 182.559124,37.6968216 C182.559124,38.1148216 182.537124,38.6428216 182.493124,39.0388216 L174.441124,39.0388216 C174.573124,41.8108216 175.739124,42.7788216 178.269124,42.7788216 C179.567124,42.7788216 180.711124,42.5368216 181.833124,42.0528216 L182.163124,44.3628216 C181.041124,44.9128216 179.589124,45.2648216 177.939124,45.2648216 Z M174.375124,37.1468216 L179.985124,37.1468216 C179.941124,34.8148216 178.885124,33.9348216 177.235124,33.9348216 C175.321124,33.9348216 174.507124,34.9028216 174.375124,37.1468216 Z M197.171124,45.0228216 L194.993124,45.0228216 L194.685124,43.7688216 L194.619124,43.7468216 C193.805124,44.7368216 192.617124,45.2868216 190.923124,45.2868216 C187.447124,45.2868216 185.841124,43.0868216 185.841124,38.3568216 C185.841124,33.9568216 187.469124,31.5368216 190.901124,31.5368216 C192.243124,31.5368216 193.475124,31.9988216 194.377124,32.8788216 L194.421124,32.8348216 L194.377124,31.0748216 L194.377124,27.7968216 L197.171124,27.6428216 L197.171124,45.0228216 Z M194.377124,41.6348216 L194.377124,35.3208216 C193.893124,34.5948216 192.925124,34.1108216 191.715124,34.1108216 C189.537124,34.1108216 188.745124,35.2548216 188.745124,38.4668216 C188.745124,41.8328216 189.449124,42.9548216 191.693124,42.9548216 C193.211124,42.9548216 194.025124,42.2508216 194.377124,41.6348216 Z M205.205124,45.0228216 L202.367124,45.0228216 L202.367124,31.8668216 L205.205124,31.7128216 L205.205124,45.0228216 Z M205.469124,28.7208216 C205.469124,29.6008216 204.941124,30.0188216 203.797124,30.0188216 C202.675124,30.0188216 202.125124,29.6888216 202.125124,28.7208216 C202.125124,27.8628216 202.675124,27.3788216 203.797124,27.3788216 C204.941124,27.3788216 205.469124,27.8628216 205.469124,28.7208216 Z M217.925124,45.0228216 L217.683124,43.6148216 L217.617124,43.5928216 C216.803124,44.6268216 215.461124,45.2428216 213.877124,45.2428216 C211.413124,45.2428216 209.785124,43.8788216 209.785124,40.9308216 C209.785124,38.4448216 211.457124,36.8388216 214.537124,36.8388216 C215.571124,36.8388216 216.539124,37.0148216 217.287124,37.2568216 L217.287124,36.2668216 C217.287124,34.6168216 216.495124,33.9568216 214.515124,33.9568216 C213.085124,33.9568216 212.051124,34.1768216 210.841124,34.7048216 L210.599124,32.3948216 C211.897124,31.8228216 213.371124,31.5368216 215.021124,31.5368216 C218.717124,31.5368216 220.059124,33.1208216 220.059124,36.6848216 L220.059124,45.0228216 L217.925124,45.0228216 Z M217.287124,41.1288216 L217.287124,39.1928216 C216.957124,39.0388216 216.143124,38.8188216 215.043124,38.8188216 C213.239124,38.8188216 212.425124,39.5448216 212.425124,40.8868216 C212.425124,42.4268216 213.349124,42.9768216 214.647124,42.9768216 C216.033124,42.9768216 217.287124,42.0968216 217.287124,41.1288216 Z" fill-opacity="0.500566123" fill="#FFFFFF"></path>
                        <path d="M288.579505,0.5093361 L0.2748178,0.5093361" id="-" stroke="#FFFFFF" opacity="0.502734375" stroke-linecap="square" fill-rule="nonzero"></path>
                    </g>
                    <g id="Header" transform="translate(211.000000, 54.000000)" fill="#FFFFFF" fill-rule="nonzero">
                        <g id="Burger" transform="translate(47.710145, 1.000000)" fill-opacity="0.50036798">
                            <rect id="--copy" x="0" y="0" width="20.2898551" height="3"></rect>
                            <rect id="--copy-2" x="0" y="7" width="20.2898551" height="3"></rect>
                            <rect id="--copy-3" x="0" y="14" width="20.2898551" height="3"></rect>
                        </g>
                        <g id="icon-search-copy" opacity="0.501395089" transform="translate(9.000000, 9.500000) scale(-1, 1) translate(-9.000000, -9.500000) ">
                            <path d="M3.96,7.0614 C3.98283272,3.18983244 7.13583227,0.0676546788 11.0074373,0.0828540982 C14.8790424,0.0980535175 18.0074306,3.24489119 17.9998645,7.11651869 C17.9922985,10.9881462 14.8516349,14.1227327 10.98,14.1228 C7.09379872,14.1059381 3.95401054,10.9476332 3.96,7.0614 Z M6.7392,7.0614 C6.7610273,9.40070635 8.67159584,11.2812884 11.0109548,11.2661093 C13.3503137,11.2509302 15.2363178,9.34571381 15.227787,7.00632118 C15.2192562,4.66692855 13.3194074,2.7755176 10.98,2.7774 C8.62506443,2.78930177 6.72483079,4.70645144 6.7338,7.0614 L6.7392,7.0614 Z" id="Shape"></path>
                            <rect id="Rectangle-path" transform="translate(3.976765, 14.033545) rotate(-44.880000) translate(-3.976765, -14.033545) " x="-0.251435328" y="12.6439451" width="8.4564" height="2.7792"></rect>
                        </g>
                    </g>
                </g>
            </g>
        </g>
    </g>
</svg>