<?xml version="1.0" encoding="UTF-8"?>
<svg width="313px" height="639px" viewBox="0 0 313 639" version="1.1" xmlns="http://www.w3.org/2000/svg" xmlns:xlink="http://www.w3.org/1999/xlink">
    <!-- Generator: Sketch 51.3 (57544) - http://www.bohemiancoding.com/sketch -->
    <title>Wire Registration</title>
    <desc>Created with Sketch.</desc>
    <defs></defs>
    <g id="Projets" stroke="none" stroke-width="1" fill="none" fill-rule="evenodd">
        <g id="ENGIE" transform="translate(-853.000000, -4072.000000)">
            <g id="WIRES" transform="translate(150.000000, 3395.000000)">
                <g id="Wire-Registration" transform="translate(704.000000, 678.000000)">
                    <g id="Phone" stroke="#FFFFFF">
                        <path d="M39,-5.1159077e-13 L272,-5.1159077e-13 C293.539105,-5.15547439e-13 311,17.4608948 311,39 L311,598 C311,619.539105 293.539105,637 272,637 L39,637 C17.4608948,637 -1.41844769e-12,619.539105 -1.42108547e-12,598 L-1.42108547e-12,39 C-1.42372325e-12,17.4608948 17.4608948,-5.076341e-13 39,-5.1159077e-13 Z" id="base" stroke-opacity="0.49572577"></path>
                        <path d="M10.5,597.138554 L10.5,38.4582462 C10.5,22.5878717 23.5942673,9.5 39.4819587,9.5 C44.5795684,9.5 44.5795684,9.5 47.8126443,9.5 C50.142638,9.5 50.142638,9.5 50.7248371,9.5 L64.9658165,9.5 L67.2187603,9.5 C70.3901497,9.5 72.9610688,12.0709191 72.9606796,15.2620329 C72.5744751,25.0444229 80.3843143,32.8504282 90.4496743,32.7159377 L219.374793,32.7159837 C229.286194,32.8503899 237.098843,25.0415762 236.856619,15.2423085 C236.856619,12.0709191 239.427538,9.5 242.598928,9.5 L271.085254,9.5 C286.972946,9.5 300.067213,22.5878717 300.067213,38.4582462 L300.067213,597.138554 C300.067213,613.008928 286.972946,626.0968 271.085254,626.0968 L39.4819587,626.0968 C23.5942673,626.0968 10.5,613.008928 10.5,597.138554 Z" id="Mask" stroke-opacity="0.497310915"></path>
                    </g>
                    <g id="Content" transform="translate(31.000000, 121.000000)">
                        <path d="M62.9626926,6.45 C62.9626926,8.87 61.9066926,10.454 59.9926926,10.916 L64.0626926,18 L60.4986926,18 L57.2426926,11.51 L54.4266926,11.51 L54.4266926,18 L51.3906926,18 L51.3906926,1.5 L57.2206926,1.5 C61.0926926,1.5 62.9626926,3.062 62.9626926,6.45 Z M59.8166926,6.56 C59.8166926,4.734 59.0686926,4.096 57.2426926,4.096 L54.4266926,4.096 L54.4266926,9.156 L57.1546926,9.156 C59.0246926,9.156 59.8166926,8.54 59.8166926,6.56 Z M72.8886926,18.242 C68.4226926,18.242 66.4866926,15.888 66.4866926,11.136 C66.4866926,6.934 68.3346926,4.536 72.1626926,4.536 C75.4186926,4.536 77.5086926,6.45 77.5086926,10.674 C77.5086926,11.092 77.4866926,11.62 77.4426926,12.016 L69.3906926,12.016 C69.5226926,14.788 70.6886926,15.756 73.2186926,15.756 C74.5166926,15.756 75.6606926,15.514 76.7826926,15.03 L77.1126926,17.34 C75.9906926,17.89 74.5386926,18.242 72.8886926,18.242 Z M69.3246926,10.124 L74.9346926,10.124 C74.8906926,7.792 73.8346926,6.912 72.1846926,6.912 C70.2706926,6.912 69.4566926,7.88 69.3246926,10.124 Z M86.1366926,12.544 C85.5426926,12.544 84.9486926,12.5 84.3986926,12.39 C83.9586926,12.566 83.6946926,12.852 83.6946926,13.182 C83.6946926,13.556 84.0026926,13.864 84.6846926,13.908 L87.8746926,14.128 C91.0206926,14.348 92.1426926,15.448 92.1426926,17.406 C92.1426926,19.958 90.4926926,21.564 86.2686926,21.564 C82.5726926,21.564 81.0106926,20.112 81.0106926,18.066 C81.0106926,17.208 81.4066926,16.394 82.1546926,15.778 C81.5606926,15.404 81.1206926,14.766 81.1206926,13.886 C81.1206926,13.006 81.6486926,12.192 82.7706926,11.686 C81.8466926,11.092 81.2526926,10.124 81.2526926,8.584 C81.2526926,6.142 82.5946926,4.536 86.1366926,4.536 C87.2806926,4.536 88.4906926,4.712 89.4146926,5.306 L91.6146926,4.514 L92.2086926,5.9 L90.7346926,7 C90.9106926,7.44 90.9986926,7.968 90.9986926,8.584 C90.9986926,11.114 89.6566926,12.544 86.1366926,12.544 Z M87.3906926,16.548 L84.2006926,16.306 C83.6946926,16.724 83.4086926,17.252 83.4086926,17.714 C83.4086926,18.814 84.2226926,19.408 86.2026926,19.408 C88.9306926,19.408 89.6126926,18.77 89.6126926,17.824 C89.6126926,17.076 89.1946926,16.68 87.3906926,16.548 Z M86.1586926,6.692 C84.5746926,6.692 84.0026926,7.308 84.0026926,8.628 C84.0026926,10.168 84.8606926,10.564 86.0926926,10.564 C87.8086926,10.564 88.3146926,9.97 88.3146926,8.628 C88.3146926,7.198 87.6766926,6.692 86.1586926,6.692 Z M99.0326926,18 L96.1946926,18 L96.1946926,4.844 L99.0326926,4.69 L99.0326926,18 Z M99.2966926,1.698 C99.2966926,2.578 98.7686926,2.996 97.6246926,2.996 C96.5026926,2.996 95.9526926,2.666 95.9526926,1.698 C95.9526926,0.84 96.5026926,0.356 97.6246926,0.356 C98.7686926,0.356 99.2966926,0.84 99.2966926,1.698 Z M112.676693,13.974 C112.676693,16.548 111.224693,18.264 107.792693,18.264 C106.208693,18.264 104.778693,17.934 103.678693,17.274 L104.008693,14.898 C105.042693,15.58 106.582693,15.932 107.792693,15.932 C109.398693,15.932 110.080693,15.206 110.080693,14.238 C110.080693,11.73 103.634693,13.028 103.634693,8.452 C103.634693,6.142 105.240693,4.536 108.474693,4.536 C109.794693,4.536 111.048693,4.8 112.148693,5.284 L111.906693,7.616 C110.806693,7.154 109.442693,6.934 108.430693,6.934 C107.110693,6.934 106.318693,7.462 106.318693,8.342 C106.318693,10.674 112.676693,9.376 112.676693,13.974 Z M122.800693,6.912 L119.698693,6.912 L119.698693,14.282 C119.698693,15.448 120.314693,15.932 121.436693,15.932 C121.788693,15.932 122.272693,15.866 122.514693,15.778 L122.690693,17.868 C122.250693,18.066 121.436693,18.22 120.622693,18.22 C118.136693,18.22 116.904693,16.79 116.904693,14.348 L116.904693,6.912 L115.254693,6.912 L115.254693,4.756 L116.992693,4.756 L117.498693,1.654 L119.698693,1.434 L119.698693,4.756 L122.800693,4.756 L122.800693,6.912 Z M129.294693,18 L126.500693,18 L126.500693,4.844 L128.744693,4.712 L128.986693,7.198 L129.052693,7.198 C129.866693,5.482 131.230693,4.558 132.858693,4.558 C133.408693,4.558 133.892693,4.624 134.244693,4.734 L134.068693,7.572 C133.650693,7.44 133.166693,7.352 132.682693,7.352 C130.768693,7.352 129.294693,8.848 129.294693,11.334 L129.294693,18 Z M145.072693,18 L144.830693,16.592 L144.764693,16.57 C143.950693,17.604 142.608693,18.22 141.024693,18.22 C138.560693,18.22 136.932693,16.856 136.932693,13.908 C136.932693,11.422 138.604693,9.816 141.684693,9.816 C142.718693,9.816 143.686693,9.992 144.434693,10.234 L144.434693,9.244 C144.434693,7.594 143.642693,6.934 141.662693,6.934 C140.232693,6.934 139.198693,7.154 137.988693,7.682 L137.746693,5.372 C139.044693,4.8 140.518693,4.514 142.168693,4.514 C145.864693,4.514 147.206693,6.098 147.206693,9.662 L147.206693,18 L145.072693,18 Z M144.434693,14.106 L144.434693,12.17 C144.104693,12.016 143.290693,11.796 142.190693,11.796 C140.386693,11.796 139.572693,12.522 139.572693,13.864 C139.572693,15.404 140.496693,15.954 141.794693,15.954 C143.180693,15.954 144.434693,15.074 144.434693,14.106 Z M158.254693,6.912 L155.152693,6.912 L155.152693,14.282 C155.152693,15.448 155.768693,15.932 156.890693,15.932 C157.242693,15.932 157.726693,15.866 157.968693,15.778 L158.144693,17.868 C157.704693,18.066 156.890693,18.22 156.076693,18.22 C153.590693,18.22 152.358693,16.79 152.358693,14.348 L152.358693,6.912 L150.708693,6.912 L150.708693,4.756 L152.446693,4.756 L152.952693,1.654 L155.152693,1.434 L155.152693,4.756 L158.254693,4.756 L158.254693,6.912 Z M165.254693,18 L162.416693,18 L162.416693,4.844 L165.254693,4.69 L165.254693,18 Z M165.518693,1.698 C165.518693,2.578 164.990693,2.996 163.846693,2.996 C162.724693,2.996 162.174693,2.666 162.174693,1.698 C162.174693,0.84 162.724693,0.356 163.846693,0.356 C164.990693,0.356 165.518693,0.84 165.518693,1.698 Z M181.538693,11.422 C181.538693,16.328 179.778693,18.308 175.664693,18.308 C171.572693,18.308 169.724693,16.328 169.724693,11.422 C169.724693,6.538 171.572693,4.514 175.664693,4.514 C179.778693,4.514 181.538693,6.538 181.538693,11.422 Z M172.628693,11.422 C172.628693,14.898 173.486693,15.954 175.664693,15.954 C177.842693,15.954 178.656693,14.898 178.656693,11.422 C178.656693,7.946 177.842693,6.89 175.664693,6.89 C173.464693,6.89 172.628693,7.946 172.628693,11.422 Z M196.304693,18 L193.510693,18 L193.510693,9.442 C193.510693,7.77 192.608693,7.066 190.980693,7.066 C189.990693,7.066 188.890693,7.506 188.340693,8.276 L188.340693,18 L185.546693,18 L185.546693,4.822 L187.548693,4.668 L187.988693,5.944 C188.978693,5.02 190.320693,4.514 191.750693,4.514 C194.544693,4.514 196.304693,6.208 196.304693,9.42 L196.304693,18 Z" id="Registration" fill-opacity="0.500566123" fill="#FFFFFF"></path>
                        <g id="Field-Name" transform="translate(0.000000, 55.000000)">
                            <rect id="Rectangle" stroke-opacity="0.5" stroke="#FFFFFF" fill-rule="nonzero" x="0.5" y="0.5" width="247" height="59"></rect>
                            <path d="M30.254,35 L29.232,35 L24.276,27.776 L23.66,26.824 L23.632,26.838 L23.646,27.972 L23.646,35 L22.358,35 L22.358,24.5 L23.66,24.5 L28.98,32.438 L29.008,32.424 L28.98,31.304 L28.98,24.5 L30.254,24.5 L30.254,35 Z M37.59,35 L37.464,33.978 L37.422,33.964 C36.932,34.678 36.022,35.126 34.944,35.126 C33.418,35.126 32.382,34.328 32.382,32.452 C32.382,30.884 33.39,29.918 35.378,29.918 C36.092,29.918 36.778,30.058 37.296,30.24 L37.296,29.414 C37.296,28.098 36.708,27.636 35.35,27.636 C34.468,27.636 33.754,27.79 33.012,28.14 L32.886,27.034 C33.684,26.67 34.58,26.488 35.574,26.488 C37.772,26.488 38.598,27.412 38.598,29.61 L38.598,35 L37.59,35 Z M37.282,32.634 L37.282,31.192 C37.072,31.066 36.456,30.884 35.616,30.884 C34.23,30.884 33.628,31.444 33.628,32.438 C33.628,33.628 34.342,34.034 35.308,34.034 C36.344,34.034 37.282,33.334 37.282,32.634 Z M51.534,35 L50.218,35 L50.218,29.456 C50.218,28.28 49.56,27.748 48.482,27.748 C47.586,27.748 46.83,28.266 46.83,29.316 L46.83,35 L45.514,35 L45.514,29.316 C45.514,28.182 44.8,27.734 43.876,27.734 C43.176,27.734 42.462,28.112 42.126,28.672 L42.126,35 L40.796,35 L40.796,26.684 L41.748,26.614 L41.986,27.51 L42.028,27.51 C42.532,26.894 43.344,26.53 44.184,26.53 C45.304,26.53 46.046,26.95 46.438,27.804 L46.466,27.804 C46.942,26.936 47.796,26.516 48.818,26.516 C50.428,26.516 51.534,27.468 51.534,29.442 L51.534,35 Z M57.134,35.168 C54.39,35.168 53.256,33.726 53.256,30.604 C53.256,27.986 54.404,26.516 56.7,26.516 C58.688,26.516 59.99,27.692 59.99,30.366 C59.99,30.576 59.976,30.828 59.962,31.01 L54.614,31.01 C54.684,33.208 55.496,33.964 57.288,33.964 C58.128,33.964 58.842,33.782 59.556,33.432 L59.71,34.552 C59.01,34.93 58.142,35.168 57.134,35.168 Z M54.586,30.1 L58.772,30.1 C58.744,28.336 57.918,27.664 56.714,27.664 C55.3,27.664 54.67,28.448 54.586,30.1 Z" id="Name" fill-opacity="0.500566123" fill="#FFFFFF"></path>
                        </g>
                        <g id="Field-surname" transform="translate(0.000000, 145.000000)">
                            <rect id="Rectangle" stroke-opacity="0.5" stroke="#FFFFFF" fill-rule="nonzero" x="0.5" y="0.5" width="247" height="59"></rect>
                            <path d="M28.378,32.004 C28.378,33.978 27.104,35.196 24.794,35.196 C23.59,35.196 22.554,34.888 21.714,34.398 L21.938,33.096 C22.792,33.614 23.702,33.894 24.78,33.894 C26.264,33.894 26.992,33.222 26.992,32.102 C26.992,29.722 21.798,30.758 21.798,27.272 C21.798,25.62 22.862,24.332 25.256,24.332 C26.278,24.332 27.272,24.528 28.028,24.892 L27.832,26.138 C27.006,25.816 26.208,25.634 25.326,25.634 C23.744,25.634 23.184,26.362 23.184,27.188 C23.184,29.47 28.378,28.406 28.378,32.004 Z M36.47,26.656 L36.47,32.256 C36.47,34.104 35.42,35.154 33.222,35.154 C31.038,35.154 29.988,34.09 29.988,32.256 L29.988,26.656 L31.304,26.656 L31.304,32.228 C31.304,33.348 31.948,33.936 33.236,33.936 C34.496,33.936 35.154,33.362 35.154,32.228 L35.154,26.656 L36.47,26.656 Z M39.998,35 L38.668,35 L38.668,26.712 L39.732,26.642 L39.844,28.434 L39.872,28.434 C40.39,27.23 41.3,26.53 42.434,26.53 C42.742,26.53 43.036,26.572 43.26,26.642 L43.176,27.986 C42.924,27.902 42.644,27.874 42.35,27.874 C41.048,27.874 39.998,28.98 39.998,30.772 L39.998,35 Z M51.38,35 L50.064,35 L50.064,29.484 C50.064,28.252 49.406,27.734 48.174,27.734 C47.46,27.734 46.62,28.07 46.228,28.672 L46.228,35 L44.898,35 L44.898,26.684 L45.85,26.614 L46.074,27.496 L46.116,27.496 C46.69,26.866 47.6,26.502 48.538,26.502 C50.302,26.502 51.38,27.496 51.38,29.484 L51.38,35 Z M58.394,35 L58.268,33.978 L58.226,33.964 C57.736,34.678 56.826,35.126 55.748,35.126 C54.222,35.126 53.186,34.328 53.186,32.452 C53.186,30.884 54.194,29.918 56.182,29.918 C56.896,29.918 57.582,30.058 58.1,30.24 L58.1,29.414 C58.1,28.098 57.512,27.636 56.154,27.636 C55.272,27.636 54.558,27.79 53.816,28.14 L53.69,27.034 C54.488,26.67 55.384,26.488 56.378,26.488 C58.576,26.488 59.402,27.412 59.402,29.61 L59.402,35 L58.394,35 Z M58.086,32.634 L58.086,31.192 C57.876,31.066 57.26,30.884 56.42,30.884 C55.034,30.884 54.432,31.444 54.432,32.438 C54.432,33.628 55.146,34.034 56.112,34.034 C57.148,34.034 58.086,33.334 58.086,32.634 Z M72.338,35 L71.022,35 L71.022,29.456 C71.022,28.28 70.364,27.748 69.286,27.748 C68.39,27.748 67.634,28.266 67.634,29.316 L67.634,35 L66.318,35 L66.318,29.316 C66.318,28.182 65.604,27.734 64.68,27.734 C63.98,27.734 63.266,28.112 62.93,28.672 L62.93,35 L61.6,35 L61.6,26.684 L62.552,26.614 L62.79,27.51 L62.832,27.51 C63.336,26.894 64.148,26.53 64.988,26.53 C66.108,26.53 66.85,26.95 67.242,27.804 L67.27,27.804 C67.746,26.936 68.6,26.516 69.622,26.516 C71.232,26.516 72.338,27.468 72.338,29.442 L72.338,35 Z M77.938,35.168 C75.194,35.168 74.06,33.726 74.06,30.604 C74.06,27.986 75.208,26.516 77.504,26.516 C79.492,26.516 80.794,27.692 80.794,30.366 C80.794,30.576 80.78,30.828 80.766,31.01 L75.418,31.01 C75.488,33.208 76.3,33.964 78.092,33.964 C78.932,33.964 79.646,33.782 80.36,33.432 L80.514,34.552 C79.814,34.93 78.946,35.168 77.938,35.168 Z M75.39,30.1 L79.576,30.1 C79.548,28.336 78.722,27.664 77.518,27.664 C76.104,27.664 75.474,28.448 75.39,30.1 Z" id="Surname" fill-opacity="0.500566123" fill="#FFFFFF"></path>
                        </g>
                        <g id="Field-Email" transform="translate(0.000000, 235.000000)">
                            <rect id="Rectangle" stroke-opacity="0.5" stroke="#FFFFFF" fill-rule="nonzero" x="0.5" y="0.5" width="247" height="59"></rect>
                            <path d="M23.786,33.698 L29.092,33.698 L29.05,35 L22.358,35 L22.358,24.5 L28.812,24.5 L28.854,25.816 L23.786,25.816 L23.786,28.938 L28.126,28.938 L28.126,30.142 L23.786,30.142 L23.786,33.698 Z M41.622,35 L40.306,35 L40.306,29.456 C40.306,28.28 39.648,27.748 38.57,27.748 C37.674,27.748 36.918,28.266 36.918,29.316 L36.918,35 L35.602,35 L35.602,29.316 C35.602,28.182 34.888,27.734 33.964,27.734 C33.264,27.734 32.55,28.112 32.214,28.672 L32.214,35 L30.884,35 L30.884,26.684 L31.836,26.614 L32.074,27.51 L32.116,27.51 C32.62,26.894 33.432,26.53 34.272,26.53 C35.392,26.53 36.134,26.95 36.526,27.804 L36.554,27.804 C37.03,26.936 37.884,26.516 38.906,26.516 C40.516,26.516 41.622,27.468 41.622,29.442 L41.622,35 Z M48.636,35 L48.51,33.978 L48.468,33.964 C47.978,34.678 47.068,35.126 45.99,35.126 C44.464,35.126 43.428,34.328 43.428,32.452 C43.428,30.884 44.436,29.918 46.424,29.918 C47.138,29.918 47.824,30.058 48.342,30.24 L48.342,29.414 C48.342,28.098 47.754,27.636 46.396,27.636 C45.514,27.636 44.8,27.79 44.058,28.14 L43.932,27.034 C44.73,26.67 45.626,26.488 46.62,26.488 C48.818,26.488 49.644,27.412 49.644,29.61 L49.644,35 L48.636,35 Z M48.328,32.634 L48.328,31.192 C48.118,31.066 47.502,30.884 46.662,30.884 C45.276,30.884 44.674,31.444 44.674,32.438 C44.674,33.628 45.388,34.034 46.354,34.034 C47.39,34.034 48.328,33.334 48.328,32.634 Z M53.522,35 L52.192,35 L52.192,26.698 L53.522,26.628 L53.522,35 Z M53.718,24.542 C53.718,25.032 53.438,25.256 52.864,25.256 C52.29,25.256 52.01,25.074 52.01,24.542 C52.01,24.08 52.29,23.828 52.864,23.828 C53.438,23.828 53.718,24.08 53.718,24.542 Z M57.806,35 L56.476,35 L56.476,23.954 L57.806,23.87 L57.806,35 Z" id="Email" fill-opacity="0.500566123" fill="#FFFFFF"></path>
                        </g>
                        <g id="Field-Phone-Number" transform="translate(0.000000, 325.000000)">
                            <rect id="Rectangle" stroke-opacity="0.5" stroke="#FFFFFF" fill-rule="nonzero" x="0.5" y="0.5" width="247" height="59"></rect>
                            <path d="M29.512,27.79 C29.512,29.946 28.448,31.066 25.844,31.066 L23.786,31.066 L23.786,35 L22.358,35 L22.358,24.5 L25.844,24.5 C28.42,24.5 29.512,25.508 29.512,27.79 Z M28.042,27.79 C28.042,26.264 27.37,25.746 25.844,25.746 L23.786,25.746 L23.786,29.862 L25.844,29.862 C27.328,29.862 28.042,29.4 28.042,27.79 Z M37.856,35 L36.54,35 L36.54,29.47 C36.54,28.35 35.938,27.734 34.65,27.734 C33.782,27.734 33.026,28.154 32.69,28.686 L32.69,35 L31.374,35 L31.374,23.954 L32.69,23.87 L32.69,26.292 L32.676,27.412 L32.704,27.426 C33.306,26.796 34.16,26.502 35.042,26.502 C36.862,26.502 37.856,27.566 37.856,29.47 L37.856,35 Z M46.802,30.856 C46.802,33.95 45.724,35.182 43.218,35.182 C40.698,35.182 39.578,33.95 39.578,30.856 C39.578,27.762 40.712,26.516 43.218,26.516 C45.738,26.516 46.802,27.762 46.802,30.856 Z M40.95,30.856 C40.95,33.25 41.58,34.062 43.218,34.062 C44.828,34.062 45.444,33.236 45.444,30.856 C45.444,28.462 44.828,27.65 43.218,27.65 C41.58,27.65 40.95,28.462 40.95,30.856 Z M55.146,35 L53.83,35 L53.83,29.484 C53.83,28.252 53.172,27.734 51.94,27.734 C51.226,27.734 50.386,28.07 49.994,28.672 L49.994,35 L48.664,35 L48.664,26.684 L49.616,26.614 L49.84,27.496 L49.882,27.496 C50.456,26.866 51.366,26.502 52.304,26.502 C54.068,26.502 55.146,27.496 55.146,29.484 L55.146,35 Z M60.746,35.168 C58.002,35.168 56.868,33.726 56.868,30.604 C56.868,27.986 58.016,26.516 60.312,26.516 C62.3,26.516 63.602,27.692 63.602,30.366 C63.602,30.576 63.588,30.828 63.574,31.01 L58.226,31.01 C58.296,33.208 59.108,33.964 60.9,33.964 C61.74,33.964 62.454,33.782 63.168,33.432 L63.322,34.552 C62.622,34.93 61.754,35.168 60.746,35.168 Z M58.198,30.1 L62.384,30.1 C62.356,28.336 61.53,27.664 60.326,27.664 C58.912,27.664 58.282,28.448 58.198,30.1 Z M77.728,35 L76.706,35 L71.75,27.776 L71.134,26.824 L71.106,26.838 L71.12,27.972 L71.12,35 L69.832,35 L69.832,24.5 L71.134,24.5 L76.454,32.438 L76.482,32.424 L76.454,31.304 L76.454,24.5 L77.728,24.5 L77.728,35 Z M86.604,26.656 L86.604,32.256 C86.604,34.104 85.554,35.154 83.356,35.154 C81.172,35.154 80.122,34.09 80.122,32.256 L80.122,26.656 L81.438,26.656 L81.438,32.228 C81.438,33.348 82.082,33.936 83.37,33.936 C84.63,33.936 85.288,33.362 85.288,32.228 L85.288,26.656 L86.604,26.656 Z M99.54,35 L98.224,35 L98.224,29.456 C98.224,28.28 97.566,27.748 96.488,27.748 C95.592,27.748 94.836,28.266 94.836,29.316 L94.836,35 L93.52,35 L93.52,29.316 C93.52,28.182 92.806,27.734 91.882,27.734 C91.182,27.734 90.468,28.112 90.132,28.672 L90.132,35 L88.802,35 L88.802,26.684 L89.754,26.614 L89.992,27.51 L90.034,27.51 C90.538,26.894 91.35,26.53 92.19,26.53 C93.31,26.53 94.052,26.95 94.444,27.804 L94.472,27.804 C94.948,26.936 95.802,26.516 96.824,26.516 C98.434,26.516 99.54,27.468 99.54,29.442 L99.54,35 Z M108.71,30.8 C108.71,33.936 107.492,35.154 105.378,35.154 C104.342,35.154 103.474,34.762 102.956,34.118 L102.914,34.132 L102.704,35 L101.822,35 L101.822,23.94 L103.138,23.856 L103.138,26.306 L103.124,27.426 L103.152,27.44 C103.754,26.81 104.608,26.502 105.532,26.502 C107.478,26.502 108.71,27.636 108.71,30.8 Z M107.366,30.828 C107.366,28.294 106.554,27.706 105.182,27.706 C104.3,27.706 103.572,28.07 103.138,28.7 L103.138,33.026 C103.474,33.572 104.174,34.048 105.196,34.048 C106.498,34.048 107.366,33.418 107.366,30.828 Z M113.96,35.168 C111.216,35.168 110.082,33.726 110.082,30.604 C110.082,27.986 111.23,26.516 113.526,26.516 C115.514,26.516 116.816,27.692 116.816,30.366 C116.816,30.576 116.802,30.828 116.788,31.01 L111.44,31.01 C111.51,33.208 112.322,33.964 114.114,33.964 C114.954,33.964 115.668,33.782 116.382,33.432 L116.536,34.552 C115.836,34.93 114.968,35.168 113.96,35.168 Z M111.412,30.1 L115.598,30.1 C115.57,28.336 114.744,27.664 113.54,27.664 C112.126,27.664 111.496,28.448 111.412,30.1 Z M119.98,35 L118.65,35 L118.65,26.712 L119.714,26.642 L119.826,28.434 L119.854,28.434 C120.372,27.23 121.282,26.53 122.416,26.53 C122.724,26.53 123.018,26.572 123.242,26.642 L123.158,27.986 C122.906,27.902 122.626,27.874 122.332,27.874 C121.03,27.874 119.98,28.98 119.98,30.772 L119.98,35 Z" id="Phone-Number" fill-opacity="0.500566123" fill="#FFFFFF"></path>
                        </g>
                        <path d="M82.7476926,439.352 C82.7476926,441.422 81.8116926,442.682 80.1016926,442.97 L83.6296926,449 L81.4336926,449 L78.3916926,443.312 L75.6736926,443.312 L75.6736926,449 L73.8376926,449 L73.8376926,435.5 L78.4096926,435.5 C81.3616926,435.5 82.7476926,436.742 82.7476926,439.352 Z M80.8396926,439.424 C80.8396926,437.732 80.1016926,437.102 78.4096926,437.102 L75.6736926,437.102 L75.6736926,441.854 L78.3376926,441.854 C80.0656926,441.854 80.8396926,441.206 80.8396926,439.424 Z M89.8756926,449.216 C86.3476926,449.216 84.8896926,447.362 84.8896926,443.348 C84.8896926,439.982 86.3656926,438.092 89.3176926,438.092 C91.8736926,438.092 93.5476926,439.604 93.5476926,443.042 C93.5476926,443.312 93.5296926,443.636 93.5116926,443.87 L86.6356926,443.87 C86.7256926,446.696 87.7696926,447.668 90.0736926,447.668 C91.1536926,447.668 92.0716926,447.434 92.9896926,446.984 L93.1876926,448.424 C92.2876926,448.91 91.1716926,449.216 89.8756926,449.216 Z M86.5996926,442.7 L91.9816926,442.7 C91.9456926,440.432 90.8836926,439.568 89.3356926,439.568 C87.5176926,439.568 86.7076926,440.576 86.5996926,442.7 Z M99.4876926,444.464 C98.9836926,444.464 98.4796926,444.428 97.9936926,444.302 C97.4716926,444.446 97.1836926,444.734 97.1836926,445.094 C97.1836926,445.454 97.4716926,445.76 98.1196926,445.814 L100.729693,446.03 C103.321693,446.246 104.167693,447.11 104.167693,448.622 C104.167693,450.584 102.943693,451.844 99.5956926,451.844 C96.6976926,451.844 95.4736926,450.692 95.4736926,449.018 C95.4736926,448.262 95.8336926,447.542 96.5176926,447.002 C96.0136926,446.714 95.6176926,446.21 95.6176926,445.508 C95.6176926,444.824 96.0856926,444.194 96.9676926,443.834 C96.1936926,443.366 95.6896926,442.574 95.6896926,441.296 C95.6896926,439.316 96.7516926,438.092 99.4876926,438.092 C100.423693,438.092 101.395693,438.254 102.133693,438.758 L103.897693,438.056 L104.275693,438.92 L102.979693,439.82 C103.159693,440.234 103.267693,440.702 103.267693,441.296 C103.267693,443.33 102.277693,444.464 99.4876926,444.464 Z M100.441693,447.542 L97.8316926,447.308 C97.2376926,447.722 96.9496926,448.298 96.9496926,448.802 C96.9496926,449.882 97.7056926,450.494 99.5596926,450.494 C101.989693,450.494 102.601693,449.828 102.601693,448.856 C102.601693,448.1 102.205693,447.704 100.441693,447.542 Z M99.5056926,439.442 C97.9396926,439.442 97.3816926,440.054 97.3816926,441.332 C97.3816926,442.844 98.2636926,443.204 99.4696926,443.204 C101.125693,443.204 101.629693,442.592 101.629693,441.332 C101.629693,439.928 100.999693,439.442 99.5056926,439.442 Z M108.379693,449 L106.669693,449 L106.669693,438.326 L108.379693,438.236 L108.379693,449 Z M108.631693,435.554 C108.631693,436.184 108.271693,436.472 107.533693,436.472 C106.795693,436.472 106.435693,436.238 106.435693,435.554 C106.435693,434.96 106.795693,434.636 107.533693,434.636 C108.271693,434.636 108.631693,434.96 108.631693,435.554 Z M118.423693,445.85 C118.423693,447.866 117.289693,449.216 114.643693,449.216 C113.365693,449.216 112.177693,448.91 111.349693,448.316 L111.565693,446.84 C112.375693,447.452 113.599693,447.776 114.625693,447.776 C116.191693,447.776 116.839693,447.02 116.839693,446.012 C116.839693,443.582 111.349693,444.716 111.349693,441.098 C111.349693,439.28 112.627693,438.092 115.093693,438.092 C116.137693,438.092 117.127693,438.308 117.991693,438.704 L117.847693,440.144 C116.947693,439.766 115.921693,439.568 115.057693,439.568 C113.779693,439.568 112.969693,440.126 112.969693,441.008 C112.969693,443.294 118.423693,442.106 118.423693,445.85 Z M125.659693,439.604 L123.013693,439.604 L123.013693,446.192 C123.013693,447.308 123.607693,447.758 124.579693,447.758 C124.885693,447.758 125.263693,447.704 125.479693,447.614 L125.587693,448.91 C125.263693,449.072 124.669693,449.18 124.093693,449.18 C122.257693,449.18 121.303693,448.154 121.303693,446.246 L121.303693,439.604 L119.809693,439.604 L119.809693,438.272 L121.357693,438.272 L121.681693,435.608 L123.013693,435.464 L123.013693,438.272 L125.659693,438.272 L125.659693,439.604 Z M132.139693,449.216 C128.611693,449.216 127.153693,447.362 127.153693,443.348 C127.153693,439.982 128.629693,438.092 131.581693,438.092 C134.137693,438.092 135.811693,439.604 135.811693,443.042 C135.811693,443.312 135.793693,443.636 135.775693,443.87 L128.899693,443.87 C128.989693,446.696 130.033693,447.668 132.337693,447.668 C133.417693,447.668 134.335693,447.434 135.253693,446.984 L135.451693,448.424 C134.551693,448.91 133.435693,449.216 132.139693,449.216 Z M128.863693,442.7 L134.245693,442.7 C134.209693,440.432 133.147693,439.568 131.599693,439.568 C129.781693,439.568 128.971693,440.576 128.863693,442.7 Z M139.879693,449 L138.169693,449 L138.169693,438.344 L139.537693,438.254 L139.681693,440.558 L139.717693,440.558 C140.383693,439.01 141.553693,438.11 143.011693,438.11 C143.407693,438.11 143.785693,438.164 144.073693,438.254 L143.965693,439.982 C143.641693,439.874 143.281693,439.838 142.903693,439.838 C141.229693,439.838 139.879693,441.26 139.879693,443.564 L139.879693,449 Z" id="Register" fill-opacity="0.500566123" fill="#FFFFFF"></path>
                        <polygon id="Path-2" fill="#FFFFFF" fill-rule="nonzero" opacity="0.497935268" points="158 443 158 444 169.5 444 166.5 447 167 448 171.5 443.5 167 439 166.5 440 169.5 443"></polygon>
                    </g>
                    <g id="Header" transform="translate(12.000000, 55.000000)" fill-rule="nonzero">
                        <path d="M288.579505,37.5093361 L0.2748178,37.5093361" id="--copy-4" stroke-opacity="0.5" stroke="#FFFFFF" stroke-linecap="square"></path>
                        <g id="Burger" transform="translate(246.710145, 0.000000)" fill="#FFFFFF" fill-opacity="0.5">
                            <rect id="--copy" x="0" y="0" width="20.2898551" height="3"></rect>
                            <rect id="--copy-2" x="0" y="7" width="20.2898551" height="3"></rect>
                            <rect id="--copy-3" x="0" y="14" width="20.2898551" height="3"></rect>
                        </g>
                        <g id="icon-search-copy" opacity="0.501395089" transform="translate(207.000000, 9.500000) scale(-1, 1) translate(-207.000000, -9.500000) translate(198.000000, 0.000000)" fill="#FFFFFF">
                            <path d="M3.96,7.0614 C3.98283272,3.18983244 7.13583227,0.0676546788 11.0074373,0.0828540982 C14.8790424,0.0980535175 18.0074306,3.24489119 17.9998645,7.11651869 C17.9922985,10.9881462 14.8516349,14.1227327 10.98,14.1228 C7.09379872,14.1059381 3.95401054,10.9476332 3.96,7.0614 Z M6.7392,7.0614 C6.7610273,9.40070635 8.67159584,11.2812884 11.0109548,11.2661093 C13.3503137,11.2509302 15.2363178,9.34571381 15.227787,7.00632118 C15.2192562,4.66692855 13.3194074,2.7755176 10.98,2.7774 C8.62506443,2.78930177 6.72483079,4.70645144 6.7338,7.0614 L6.7392,7.0614 Z" id="Shape"></path>
                            <rect id="Rectangle-path" transform="translate(3.976765, 14.033545) rotate(-44.880000) translate(-3.976765, -14.033545) " x="-0.251435328" y="12.6439451" width="8.4564" height="2.7792"></rect>
                        </g>
                    </g>
                </g>
            </g>
        </g>
    </g>
</svg>