<?xml version="1.0" encoding="UTF-8"?>
<svg width="313px" height="639px" viewBox="0 0 313 639" version="1.1" xmlns="http://www.w3.org/2000/svg" xmlns:xlink="http://www.w3.org/1999/xlink">
    <!-- Generator: Sketch 51.3 (57544) - http://www.bohemiancoding.com/sketch -->
    <title>Wire Job</title>
    <desc>Created with Sketch.</desc>
    <defs></defs>
    <g id="Projets" stroke="none" stroke-width="1" fill="none" fill-rule="evenodd">
        <g id="ENGIE" transform="translate(-504.000000, -4275.000000)">
            <g id="WIRES" transform="translate(150.000000, 3395.000000)">
                <g id="Wire-Job" transform="translate(355.000000, 881.000000)">
                    <g id="Phone" stroke="#FFFFFF">
                        <path d="M39,-5.1159077e-13 L272,-5.1159077e-13 C293.539105,-5.15547439e-13 311,17.4608948 311,39 L311,598 C311,619.539105 293.539105,637 272,637 L39,637 C17.4608948,637 -1.41844769e-12,619.539105 -1.42108547e-12,598 L-1.42108547e-12,39 C-1.42372325e-12,17.4608948 17.4608948,-5.076341e-13 39,-5.1159077e-13 Z" id="base" stroke-opacity="0.49572577"></path>
                        <path d="M10.7163934,597.330554 L10.7163934,38.6502462 C10.7163934,22.7798717 23.8106607,9.692 39.6983521,9.692 C44.7959618,9.692 44.7959618,9.692 48.0290377,9.692 C50.3590315,9.692 50.3590315,9.692 50.9412306,9.692 L65.1822099,9.692 L67.4351537,9.692 C70.6065431,9.692 73.1774622,12.2629191 73.177073,15.4540329 C72.7908685,25.2364229 80.6007077,33.0424282 90.6660677,32.9079377 L219.591187,32.9079837 C229.502587,33.0423899 237.315237,25.2335762 237.073013,15.4343085 C237.073013,12.2629191 239.643932,9.692 242.815321,9.692 L271.301648,9.692 C287.189339,9.692 300.283607,22.7798717 300.283607,38.6502462 L300.283607,597.330554 C300.283607,613.200928 287.189339,626.2888 271.301648,626.2888 L39.6983521,626.2888 C23.8106607,626.2888 10.7163934,613.200928 10.7163934,597.330554 Z" id="Mask" stroke-opacity="0.497310915"></path>
                    </g>
                    <g id="Job-Offers" transform="translate(11.000000, 92.000000)">
                        <path d="M93.3168693,62.7728216 L94.9668693,62.7728216 L96.2868693,68.6688216 L96.4738693,69.5378216 L96.5068693,69.5378216 L96.6608693,68.6688216 L97.8378693,62.7728216 L99.3448693,62.7728216 L97.3868693,71.0228216 L95.5498693,71.0228216 L94.2958693,65.1378216 L94.1308693,64.2578216 L94.0978693,64.2578216 L93.9218693,65.1378216 L92.6678693,71.0228216 L90.8418693,71.0228216 L88.8728693,62.7728216 L90.4458693,62.7728216 L91.6228693,68.7018216 L91.7878693,69.5708216 L91.8208693,69.5708216 L91.9858693,68.7018216 L93.3168693,62.7728216 Z M103.392869,71.1438216 C101.159869,71.1438216 100.191869,69.9668216 100.191869,67.5908216 C100.191869,65.4898216 101.115869,64.2908216 103.029869,64.2908216 C104.657869,64.2908216 105.702869,65.2478216 105.702869,67.3598216 C105.702869,67.5688216 105.691869,67.8328216 105.669869,68.0308216 L101.643869,68.0308216 C101.709869,69.4168216 102.292869,69.9008216 103.557869,69.9008216 C104.206869,69.9008216 104.778869,69.7798216 105.339869,69.5378216 L105.504869,70.6928216 C104.943869,70.9678216 104.217869,71.1438216 103.392869,71.1438216 Z M101.610869,67.0848216 L104.415869,67.0848216 C104.393869,65.9188216 103.865869,65.4788216 103.040869,65.4788216 C102.083869,65.4788216 101.676869,65.9628216 101.610869,67.0848216 Z M113.820869,71.0228216 L113.699869,70.3188216 L113.666869,70.3078216 C113.259869,70.8248216 112.588869,71.1328216 111.796869,71.1328216 C110.564869,71.1328216 109.750869,70.4508216 109.750869,68.9768216 C109.750869,67.7338216 110.586869,66.9308216 112.126869,66.9308216 C112.643869,66.9308216 113.127869,67.0188216 113.501869,67.1398216 L113.501869,66.6448216 C113.501869,65.8198216 113.105869,65.4898216 112.115869,65.4898216 C111.400869,65.4898216 110.883869,65.5998216 110.278869,65.8638216 L110.157869,64.7088216 C110.806869,64.4228216 111.543869,64.2798216 112.368869,64.2798216 C114.216869,64.2798216 114.887869,65.0718216 114.887869,66.8538216 L114.887869,71.0228216 L113.820869,71.0228216 Z M113.501869,69.0758216 L113.501869,68.1078216 C113.336869,68.0308216 112.929869,67.9208216 112.379869,67.9208216 C111.477869,67.9208216 111.070869,68.2838216 111.070869,68.9548216 C111.070869,69.7248216 111.532869,69.9998216 112.181869,69.9998216 C112.874869,69.9998216 113.501869,69.5598216 113.501869,69.0758216 Z M117.956869,71.0228216 L116.548869,71.0228216 L116.548869,62.4098216 L117.956869,62.3328216 L117.956869,71.0228216 Z M123.071869,64.4008216 L124.545869,64.4008216 L125.579869,69.0318216 L125.755869,69.9008216 L125.788869,69.9008216 L125.931869,69.0208216 L126.822869,64.4008216 L128.186869,64.4008216 L126.657869,71.0228216 L124.919869,71.0228216 L124.017869,66.7548216 L123.852869,65.8748216 L123.819869,65.8748216 L123.643869,66.7548216 L122.697869,71.0228216 L120.981869,71.0228216 L119.364869,64.4008216 L120.772869,64.4008216 L121.696869,69.0098216 L121.861869,69.8788216 L121.894869,69.8788216 L122.059869,69.0098216 L123.071869,64.4008216 Z M133.202869,71.0228216 L133.081869,70.3188216 L133.048869,70.3078216 C132.641869,70.8248216 131.970869,71.1328216 131.178869,71.1328216 C129.946869,71.1328216 129.132869,70.4508216 129.132869,68.9768216 C129.132869,67.7338216 129.968869,66.9308216 131.508869,66.9308216 C132.025869,66.9308216 132.509869,67.0188216 132.883869,67.1398216 L132.883869,66.6448216 C132.883869,65.8198216 132.487869,65.4898216 131.497869,65.4898216 C130.782869,65.4898216 130.265869,65.5998216 129.660869,65.8638216 L129.539869,64.7088216 C130.188869,64.4228216 130.925869,64.2798216 131.750869,64.2798216 C133.598869,64.2798216 134.269869,65.0718216 134.269869,66.8538216 L134.269869,71.0228216 L133.202869,71.0228216 Z M132.883869,69.0758216 L132.883869,68.1078216 C132.718869,68.0308216 132.311869,67.9208216 131.761869,67.9208216 C130.859869,67.9208216 130.452869,68.2838216 130.452869,68.9548216 C130.452869,69.7248216 130.914869,69.9998216 131.563869,69.9998216 C132.256869,69.9998216 132.883869,69.5598216 132.883869,69.0758216 Z M136.997869,71.7598216 C137.470869,71.7598216 137.822869,71.5948216 138.075869,71.0338216 L138.108869,70.9348216 L135.237869,64.4008216 L136.843869,64.4008216 L138.482869,68.8008216 L138.779869,69.6368216 L138.812869,69.6368216 L139.032869,68.7788216 L140.319869,64.4008216 L141.815869,64.4008216 L139.472869,71.0448216 C138.988869,72.3428216 138.284869,72.8268216 137.239869,72.8268216 C136.854869,72.8268216 136.480869,72.7608216 136.161869,72.6178216 L136.282869,71.5948216 C136.524869,71.7158216 136.755869,71.7598216 136.997869,71.7598216 Z M147.117869,69.0098216 C147.117869,70.2968216 146.391869,71.1548216 144.675869,71.1548216 C143.883869,71.1548216 143.168869,70.9898216 142.618869,70.6598216 L142.783869,69.4718216 C143.300869,69.8128216 144.070869,69.9888216 144.675869,69.9888216 C145.478869,69.9888216 145.819869,69.6258216 145.819869,69.1418216 C145.819869,67.8878216 142.596869,68.5368216 142.596869,66.2488216 C142.596869,65.0938216 143.399869,64.2908216 145.016869,64.2908216 C145.676869,64.2908216 146.303869,64.4228216 146.853869,64.6648216 L146.732869,65.8308216 C146.182869,65.5998216 145.500869,65.4898216 144.994869,65.4898216 C144.334869,65.4898216 143.938869,65.7538216 143.938869,66.1938216 C143.938869,67.3598216 147.117869,66.7108216 147.117869,69.0098216 Z M155.664869,69.0098216 C155.664869,70.2968216 154.938869,71.1548216 153.222869,71.1548216 C152.430869,71.1548216 151.715869,70.9898216 151.165869,70.6598216 L151.330869,69.4718216 C151.847869,69.8128216 152.617869,69.9888216 153.222869,69.9888216 C154.025869,69.9888216 154.366869,69.6258216 154.366869,69.1418216 C154.366869,67.8878216 151.143869,68.5368216 151.143869,66.2488216 C151.143869,65.0938216 151.946869,64.2908216 153.563869,64.2908216 C154.223869,64.2908216 154.850869,64.4228216 155.400869,64.6648216 L155.279869,65.8308216 C154.729869,65.5998216 154.047869,65.4898216 153.541869,65.4898216 C152.881869,65.4898216 152.485869,65.7538216 152.485869,66.1938216 C152.485869,67.3598216 155.664869,66.7108216 155.664869,69.0098216 Z M159.723869,71.1438216 C157.490869,71.1438216 156.522869,69.9668216 156.522869,67.5908216 C156.522869,65.4898216 157.446869,64.2908216 159.360869,64.2908216 C160.988869,64.2908216 162.033869,65.2478216 162.033869,67.3598216 C162.033869,67.5688216 162.022869,67.8328216 162.000869,68.0308216 L157.974869,68.0308216 C158.040869,69.4168216 158.623869,69.9008216 159.888869,69.9008216 C160.537869,69.9008216 161.109869,69.7798216 161.670869,69.5378216 L161.835869,70.6928216 C161.274869,70.9678216 160.548869,71.1438216 159.723869,71.1438216 Z M157.941869,67.0848216 L160.746869,67.0848216 C160.724869,65.9188216 160.196869,65.4788216 159.371869,65.4788216 C158.414869,65.4788216 158.007869,65.9628216 157.941869,67.0848216 Z M166.125869,71.1438216 C163.892869,71.1438216 162.924869,69.9668216 162.924869,67.5908216 C162.924869,65.4898216 163.848869,64.2908216 165.762869,64.2908216 C167.390869,64.2908216 168.435869,65.2478216 168.435869,67.3598216 C168.435869,67.5688216 168.424869,67.8328216 168.402869,68.0308216 L164.376869,68.0308216 C164.442869,69.4168216 165.025869,69.9008216 166.290869,69.9008216 C166.939869,69.9008216 167.511869,69.7798216 168.072869,69.5378216 L168.237869,70.6928216 C167.676869,70.9678216 166.950869,71.1438216 166.125869,71.1438216 Z M164.343869,67.0848216 L167.148869,67.0848216 C167.126869,65.9188216 166.598869,65.4788216 165.773869,65.4788216 C164.816869,65.4788216 164.409869,65.9628216 164.343869,67.0848216 Z M171.119869,62.3328216 L171.119869,66.8868216 L172.065869,66.8868216 L173.693869,64.4008216 L175.277869,64.4008216 L173.264869,67.4148216 L175.343869,71.0228216 L173.748869,71.0228216 L172.065869,68.0528216 L171.119869,68.0528216 L171.119869,71.0228216 L169.722869,71.0228216 L169.722869,62.4098216 L171.119869,62.3328216 Z M184.792869,71.0228216 L183.395869,71.0228216 L183.395869,66.7438216 C183.395869,65.9078216 182.944869,65.5558216 182.130869,65.5558216 C181.635869,65.5558216 181.085869,65.7758216 180.810869,66.1608216 L180.810869,71.0228216 L179.413869,71.0228216 L179.413869,64.4338216 L180.414869,64.3568216 L180.634869,64.9948216 C181.129869,64.5328216 181.800869,64.2798216 182.515869,64.2798216 C183.912869,64.2798216 184.792869,65.1268216 184.792869,66.7328216 L184.792869,71.0228216 Z M189.148869,71.1438216 C186.915869,71.1438216 185.947869,69.9668216 185.947869,67.5908216 C185.947869,65.4898216 186.871869,64.2908216 188.785869,64.2908216 C190.413869,64.2908216 191.458869,65.2478216 191.458869,67.3598216 C191.458869,67.5688216 191.447869,67.8328216 191.425869,68.0308216 L187.399869,68.0308216 C187.465869,69.4168216 188.048869,69.9008216 189.313869,69.9008216 C189.962869,69.9008216 190.534869,69.7798216 191.095869,69.5378216 L191.260869,70.6928216 C190.699869,70.9678216 189.973869,71.1438216 189.148869,71.1438216 Z M187.366869,67.0848216 L190.171869,67.0848216 C190.149869,65.9188216 189.621869,65.4788216 188.796869,65.4788216 C187.839869,65.4788216 187.432869,65.9628216 187.366869,67.0848216 Z M196.045869,64.4008216 L197.519869,64.4008216 L198.553869,69.0318216 L198.729869,69.9008216 L198.762869,69.9008216 L198.905869,69.0208216 L199.796869,64.4008216 L201.160869,64.4008216 L199.631869,71.0228216 L197.893869,71.0228216 L196.991869,66.7548216 L196.826869,65.8748216 L196.793869,65.8748216 L196.617869,66.7548216 L195.671869,71.0228216 L193.955869,71.0228216 L192.338869,64.4008216 L193.746869,64.4008216 L194.670869,69.0098216 L194.835869,69.8788216 L194.868869,69.8788216 L195.033869,69.0098216 L196.045869,64.4008216 Z M130.529869,83.4788216 L128.978869,83.4788216 L128.978869,87.1638216 C128.978869,87.7468216 129.286869,87.9888216 129.847869,87.9888216 C130.023869,87.9888216 130.265869,87.9558216 130.386869,87.9118216 L130.474869,88.9568216 C130.254869,89.0558216 129.847869,89.1328216 129.440869,89.1328216 C128.197869,89.1328216 127.581869,88.4178216 127.581869,87.1968216 L127.581869,83.4788216 L126.756869,83.4788216 L126.756869,82.4008216 L127.625869,82.4008216 L127.878869,80.8498216 L128.978869,80.7398216 L128.978869,82.4008216 L130.529869,82.4008216 L130.529869,83.4788216 Z M135.413869,89.0228216 L135.292869,88.3188216 L135.259869,88.3078216 C134.852869,88.8248216 134.181869,89.1328216 133.389869,89.1328216 C132.157869,89.1328216 131.343869,88.4508216 131.343869,86.9768216 C131.343869,85.7338216 132.179869,84.9308216 133.719869,84.9308216 C134.236869,84.9308216 134.720869,85.0188216 135.094869,85.1398216 L135.094869,84.6448216 C135.094869,83.8198216 134.698869,83.4898216 133.708869,83.4898216 C132.993869,83.4898216 132.476869,83.5998216 131.871869,83.8638216 L131.750869,82.7088216 C132.399869,82.4228216 133.136869,82.2798216 133.961869,82.2798216 C135.809869,82.2798216 136.480869,83.0718216 136.480869,84.8538216 L136.480869,89.0228216 L135.413869,89.0228216 Z M135.094869,87.0758216 L135.094869,86.1078216 C134.929869,86.0308216 134.522869,85.9208216 133.972869,85.9208216 C133.070869,85.9208216 132.663869,86.2838216 132.663869,86.9548216 C132.663869,87.7248216 133.125869,87.9998216 133.774869,87.9998216 C134.467869,87.9998216 135.094869,87.5598216 135.094869,87.0758216 Z M139.549869,89.0228216 L138.141869,89.0228216 L138.141869,80.4098216 L139.549869,80.3328216 L139.549869,89.0228216 Z M144.169869,89.1438216 C141.936869,89.1438216 140.968869,87.9668216 140.968869,85.5908216 C140.968869,83.4898216 141.892869,82.2908216 143.806869,82.2908216 C145.434869,82.2908216 146.479869,83.2478216 146.479869,85.3598216 C146.479869,85.5688216 146.468869,85.8328216 146.446869,86.0308216 L142.420869,86.0308216 C142.486869,87.4168216 143.069869,87.9008216 144.334869,87.9008216 C144.983869,87.9008216 145.555869,87.7798216 146.116869,87.5378216 L146.281869,88.6928216 C145.720869,88.9678216 144.994869,89.1438216 144.169869,89.1438216 Z M142.387869,85.0848216 L145.192869,85.0848216 C145.170869,83.9188216 144.642869,83.4788216 143.817869,83.4788216 C142.860869,83.4788216 142.453869,83.9628216 142.387869,85.0848216 Z M153.090869,89.0228216 L151.693869,89.0228216 L151.693869,84.7438216 C151.693869,83.9078216 151.242869,83.5558216 150.428869,83.5558216 C149.933869,83.5558216 149.383869,83.7758216 149.108869,84.1608216 L149.108869,89.0228216 L147.711869,89.0228216 L147.711869,82.4338216 L148.712869,82.3568216 L148.932869,82.9948216 C149.427869,82.5328216 150.098869,82.2798216 150.813869,82.2798216 C152.210869,82.2798216 153.090869,83.1268216 153.090869,84.7328216 L153.090869,89.0228216 Z M157.864869,83.4788216 L156.313869,83.4788216 L156.313869,87.1638216 C156.313869,87.7468216 156.621869,87.9888216 157.182869,87.9888216 C157.358869,87.9888216 157.600869,87.9558216 157.721869,87.9118216 L157.809869,88.9568216 C157.589869,89.0558216 157.182869,89.1328216 156.775869,89.1328216 C155.532869,89.1328216 154.916869,88.4178216 154.916869,87.1968216 L154.916869,83.4788216 L154.091869,83.4788216 L154.091869,82.4008216 L154.960869,82.4008216 L155.213869,80.8498216 L156.313869,80.7398216 L156.313869,82.4008216 L157.864869,82.4008216 L157.864869,83.4788216 Z M163.210869,87.0098216 C163.210869,88.2968216 162.484869,89.1548216 160.768869,89.1548216 C159.976869,89.1548216 159.261869,88.9898216 158.711869,88.6598216 L158.876869,87.4718216 C159.393869,87.8128216 160.163869,87.9888216 160.768869,87.9888216 C161.571869,87.9888216 161.912869,87.6258216 161.912869,87.1418216 C161.912869,85.8878216 158.689869,86.5368216 158.689869,84.2488216 C158.689869,83.0938216 159.492869,82.2908216 161.109869,82.2908216 C161.769869,82.2908216 162.396869,82.4228216 162.946869,82.6648216 L162.825869,83.8308216 C162.275869,83.5998216 161.593869,83.4898216 161.087869,83.4898216 C160.427869,83.4898216 160.031869,83.7538216 160.031869,84.1938216 C160.031869,85.3598216 163.210869,84.7108216 163.210869,87.0098216 Z" id="We-always-seek-new-t" fill-opacity="0.500566123" fill="#FFFFFF"></path>
                        <path d="M92.2981237,28.5228216 L92.2981237,39.1928216 C92.2981237,43.5488216 89.9661237,45.3308216 86.0721237,45.3308216 C84.6861237,45.3308216 83.6081237,45.0228216 82.7721237,44.5388216 L82.9701237,41.8988216 C83.6081237,42.3388216 84.5101237,42.6028216 85.6321237,42.6028216 C87.9421237,42.6028216 89.1961237,41.5468216 89.1961237,39.1268216 L89.1961237,28.5228216 L92.2981237,28.5228216 Z M108.340124,38.4448216 C108.340124,43.3508216 106.580124,45.3308216 102.466124,45.3308216 C98.3741237,45.3308216 96.5261237,43.3508216 96.5261237,38.4448216 C96.5261237,33.5608216 98.3741237,31.5368216 102.466124,31.5368216 C106.580124,31.5368216 108.340124,33.5608216 108.340124,38.4448216 Z M99.4301237,38.4448216 C99.4301237,41.9208216 100.288124,42.9768216 102.466124,42.9768216 C104.644124,42.9768216 105.458124,41.9208216 105.458124,38.4448216 C105.458124,34.9688216 104.644124,33.9128216 102.466124,33.9128216 C100.266124,33.9128216 99.4301237,34.9688216 99.4301237,38.4448216 Z M123.766124,38.3788216 C123.766124,43.2848216 121.786124,45.2868216 118.442124,45.2868216 C116.880124,45.2868216 115.582124,44.6928216 114.746124,43.8128216 L114.350124,45.0228216 L112.458124,45.0228216 L112.458124,27.7968216 L115.252124,27.6428216 L115.252124,31.0748216 L115.208124,32.8348216 L115.274124,32.8788216 C116.198124,31.9768216 117.452124,31.5588216 118.772124,31.5588216 C121.830124,31.5588216 123.766124,33.4508216 123.766124,38.3788216 Z M120.906124,38.4228216 C120.906124,34.8148216 119.850124,34.0668216 117.980124,34.0668216 C116.792124,34.0668216 115.824124,34.5508216 115.252124,35.3648216 L115.252124,41.6348216 C115.714124,42.3608216 116.638124,42.9768216 118.002124,42.9768216 C119.784124,42.9768216 120.906124,42.1408216 120.906124,38.4228216 Z M149.140124,36.7728216 C149.140124,42.8008216 147.138124,45.3308216 142.100124,45.3308216 C137.106124,45.3308216 135.016124,42.7128216 135.016124,36.7728216 C135.016124,30.8328216 137.040124,28.2588216 142.100124,28.2588216 C147.138124,28.2588216 149.140124,30.8328216 149.140124,36.7728216 Z M145.972124,36.7728216 C145.972124,32.1968216 144.960124,31.0528216 142.078124,31.0528216 C139.262124,31.0528216 138.206124,32.2188216 138.206124,36.7728216 C138.206124,41.3268216 139.262124,42.5368216 142.100124,42.5368216 C144.938124,42.5368216 145.972124,41.3048216 145.972124,36.7728216 Z M156.888124,45.0228216 L154.094124,45.0228216 L154.094124,33.9128216 L152.290124,33.9128216 L152.290124,31.7788216 L154.072124,31.7788216 L154.072124,31.2068216 C154.072124,29.1168216 155.414124,27.4668216 158.538124,27.4668216 C159.264124,27.4668216 160.056124,27.5988216 160.584124,27.7748216 L160.408124,29.6228216 C160.012124,29.5348216 159.550124,29.4688216 159.066124,29.4688216 C157.504124,29.4688216 156.888124,30.1508216 156.888124,31.2728216 L156.888124,31.7788216 L159.968124,31.7788216 L159.968124,33.9128216 L156.888124,33.9128216 L156.888124,45.0228216 Z M166.858124,45.0228216 L164.064124,45.0228216 L164.064124,33.9128216 L162.260124,33.9128216 L162.260124,31.7788216 L164.042124,31.7788216 L164.042124,31.2068216 C164.042124,29.1168216 165.384124,27.4668216 168.508124,27.4668216 C169.234124,27.4668216 170.026124,27.5988216 170.554124,27.7748216 L170.378124,29.6228216 C169.982124,29.5348216 169.520124,29.4688216 169.036124,29.4688216 C167.474124,29.4688216 166.858124,30.1508216 166.858124,31.2728216 L166.858124,31.7788216 L169.938124,31.7788216 L169.938124,33.9128216 L166.858124,33.9128216 L166.858124,45.0228216 Z M178.918124,45.2648216 C174.452124,45.2648216 172.516124,42.9108216 172.516124,38.1588216 C172.516124,33.9568216 174.364124,31.5588216 178.192124,31.5588216 C181.448124,31.5588216 183.538124,33.4728216 183.538124,37.6968216 C183.538124,38.1148216 183.516124,38.6428216 183.472124,39.0388216 L175.420124,39.0388216 C175.552124,41.8108216 176.718124,42.7788216 179.248124,42.7788216 C180.546124,42.7788216 181.690124,42.5368216 182.812124,42.0528216 L183.142124,44.3628216 C182.020124,44.9128216 180.568124,45.2648216 178.918124,45.2648216 Z M175.354124,37.1468216 L180.964124,37.1468216 C180.920124,34.8148216 179.864124,33.9348216 178.214124,33.9348216 C176.300124,33.9348216 175.486124,34.9028216 175.354124,37.1468216 Z M190.296124,45.0228216 L187.502124,45.0228216 L187.502124,31.8668216 L189.746124,31.7348216 L189.988124,34.2208216 L190.054124,34.2208216 C190.868124,32.5048216 192.232124,31.5808216 193.860124,31.5808216 C194.410124,31.5808216 194.894124,31.6468216 195.246124,31.7568216 L195.070124,34.5948216 C194.652124,34.4628216 194.168124,34.3748216 193.684124,34.3748216 C191.770124,34.3748216 190.296124,35.8708216 190.296124,38.3568216 L190.296124,45.0228216 Z M207.372124,40.9968216 C207.372124,43.5708216 205.920124,45.2868216 202.488124,45.2868216 C200.904124,45.2868216 199.474124,44.9568216 198.374124,44.2968216 L198.704124,41.9208216 C199.738124,42.6028216 201.278124,42.9548216 202.488124,42.9548216 C204.094124,42.9548216 204.776124,42.2288216 204.776124,41.2608216 C204.776124,38.7528216 198.330124,40.0508216 198.330124,35.4748216 C198.330124,33.1648216 199.936124,31.5588216 203.170124,31.5588216 C204.490124,31.5588216 205.744124,31.8228216 206.844124,32.3068216 L206.602124,34.6388216 C205.502124,34.1768216 204.138124,33.9568216 203.126124,33.9568216 C201.806124,33.9568216 201.014124,34.4848216 201.014124,35.3648216 C201.014124,37.6968216 207.372124,36.3988216 207.372124,40.9968216 Z" fill-opacity="0.500566123" fill="#FFFFFF"></path>
                        <path d="M125.337693,451.148 C125.337693,453.686 123.699693,455.252 120.729693,455.252 C119.181693,455.252 117.849693,454.856 116.769693,454.226 L117.057693,452.552 C118.155693,453.218 119.325693,453.578 120.711693,453.578 C122.619693,453.578 123.555693,452.714 123.555693,451.274 C123.555693,448.214 116.877693,449.546 116.877693,445.064 C116.877693,442.94 118.245693,441.284 121.323693,441.284 C122.637693,441.284 123.915693,441.536 124.887693,442.004 L124.635693,443.606 C123.573693,443.192 122.547693,442.958 121.413693,442.958 C119.379693,442.958 118.659693,443.894 118.659693,444.956 C118.659693,447.89 125.337693,446.522 125.337693,451.148 Z M131.943693,455.216 C128.415693,455.216 126.957693,453.362 126.957693,449.348 C126.957693,445.982 128.433693,444.092 131.385693,444.092 C133.941693,444.092 135.615693,445.604 135.615693,449.042 C135.615693,449.312 135.597693,449.636 135.579693,449.87 L128.703693,449.87 C128.793693,452.696 129.837693,453.668 132.141693,453.668 C133.221693,453.668 134.139693,453.434 135.057693,452.984 L135.255693,454.424 C134.355693,454.91 133.239693,455.216 131.943693,455.216 Z M128.667693,448.7 L134.049693,448.7 C134.013693,446.432 132.951693,445.568 131.403693,445.568 C129.585693,445.568 128.775693,446.576 128.667693,448.7 Z M146.307693,455 L144.615693,455 L144.615693,447.908 C144.615693,446.324 143.769693,445.658 142.185693,445.658 C141.267693,445.658 140.187693,446.09 139.683693,446.864 L139.683693,455 L137.973693,455 L137.973693,444.308 L139.197693,444.218 L139.485693,445.352 L139.539693,445.352 C140.277693,444.542 141.447693,444.074 142.653693,444.074 C144.921693,444.074 146.307693,445.352 146.307693,447.908 L146.307693,455 Z M157.395693,455 L156.081693,455 L155.865693,453.884 L155.811693,453.866 C155.145693,454.748 154.083693,455.216 152.643693,455.216 C149.745693,455.216 148.521693,453.452 148.521693,449.618 C148.521693,445.982 149.799693,444.074 152.661693,444.074 C153.849693,444.074 154.929693,444.488 155.685693,445.28 L155.721693,445.262 L155.685693,443.822 L155.685693,440.798 L157.395693,440.69 L157.395693,455 Z M155.685693,452.48 L155.685693,446.882 C155.235693,446.144 154.281693,445.658 153.129693,445.658 C151.041693,445.658 150.285693,446.774 150.285693,449.69 C150.285693,452.696 150.969693,453.794 153.111693,453.794 C154.605693,453.794 155.379693,453.056 155.685693,452.48 Z" id="Send" fill-opacity="0.500566123" fill="#FFFFFF"></path>
                        <polygon id="Path-2" fill="#FFFFFF" fill-rule="nonzero" opacity="0.497935268" points="167 449 167 450 178.5 450 175.5 453 176 454 180.5 449.5 176 445 175.5 446 178.5 449"></polygon>
                        <path d="M288.579505,0.5093361 L0.2748178,0.5093361" id="-" stroke="#FFFFFF" opacity="0.5" stroke-linecap="square" fill-rule="nonzero"></path>
                        <g id="Field-type-of-job" transform="translate(21.000000, 138.000000)">
                            <rect id="Rectangle" stroke-opacity="0.5" stroke="#FFFFFF" fill-rule="nonzero" x="0.5" y="0.5" width="247" height="59"></rect>
                            <path d="M28.924,25.844 L25.802,25.844 L25.802,35 L24.346,35 L24.346,25.844 L21.224,25.844 L21.266,24.5 L28.896,24.5 L28.924,25.844 Z M31.78,36.204 C32.424,36.204 32.872,35.952 33.236,35.14 L33.278,35 L29.624,26.656 L31.164,26.656 L33.544,32.718 L33.936,33.768 L33.978,33.768 L34.286,32.69 L36.204,26.656 L37.632,26.656 L34.594,35.098 C34.034,36.624 33.222,37.24 32.004,37.24 C31.542,37.24 31.08,37.142 30.716,36.974 L30.842,35.98 C31.164,36.134 31.472,36.204 31.78,36.204 Z M46.158,30.814 C46.158,33.894 44.898,35.154 42.896,35.154 C42.014,35.154 41.202,34.93 40.628,34.244 L40.6,34.258 L40.614,35.392 L40.614,37.072 L39.256,37.072 L39.256,26.698 L40.208,26.628 L40.488,27.496 C41.09,26.88 41.958,26.516 42.966,26.516 C45.01,26.516 46.158,27.58 46.158,30.814 Z M44.786,30.814 C44.786,28.392 44.044,27.734 42.644,27.734 C41.748,27.734 41.048,28.084 40.614,28.714 L40.614,32.998 C40.936,33.544 41.594,34.02 42.574,34.02 C43.876,34.02 44.786,33.39 44.786,30.814 Z M51.408,35.168 C48.664,35.168 47.53,33.726 47.53,30.604 C47.53,27.986 48.678,26.516 50.974,26.516 C52.962,26.516 54.264,27.692 54.264,30.366 C54.264,30.576 54.25,30.828 54.236,31.01 L48.888,31.01 C48.958,33.208 49.77,33.964 51.562,33.964 C52.402,33.964 53.116,33.782 53.83,33.432 L53.984,34.552 C53.284,34.93 52.416,35.168 51.408,35.168 Z M48.86,30.1 L53.046,30.1 C53.018,28.336 52.192,27.664 50.988,27.664 C49.574,27.664 48.944,28.448 48.86,30.1 Z M67.046,30.856 C67.046,33.95 65.968,35.182 63.462,35.182 C60.942,35.182 59.822,33.95 59.822,30.856 C59.822,27.762 60.956,26.516 63.462,26.516 C65.982,26.516 67.046,27.762 67.046,30.856 Z M61.194,30.856 C61.194,33.25 61.824,34.062 63.462,34.062 C65.072,34.062 65.688,33.236 65.688,30.856 C65.688,28.462 65.072,27.65 63.462,27.65 C61.824,27.65 61.194,28.462 61.194,30.856 Z M70.77,35 L69.44,35 L69.44,27.678 L68.208,27.678 L68.208,26.656 L69.44,26.656 L69.44,26.278 C69.44,24.878 70.252,23.856 72.17,23.856 C72.604,23.856 73.094,23.926 73.402,24.024 L73.318,24.934 C73.052,24.864 72.73,24.822 72.408,24.822 C71.246,24.822 70.77,25.368 70.77,26.292 L70.77,26.656 L72.912,26.656 L72.912,27.678 L70.77,27.678 L70.77,35 Z M80.43,26.628 L80.43,35.126 C80.43,36.708 79.576,37.212 78.442,37.212 C78.106,37.212 77.742,37.142 77.476,37.044 L77.546,36.064 C77.728,36.12 77.938,36.162 78.134,36.162 C78.708,36.162 79.114,35.854 79.114,35.084 L79.114,26.698 L80.43,26.628 Z M80.612,24.514 C80.612,25.004 80.346,25.242 79.758,25.242 C79.184,25.242 78.89,25.046 78.89,24.514 C78.89,24.052 79.184,23.8 79.758,23.8 C80.346,23.8 80.612,24.052 80.612,24.514 Z M89.852,30.856 C89.852,33.95 88.774,35.182 86.268,35.182 C83.748,35.182 82.628,33.95 82.628,30.856 C82.628,27.762 83.762,26.516 86.268,26.516 C88.788,26.516 89.852,27.762 89.852,30.856 Z M84,30.856 C84,33.25 84.63,34.062 86.268,34.062 C87.878,34.062 88.494,33.236 88.494,30.856 C88.494,28.462 87.878,27.65 86.268,27.65 C84.63,27.65 84,28.462 84,30.856 Z M98.686,30.8 C98.686,33.936 97.468,35.154 95.354,35.154 C94.318,35.154 93.45,34.762 92.932,34.118 L92.89,34.132 L92.68,35 L91.798,35 L91.798,23.94 L93.114,23.856 L93.114,26.306 L93.1,27.426 L93.128,27.44 C93.73,26.81 94.584,26.502 95.508,26.502 C97.454,26.502 98.686,27.636 98.686,30.8 Z M97.342,30.828 C97.342,28.294 96.53,27.706 95.158,27.706 C94.276,27.706 93.548,28.07 93.114,28.7 L93.114,33.026 C93.45,33.572 94.15,34.048 95.172,34.048 C96.474,34.048 97.342,33.418 97.342,30.828 Z" id="Type-of-job" fill-opacity="0.500566123" fill="#FFFFFF"></path>
                            <polygon id="Triangle-Copy-4" fill-opacity="0.504019475" fill="#FFFFFF" fill-rule="nonzero" transform="translate(220.000000, 32.000000) rotate(-180.000000) translate(-220.000000, -32.000000) " points="220 28 228 36 212 36"></polygon>
                        </g>
                        <g id="Field-type-of-contract" transform="translate(21.000000, 227.000000)">
                            <rect id="Rectangle" stroke-opacity="0.5" stroke="#FFFFFF" fill-rule="nonzero" x="0.5" y="0.5" width="247" height="59"></rect>
                            <path d="M28.924,25.844 L25.802,25.844 L25.802,35 L24.346,35 L24.346,25.844 L21.224,25.844 L21.266,24.5 L28.896,24.5 L28.924,25.844 Z M31.78,36.204 C32.424,36.204 32.872,35.952 33.236,35.14 L33.278,35 L29.624,26.656 L31.164,26.656 L33.544,32.718 L33.936,33.768 L33.978,33.768 L34.286,32.69 L36.204,26.656 L37.632,26.656 L34.594,35.098 C34.034,36.624 33.222,37.24 32.004,37.24 C31.542,37.24 31.08,37.142 30.716,36.974 L30.842,35.98 C31.164,36.134 31.472,36.204 31.78,36.204 Z M46.158,30.814 C46.158,33.894 44.898,35.154 42.896,35.154 C42.014,35.154 41.202,34.93 40.628,34.244 L40.6,34.258 L40.614,35.392 L40.614,37.072 L39.256,37.072 L39.256,26.698 L40.208,26.628 L40.488,27.496 C41.09,26.88 41.958,26.516 42.966,26.516 C45.01,26.516 46.158,27.58 46.158,30.814 Z M44.786,30.814 C44.786,28.392 44.044,27.734 42.644,27.734 C41.748,27.734 41.048,28.084 40.614,28.714 L40.614,32.998 C40.936,33.544 41.594,34.02 42.574,34.02 C43.876,34.02 44.786,33.39 44.786,30.814 Z M51.408,35.168 C48.664,35.168 47.53,33.726 47.53,30.604 C47.53,27.986 48.678,26.516 50.974,26.516 C52.962,26.516 54.264,27.692 54.264,30.366 C54.264,30.576 54.25,30.828 54.236,31.01 L48.888,31.01 C48.958,33.208 49.77,33.964 51.562,33.964 C52.402,33.964 53.116,33.782 53.83,33.432 L53.984,34.552 C53.284,34.93 52.416,35.168 51.408,35.168 Z M48.86,30.1 L53.046,30.1 C53.018,28.336 52.192,27.664 50.988,27.664 C49.574,27.664 48.944,28.448 48.86,30.1 Z M67.046,30.856 C67.046,33.95 65.968,35.182 63.462,35.182 C60.942,35.182 59.822,33.95 59.822,30.856 C59.822,27.762 60.956,26.516 63.462,26.516 C65.982,26.516 67.046,27.762 67.046,30.856 Z M61.194,30.856 C61.194,33.25 61.824,34.062 63.462,34.062 C65.072,34.062 65.688,33.236 65.688,30.856 C65.688,28.462 65.072,27.65 63.462,27.65 C61.824,27.65 61.194,28.462 61.194,30.856 Z M70.77,35 L69.44,35 L69.44,27.678 L68.208,27.678 L68.208,26.656 L69.44,26.656 L69.44,26.278 C69.44,24.878 70.252,23.856 72.17,23.856 C72.604,23.856 73.094,23.926 73.402,24.024 L73.318,24.934 C73.052,24.864 72.73,24.822 72.408,24.822 C71.246,24.822 70.77,25.368 70.77,26.292 L70.77,26.656 L72.912,26.656 L72.912,27.678 L70.77,27.678 L70.77,35 Z M83.916,26.936 L83.832,28.126 C83.342,27.902 82.74,27.748 82.138,27.748 C80.332,27.748 79.66,28.616 79.66,30.772 C79.66,33.124 80.514,33.992 82.11,33.992 C82.768,33.992 83.384,33.824 83.888,33.516 L83.986,34.608 C83.496,34.944 82.712,35.182 81.83,35.182 C79.492,35.182 78.288,33.838 78.288,30.772 C78.288,27.958 79.38,26.53 81.872,26.53 C82.614,26.53 83.37,26.698 83.916,26.936 Z M92.484,30.856 C92.484,33.95 91.406,35.182 88.9,35.182 C86.38,35.182 85.26,33.95 85.26,30.856 C85.26,27.762 86.394,26.516 88.9,26.516 C91.42,26.516 92.484,27.762 92.484,30.856 Z M86.632,30.856 C86.632,33.25 87.262,34.062 88.9,34.062 C90.51,34.062 91.126,33.236 91.126,30.856 C91.126,28.462 90.51,27.65 88.9,27.65 C87.262,27.65 86.632,28.462 86.632,30.856 Z M100.828,35 L99.512,35 L99.512,29.484 C99.512,28.252 98.854,27.734 97.622,27.734 C96.908,27.734 96.068,28.07 95.676,28.672 L95.676,35 L94.346,35 L94.346,26.684 L95.298,26.614 L95.522,27.496 L95.564,27.496 C96.138,26.866 97.048,26.502 97.986,26.502 C99.75,26.502 100.828,27.496 100.828,29.484 L100.828,35 Z M106.876,27.692 L104.818,27.692 L104.818,32.816 C104.818,33.684 105.28,34.034 106.036,34.034 C106.274,34.034 106.568,33.992 106.736,33.922 L106.82,34.93 C106.568,35.056 106.106,35.14 105.658,35.14 C104.23,35.14 103.488,34.342 103.488,32.858 L103.488,27.692 L102.326,27.692 L102.326,26.656 L103.53,26.656 L103.782,24.584 L104.818,24.472 L104.818,26.656 L106.876,26.656 L106.876,27.692 Z M109.844,35 L108.514,35 L108.514,26.712 L109.578,26.642 L109.69,28.434 L109.718,28.434 C110.236,27.23 111.146,26.53 112.28,26.53 C112.588,26.53 112.882,26.572 113.106,26.642 L113.022,27.986 C112.77,27.902 112.49,27.874 112.196,27.874 C110.894,27.874 109.844,28.98 109.844,30.772 L109.844,35 Z M119.56,35 L119.434,33.978 L119.392,33.964 C118.902,34.678 117.992,35.126 116.914,35.126 C115.388,35.126 114.352,34.328 114.352,32.452 C114.352,30.884 115.36,29.918 117.348,29.918 C118.062,29.918 118.748,30.058 119.266,30.24 L119.266,29.414 C119.266,28.098 118.678,27.636 117.32,27.636 C116.438,27.636 115.724,27.79 114.982,28.14 L114.856,27.034 C115.654,26.67 116.55,26.488 117.544,26.488 C119.742,26.488 120.568,27.412 120.568,29.61 L120.568,35 L119.56,35 Z M119.252,32.634 L119.252,31.192 C119.042,31.066 118.426,30.884 117.586,30.884 C116.2,30.884 115.598,31.444 115.598,32.438 C115.598,33.628 116.312,34.034 117.278,34.034 C118.314,34.034 119.252,33.334 119.252,32.634 Z M127.918,26.936 L127.834,28.126 C127.344,27.902 126.742,27.748 126.14,27.748 C124.334,27.748 123.662,28.616 123.662,30.772 C123.662,33.124 124.516,33.992 126.112,33.992 C126.77,33.992 127.386,33.824 127.89,33.516 L127.988,34.608 C127.498,34.944 126.714,35.182 125.832,35.182 C123.494,35.182 122.29,33.838 122.29,30.772 C122.29,27.958 123.382,26.53 125.874,26.53 C126.616,26.53 127.372,26.698 127.918,26.936 Z M133.588,27.692 L131.53,27.692 L131.53,32.816 C131.53,33.684 131.992,34.034 132.748,34.034 C132.986,34.034 133.28,33.992 133.448,33.922 L133.532,34.93 C133.28,35.056 132.818,35.14 132.37,35.14 C130.942,35.14 130.2,34.342 130.2,32.858 L130.2,27.692 L129.038,27.692 L129.038,26.656 L130.242,26.656 L130.494,24.584 L131.53,24.472 L131.53,26.656 L133.588,26.656 L133.588,27.692 Z" id="Type-of-contract" fill-opacity="0.500566123" fill="#FFFFFF"></path>
                            <polygon id="Triangle-Copy-4" fill-opacity="0.504019475" fill="#FFFFFF" fill-rule="nonzero" transform="translate(220.000000, 32.000000) rotate(-180.000000) translate(-220.000000, -32.000000) " points="220 28 228 36 212 36"></polygon>
                        </g>
                        <g id="Field-type-of-contract-Copy" transform="translate(21.000000, 317.000000)">
                            <rect id="Rectangle" stroke-opacity="0.5" stroke="#FFFFFF" fill-rule="nonzero" x="0.5" y="0.5" width="247" height="59"></rect>
                            <path d="M29.288,27.496 C29.288,29.106 28.56,30.086 27.23,30.31 L29.974,35 L28.266,35 L25.9,30.576 L23.786,30.576 L23.786,35 L22.358,35 L22.358,24.5 L25.914,24.5 C28.21,24.5 29.288,25.466 29.288,27.496 Z M27.804,27.552 C27.804,26.236 27.23,25.746 25.914,25.746 L23.786,25.746 L23.786,29.442 L25.858,29.442 C27.202,29.442 27.804,28.938 27.804,27.552 Z M34.832,35.168 C32.088,35.168 30.954,33.726 30.954,30.604 C30.954,27.986 32.102,26.516 34.398,26.516 C36.386,26.516 37.688,27.692 37.688,30.366 C37.688,30.576 37.674,30.828 37.66,31.01 L32.312,31.01 C32.382,33.208 33.194,33.964 34.986,33.964 C35.826,33.964 36.54,33.782 37.254,33.432 L37.408,34.552 C36.708,34.93 35.84,35.168 34.832,35.168 Z M32.284,30.1 L36.47,30.1 C36.442,28.336 35.616,27.664 34.412,27.664 C32.998,27.664 32.368,28.448 32.284,30.1 Z M42.308,31.472 C41.916,31.472 41.524,31.444 41.146,31.346 C40.74,31.458 40.516,31.682 40.516,31.962 C40.516,32.242 40.74,32.48 41.244,32.522 L43.274,32.69 C45.29,32.858 45.948,33.53 45.948,34.706 C45.948,36.232 44.996,37.212 42.392,37.212 C40.138,37.212 39.186,36.316 39.186,35.014 C39.186,34.426 39.466,33.866 39.998,33.446 C39.606,33.222 39.298,32.83 39.298,32.284 C39.298,31.752 39.662,31.262 40.348,30.982 C39.746,30.618 39.354,30.002 39.354,29.008 C39.354,27.468 40.18,26.516 42.308,26.516 C43.036,26.516 43.792,26.642 44.366,27.034 L45.738,26.488 L46.032,27.16 L45.024,27.86 C45.164,28.182 45.248,28.546 45.248,29.008 C45.248,30.59 44.478,31.472 42.308,31.472 Z M43.05,33.866 L41.02,33.684 C40.558,34.006 40.334,34.454 40.334,34.846 C40.334,35.686 40.922,36.162 42.364,36.162 C44.254,36.162 44.73,35.644 44.73,34.888 C44.73,34.3 44.422,33.992 43.05,33.866 Z M42.322,27.566 C41.104,27.566 40.67,28.042 40.67,29.036 C40.67,30.212 41.356,30.492 42.294,30.492 C43.582,30.492 43.974,30.016 43.974,29.036 C43.974,27.944 43.484,27.566 42.322,27.566 Z M49.224,35 L47.894,35 L47.894,26.698 L49.224,26.628 L49.224,35 Z M49.42,24.542 C49.42,25.032 49.14,25.256 48.566,25.256 C47.992,25.256 47.712,25.074 47.712,24.542 C47.712,24.08 47.992,23.828 48.566,23.828 C49.14,23.828 49.42,24.08 49.42,24.542 Z M58.66,30.856 C58.66,33.95 57.582,35.182 55.076,35.182 C52.556,35.182 51.436,33.95 51.436,30.856 C51.436,27.762 52.57,26.516 55.076,26.516 C57.596,26.516 58.66,27.762 58.66,30.856 Z M52.808,30.856 C52.808,33.25 53.438,34.062 55.076,34.062 C56.686,34.062 57.302,33.236 57.302,30.856 C57.302,28.462 56.686,27.65 55.076,27.65 C53.438,27.65 52.808,28.462 52.808,30.856 Z M67.004,35 L65.688,35 L65.688,29.484 C65.688,28.252 65.03,27.734 63.798,27.734 C63.084,27.734 62.244,28.07 61.852,28.672 L61.852,35 L60.522,35 L60.522,26.684 L61.474,26.614 L61.698,27.496 L61.74,27.496 C62.314,26.866 63.224,26.502 64.162,26.502 C65.926,26.502 67.004,27.496 67.004,29.484 L67.004,35 Z" id="Region" fill-opacity="0.500566123" fill="#FFFFFF"></path>
                            <polygon id="Triangle-Copy-4" fill-opacity="0.504019475" fill="#FFFFFF" fill-rule="nonzero" transform="translate(220.000000, 32.000000) rotate(-180.000000) translate(-220.000000, -32.000000) " points="220 28 228 36 212 36"></polygon>
                        </g>
                    </g>
                    <g id="Header" transform="translate(209.000000, 54.000000)" fill="#FFFFFF" fill-rule="nonzero">
                        <g id="Burger" transform="translate(49.710145, 1.000000)" fill-opacity="0.5">
                            <rect id="--copy" x="0" y="0" width="20.2898551" height="3"></rect>
                            <rect id="--copy-2" x="0" y="7" width="20.2898551" height="3"></rect>
                            <rect id="--copy-3" x="0" y="14" width="20.2898551" height="3"></rect>
                        </g>
                        <g id="icon-search" opacity="0.501395089" transform="translate(10.000000, 9.500000) scale(-1, 1) translate(-10.000000, -9.500000) translate(1.000000, 0.000000)">
                            <path d="M3.96,7.0614 C3.98283272,3.18983244 7.13583227,0.0676546788 11.0074373,0.0828540982 C14.8790424,0.0980535175 18.0074306,3.24489119 17.9998645,7.11651869 C17.9922985,10.9881462 14.8516349,14.1227327 10.98,14.1228 C7.09379872,14.1059381 3.95401054,10.9476332 3.96,7.0614 Z M6.7392,7.0614 C6.7610273,9.40070635 8.67159584,11.2812884 11.0109548,11.2661093 C13.3503137,11.2509302 15.2363178,9.34571381 15.227787,7.00632118 C15.2192562,4.66692855 13.3194074,2.7755176 10.98,2.7774 C8.62506443,2.78930177 6.72483079,4.70645144 6.7338,7.0614 L6.7392,7.0614 Z" id="Shape"></path>
                            <rect id="Rectangle-path" transform="translate(3.976765, 14.033545) rotate(-44.880000) translate(-3.976765, -14.033545) " x="-0.251435328" y="12.6439451" width="8.4564" height="2.7792"></rect>
                        </g>
                    </g>
                </g>
            </g>
        </g>
    </g>
</svg>