<?xml version="1.0" encoding="UTF-8"?>
<svg width="311px" height="637px" viewBox="0 0 311 637" version="1.1" xmlns="http://www.w3.org/2000/svg" xmlns:xlink="http://www.w3.org/1999/xlink">
    <!-- Generator: Sketch 51.3 (57544) - http://www.bohemiancoding.com/sketch -->
    <title>Wire Media</title>
    <desc>Created with Sketch.</desc>
    <defs>
        <path d="M11,596.569343 C11,612.143507 23.8847474,625 39.5246753,625 L271.475325,625 C287.115253,625 300,612.143507 300,596.569343 L300,38.4306569 C300,22.8564932 287.115253,10 271.475325,10 L242.93333,10 C240.04089,10 237.696104,12.3447861 237.696104,15.2372263 C237.945521,25.2962641 229.892554,33.3315723 219.680519,33.1934307 L90.5688312,33.1934307 C80.2081059,33.3315723 72.1551388,25.2962641 72.5532468,15.2372263 L72.5532468,15.2372263 C72.5532468,12.3447861 70.2084607,10 67.3160205,10 L65.0467532,10 L57.5402597,10 L50.7844156,10 C50.5709722,10 46.9736111,10 39.5246753,10 C23.8847474,10 11,22.8564932 11,38.4306569 L11,596.569343 Z" id="path-1"></path>
    </defs>
    <g id="Wire-Media" stroke="none" stroke-width="1" fill="none" fill-rule="evenodd">
        <g>
            <g id="Phone">
                <path d="M39,0.5 C17.7370371,0.5 0.5,17.7370371 0.5,39 L0.5,598 C0.5,619.262963 17.7370371,636.5 39,636.5 L272,636.5 C293.262963,636.5 310.5,619.262963 310.5,598 L310.5,39 C310.5,17.7370371 293.262963,0.5 272,0.5 L39,0.5 Z" id="base" stroke-opacity="0.49572577" stroke="#FFFFFF"></path>
                <mask id="mask-2" fill="white">
                    <use xlink:href="#path-1"></use>
                </mask>
                <path stroke-opacity="0.497310915" stroke="#FFFFFF" d="M10.5,596.569343 L10.5,38.4306569 C10.5,22.5751235 23.6138457,9.5 39.5246753,9.5 C44.6299303,9.5 44.6299303,9.5 47.8678551,9.5 C50.2013433,9.5 50.2013433,9.5 50.7844156,9.5 L65.0467532,9.5 L67.3160205,9.5 C70.4846031,9.5 73.0532468,12.0686437 73.0528556,15.2569994 C72.6660956,25.0293084 80.4877018,32.8278 90.5688312,32.6934307 L219.687283,32.6934764 C229.614253,32.8277619 237.438677,25.0264604 237.196104,15.2372263 C237.196104,12.0686437 239.764748,9.5 242.93333,9.5 L271.475325,9.5 C287.386154,9.5 300.5,22.5751235 300.5,38.4306569 L300.5,596.569343 C300.5,612.424876 287.386154,625.5 271.475325,625.5 L39.5246753,625.5 C23.6138457,625.5 10.5,612.424876 10.5,596.569343 Z"></path>
                <g id="Videos" mask="url(#mask-2)" fill-rule="nonzero">
                    <g transform="translate(21.000000, 214.000000)">
                        <path d="M0.5,0.5 L0.5,143.5 L128.5,143.5 L128.5,0.5 L0.5,0.5 Z" id="Img" stroke-opacity="0.497735507" stroke="#FFFFFF" stroke-width="1" fill="none"></path>
                        <path d="M139.5,0.5 L139.5,143.5 L267.5,143.5 L267.5,0.5 L139.5,0.5 Z" id="Img-Copy" stroke-opacity="0.497735507" stroke="#FFFFFF" stroke-width="1" fill="none"></path>
                        <path d="M0.5,154.5 L0.5,297.5 L128.5,297.5 L128.5,154.5 L0.5,154.5 Z" id="Img-Copy-3" stroke-opacity="0.497735507" stroke="#FFFFFF" stroke-width="1" fill="none"></path>
                        <path d="M139.5,154.5 L139.5,297.5 L267.5,297.5 L267.5,154.5 L139.5,154.5 Z" id="Img-Copy-2" stroke-opacity="0.497735507" stroke="#FFFFFF" stroke-width="1" fill="none"></path>
                        <path d="M0.5,308.5 L0.5,451.5 L128.5,451.5 L128.5,308.5 L0.5,308.5 Z" id="Img-Copy-5" stroke-opacity="0.497735507" stroke="#FFFFFF" stroke-width="1" fill="none"></path>
                        <path d="M139.5,308.5 L139.5,451.5 L267.5,451.5 L267.5,308.5 L139.5,308.5 Z" id="Img-Copy-4" stroke-opacity="0.497735507" stroke="#FFFFFF" stroke-width="1" fill="none"></path>
                        <polygon id="Triangle" stroke="none" fill-opacity="0.504019475" fill="#FFFFFF" transform="translate(67.000000, 72.000000) rotate(-270.000000) translate(-67.000000, -72.000000) " points="67 63 77 81 57 81"></polygon>
                        <polygon id="Triangle-Copy" stroke="none" fill-opacity="0.504019475" fill="#FFFFFF" transform="translate(207.000000, 72.000000) rotate(-270.000000) translate(-207.000000, -72.000000) " points="207 63 217 81 197 81"></polygon>
                        <polygon id="Triangle-Copy-3" stroke="none" fill-opacity="0.504019475" fill="#FFFFFF" transform="translate(67.000000, 226.000000) rotate(-270.000000) translate(-67.000000, -226.000000) " points="67 217 77 235 57 235"></polygon>
                        <polygon id="Triangle-Copy-2" stroke="none" fill-opacity="0.504019475" fill="#FFFFFF" transform="translate(207.000000, 226.000000) rotate(-270.000000) translate(-207.000000, -226.000000) " points="207 217 217 235 197 235"></polygon>
                        <polygon id="Triangle-Copy-5" stroke="none" fill-opacity="0.504019475" fill="#FFFFFF" transform="translate(67.000000, 380.000000) rotate(-270.000000) translate(-67.000000, -380.000000) " points="67 371 77 389 57 389"></polygon>
                        <polygon id="Triangle-Copy-4" stroke="none" fill-opacity="0.504019475" fill="#FFFFFF" transform="translate(207.000000, 380.000000) rotate(-270.000000) translate(-207.000000, -380.000000) " points="207 371 217 389 197 389"></polygon>
                    </g>
                </g>
            </g>
            <g id="Content" transform="translate(10.000000, 90.000000)">
                <g id="Onglets" transform="translate(0.466431, 0.022822)">
                    <path d="M26.46,84.5 L27.89,84.5 L25.29,92 L23.73,92 L21.13,84.5 L22.65,84.5 L24.31,89.9 L24.53,90.67 L24.56,90.67 L24.78,89.9 L26.46,84.5 Z M28.97,92 L28.97,84.5 L30.37,84.5 L30.37,92 L28.97,92 Z M38.15,88.22 C38.15,90.94 37.06,92 34.87,92 L32.15,92 L32.15,84.5 L34.85,84.5 C37.18,84.5 38.15,85.61 38.15,88.22 Z M36.71,88.21 C36.71,86.27 36.19,85.77 34.84,85.77 L33.53,85.77 L33.53,90.74 L34.84,90.74 C36.14,90.74 36.71,90.29 36.71,88.21 Z M40.88,90.77 L44.48,90.77 L44.45,92 L39.5,92 L39.5,84.5 L44.3,84.5 L44.32,85.75 L40.88,85.75 L40.88,87.56 L43.8,87.56 L43.8,88.69 L40.88,88.69 L40.88,90.77 Z M51.81,88.25 C51.81,90.99 50.9,92.14 48.61,92.14 C46.34,92.14 45.39,90.95 45.39,88.25 C45.39,85.55 46.31,84.38 48.61,84.38 C50.9,84.38 51.81,85.55 51.81,88.25 Z M50.37,88.25 C50.37,86.17 49.91,85.65 48.6,85.65 C47.32,85.65 46.84,86.18 46.84,88.25 C46.84,90.32 47.32,90.87 48.61,90.87 C49.9,90.87 50.37,90.31 50.37,88.25 Z M57.72,89.8 C57.72,91.25 56.74,92.14 55.04,92.14 C54.18,92.14 53.4,91.93 52.78,91.58 L52.97,90.35 C53.6,90.71 54.27,90.91 55.03,90.91 C55.96,90.91 56.39,90.54 56.39,89.89 C56.39,88.48 52.82,89.09 52.82,86.58 C52.82,85.36 53.61,84.37 55.42,84.37 C56.16,84.37 56.91,84.52 57.47,84.77 L57.29,85.96 C56.68,85.74 56.09,85.62 55.49,85.62 C54.47,85.62 54.15,86.03 54.15,86.51 C54.15,87.88 57.72,87.25 57.72,89.8 Z" id="VIDEOS" fill-opacity="0.500566123" fill="#FFFFFF"></path>
                    <path d="M126.307438,92 L126.307438,84.5 L127.707438,84.5 L127.707438,92 L126.307438,92 Z M129.487438,84.5 L131.027438,84.5 L132.947438,89.28 L133.237438,90.03 L133.267438,90.03 L133.547438,89.28 L135.487438,84.5 L137.017438,84.5 L137.017438,92 L135.757438,92 L135.757438,87.67 L135.777438,86.86 L135.747438,86.85 L135.457438,87.61 L133.697438,92 L132.757438,92 L131.007438,87.61 L130.717438,86.85 L130.697438,86.86 L130.707438,87.67 L130.707438,92 L129.487438,92 L129.487438,84.5 Z M143.417438,92 L142.927438,90.39 L139.927438,90.39 L139.427438,92 L137.957438,92 L140.627438,84.5 L142.277438,84.5 L144.967438,92 L143.417438,92 Z M141.427438,85.51 L141.197438,86.29 L140.287438,89.22 L142.567438,89.22 L141.667438,86.29 L141.457438,85.51 L141.427438,85.51 Z M151.277438,87.99 L151.277438,91.72 C150.727438,91.97 149.877438,92.14 149.067438,92.14 C146.587438,92.14 145.587438,90.88 145.587438,88.27 C145.587438,85.6 146.657438,84.37 149.107438,84.37 C149.817438,84.37 150.587438,84.51 151.137438,84.72 L150.997438,85.95 C150.477438,85.74 149.827438,85.62 149.177438,85.62 C147.607438,85.62 147.037438,86.22 147.037438,88.25 C147.037438,90.27 147.567438,90.87 149.027438,90.87 C149.417438,90.87 149.757438,90.82 150.057438,90.73 L150.057438,87.99 L151.277438,87.99 Z M154.057438,90.77 L157.657438,90.77 L157.627438,92 L152.677438,92 L152.677438,84.5 L157.477438,84.5 L157.497438,85.75 L154.057438,85.75 L154.057438,87.56 L156.977438,87.56 L156.977438,88.69 L154.057438,88.69 L154.057438,90.77 Z M163.447438,89.8 C163.447438,91.25 162.467438,92.14 160.767438,92.14 C159.907438,92.14 159.127438,91.93 158.507438,91.58 L158.697438,90.35 C159.327438,90.71 159.997438,90.91 160.757438,90.91 C161.687438,90.91 162.117438,90.54 162.117438,89.89 C162.117438,88.48 158.547438,89.09 158.547438,86.58 C158.547438,85.36 159.337438,84.37 161.147438,84.37 C161.887438,84.37 162.637438,84.52 163.197438,84.77 L163.017438,85.96 C162.407438,85.74 161.817438,85.62 161.217438,85.62 C160.197438,85.62 159.877438,86.03 159.877438,86.51 C159.877438,87.88 163.447438,87.25 163.447438,89.8 Z" id="IMAGES" fill-opacity="0.500566123" fill="#FFFFFF"></path>
                    <path d="M213.83,88.22 C213.83,90.94 212.74,92 210.55,92 L207.83,92 L207.83,84.5 L210.53,84.5 C212.86,84.5 213.83,85.61 213.83,88.22 Z M212.39,88.21 C212.39,86.27 211.87,85.77 210.52,85.77 L209.21,85.77 L209.21,90.74 L210.52,90.74 C211.82,90.74 212.39,90.29 212.39,88.21 Z M221.28,88.25 C221.28,90.99 220.37,92.14 218.08,92.14 C215.81,92.14 214.86,90.95 214.86,88.25 C214.86,85.55 215.78,84.38 218.08,84.38 C220.37,84.38 221.28,85.55 221.28,88.25 Z M219.84,88.25 C219.84,86.17 219.38,85.65 218.07,85.65 C216.79,85.65 216.31,86.18 216.31,88.25 C216.31,90.32 216.79,90.87 218.08,90.87 C219.37,90.87 219.84,90.31 219.84,88.25 Z M227.44,84.7 L227.29,85.91 C226.9,85.76 226.35,85.64 225.77,85.64 C224.31,85.64 223.76,86.26 223.76,88.2 C223.76,90.26 224.33,90.89 225.8,90.89 C226.38,90.89 226.88,90.76 227.31,90.57 L227.47,91.72 C226.98,91.96 226.27,92.14 225.62,92.14 C223.37,92.14 222.31,90.89 222.31,88.19 C222.31,85.65 223.36,84.37 225.7,84.37 C226.31,84.37 227.02,84.52 227.44,84.7 Z M234.41,84.5 L234.41,89.31 C234.41,91.23 233.39,92.14 231.47,92.14 C229.56,92.14 228.52,91.24 228.52,89.31 L228.52,84.5 L229.89,84.5 L229.89,89.3 C229.89,90.38 230.39,90.86 231.47,90.86 C232.55,90.86 233.03,90.38 233.03,89.3 L233.03,84.5 L234.41,84.5 Z M235.95,84.5 L237.49,84.5 L239.41,89.28 L239.7,90.03 L239.73,90.03 L240.01,89.28 L241.95,84.5 L243.48,84.5 L243.48,92 L242.22,92 L242.22,87.67 L242.24,86.86 L242.21,86.85 L241.92,87.61 L240.16,92 L239.22,92 L237.47,87.61 L237.18,86.85 L237.16,86.86 L237.17,87.67 L237.17,92 L235.95,92 L235.95,84.5 Z M246.52,90.77 L250.12,90.77 L250.09,92 L245.14,92 L245.14,84.5 L249.94,84.5 L249.96,85.75 L246.52,85.75 L246.52,87.56 L249.44,87.56 L249.44,88.69 L246.52,88.69 L246.52,90.77 Z M257.21,92 L256.24,92 L253.04,87.43 L252.59,86.75 L252.57,86.76 L252.58,87.57 L252.58,92 L251.35,92 L251.35,84.5 L252.55,84.5 L255.54,88.88 L255.99,89.55 L256.01,89.54 L255.99,88.74 L255.99,84.5 L257.21,84.5 L257.21,92 Z M263.8,85.78 L261.69,85.78 L261.69,92 L260.29,92 L260.29,85.78 L258.18,85.78 L258.21,84.5 L263.77,84.5 L263.8,85.78 Z M269.33,89.8 C269.33,91.25 268.35,92.14 266.65,92.14 C265.79,92.14 265.01,91.93 264.39,91.58 L264.58,90.35 C265.21,90.71 265.88,90.91 266.64,90.91 C267.57,90.91 268,90.54 268,89.89 C268,88.48 264.43,89.09 264.43,86.58 C264.43,85.36 265.22,84.37 267.03,84.37 C267.77,84.37 268.52,84.52 269.08,84.77 L268.9,85.96 C268.29,85.74 267.7,85.62 267.1,85.62 C266.08,85.62 265.76,86.03 265.76,86.51 C265.76,87.88 269.33,87.25 269.33,89.8 Z" id="DOCUMENTS" fill-opacity="0.500566123" fill="#FFFFFF"></path>
                    <path d="M68.2542615,30.4771784 L71.6422615,30.4771784 L75.8662615,40.9931784 L76.5042615,42.6431784 L76.5702615,42.6431784 L77.1862615,40.9931784 L81.4542615,30.4771784 L84.8202615,30.4771784 L84.8202615,46.9771784 L82.0482615,46.9771784 L82.0482615,37.4511784 L82.0922615,35.6691784 L82.0262615,35.6471784 L81.3882615,37.3191784 L77.5162615,46.9771784 L75.4482615,46.9771784 L71.5982615,37.3191784 L70.9602615,35.6471784 L70.9162615,35.6691784 L70.9382615,37.4511784 L70.9382615,46.9771784 L68.2542615,46.9771784 L68.2542615,30.4771784 Z M95.4502615,47.2191784 C90.9842615,47.2191784 89.0482615,44.8651784 89.0482615,40.1131784 C89.0482615,35.9111784 90.8962615,33.5131784 94.7242615,33.5131784 C97.9802615,33.5131784 100.070261,35.4271784 100.070261,39.6511784 C100.070261,40.0691784 100.048261,40.5971784 100.004261,40.9931784 L91.9522615,40.9931784 C92.0842615,43.7651784 93.2502615,44.7331784 95.7802615,44.7331784 C97.0782615,44.7331784 98.2222615,44.4911784 99.3442615,44.0071784 L99.6742615,46.3171784 C98.5522615,46.8671784 97.1002615,47.2191784 95.4502615,47.2191784 Z M91.8862615,39.1011784 L97.4962615,39.1011784 C97.4522615,36.7691784 96.3962615,35.8891784 94.7462615,35.8891784 C92.8322615,35.8891784 92.0182615,36.8571784 91.8862615,39.1011784 Z M114.682261,46.9771784 L112.504261,46.9771784 L112.196261,45.7231784 L112.130261,45.7011784 C111.316261,46.6911784 110.128261,47.2411784 108.434261,47.2411784 C104.958261,47.2411784 103.352261,45.0411784 103.352261,40.3111784 C103.352261,35.9111784 104.980261,33.4911784 108.412261,33.4911784 C109.754261,33.4911784 110.986261,33.9531784 111.888261,34.8331784 L111.932261,34.7891784 L111.888261,33.0291784 L111.888261,29.7511784 L114.682261,29.5971784 L114.682261,46.9771784 Z M111.888261,43.5891784 L111.888261,37.2751784 C111.404261,36.5491784 110.436261,36.0651784 109.226261,36.0651784 C107.048261,36.0651784 106.256261,37.2091784 106.256261,40.4211784 C106.256261,43.7871784 106.960261,44.9091784 109.204261,44.9091784 C110.722261,44.9091784 111.536261,44.2051784 111.888261,43.5891784 Z M122.716261,46.9771784 L119.878261,46.9771784 L119.878261,33.8211784 L122.716261,33.6671784 L122.716261,46.9771784 Z M122.980261,30.6751784 C122.980261,31.5551784 122.452261,31.9731784 121.308261,31.9731784 C120.186261,31.9731784 119.636261,31.6431784 119.636261,30.6751784 C119.636261,29.8171784 120.186261,29.3331784 121.308261,29.3331784 C122.452261,29.3331784 122.980261,29.8171784 122.980261,30.6751784 Z M135.436261,46.9771784 L135.194261,45.5691784 L135.128261,45.5471784 C134.314261,46.5811784 132.972261,47.1971784 131.388261,47.1971784 C128.924261,47.1971784 127.296261,45.8331784 127.296261,42.8851784 C127.296261,40.3991784 128.968261,38.7931784 132.048261,38.7931784 C133.082261,38.7931784 134.050261,38.9691784 134.798261,39.2111784 L134.798261,38.2211784 C134.798261,36.5711784 134.006261,35.9111784 132.026261,35.9111784 C130.596261,35.9111784 129.562261,36.1311784 128.352261,36.6591784 L128.110261,34.3491784 C129.408261,33.7771784 130.882261,33.4911784 132.532261,33.4911784 C136.228261,33.4911784 137.570261,35.0751784 137.570261,38.6391784 L137.570261,46.9771784 L135.436261,46.9771784 Z M134.798261,43.0831784 L134.798261,41.1471784 C134.468261,40.9931784 133.654261,40.7731784 132.554261,40.7731784 C130.750261,40.7731784 129.936261,41.4991784 129.936261,42.8411784 C129.936261,44.3811784 130.860261,44.9311784 132.158261,44.9311784 C133.544261,44.9311784 134.798261,44.0511784 134.798261,43.0831784 Z M150.066261,44.1831784 L157.260261,44.1831784 L157.194261,46.9771784 L147.008261,46.9771784 L147.008261,30.4771784 L150.066261,30.4771784 L150.066261,44.1831784 Z M162.628261,46.9771784 L159.790261,46.9771784 L159.790261,33.8211784 L162.628261,33.6671784 L162.628261,46.9771784 Z M162.892261,30.6751784 C162.892261,31.5551784 162.364261,31.9731784 161.220261,31.9731784 C160.098261,31.9731784 159.548261,31.6431784 159.548261,30.6751784 C159.548261,29.8171784 160.098261,29.3331784 161.220261,29.3331784 C162.364261,29.3331784 162.892261,29.8171784 162.892261,30.6751784 Z M177.698261,40.3331784 C177.698261,45.2391784 175.718261,47.2411784 172.374261,47.2411784 C170.812261,47.2411784 169.514261,46.6471784 168.678261,45.7671784 L168.282261,46.9771784 L166.390261,46.9771784 L166.390261,29.7511784 L169.184261,29.5971784 L169.184261,33.0291784 L169.140261,34.7891784 L169.206261,34.8331784 C170.130261,33.9311784 171.384261,33.5131784 172.704261,33.5131784 C175.762261,33.5131784 177.698261,35.4051784 177.698261,40.3331784 Z M174.838261,40.3771784 C174.838261,36.7691784 173.782261,36.0211784 171.912261,36.0211784 C170.724261,36.0211784 169.756261,36.5051784 169.184261,37.3191784 L169.184261,43.5891784 C169.646261,44.3151784 170.570261,44.9311784 171.934261,44.9311784 C173.716261,44.9311784 174.838261,44.0951784 174.838261,40.3771784 Z M183.000261,46.9771784 L180.206261,46.9771784 L180.206261,33.8211784 L182.450261,33.6891784 L182.692261,36.1751784 L182.758261,36.1751784 C183.572261,34.4591784 184.936261,33.5351784 186.564261,33.5351784 C187.114261,33.5351784 187.598261,33.6011784 187.950261,33.7111784 L187.774261,36.5491784 C187.356261,36.4171784 186.872261,36.3291784 186.388261,36.3291784 C184.474261,36.3291784 183.000261,37.8251784 183.000261,40.3111784 L183.000261,46.9771784 Z M197.718261,46.9771784 L197.476261,45.5691784 L197.410261,45.5471784 C196.596261,46.5811784 195.254261,47.1971784 193.670261,47.1971784 C191.206261,47.1971784 189.578261,45.8331784 189.578261,42.8851784 C189.578261,40.3991784 191.250261,38.7931784 194.330261,38.7931784 C195.364261,38.7931784 196.332261,38.9691784 197.080261,39.2111784 L197.080261,38.2211784 C197.080261,36.5711784 196.288261,35.9111784 194.308261,35.9111784 C192.878261,35.9111784 191.844261,36.1311784 190.634261,36.6591784 L190.392261,34.3491784 C191.690261,33.7771784 193.164261,33.4911784 194.814261,33.4911784 C198.510261,33.4911784 199.852261,35.0751784 199.852261,38.6391784 L199.852261,46.9771784 L197.718261,46.9771784 Z M197.080261,43.0831784 L197.080261,41.1471784 C196.750261,40.9931784 195.936261,40.7731784 194.836261,40.7731784 C193.032261,40.7731784 192.218261,41.4991784 192.218261,42.8411784 C192.218261,44.3811784 193.142261,44.9311784 194.440261,44.9311784 C195.826261,44.9311784 197.080261,44.0511784 197.080261,43.0831784 Z M205.638261,46.9771784 L202.844261,46.9771784 L202.844261,33.8211784 L205.088261,33.6891784 L205.330261,36.1751784 L205.396261,36.1751784 C206.210261,34.4591784 207.574261,33.5351784 209.202261,33.5351784 C209.752261,33.5351784 210.236261,33.6011784 210.588261,33.7111784 L210.412261,36.5491784 C209.994261,36.4171784 209.510261,36.3291784 209.026261,36.3291784 C207.112261,36.3291784 205.638261,37.8251784 205.638261,40.3111784 L205.638261,46.9771784 Z M215.252261,48.4511784 C216.198261,48.4511784 216.902261,48.1211784 217.408261,46.9991784 L217.474261,46.8011784 L211.732261,33.7331784 L214.944261,33.7331784 L218.222261,42.5331784 L218.816261,44.2051784 L218.882261,44.2051784 L219.322261,42.4891784 L221.896261,33.7331784 L224.888261,33.7331784 L220.202261,47.0211784 C219.234261,49.6171784 217.826261,50.5851784 215.736261,50.5851784 C214.966261,50.5851784 214.218261,50.4531784 213.580261,50.1671784 L213.822261,48.1211784 C214.306261,48.3631784 214.768261,48.4511784 215.252261,48.4511784 Z" id="Media-Library" fill-opacity="0.500566123" fill="#FFFFFF"></path>
                    <rect id="Rectangle" fill="#FFFFFF" fill-rule="nonzero" opacity="0.496484375" x="0.533568905" y="0.977178423" width="289" height="1"></rect>
                    <rect id="Rectangle-Copy" fill="#FFFFFF" fill-rule="nonzero" opacity="0.496484375" x="0.533568905" y="111.977178" width="289" height="1"></rect>
                    <rect id="Actif" fill="#938BF1" fill-rule="nonzero" x="0.533568905" y="107.977178" width="88" height="5"></rect>
                </g>
            </g>
            <g id="Header" transform="translate(210.000000, 54.000000)" fill="#FFFFFF" fill-rule="nonzero">
                <g id="Burger" transform="translate(48.710145, 1.000000)" fill-opacity="0.50036798">
                    <rect id="--copy" x="0" y="0" width="20.2898551" height="3"></rect>
                    <rect id="--copy-2" x="0" y="7" width="20.2898551" height="3"></rect>
                    <rect id="--copy-3" x="0" y="14" width="20.2898551" height="3"></rect>
                </g>
                <g id="icon-search-copy" opacity="0.501395089" transform="translate(9.000000, 9.500000) scale(-1, 1) translate(-9.000000, -9.500000) ">
                    <path d="M3.96,7.0614 C3.98283272,3.18983244 7.13583227,0.0676546788 11.0074373,0.0828540982 C14.8790424,0.0980535175 18.0074306,3.24489119 17.9998645,7.11651869 C17.9922985,10.9881462 14.8516349,14.1227327 10.98,14.1228 C7.09379872,14.1059381 3.95401054,10.9476332 3.96,7.0614 Z M6.7392,7.0614 C6.7610273,9.40070635 8.67159584,11.2812884 11.0109548,11.2661093 C13.3503137,11.2509302 15.2363178,9.34571381 15.227787,7.00632118 C15.2192562,4.66692855 13.3194074,2.7755176 10.98,2.7774 C8.62506443,2.78930177 6.72483079,4.70645144 6.7338,7.0614 L6.7392,7.0614 Z" id="Shape"></path>
                    <rect id="Rectangle-path" transform="translate(3.976765, 14.033545) rotate(-44.880000) translate(-3.976765, -14.033545) " x="-0.251435328" y="12.6439451" width="8.4564" height="2.7792"></rect>
                </g>
            </g>
        </g>
    </g>
</svg>