<?xml version="1.0" encoding="UTF-8"?>
<svg width="390px" height="313px" viewBox="0 0 390 313" version="1.1" xmlns="http://www.w3.org/2000/svg" xmlns:xlink="http://www.w3.org/1999/xlink">
    <!-- Generator: Sketch 52.6 (67491) - http://www.bohemiancoding.com/sketch -->
    <title>Abc</title>
    <desc>Created with Sketch.</desc>
    <g id="Abc" stroke="none" stroke-width="1" fill="none" fill-rule="evenodd">
        <g id="Group" transform="translate(0.000000, 8.000000)" fill="#171717">
            <path d="M106.807803,157.593985 L98.4071896,128.320802 L44.0032149,128.320802 L35.6026011,157.593985 L0,157.593985 L51.8037848,7.21804511 L92.006722,7.21804511 L144.410551,157.593985 L106.807803,157.593985 Z M71.4052168,32.6817043 L67.20491,48.5213033 L52.203814,100.050125 L90.4066051,100.050125 L76.0055529,48.5213033 L72.0052607,32.6817043 L71.4052168,32.6817043 Z M265.406057,96.4411028 C265.406057,140.952381 247.004713,160 216.002448,160 C202.401454,160 191.200636,154.987469 183.800095,147.568922 L179.799803,157.593985 L158.798268,157.593985 L158.798268,1.40350877 L189.800533,0 L189.800533,28.2706767 L189.400504,44.3107769 L190.000548,44.7117794 C198.201147,37.2932331 208.801922,33.8847118 219.802725,33.8847118 C247.804771,33.8847118 265.406057,51.9298246 265.406057,96.4411028 Z M233.403719,97.0426065 C233.403719,66.7669173 225.603149,61.1528822 210.802068,61.1528822 C201.80141,61.1528822 194.200855,64.962406 189.800533,71.3784461 L189.800533,124.511278 C193.600811,130.325815 200.601322,134.937343 211.002082,134.937343 C225.003105,134.937343 233.403719,128.521303 233.403719,97.0426065 Z M363.799912,39.2982456 L361.999781,65.764411 C355.799328,63.5588972 348.398787,61.9548872 341.398276,61.9548872 C318.796624,61.9548872 311.396084,71.3784461 311.396084,97.0426065 C311.396084,123.107769 321.996858,133.333333 340.798232,133.333333 C348.798816,133.333333 356.399372,131.729323 362.799839,128.721805 L365,152.982456 C357.799474,157.393484 346.998685,160 333.997735,160 C298.195119,160 279.193731,139.548872 279.193731,97.0426065 C279.193731,56.7418546 295.794944,34.085213 334.597779,34.085213 C344.798524,34.085213 356.199357,36.2907268 363.799912,39.2982456 Z" id="Abc"></path>
            <path d="M8.47472143,220.21832 L7.88682199,218.183693 L4.07947325,218.183693 L3.49157381,220.21832 L1,220.21832 L4.62537987,209.766469 L7.43889861,209.766469 L11.1062713,220.21832 L8.47472143,220.21832 Z M5.99714523,211.536316 L5.70319551,212.637244 L4.65337508,216.218745 L7.32691776,216.218745 L6.31909016,212.637244 L6.03913804,211.536316 L5.99714523,211.536316 Z M19.3998527,220.21832 L19.2318814,219.410044 L19.1898886,219.396108 C18.6719772,220.009283 17.860116,220.357678 16.8942812,220.357678 C15.2845566,220.357678 14.2627314,219.451851 14.2627314,217.556582 C14.2627314,215.995772 15.3545446,214.922716 17.2862142,214.922716 C17.9161065,214.922716 18.4620131,215.020266 18.9099365,215.159624 L18.9099365,214.671871 C18.9099365,213.821787 18.4620131,213.431585 17.3002118,213.431585 C16.3623722,213.431585 15.7464776,213.570943 14.9626117,213.891466 L14.7806428,212.163427 C15.6344967,211.801096 16.6003315,211.605995 17.6921448,211.605995 C20.1977162,211.605995 21.0655677,212.679052 21.0655677,214.992395 L21.0655677,220.21832 L19.3998527,220.21832 Z M18.9099365,217.654133 L18.9099365,216.595012 C18.6999724,216.511397 18.2800442,216.413846 17.7061424,216.413846 C16.7403076,216.413846 16.2923842,216.790113 16.2923842,217.52871 C16.2923842,218.350923 16.7823004,218.643575 17.4961783,218.643575 C18.2380514,218.643575 18.9099365,218.197629 18.9099365,217.654133 Z M39.8923474,217.180315 C39.8923474,219.061649 38.7865365,220.21832 36.140989,220.21832 L31.8157289,220.21832 L31.8157289,209.766469 L36.0849986,209.766469 C38.3666083,209.766469 39.514412,210.783783 39.514412,212.442143 C39.514412,213.61275 38.9545078,214.337412 38.1146514,214.685807 L38.1146514,214.713679 C39.2764527,215.034202 39.8923474,215.856414 39.8923474,217.180315 Z M37.526752,216.99915 C37.526752,216.121194 37.134819,215.758864 36.1129938,215.758864 L34.083341,215.758864 L34.083341,218.29518 L36.1689843,218.29518 C37.1068238,218.29518 37.526752,217.988592 37.526752,216.99915 Z M37.2607975,212.860217 C37.2607975,212.038005 36.8828621,211.745353 36.001013,211.745353 L34.0973386,211.745353 L34.0973386,214.016888 L36.0570034,214.016888 C36.8968597,214.016888 37.2607975,213.682429 37.2607975,212.860217 Z M51.5173589,215.967901 C51.5173589,219.061649 50.2295792,220.38555 48.0599503,220.38555 C47.1081131,220.38555 46.3242472,220.037155 45.8063358,219.52153 L45.5263836,220.21832 L44.056635,220.21832 L44.056635,209.362331 L46.2262639,209.26478 L46.2262639,211.229728 L46.1982687,212.344592 L46.2402615,212.372464 C46.8141634,211.856839 47.5560365,211.619931 48.3259048,211.619931 C50.2855696,211.619931 51.5173589,212.874153 51.5173589,215.967901 Z M49.277742,216.009708 C49.277742,213.905402 48.7318353,213.5152 47.6960125,213.5152 C47.0661203,213.5152 46.5342113,213.77998 46.2262639,214.225926 L46.2262639,217.918913 C46.4922184,218.323051 46.9821346,218.643575 47.7100101,218.643575 C48.6898425,218.643575 49.277742,218.197629 49.277742,216.009708 Z M68.8883875,210.017313 L68.6504282,212.038005 C68.1045216,211.828968 67.3766461,211.68961 66.5927802,211.68961 C64.6891058,211.68961 64.0592136,212.456079 64.0592136,214.936651 C64.0592136,217.556582 64.717101,218.336987 66.634773,218.336987 C67.4046413,218.336987 68.090524,218.183693 68.6784234,217.932849 L68.9163827,219.842053 C68.2305,220.176513 67.2226724,220.413421 66.2988305,220.413421 C63.121374,220.413421 61.5816374,218.65751 61.5816374,214.922716 C61.5816374,211.438765 63.0933788,209.585304 66.4528041,209.585304 C67.2926605,209.585304 68.2864905,209.780405 68.8883875,210.017313 Z M78.3437701,211.996197 L78.2177917,213.835723 C77.7838659,213.682429 77.2659545,213.570943 76.7760383,213.570943 C75.1943089,213.570943 74.6763975,214.225926 74.6763975,216.009708 C74.6763975,217.821362 75.4182706,218.532088 76.7340455,218.532088 C77.2939497,218.532088 77.8258587,218.420602 78.2737821,218.211565 L78.4277558,219.897797 C77.923842,220.204384 77.1679713,220.38555 76.2581269,220.38555 C73.7525555,220.38555 72.4227829,218.964098 72.4227829,216.009708 C72.4227829,213.208612 73.5845842,211.633866 76.3001197,211.633866 C77.0139976,211.633866 77.8118611,211.78716 78.3437701,211.996197 Z M97.4505019,214.950587 C97.4505019,218.727189 95.8687724,220.21832 92.761304,220.21832 L88.7999816,220.21832 L88.7999816,209.766469 L92.7333088,209.766469 C96.0647389,209.766469 97.4505019,211.341215 97.4505019,214.950587 Z M94.9729257,214.936651 C94.9729257,212.456079 94.3710286,211.870775 92.7053136,211.870775 L91.1655769,211.870775 L91.1655769,218.12795 L92.7193112,218.12795 C94.3290358,218.12795 94.9729257,217.612325 94.9729257,214.936651 Z M108.62759,220.21832 L106.93388,220.21832 L106.723916,219.493658 L106.681923,219.479723 C106.178009,220.065026 105.436136,220.38555 104.414311,220.38555 C102.230684,220.38555 101.166866,218.978034 101.166866,215.953965 C101.166866,213.18074 102.230684,211.605995 104.386315,211.605995 C105.184179,211.605995 105.898057,211.870775 106.457961,212.372464 L106.485956,212.344592 L106.457961,211.229728 L106.457961,209.376267 L108.62759,209.26478 L108.62759,220.21832 Z M106.457961,217.918913 L106.457961,214.184118 C106.192007,213.807851 105.674095,213.543071 105.030205,213.543071 C103.840409,213.543071 103.406483,214.156247 103.406483,216.051515 C103.406483,218.030399 103.784418,218.629639 105.016208,218.629639 C105.814071,218.629639 106.261995,218.267308 106.457961,217.918913 Z M121.869325,218.169757 L126.698499,218.169757 L126.642509,220.21832 L119.50373,220.21832 L119.50373,209.766469 L126.432544,209.766469 L126.474537,211.842903 L121.869325,211.842903 L121.869325,213.919338 L125.746662,213.919338 L125.746662,215.786735 L121.869325,215.786735 L121.869325,218.169757 Z M134.446174,220.371614 C131.520674,220.371614 130.218897,218.838676 130.218897,215.884286 C130.218897,213.194676 131.408693,211.619931 133.956257,211.619931 C136.125886,211.619931 137.455659,212.874153 137.455659,215.549827 C137.455659,215.87035 137.441661,216.274488 137.399668,216.56714 L132.458514,216.56714 C132.570495,217.974656 133.256377,218.504217 134.712128,218.504217 C135.509992,218.504217 136.251865,218.364859 136.97974,218.086142 L137.2177,219.828118 C136.503822,220.148641 135.523989,220.371614 134.446174,220.371614 Z M132.416521,215.131753 L135.467999,215.131753 C135.440004,213.891466 134.880099,213.417649 133.970255,213.417649 C132.920435,213.417649 132.514504,213.905402 132.416521,215.131753 Z M154.86868,211.884711 L150.263468,211.884711 L150.263468,214.142311 L154.098812,214.142311 L154.070817,216.149066 L150.263468,216.149066 L150.263468,220.21832 L147.91187,220.21832 L147.91187,209.766469 L154.826688,209.766469 L154.86868,211.884711 Z M161.398563,220.21832 L159.228935,220.21832 L159.228935,213.375842 L158.165116,213.375842 L158.165116,211.773224 L159.228935,211.773224 L159.228935,211.410894 C159.228935,210.142736 160.110784,209.097551 162.140437,209.097551 C162.616355,209.097551 163.148264,209.16723 163.512202,209.278716 L163.386223,210.672296 C163.134267,210.616553 162.854314,210.588681 162.574362,210.588681 C161.720508,210.588681 161.398563,210.923141 161.398563,211.466637 L161.398563,211.773224 L163.204255,211.773224 L163.204255,213.375842 L161.398563,213.375842 L161.398563,220.21832 Z M181.233171,214.602192 L181.233171,219.828118 C180.449305,220.190448 179.231513,220.413421 178.083709,220.413421 C174.500322,220.413421 173.100562,218.587831 173.100562,215.00633 C173.100562,211.35515 174.626301,209.585304 178.167695,209.585304 C179.161525,209.585304 180.267336,209.766469 181.065199,210.059121 L180.841238,212.093748 C180.099365,211.815032 179.161525,211.647802 178.293673,211.647802 C176.222028,211.647802 175.578138,212.400336 175.578138,214.978459 C175.578138,217.584454 176.194033,218.309115 178.027719,218.309115 C178.43365,218.309115 178.811585,218.267308 179.147527,218.169757 L179.147527,214.602192 L181.233171,214.602192 Z M188.574915,216.817985 C188.210977,216.817985 187.847039,216.790113 187.511097,216.73437 C187.329128,216.83192 187.217147,216.985214 187.217147,217.138508 C187.217147,217.347545 187.399116,217.500839 187.777051,217.52871 L189.792707,217.640197 C191.780367,217.751683 192.536237,218.490281 192.536237,219.78631 C192.536237,221.472542 191.402431,222.517727 188.644903,222.517727 C186.209319,222.517727 185.201492,221.570093 185.201492,220.287999 C185.201492,219.78631 185.425454,219.298557 185.859379,218.922291 C185.495442,218.65751 185.215489,218.253372 185.215489,217.682004 C185.215489,217.124572 185.537434,216.56714 186.237315,216.232681 C185.67741,215.828543 185.313473,215.201432 185.313473,214.239861 C185.313473,212.706923 186.209319,211.619931 188.560917,211.619931 C189.288793,211.619931 190.072659,211.731417 190.674556,212.079812 L192.116309,211.619931 L192.564232,212.65118 L191.668386,213.34797 C191.752371,213.598814 191.794364,213.905402 191.794364,214.239861 C191.794364,215.87035 190.870522,216.817985 188.574915,216.817985 Z M189.414771,219.465787 L187.399116,219.326429 C187.175154,219.535466 187.049176,219.78631 187.049176,220.009283 C187.049176,220.594587 187.497099,220.887239 188.60291,220.887239 C190.198637,220.887239 190.59057,220.580651 190.59057,220.106834 C190.59057,219.716631 190.366608,219.535466 189.414771,219.465787 Z M188.588912,213.250419 C187.749056,213.250419 187.455106,213.557007 187.455106,214.295605 C187.455106,215.117817 187.889032,215.326854 188.532922,215.326854 C189.442766,215.326854 189.708721,215.048138 189.708721,214.281669 C189.708721,213.5152 189.386776,213.250419 188.588912,213.250419 Z M211.139055,220.21832 L208.787457,220.21832 L208.787457,215.940029 L205.120085,215.940029 L205.120085,220.21832 L202.754489,220.21832 L202.754489,209.766469 L205.120085,209.766469 L205.120085,213.821787 L208.787457,213.821787 L208.787457,209.766469 L211.139055,209.766469 L211.139055,220.21832 Z M222.848052,220.21832 L220.678423,220.21832 L220.678423,214.839101 C220.678423,213.975081 220.244498,213.529135 219.320656,213.529135 C218.690763,213.529135 218.144857,213.807851 217.878902,214.170182 L217.878902,220.21832 L215.709273,220.21832 L215.709273,209.376267 L217.878902,209.26478 L217.878902,211.187921 L217.850907,212.302785 L217.8929,212.330657 C218.522792,211.801096 219.29266,211.605995 220.006538,211.605995 C221.798232,211.605995 222.848052,212.804474 222.848052,214.839101 L222.848052,220.21832 Z M233.752187,220.21832 L233.752187,209.766469 L236.159775,209.766469 L236.159775,220.21832 L233.752187,220.21832 Z M243.277558,220.21832 L241.051938,220.21832 L241.051938,211.828968 L243.277558,211.731417 L243.277558,220.21832 Z M243.403536,209.947634 C243.403536,210.56081 243.025601,210.867397 242.171747,210.867397 C241.331891,210.867397 240.92596,210.630489 240.92596,209.947634 C240.92596,209.348395 241.331891,209.013936 242.171747,209.013936 C243.025601,209.013936 243.403536,209.334459 243.403536,209.947634 Z M260.074685,209.766469 L260.074685,216.385975 C260.074685,219.312493 258.492955,220.413421 255.903398,220.413421 C255.035547,220.413421 254.349664,220.246192 253.817755,219.967476 L253.943733,217.988592 C254.321669,218.211565 254.867575,218.350923 255.53946,218.350923 C256.939221,218.350923 257.667096,217.751683 257.667096,216.344167 L257.667096,209.766469 L260.074685,209.766469 Z M267.038493,211.731417 L267.038493,220.148641 C267.038493,221.960295 265.932683,222.517727 264.60291,222.517727 C264.196979,222.517727 263.777051,222.434113 263.455106,222.322626 L263.55309,220.803624 C263.735058,220.859367 263.90303,220.887239 264.071001,220.887239 C264.532922,220.887239 264.868865,220.65033 264.868865,220.092898 L264.868865,211.828968 L267.038493,211.731417 Z M267.150474,209.933699 C267.150474,210.56081 266.772539,210.867397 265.918685,210.867397 C265.078829,210.867397 264.686896,210.616553 264.686896,209.933699 C264.686896,209.334459 265.078829,209 265.918685,209 C266.772539,209 267.150474,209.334459 267.150474,209.933699 Z M287.027074,220.21832 L284.18556,220.21832 L281.596003,215.814607 L280.490192,215.814607 L280.490192,220.21832 L278.124597,220.21832 L278.124597,209.766469 L280.490192,209.766469 L280.490192,213.905402 L281.623999,213.905402 L284.157565,209.766469 L286.859103,209.766469 L283.723639,214.727614 L287.027074,220.21832 Z M292.941063,209.26478 L292.941063,214.825165 L294.046874,214.825165 L295.810572,211.773224 L298.21816,211.773224 L295.908555,215.60557 L298.302146,220.21832 L295.852565,220.21832 L294.046874,216.581076 L292.941063,216.581076 L292.941063,220.21832 L290.771434,220.21832 L290.771434,209.362331 L292.941063,209.26478 Z M310.816005,218.100078 L315.141265,218.100078 L315.085275,220.21832 L308.436412,220.21832 L308.436412,209.766469 L310.816005,209.766469 L310.816005,218.100078 Z M321.25122,220.21832 L319.053596,220.21832 L319.053596,209.362331 L321.25122,209.26478 L321.25122,220.21832 Z M332.253338,209.766469 L334.856893,209.766469 L337.292476,215.87035 L337.684409,216.915535 L337.726402,216.915535 L338.118335,215.87035 L340.567916,209.766469 L343.171471,209.766469 L343.171471,220.21832 L341.015839,220.21832 L341.015839,214.894844 L341.043835,213.766044 L341.001842,213.752108 L340.609909,214.811229 L338.454278,220.21832 L336.886546,220.21832 L334.744912,214.825165 L334.352979,213.766044 L334.324984,213.77998 L334.338981,214.90878 L334.338981,220.21832 L332.253338,220.21832 L332.253338,209.766469 Z M359.205728,220.21832 L357.036099,220.21832 L357.036099,214.825165 C357.036099,213.947209 356.56018,213.529135 355.762317,213.529135 C355.034441,213.529135 354.51653,213.933274 354.51653,214.755486 L354.51653,220.21832 L352.346901,220.21832 L352.346901,214.755486 C352.346901,213.891466 351.870983,213.529135 351.115112,213.529135 C350.5972,213.529135 350.093287,213.77998 349.84133,214.170182 L349.84133,220.21832 L347.657703,220.21832 L347.657703,211.828968 L349.225435,211.717481 L349.575375,212.511822 C350.163275,211.95439 350.947141,211.619931 351.731007,211.619931 C352.794825,211.619931 353.5227,211.982261 353.970623,212.748731 C354.544525,211.968326 355.384382,211.619931 356.350216,211.619931 C358.029929,211.619931 359.205728,212.679052 359.205728,214.783358 L359.205728,220.21832 Z M10.3783958,259.039481 L8.72667833,259.039481 L4.65337508,253.339738 L4.02348283,252.40604 L3.99548761,252.419975 L4.00948522,253.548775 L4.00948522,259.039481 L1.90984437,259.039481 L1.90984437,248.58763 L3.92549959,248.58763 L7.6628603,253.980785 L8.29275256,254.914484 L8.32074777,254.900548 L8.29275256,253.785684 L8.29275256,248.58763 L10.3783958,248.58763 L10.3783958,259.039481 Z M22.0174049,259.039481 L19.847776,259.039481 L19.847776,253.660262 C19.847776,252.726563 19.3718574,252.350296 18.4760107,252.350296 C17.9301041,252.350296 17.3422046,252.587205 17.0482549,252.991343 L17.0482549,259.039481 L14.8646284,259.039481 L14.8646284,250.636193 L16.4323603,250.538642 L16.7543052,251.263304 C17.3841974,250.719808 18.2100562,250.427156 19.0919053,250.427156 C20.8835989,250.427156 22.0174049,251.555956 22.0174049,253.660262 L22.0174049,259.039481 Z M41.6280505,253.813556 C41.6280505,257.604094 40.2982779,259.234582 37.0088406,259.234582 C33.7753937,259.234582 32.3756331,257.534414 32.3756331,253.813556 C32.3756331,250.092697 33.7334009,248.4204 37.0088406,248.4204 C40.2982779,248.4204 41.6280505,250.092697 41.6280505,253.813556 Z M39.1644719,253.813556 C39.1644719,251.165753 38.6185652,250.524706 37.0088406,250.524706 C35.4131135,250.524706 34.8532093,251.165753 34.8532093,253.813556 C34.8532093,256.461358 35.4271112,257.130276 37.0228382,257.130276 C38.6045676,257.130276 39.1644719,256.447422 39.1644719,253.813556 Z M53.1270835,254.844805 C53.1270835,257.952489 51.9512846,259.234582 49.2497468,259.234582 C46.5622065,259.234582 45.3584124,257.952489 45.3584124,254.844805 C45.3584124,251.751057 46.5622065,250.441092 49.2497468,250.441092 C51.9512846,250.441092 53.1270835,251.751057 53.1270835,254.844805 Z M47.6120269,254.844805 C47.6120269,256.921239 48.0599503,257.464735 49.2497468,257.464735 C50.4395432,257.464735 50.873469,256.907303 50.873469,254.844805 C50.873469,252.782306 50.4395432,252.224874 49.2497468,252.224874 C48.0459527,252.224874 47.6120269,252.782306 47.6120269,254.844805 Z M71.4359517,252.169131 C71.4359517,254.370988 70.2601529,255.639146 67.3346533,255.639146 L65.9348927,255.639146 L65.9348927,259.039481 L63.5692974,259.039481 L63.5692974,248.58763 L67.3346533,248.58763 C70.2461553,248.58763 71.4359517,249.730366 71.4359517,252.169131 Z M69.0003684,252.155195 C69.0003684,250.900973 68.552445,250.552578 67.3346533,250.552578 L65.9348927,250.552578 L65.9348927,253.757812 L67.3346533,253.757812 C68.4964546,253.757812 69.0003684,253.46516 69.0003684,252.155195 Z M82.8370016,254.802997 C82.8370016,257.771323 81.5352242,259.178839 79.5475642,259.178839 C78.7916935,259.178839 78.1198085,259.025545 77.5739018,258.495985 L77.531909,258.509921 L77.5599042,259.638721 L77.5599042,261.185594 L75.3622801,261.185594 L75.3622801,250.650129 L76.8880192,250.552578 L77.3079473,251.291175 C77.8958468,250.747679 78.7217055,250.441092 79.6035547,250.441092 C81.6891979,250.441092 82.8370016,251.569892 82.8370016,254.802997 Z M80.5833871,254.789062 C80.5833871,252.851985 80.1074685,252.364232 79.0156552,252.364232 C78.385763,252.364232 77.8678516,252.615077 77.5599042,253.047086 L77.5599042,256.670395 C77.8258587,257.074533 78.2877797,257.395056 78.9736624,257.395056 C79.9394972,257.395056 80.5833871,256.935175 80.5833871,254.789062 Z M102.1397,253.813556 C102.1397,256.767945 101.327839,258.41237 99.3961691,258.969802 L101.355834,260.488804 L98.6962888,261.157723 L97.2265402,259.234582 C94.2030574,259.123096 92.8872824,257.422928 92.8872824,253.813556 C92.8872824,250.092697 94.2450502,248.4204 97.5204899,248.4204 C100.809927,248.4204 102.1397,250.092697 102.1397,253.813556 Z M99.6761212,253.813556 C99.6761212,251.165753 99.1302146,250.524706 97.5204899,250.524706 C95.9247629,250.524706 95.3648586,251.165753 95.3648586,253.813556 C95.3648586,256.461358 95.9387605,257.130276 97.5344875,257.130276 C99.116217,257.130276 99.6761212,256.447422 99.6761212,253.813556 Z M113.316788,261.185594 L111.147159,261.19953 L111.147159,259.7084 L111.175154,258.5796 L111.147159,258.565664 C110.643245,258.955866 109.999355,259.164903 109.187494,259.164903 C107.213832,259.164903 105.870062,257.88281 105.870062,254.844805 C105.870062,251.960094 106.98987,250.441092 109.243485,250.441092 C110.26531,250.441092 111.077171,250.761615 111.66507,251.360854 L111.917027,250.594385 L113.316788,250.608321 L113.316788,261.185594 Z M111.147159,256.628587 L111.147159,253.019215 C110.923197,252.656884 110.391288,252.378168 109.719403,252.378168 C108.515609,252.378168 108.123676,252.865921 108.123676,254.844805 C108.123676,256.726138 108.585597,257.353249 109.747398,257.353249 C110.531264,257.353249 111.035178,256.990918 111.147159,256.628587 Z M131.933603,251.834672 C131.933603,253.297931 131.303711,254.32918 130.169905,254.677575 L132.619486,259.039481 L129.861958,259.039481 L128.028271,255.137457 L126.544525,255.137457 L126.544525,259.039481 L124.17893,259.039481 L124.17893,248.58763 L128.028271,248.58763 C130.631826,248.58763 131.933603,249.604944 131.933603,251.834672 Z M129.470025,251.932222 C129.470025,250.873101 129.078092,250.538642 128.042269,250.538642 L126.544525,250.538642 L126.544525,253.381546 L128.000276,253.381546 C129.050097,253.381546 129.470025,253.061022 129.470025,251.932222 Z M138.379501,259.039481 L136.195874,259.039481 L136.195874,250.650129 L137.931577,250.566514 L138.127544,251.97403 L138.169537,251.97403 C138.701446,250.956716 139.527305,250.455027 140.493139,250.455027 C140.871075,250.455027 141.19302,250.510771 141.416981,250.58045 L141.277005,252.712627 C141.011051,252.629012 140.689106,252.573269 140.353163,252.573269 C139.219357,252.573269 138.379501,253.395481 138.379501,254.802997 L138.379501,259.039481 Z M158.396077,255.903926 C158.396077,257.966424 156.954324,259.234582 154.504743,259.234582 C153.286951,259.234582 152.167142,258.94193 151.257298,258.454177 L151.565245,256.433486 C152.489087,256.921239 153.440925,257.199955 154.476747,257.199955 C155.624551,257.199955 156.128465,256.781881 156.128465,256.05722 C156.128465,254.412795 151.299291,255.109585 151.299291,251.611699 C151.299291,249.841852 152.447095,248.406465 155.10664,248.406465 C156.128465,248.406465 157.234276,248.615502 158.046137,248.949961 L157.752187,250.928845 C156.884336,250.650129 156.016484,250.482899 155.21862,250.482899 C153.916843,250.482899 153.566903,250.928845 153.566903,251.486277 C153.566903,253.116765 158.396077,252.364232 158.396077,255.903926 Z M167.795469,256.391679 C167.795469,258.077911 166.85763,259.206711 164.562022,259.206711 C163.540197,259.206711 162.616355,259.011609 161.902477,258.621407 L162.126439,256.837624 C162.826319,257.241763 163.820149,257.436864 164.548025,257.436864 C165.415876,257.436864 165.779814,257.088469 165.779814,256.58678 C165.779814,255.235007 161.846487,256.015412 161.846487,253.061022 C161.846487,251.54202 162.88231,250.455027 165.065936,250.455027 C165.91979,250.455027 166.759646,250.622257 167.473524,250.914909 L167.291555,252.684756 C166.591675,252.392104 165.653836,252.252746 165.023943,252.252746 C164.310065,252.252746 163.918132,252.531462 163.918132,252.963472 C163.918132,254.245565 167.795469,253.479096 167.795469,256.391679 Z M185.404457,250.705872 L182.576941,250.705872 L182.576941,259.039481 L180.197348,259.039481 L180.197348,250.705872 L177.383829,250.705872 L177.43982,248.58763 L185.348467,248.58763 L185.404457,250.705872 Z M193.51607,252.210938 L191.626393,252.210938 L191.626393,256.531037 C191.626393,257.186019 191.962335,257.464735 192.63422,257.464735 C192.858182,257.464735 193.152132,257.422928 193.306106,257.367185 L193.432084,258.94193 C193.138134,259.067353 192.57823,259.178839 191.976333,259.178839 C190.282623,259.178839 189.456764,258.203333 189.456764,256.600716 L189.456764,252.210938 L188.504927,252.210938 L188.504927,250.594385 L189.554747,250.594385 L189.918685,248.685181 L191.626393,248.531887 L191.626393,250.594385 L193.51607,250.594385 L193.51607,252.210938 Z M212.118888,248.58763 L212.118888,255.304686 C212.118888,257.938553 210.691132,259.234582 207.905608,259.234582 C205.134082,259.234582 203.664334,257.938553 203.664334,255.304686 L203.664334,248.58763 L206.015931,248.58763 L206.015931,255.276815 C206.015931,256.544973 206.589833,257.102405 207.905608,257.102405 C209.221383,257.102405 209.781287,256.558908 209.781287,255.276815 L209.781287,248.58763 L212.118888,248.58763 Z M223.519937,250.594385 L223.519937,256.05722 C223.519937,258.105782 222.358136,259.192775 219.950548,259.192775 C217.54296,259.192775 216.381158,258.063975 216.381158,256.05722 L216.381158,250.594385 L218.550787,250.594385 L218.550787,256.015412 C218.550787,256.85156 218.998711,257.28357 219.950548,257.28357 C220.902385,257.28357 221.350308,256.879432 221.350308,256.015412 L221.350308,250.594385 L223.519937,250.594385 Z M240.681002,248.58763 L243.130583,248.58763 L239.561193,259.039481 L236.929644,259.039481 L233.360254,248.58763 L235.963809,248.58763 L237.993462,255.653081 L238.287411,256.740074 L238.329404,256.740074 L238.609356,255.653081 L240.681002,248.58763 Z M252.264021,250.594385 L254.643614,250.594385 L251.56414,259.039481 L249.044571,259.039481 L245.965098,250.594385 L248.344691,250.594385 L249.968413,256.001476 L250.276361,257.088469 L250.318353,257.088469 L250.612303,256.001476 L252.264021,250.594385 Z M269.859011,248.58763 L272.420573,248.58763 L273.904319,255.611274 L274.114283,256.712202 L274.156276,256.712202 L274.338245,255.597338 L275.65402,248.58763 L277.99162,248.58763 L275.514044,259.039481 L272.686527,259.039481 L271.300764,252.043709 L271.104798,250.928845 L271.062805,250.928845 L270.866839,252.057645 L269.495073,259.039481 L266.667557,259.039481 L264.189981,248.58763 L266.639562,248.58763 L267.955337,255.667017 L268.137305,256.781881 L268.179298,256.781881 L268.375265,255.680953 L269.859011,248.58763 Z M286.033244,250.594385 L288.300856,250.594385 L289.434662,256.126899 L289.644627,257.227827 L289.686619,257.227827 L289.854591,256.112963 L290.806428,250.594385 L292.934064,250.594385 L291.03039,259.039481 L288.370844,259.039481 L287.419007,253.994721 L287.237038,252.865921 L287.195046,252.865921 L286.999079,253.994721 L286.005249,259.039481 L283.345704,259.039481 L281.316051,250.594385 L283.499678,250.594385 L284.521503,256.099027 L284.717469,257.213891 L284.759462,257.213891 L284.941431,256.099027 L286.033244,250.594385 Z M311.90082,248.58763 L308.97532,253.576647 L312.026798,259.039481 L309.353255,259.039481 L307.827516,256.05722 L307.351598,255.039906 L307.309605,255.039906 L306.819689,256.071155 L305.321945,259.039481 L302.592412,259.039481 L305.573902,253.63239 L302.6624,248.58763 L305.461921,248.58763 L306.819689,251.193625 L307.323603,252.197003 L307.365595,252.197003 L307.855512,251.193625 L309.213279,248.58763 L311.90082,248.58763 Z M320.866286,259.039481 L319.73248,256.795817 L319.256561,255.778504 L319.214569,255.778504 L318.73865,256.809753 L317.646837,259.039481 L315.253246,259.039481 L317.786813,254.775126 L315.295239,250.594385 L317.814808,250.594385 L318.878626,252.726563 L319.354545,253.743877 L319.396537,253.743877 L319.858458,252.726563 L320.908279,250.594385 L323.315867,250.594385 L320.936274,254.719383 L323.385855,259.039481 L320.866286,259.039481 Z M332.736256,248.58763 L335.395801,248.58763 L337.159499,252.545398 L337.593425,253.576647 L337.635418,253.576647 L338.055346,252.531462 L339.749056,248.58763 L342.338613,248.58763 L338.769224,255.708825 L338.769224,259.039481 L336.361636,259.039481 L336.361636,255.708825 L332.736256,248.58763 Z M347.216779,259.764143 C347.804678,259.764143 348.238604,259.596913 348.518556,258.955866 L348.560549,258.84438 L344.907174,250.594385 L347.38475,250.594385 L349.232434,255.750632 L349.596372,256.809753 L349.638364,256.809753 L349.904319,255.72276 L351.290082,250.594385 L353.599687,250.594385 L350.702183,258.927995 C350.100285,260.656034 349.064463,261.380696 347.608712,261.380696 C347.0908,261.380696 346.586886,261.297081 346.166958,261.115915 L346.33493,259.582977 C346.642877,259.7084 346.922829,259.764143 347.216779,259.764143 Z M370.858735,259.039481 L363.28603,259.039481 L363.28603,257.506543 L367.359333,251.625635 L368.003223,250.733743 L367.989226,250.705872 L363.398011,250.705872 L363.467999,248.58763 L370.858735,248.58763 L370.858735,250.301734 L366.883415,256.015412 L366.239525,256.893368 L366.253522,256.935175 L370.900728,256.935175 L370.858735,259.039481 Z M380.874022,252.099452 L377.766553,256.335936 L377.094668,257.199955 L377.108666,257.241763 L381,257.241763 L380.94401,259.039481 L374.589097,259.039481 L374.589097,257.520479 L377.696565,253.297931 L378.36845,252.419975 L378.354453,252.392104 L374.701077,252.392104 L374.771065,250.594385 L380.874022,250.594385 L380.874022,252.099452 Z M9.30058016,292.676524 C9.30058016,296.425254 8.11078368,298 5.38125058,298 C2.63771986,298 1.5039138,296.425254 1.5039138,292.676524 C1.5039138,288.746628 2.63771986,287.283369 5.40924579,287.283369 C8.12478129,287.283369 9.30058016,288.746628 9.30058016,292.676524 Z M7.04696565,292.648652 C7.04696565,289.791813 6.52905424,289.290124 5.40924579,289.290124 C4.26144212,289.290124 3.74353071,289.83362 3.74353071,292.648652 C3.74353071,295.575171 4.26144212,296.048988 5.40924579,296.048988 C6.52905424,296.048988 7.04696565,295.519427 7.04696565,292.648652 Z M21.1425546,297.860642 L21.1425546,296.216217 L22.6962888,296.216217 L22.6962888,290.182015 L20.7786168,291.282944 L20.5406575,289.387675 L23.6621236,287.408791 L25.0478865,287.408791 L25.0478865,296.216217 L26.5736256,296.216217 L26.5736256,297.860642 L21.1425546,297.860642 Z M44.8824938,290.349245 C44.8824938,292.244514 43.2167787,293.81926 40.8371857,295.798143 L40.8371857,295.839951 L44.8684962,295.839951 L44.8265034,297.860642 L37.8556957,297.860642 L37.8556957,296.355575 C40.3752648,293.875003 42.5029008,292.119092 42.5029008,290.572218 C42.5029008,289.847556 42.0269822,289.331932 40.8511834,289.331932 C39.9273414,289.331932 39.087485,289.708198 38.3176167,290.251694 L37.7717101,288.384297 C38.6395617,287.729314 39.8433557,287.283369 41.2711115,287.283369 C43.6786997,287.283369 44.8824938,288.523655 44.8824938,290.349245 Z M62.9534027,294.725087 C62.9534027,296.717906 61.6796206,297.986064 58.8800995,297.986064 C57.5503269,297.986064 56.4725113,297.651605 55.6886454,297.205659 L56.1365687,295.394005 C56.9484299,295.839951 57.8022838,296.076859 58.8101114,296.076859 C60.0978912,296.076859 60.7137858,295.533363 60.7137858,294.641472 C60.7137858,293.791388 60.139884,293.261828 57.9282623,293.261828 L57.9282623,291.631339 C60.0419007,291.631339 60.5738097,291.157522 60.5738097,290.335309 C60.5738097,289.652455 60.0279031,289.262253 58.8800995,289.262253 C57.8162814,289.262253 56.9624275,289.596712 56.2065568,290.16808 L55.6746478,288.370361 C56.4865089,287.74325 57.7182982,287.283369 59.0200755,287.283369 C61.3576757,287.283369 62.7154434,288.370361 62.7154434,290.16808 C62.7154434,291.213265 62.197532,291.951862 61.27369,292.383872 L61.27369,292.411744 C62.3515057,292.801946 62.9534027,293.540544 62.9534027,294.725087 Z M81.1922829,295.881758 L80.1704577,295.881758 L80.1704577,297.860642 L78.0428216,297.860642 L78.0428216,295.881758 L73.4096141,295.881758 L73.2136477,294.432435 L77.426927,287.408791 L80.1704577,287.408791 L80.1704577,293.958618 L81.2482733,293.958618 L81.1922829,295.881758 Z M78.1268073,293.958618 L78.2107929,290.641897 L78.2667833,289.513097 L78.2387881,289.499161 L75.6772263,293.958618 L78.1268073,293.958618 Z M98.8012708,294.251269 C98.8012708,296.578548 97.625472,297.986064 94.9099365,297.986064 C93.6921448,297.986064 92.5723363,297.73522 91.6764895,297.205659 L92.0824201,295.394005 C92.9362741,295.826015 93.6501519,296.076859 94.6859748,296.076859 C96.0577401,296.076859 96.5336587,295.533363 96.5336587,294.446371 C96.5336587,293.470865 95.9597569,293.080662 94.7279676,293.080662 C94.0000921,293.080662 93.188231,293.22002 92.6003315,293.442993 L91.802468,292.578973 L92.2223962,287.408791 L98.227369,287.408791 L98.297357,289.429482 L94.0420849,289.429482 L93.8881112,291.366559 C94.3640298,291.269008 94.8679436,291.213265 95.3998527,291.213265 C97.5834791,291.213265 98.8012708,292.230578 98.8012708,294.251269 Z M116.900175,294.195526 C116.900175,296.787585 115.542407,297.986064 113.190809,297.986064 C110.629248,297.986064 109.215489,296.60642 109.215489,292.871625 C109.215489,289.220445 110.811217,287.283369 113.848697,287.283369 C114.772539,287.283369 115.52841,287.380919 116.28428,287.673571 L116.130307,289.624583 C115.458422,289.387675 114.870522,289.290124 114.128649,289.290124 C112.420941,289.290124 111.651073,290.042657 111.455106,291.617403 L111.483102,291.645275 C112.071001,291.282944 112.798877,291.059971 113.582742,291.059971 C115.780367,291.059971 116.900175,292.09122 116.900175,294.195526 Z M114.660558,294.153719 C114.660558,293.233956 114.212635,292.78801 113.148817,292.78801 C112.630905,292.78801 111.861037,293.052791 111.539092,293.442993 C111.567087,295.463684 112.029008,296.062924 113.176812,296.062924 C114.142647,296.062924 114.660558,295.491556 114.660558,294.153719 Z M134.845105,287.422727 L134.845105,289.359803 L130.911778,297.860642 L128.322221,297.860642 L132.577493,289.596712 L127.21641,289.596712 L127.314394,287.422727 L134.845105,287.422727 Z M145.091353,294.794766 C145.091353,293.847131 145.609264,292.95524 146.533106,292.397808 C145.903214,291.910055 145.469288,291.213265 145.469288,290.070529 C145.469288,288.356425 146.547104,287.283369 148.982687,287.283369 C151.418271,287.283369 152.468091,288.34249 152.468091,290.084465 C152.468091,291.018164 152.034165,291.784633 151.334285,292.314193 C152.174141,292.760139 152.832029,293.456929 152.832029,294.808701 C152.832029,296.913007 151.530251,297.986064 148.982687,297.986064 C146.309144,297.986064 145.091353,296.8712 145.091353,294.794766 Z M150.620407,294.975931 C150.620407,294.042232 149.682567,293.721709 148.352795,293.275763 C147.750898,293.638094 147.288977,294.139783 147.288977,294.808701 C147.288977,295.798143 147.806888,296.202282 149.038678,296.202282 C149.990515,296.202282 150.620407,295.867822 150.620407,294.975931 Z M147.596924,290.182015 C147.596924,291.073907 148.478773,291.366559 149.528594,291.673146 C150.130491,291.29688 150.438438,290.86487 150.438438,290.26563 C150.438438,289.485225 149.990515,289.095023 148.96869,289.095023 C148.03085,289.095023 147.596924,289.443418 147.596924,290.182015 Z M170.706971,292.216642 C170.706971,296.299832 169.223225,297.986064 166.26973,297.986064 C165.121927,297.986064 164.380053,297.83277 163.610185,297.498311 L163.93213,295.630914 C164.618013,295.90963 165.247905,296.048988 166.045768,296.048988 C167.669491,296.048988 168.341376,295.254647 168.495349,293.470865 L168.467354,293.442993 C167.893452,293.81926 167.193572,293.986489 166.367713,293.986489 C164.114099,293.986489 163.036283,292.704395 163.036283,290.781255 C163.036283,288.635141 164.212082,287.283369 166.759646,287.283369 C169.265218,287.283369 170.706971,288.899922 170.706971,292.216642 Z M168.439359,291.491981 C168.425361,289.763941 167.767474,289.206509 166.717654,289.206509 C165.737821,289.206509 165.21991,289.666391 165.21991,290.69764 C165.21991,291.673146 165.681831,292.188771 166.801639,292.188771 C167.529515,292.188771 168.117414,291.951862 168.439359,291.491981 Z" id="Aa-Bb-Cc-Dd-Ee-Ff-Gg"></path>
        </g>
    </g>
</svg>