<?xml version="1.0" encoding="UTF-8"?>
<svg width="354px" height="292px" viewBox="0 0 354 292" version="1.1" xmlns="http://www.w3.org/2000/svg" xmlns:xlink="http://www.w3.org/1999/xlink">
    <!-- Generator: Sketch 52.6 (67491) - http://www.bohemiancoding.com/sketch -->
    <title>Group</title>
    <desc>Created with Sketch.</desc>
    <g id="Projets" stroke="none" stroke-width="1" fill="none" fill-rule="evenodd">
        <g id="TOKKUN" transform="translate(-153.000000, -2581.000000)" fill="#171717">
            <g id="TYPOGRAPHY" transform="translate(152.000000, 2403.000000)">
                <g id="Group" transform="translate(1.000000, 178.000000)">
                    <path d="M93.0429688,116.894531 L37.9648438,116.894531 L26.4414062,150 L0.7578125,150 L54.46875,7.8125 L76.6367188,7.8125 L130.445312,150 L104.664062,150 L93.0429688,116.894531 Z M44.8984375,96.9726562 L86.109375,96.9726562 L65.5039062,37.9882812 L44.8984375,96.9726562 Z M236.774948,98.2421875 C236.774948,114.64852 233.112875,127.701774 225.78862,137.402344 C218.464364,147.102913 208.389595,151.953125 195.56401,151.953125 C183.194157,151.953125 173.558837,147.493534 166.65776,138.574219 L165.485885,150 L144.00151,150 L144.00151,0 L167.731979,0 L167.731979,54.4921875 C174.567951,46.4192305 183.780098,42.3828125 195.368698,42.3828125 C208.259387,42.3828125 218.382984,47.1679209 225.739792,56.7382812 C233.096599,66.3086416 236.774948,79.6874141 236.774948,96.875 L236.774948,98.2421875 Z M213.044479,96.1914062 C213.044479,84.7330156 211.02627,76.1393516 206.989792,70.4101562 C202.953313,64.6809609 197.093997,61.8164062 189.411667,61.8164062 C179.125157,61.8164062 171.898667,66.3085488 167.731979,75.2929688 L167.731979,118.847656 C171.963771,128.02739 179.255365,132.617188 189.606979,132.617188 C197.028891,132.617188 202.758001,129.850288 206.794479,124.316406 C210.830958,118.782524 212.91427,110.416723 213.044479,99.21875 L213.044479,96.1914062 Z M299.842864,133.007812 C305.767373,133.007812 310.682689,131.282569 314.588958,127.832031 C318.495228,124.381493 320.57854,120.117213 320.838958,115.039062 L343.202239,115.039062 C342.941821,121.614616 340.891061,127.750623 337.049896,133.447266 C333.208731,139.143909 328.000449,143.652327 321.424896,146.972656 C314.849342,150.292985 307.753059,151.953125 300.135833,151.953125 C285.357113,151.953125 273.638481,147.168017 264.979583,137.597656 C256.320686,128.027296 251.991302,114.811282 251.991302,97.9492188 L251.991302,95.5078125 C251.991302,79.4270029 256.288134,66.5527827 264.881927,56.8847656 C273.47572,47.2167485 285.194353,42.3828125 300.038177,42.3828125 C312.603344,42.3828125 322.840872,46.0448853 330.751068,53.3691406 C338.661263,60.693396 342.811612,70.3124404 343.202239,82.2265625 L320.838958,82.2265625 C320.57854,76.1718447 318.511504,71.1914258 314.637786,67.2851562 C310.764069,63.3788867 305.832478,61.4257812 299.842864,61.4257812 C292.160534,61.4257812 286.236114,64.2089565 282.069427,69.7753906 C277.902739,75.3418247 275.786875,83.7890059 275.721771,95.1171875 L275.721771,98.9257812 C275.721771,110.384172 277.788807,118.929008 281.922943,124.560547 C286.057078,130.192085 292.030325,133.007812 299.842864,133.007812 Z" id="Abc"></path>
                    <path d="M7.58300781,210.682617 L3.72753906,210.682617 L2.92089844,213 L1.12304688,213 L4.8828125,203.046875 L6.43457031,203.046875 L10.2011719,213 L8.39648438,213 L7.58300781,210.682617 Z M4.21289062,209.288086 L7.09765625,209.288086 L5.65527344,205.15918 L4.21289062,209.288086 Z M18.2128906,213 C18.1399736,212.858723 18.0761721,212.628582 18.0214844,212.30957 C17.4928359,212.861005 16.845707,213.136719 16.0800781,213.136719 C15.3372359,213.136719 14.7311221,212.924807 14.2617188,212.500977 C13.7923154,212.077146 13.5576172,211.553063 13.5576172,210.928711 C13.5576172,210.140296 13.8504202,209.535321 14.4360352,209.11377 C15.0216501,208.692218 15.859044,208.481445 16.9482422,208.481445 L17.9667969,208.481445 L17.9667969,207.996094 C17.9667969,207.613279 17.8597016,207.306805 17.6455078,207.07666 C17.431314,206.846516 17.1054709,206.731445 16.6679688,206.731445 C16.2897117,206.731445 15.9798189,206.826008 15.7382812,207.015137 C15.4967436,207.204265 15.3759766,207.44466 15.3759766,207.736328 L13.7148438,207.736328 C13.7148438,207.330727 13.8492825,206.951336 14.1181641,206.598145 C14.3870456,206.244953 14.7527646,205.9681 15.215332,205.767578 C15.6778994,205.567056 16.1940076,205.466797 16.7636719,205.466797 C17.6295616,205.466797 18.3199844,205.684405 18.8349609,206.119629 C19.3499375,206.554852 19.6142577,207.166663 19.6279297,207.955078 L19.6279297,211.291016 C19.6279297,211.956384 19.7213532,212.487303 19.9082031,212.883789 L19.9082031,213 L18.2128906,213 Z M16.3876953,211.803711 C16.715822,211.803711 17.0245754,211.723959 17.3139648,211.564453 C17.6033543,211.404947 17.8209628,211.190757 17.9667969,210.921875 L17.9667969,209.527344 L17.0712891,209.527344 C16.4560516,209.527344 15.9934911,209.634439 15.6835938,209.848633 C15.3736964,210.062827 15.21875,210.365883 15.21875,210.757812 C15.21875,211.076825 15.324706,211.330891 15.5366211,211.52002 C15.7485362,211.709148 16.0322248,211.803711 16.3876953,211.803711 Z M30.2646484,213 L30.2646484,203.046875 L33.6757812,203.046875 C34.8014379,203.046875 35.6582002,203.272459 36.2460938,203.723633 C36.8339873,204.174807 37.1279297,204.847001 37.1279297,205.740234 C37.1279297,206.195966 37.004884,206.606118 36.7587891,206.970703 C36.5126941,207.335288 36.1526716,207.617838 35.6787109,207.818359 C36.216474,207.964193 36.6323227,208.238768 36.9262695,208.64209 C37.2202163,209.045412 37.3671875,209.52962 37.3671875,210.094727 C37.3671875,211.028976 37.0675486,211.746742 36.4682617,212.248047 C35.8689749,212.749351 35.0110733,213 33.8945312,213 L30.2646484,213 Z M31.9941406,208.508789 L31.9941406,211.619141 L33.9150391,211.619141 C34.4573595,211.619141 34.8811834,211.484702 35.1865234,211.21582 C35.4918635,210.946939 35.6445312,210.573245 35.6445312,210.094727 C35.6445312,209.060216 35.1158907,208.531576 34.0585938,208.508789 L31.9941406,208.508789 Z M31.9941406,207.237305 L33.6894531,207.237305 C34.2272162,207.237305 34.6476222,207.115398 34.9506836,206.871582 C35.253745,206.627766 35.4052734,206.282554 35.4052734,205.835938 C35.4052734,205.343748 35.2651381,204.988282 34.9848633,204.769531 C34.7045884,204.55078 34.2682321,204.441406 33.6757812,204.441406 L31.9941406,204.441406 L31.9941406,207.237305 Z M48.0517578,209.376953 C48.0517578,210.525396 47.7954127,211.439124 47.2827148,212.118164 C46.770017,212.797204 46.0647831,213.136719 45.1669922,213.136719 C44.3011024,213.136719 43.62663,212.824547 43.1435547,212.200195 L43.0615234,213 L41.5576172,213 L41.5576172,202.5 L43.21875,202.5 L43.21875,206.314453 C43.697268,205.749346 44.3421183,205.466797 45.1533203,205.466797 C46.0556686,205.466797 46.7643203,205.801754 47.2792969,206.47168 C47.7942734,207.141605 48.0517578,208.078119 48.0517578,209.28125 L48.0517578,209.376953 Z M46.390625,209.233398 C46.390625,208.431311 46.2493504,207.829755 45.9667969,207.428711 C45.6842434,207.027667 45.2740912,206.827148 44.7363281,206.827148 C44.0162724,206.827148 43.5104181,207.141598 43.21875,207.770508 L43.21875,210.819336 C43.5149754,211.461917 44.025387,211.783203 44.75,211.783203 C45.2695338,211.783203 45.6705715,211.58952 45.953125,211.202148 C46.2356785,210.814777 46.3815104,210.229171 46.390625,209.445312 L46.390625,209.233398 Z M65.9345703,209.759766 C65.8343094,210.82162 65.4423862,211.649899 64.7587891,212.244629 C64.0751919,212.839358 63.1660213,213.136719 62.03125,213.136719 C61.2382773,213.136719 60.5398793,212.948732 59.9360352,212.572754 C59.332191,212.196775 58.8662126,211.662438 58.5380859,210.969727 C58.2099593,210.277015 58.0390626,209.472661 58.0253906,208.556641 L58.0253906,207.626953 C58.0253906,206.688146 58.1917301,205.861006 58.5244141,205.145508 C58.857098,204.430009 59.3344695,203.878583 59.956543,203.491211 C60.5786164,203.103839 61.297522,202.910156 62.1132812,202.910156 C63.211594,202.910156 64.0956998,203.208656 64.765625,203.805664 C65.4355502,204.402672 65.8251948,205.245763 65.9345703,206.334961 L64.2119141,206.334961 C64.1298824,205.619463 63.9213884,205.103354 63.5864258,204.786621 C63.2514632,204.469888 62.7604199,204.311523 62.1132812,204.311523 C61.3613244,204.311523 60.7836934,204.586098 60.3803711,205.135254 C59.9770488,205.68441 59.7708334,206.489904 59.7617188,207.551758 L59.7617188,208.433594 C59.7617188,209.50912 59.9542624,210.329424 60.3393555,210.894531 C60.7244485,211.459638 61.2884077,211.742188 62.03125,211.742188 C62.7102899,211.742188 63.2207014,211.58952 63.5625,211.28418 C63.9042986,210.97884 64.1207678,210.470707 64.2119141,209.759766 L65.9345703,209.759766 Z M72.9824219,211.810547 C73.3971375,211.810547 73.7412096,211.68978 74.0146484,211.448242 C74.2880873,211.206705 74.4339192,210.908205 74.4521484,210.552734 L76.0175781,210.552734 C75.9993489,211.013023 75.8557956,211.442544 75.5869141,211.841309 C75.3180325,212.240074 74.9534528,212.555663 74.4931641,212.788086 C74.0328753,213.020509 73.5361355,213.136719 73.0029297,213.136719 C71.9684193,213.136719 71.148115,212.801761 70.5419922,212.131836 C69.9358694,211.461911 69.6328125,210.53679 69.6328125,209.356445 L69.6328125,209.185547 C69.6328125,208.05989 69.9335907,207.158695 70.5351562,206.481934 C71.1367218,205.805172 71.9570261,205.466797 72.9960938,205.466797 C73.8756554,205.466797 74.5922824,205.723142 75.1459961,206.23584 C75.6997098,206.748538 75.9902342,207.421871 76.0175781,208.255859 L74.4521484,208.255859 C74.4339192,207.832029 74.2892266,207.4834 74.0180664,207.209961 C73.7469062,206.936522 73.4016948,206.799805 72.9824219,206.799805 C72.4446588,206.799805 72.0299494,206.994627 71.7382812,207.384277 C71.4466131,207.773928 71.2985026,208.36523 71.2939453,209.158203 L71.2939453,209.424805 C71.2939453,210.226892 71.4386379,210.825031 71.7280273,211.219238 C72.0174168,211.613446 72.4355441,211.810547 72.9824219,211.810547 Z M86.1689453,213 L86.1689453,203.046875 L89.1083984,203.046875 C89.9879601,203.046875 90.7683885,203.242837 91.449707,203.634766 C92.1310255,204.026695 92.6585268,204.582679 93.0322266,205.302734 C93.4059263,206.02279 93.5927734,206.847652 93.5927734,207.777344 L93.5927734,208.276367 C93.5927734,209.219731 93.404787,210.04915 93.0288086,210.764648 C92.6528302,211.480147 92.1173537,212.031574 91.4223633,212.418945 C90.7273728,212.806317 89.9309941,213 89.0332031,213 L86.1689453,213 Z M87.8984375,204.441406 L87.8984375,211.619141 L89.0263672,211.619141 C89.9332728,211.619141 90.6293921,211.335452 91.1147461,210.768066 C91.6001001,210.200681 91.8473307,209.386073 91.8564453,208.324219 L91.8564453,207.770508 C91.8564453,206.690424 91.6217471,205.865563 91.1523438,205.295898 C90.6829404,204.726234 90.0016321,204.441406 89.1083984,204.441406 L87.8984375,204.441406 Z M97.46875,209.24707 C97.46875,208.107742 97.7330703,207.192875 98.2617188,206.502441 C98.7903672,205.812008 99.499019,205.466797 100.387695,205.466797 C101.171553,205.466797 101.805011,205.740232 102.288086,206.287109 L102.288086,202.5 L103.949219,202.5 L103.949219,213 L102.445312,213 L102.363281,212.234375 C101.866534,212.835941 101.203455,213.136719 100.374023,213.136719 C99.5081337,213.136719 98.8074571,212.788089 98.2719727,212.09082 C97.7364882,211.393551 97.46875,210.445644 97.46875,209.24707 Z M99.1298828,209.390625 C99.1298828,210.142582 99.2745754,210.729327 99.5639648,211.150879 C99.8533543,211.57243 100.264646,211.783203 100.797852,211.783203 C101.476891,211.783203 101.973631,211.480146 102.288086,210.874023 L102.288086,207.71582 C101.982746,207.123369 101.490563,206.827148 100.811523,206.827148 C100.27376,206.827148 99.8590509,207.0402 99.5673828,207.466309 C99.2757147,207.892417 99.1298828,208.53385 99.1298828,209.390625 Z M120.396484,208.556641 L116.308594,208.556641 L116.308594,211.619141 L121.086914,211.619141 L121.086914,213 L114.579102,213 L114.579102,203.046875 L121.039062,203.046875 L121.039062,204.441406 L116.308594,204.441406 L116.308594,207.189453 L120.396484,207.189453 L120.396484,208.556641 Z M128.086914,213.136719 C127.034174,213.136719 126.18083,212.805179 125.526855,212.14209 C124.872881,211.479001 124.545898,210.596034 124.545898,209.493164 L124.545898,209.288086 C124.545898,208.549801 124.688312,207.89014 124.973145,207.309082 C125.257977,206.728024 125.657875,206.275718 126.172852,205.952148 C126.687828,205.628579 127.262041,205.466797 127.895508,205.466797 C128.902674,205.466797 129.680824,205.788083 130.22998,206.430664 C130.779137,207.073245 131.053711,207.982416 131.053711,209.158203 L131.053711,209.828125 L126.220703,209.828125 C126.270834,210.438805 126.47477,210.921873 126.83252,211.277344 C127.190269,211.632814 127.640297,211.810547 128.182617,211.810547 C128.943689,211.810547 129.563474,211.502933 130.041992,210.887695 L130.9375,211.742188 C130.641275,212.184247 130.245933,212.52718 129.751465,212.770996 C129.256996,213.014812 128.702152,213.136719 128.086914,213.136719 Z M127.888672,206.799805 C127.43294,206.799805 127.064943,206.959308 126.784668,207.27832 C126.504393,207.597332 126.325521,208.041664 126.248047,208.611328 L129.413086,208.611328 L129.413086,208.488281 C129.376627,207.932289 129.228517,207.511883 128.96875,207.227051 C128.708983,206.942219 128.348961,206.799805 127.888672,206.799805 Z M146.974609,208.782227 L142.96875,208.782227 L142.96875,213 L141.239258,213 L141.239258,203.046875 L147.5625,203.046875 L147.5625,204.441406 L142.96875,204.441406 L142.96875,207.401367 L146.974609,207.401367 L146.974609,208.782227 Z M151.978516,213 L151.978516,206.833984 L150.850586,206.833984 L150.850586,205.603516 L151.978516,205.603516 L151.978516,204.926758 C151.978516,204.106441 152.206378,203.472984 152.662109,203.026367 C153.117841,202.57975 153.755855,202.356445 154.576172,202.356445 C154.86784,202.356445 155.177733,202.397461 155.505859,202.479492 L155.464844,203.77832 C155.282551,203.741862 155.070639,203.723633 154.829102,203.723633 C154.036129,203.723633 153.639648,204.131506 153.639648,204.947266 L153.639648,205.603516 L155.143555,205.603516 L155.143555,206.833984 L153.639648,206.833984 L153.639648,213 L151.978516,213 Z M172.882812,211.708008 C172.522785,212.177411 172.023766,212.532876 171.385742,212.774414 C170.747718,213.015952 170.023116,213.136719 169.211914,213.136719 C168.377926,213.136719 167.639652,212.947593 166.99707,212.569336 C166.354489,212.191079 165.858888,211.649906 165.510254,210.945801 C165.161619,210.241696 164.980469,209.420252 164.966797,208.481445 L164.966797,207.702148 C164.966797,206.198235 165.326819,205.023604 166.046875,204.178223 C166.766931,203.332841 167.771803,202.910156 169.061523,202.910156 C170.168951,202.910156 171.048499,203.183591 171.700195,203.730469 C172.351891,204.277346 172.743814,205.06575 172.875977,206.095703 L171.180664,206.095703 C170.989257,204.897129 170.294277,204.297852 169.095703,204.297852 C168.32096,204.297852 167.731936,204.576983 167.328613,205.135254 C166.925291,205.693525 166.716797,206.51269 166.703125,207.592773 L166.703125,208.358398 C166.703125,209.433925 166.929848,210.26904 167.383301,210.86377 C167.836754,211.458499 168.466793,211.755859 169.273438,211.755859 C170.157557,211.755859 170.786456,211.555341 171.160156,211.154297 L171.160156,209.206055 L169.109375,209.206055 L169.109375,207.893555 L172.882812,207.893555 L172.882812,211.708008 Z M176.957031,209.24707 C176.957031,208.098627 177.227048,207.181481 177.76709,206.495605 C178.307132,205.80973 179.023759,205.466797 179.916992,205.466797 C180.760095,205.466797 181.423175,205.760739 181.90625,206.348633 L181.981445,205.603516 L183.478516,205.603516 L183.478516,212.774414 C183.478516,213.745122 183.176598,214.510739 182.572754,215.071289 C181.96891,215.631839 181.154302,215.912109 180.128906,215.912109 C179.586586,215.912109 179.056806,215.799318 178.539551,215.57373 C178.022296,215.348143 177.629233,215.053062 177.360352,214.688477 L178.146484,213.69043 C178.656904,214.296553 179.285804,214.599609 180.033203,214.599609 C180.584638,214.599609 181.019855,214.45036 181.338867,214.151855 C181.657879,213.853351 181.817383,213.414716 181.817383,212.835938 L181.817383,212.336914 C181.338865,212.87012 180.70085,213.136719 179.90332,213.136719 C179.037431,213.136719 178.329918,212.792647 177.780762,212.104492 C177.231605,211.416338 176.957031,210.463873 176.957031,209.24707 Z M178.611328,209.390625 C178.611328,210.133467 178.762857,210.717934 179.065918,211.144043 C179.368979,211.570152 179.789385,211.783203 180.327148,211.783203 C180.997074,211.783203 181.493813,211.496097 181.817383,210.921875 L181.817383,207.667969 C181.502928,207.107419 181.010746,206.827148 180.34082,206.827148 C179.793943,206.827148 179.368979,207.043618 179.065918,207.476562 C178.762857,207.909507 178.611328,208.547522 178.611328,209.390625 Z M201.983398,213 L200.260742,213 L200.260742,208.577148 L195.810547,208.577148 L195.810547,213 L194.081055,213 L194.081055,203.046875 L195.810547,203.046875 L195.810547,207.189453 L200.260742,207.189453 L200.260742,203.046875 L201.983398,203.046875 L201.983398,213 Z M208.128906,206.410156 C208.671227,205.781247 209.357092,205.466797 210.186523,205.466797 C211.763354,205.466797 212.563151,206.366853 212.585938,208.166992 L212.585938,213 L210.924805,213 L210.924805,208.228516 C210.924805,207.718096 210.814291,207.356935 210.593262,207.14502 C210.372232,206.933104 210.047528,206.827148 209.619141,206.827148 C208.953773,206.827148 208.457033,207.123369 208.128906,207.71582 L208.128906,213 L206.467773,213 L206.467773,202.5 L208.128906,202.5 L208.128906,206.410156 Z M224.986328,213 L223.263672,213 L223.263672,203.046875 L224.986328,203.046875 L224.986328,213 Z M231.34375,213 L229.682617,213 L229.682617,205.603516 L231.34375,205.603516 L231.34375,213 Z M229.580078,203.682617 C229.580078,203.427408 229.660969,203.215496 229.822754,203.046875 C229.984539,202.878254 230.215819,202.793945 230.516602,202.793945 C230.817384,202.793945 231.049804,202.878254 231.213867,203.046875 C231.377931,203.215496 231.459961,203.427408 231.459961,203.682617 C231.459961,203.933269 231.377931,204.141763 231.213867,204.308105 C231.049804,204.474447 230.817384,204.557617 230.516602,204.557617 C230.215819,204.557617 229.984539,204.474447 229.822754,204.308105 C229.660969,204.141763 229.580078,203.933269 229.580078,203.682617 Z M246.123047,203.046875 L247.845703,203.046875 L247.845703,210.026367 C247.845703,210.978846 247.548343,211.735349 246.953613,212.295898 C246.358884,212.856448 245.573898,213.136719 244.598633,213.136719 C243.559565,213.136719 242.75749,212.874677 242.192383,212.350586 C241.627276,211.826495 241.344727,211.097335 241.344727,210.163086 L243.067383,210.163086 C243.067383,210.691734 243.198404,211.089354 243.460449,211.355957 C243.722495,211.62256 244.101886,211.755859 244.598633,211.755859 C245.063479,211.755859 245.433755,211.602052 245.709473,211.294434 C245.98519,210.986815 246.123047,210.561852 246.123047,210.019531 L246.123047,203.046875 Z M254.018555,205.603516 L254.018555,213.65625 C254.018555,214.412764 253.830568,214.990395 253.45459,215.38916 C253.078611,215.787925 252.528324,215.987305 251.803711,215.987305 C251.498371,215.987305 251.204428,215.948568 250.921875,215.871094 L250.921875,214.558594 C251.095053,214.59961 251.291015,214.620117 251.509766,214.620117 C252.061201,214.620117 252.34375,214.319339 252.357422,213.717773 L252.357422,205.603516 L254.018555,205.603516 Z M252.213867,203.682617 C252.213867,203.427408 252.294758,203.215496 252.456543,203.046875 C252.618328,202.878254 252.849608,202.793945 253.150391,202.793945 C253.451173,202.793945 253.683593,202.878254 253.847656,203.046875 C254.01172,203.215496 254.09375,203.427408 254.09375,203.682617 C254.09375,203.933269 254.01172,204.141763 253.847656,204.308105 C253.683593,204.474447 253.451173,204.557617 253.150391,204.557617 C252.849608,204.557617 252.618328,204.474447 252.456543,204.308105 C252.294758,204.141763 252.213867,203.933269 252.213867,203.682617 Z M267.546875,208.700195 L266.418945,209.896484 L266.418945,213 L264.689453,213 L264.689453,203.046875 L266.418945,203.046875 L266.418945,207.71582 L267.375977,206.533203 L270.288086,203.046875 L272.379883,203.046875 L268.681641,207.456055 L272.591797,213 L270.541016,213 L267.546875,208.700195 Z M278.381836,209.828125 L277.643555,210.586914 L277.643555,213 L275.982422,213 L275.982422,202.5 L277.643555,202.5 L277.643555,208.556641 L278.163086,207.907227 L280.207031,205.603516 L282.203125,205.603516 L279.455078,208.686523 L282.49707,213 L280.576172,213 L278.381836,209.828125 Z M293.913086,211.619141 L298.431641,211.619141 L298.431641,213 L292.183594,213 L292.183594,203.046875 L293.913086,203.046875 L293.913086,211.619141 Z M303.989258,213 L302.328125,213 L302.328125,202.5 L303.989258,202.5 L303.989258,213 Z M316.936523,203.046875 L319.807617,210.675781 L322.671875,203.046875 L324.907227,203.046875 L324.907227,213 L323.18457,213 L323.18457,209.71875 L323.355469,205.330078 L320.416016,213 L319.178711,213 L316.246094,205.336914 L316.416992,209.71875 L316.416992,213 L314.694336,213 L314.694336,203.046875 L316.936523,203.046875 Z M330.977539,205.603516 L331.025391,206.375977 C331.544924,205.769854 332.255855,205.466797 333.158203,205.466797 C334.14714,205.466797 334.823891,205.845048 335.188477,206.601562 C335.72624,205.845048 336.482743,205.466797 337.458008,205.466797 C338.273767,205.466797 338.88102,205.692381 339.279785,206.143555 C339.67855,206.594729 339.882487,207.260087 339.891602,208.139648 L339.891602,213 L338.230469,213 L338.230469,208.1875 C338.230469,207.718097 338.127931,207.374025 337.922852,207.155273 C337.717772,206.936522 337.378258,206.827148 336.904297,206.827148 C336.52604,206.827148 336.217286,206.928547 335.978027,207.131348 C335.738768,207.334148 335.57129,207.599608 335.475586,207.927734 L335.482422,213 L333.821289,213 L333.821289,208.132812 C333.798502,207.262365 333.354171,206.827148 332.488281,206.827148 C331.822913,206.827148 331.351238,207.098305 331.073242,207.640625 L331.073242,213 L329.412109,213 L329.412109,205.603516 L330.977539,205.603516 Z M9.90722656,252 L8.17773438,252 L3.74121094,244.938477 L3.74121094,252 L2.01171875,252 L2.01171875,242.046875 L3.74121094,242.046875 L8.19140625,249.135742 L8.19140625,242.046875 L9.90722656,242.046875 L9.90722656,252 Z M15.9570312,244.603516 L16.0048828,245.458008 C16.5517605,244.797197 17.2695268,244.466797 18.1582031,244.466797 C19.6985754,244.466797 20.4824217,245.348624 20.5097656,247.112305 L20.5097656,252 L18.8486328,252 L18.8486328,247.208008 C18.8486328,246.738604 18.7472341,246.391114 18.5444336,246.165527 C18.3416331,245.93994 18.0100934,245.827148 17.5498047,245.827148 C16.8798795,245.827148 16.380861,246.130205 16.0527344,246.736328 L16.0527344,252 L14.3916016,252 L14.3916016,244.603516 L15.9570312,244.603516 Z M39.0419922,247.283203 C39.0419922,248.258468 38.8733741,249.114091 38.5361328,249.850098 C38.1988915,250.586104 37.7169628,251.151202 37.090332,251.54541 C36.4637013,251.939618 35.7425171,252.136719 34.9267578,252.136719 C34.1201132,252.136719 33.4012076,251.939618 32.7700195,251.54541 C32.1388315,251.151202 31.6512061,250.589522 31.3071289,249.860352 C30.9630517,249.131181 30.788737,248.290369 30.7841797,247.337891 L30.7841797,246.777344 C30.7841797,245.806636 30.9562157,244.949874 31.300293,244.207031 C31.6443702,243.464189 32.1297169,242.895673 32.7563477,242.501465 C33.3829784,242.107257 34.101884,241.910156 34.9130859,241.910156 C35.7242879,241.910156 36.4431935,242.104979 37.0698242,242.494629 C37.696455,242.884279 38.1806624,243.444821 38.5224609,244.17627 C38.8642595,244.907719 39.0374349,245.758784 39.0419922,246.729492 L39.0419922,247.283203 Z M37.3125,246.763672 C37.3125,245.660802 37.104006,244.815433 36.6870117,244.227539 C36.2700174,243.639645 35.6787148,243.345703 34.9130859,243.345703 C34.1656864,243.345703 33.5812196,243.638506 33.159668,244.224121 C32.7381164,244.809736 32.5227865,245.638015 32.5136719,246.708984 L32.5136719,247.283203 C32.5136719,248.376959 32.7267231,249.222328 33.152832,249.819336 C33.5789409,250.416344 34.1702436,250.714844 34.9267578,250.714844 C35.6923866,250.714844 36.2814107,250.42318 36.6938477,249.839844 C37.1062846,249.256507 37.3125,248.404302 37.3125,247.283203 L37.3125,246.763672 Z M42.9179688,248.233398 C42.9179688,247.508785 43.061522,246.85596 43.3486328,246.274902 C43.6357436,245.693845 44.0390599,245.247235 44.5585938,244.935059 C45.0781276,244.622883 45.6751268,244.466797 46.3496094,244.466797 C47.3476612,244.466797 48.1577117,244.788083 48.7797852,245.430664 C49.4018586,246.073245 49.7379555,246.92545 49.7880859,247.987305 L49.7949219,248.376953 C49.7949219,249.106123 49.6547866,249.75781 49.3745117,250.332031 C49.0942369,250.906253 48.6931992,251.350584 48.1713867,251.665039 C47.6495742,251.979494 47.0468784,252.136719 46.3632812,252.136719 C45.3196562,252.136719 44.4845409,251.789229 43.8579102,251.094238 C43.2312794,250.399248 42.9179688,249.472988 42.9179688,248.31543 L42.9179688,248.233398 Z M44.5791016,248.376953 C44.5791016,249.138025 44.7363266,249.733885 45.0507812,250.164551 C45.3652359,250.595217 45.8027316,250.810547 46.3632812,250.810547 C46.9238309,250.810547 47.3601872,250.591799 47.6723633,250.154297 C47.9845393,249.716795 48.140625,249.076502 48.140625,248.233398 C48.140625,247.485999 47.9799821,246.893557 47.6586914,246.456055 C47.3374007,246.018552 46.9010444,245.799805 46.3496094,245.799805 C45.807289,245.799805 45.3766292,246.015135 45.0576172,246.445801 C44.7386052,246.876467 44.5791016,247.520178 44.5791016,248.376953 Z M61.8261719,248.301758 L61.8261719,252 L60.0966797,252 L60.0966797,242.046875 L63.9042969,242.046875 C65.0162816,242.046875 65.899248,242.33626 66.5532227,242.915039 C67.2071973,243.493818 67.5341797,244.259435 67.5341797,245.211914 C67.5341797,246.187179 67.2140331,246.945961 66.5737305,247.488281 C65.9334278,248.030602 65.0367896,248.301758 63.8837891,248.301758 L61.8261719,248.301758 Z M61.8261719,246.914062 L63.9042969,246.914062 C64.5195343,246.914062 64.9889307,246.76937 65.3125,246.47998 C65.6360693,246.190591 65.7978516,245.772464 65.7978516,245.225586 C65.7978516,244.687823 65.6337907,244.258302 65.3056641,243.937012 C64.9775374,243.615721 64.5263701,243.450521 63.9521484,243.441406 L61.8261719,243.441406 L61.8261719,246.914062 Z M77.9863281,248.376953 C77.9863281,249.520839 77.7265651,250.433428 77.2070312,251.114746 C76.6874974,251.796065 75.9902388,252.136719 75.1152344,252.136719 C74.3040324,252.136719 73.6546248,251.87012 73.1669922,251.336914 L73.1669922,254.84375 L71.5058594,254.84375 L71.5058594,244.603516 L73.0371094,244.603516 L73.1054688,245.355469 C73.5931014,244.763018 74.2561807,244.466797 75.0947266,244.466797 C75.9970748,244.466797 76.7045873,244.802894 77.2172852,245.475098 C77.729983,246.147302 77.9863281,247.080398 77.9863281,248.274414 L77.9863281,248.376953 Z M76.3320312,248.233398 C76.3320312,247.495113 76.1850601,246.909507 75.8911133,246.476562 C75.5971665,246.043618 75.1767605,245.827148 74.6298828,245.827148 C73.950843,245.827148 73.4632176,246.107419 73.1669922,246.667969 L73.1669922,249.949219 C73.4677749,250.52344 73.9599575,250.810547 74.6435547,250.810547 C75.1722032,250.810547 75.5857732,250.597496 75.8842773,250.171387 C76.1827814,249.745278 76.3320312,249.099288 76.3320312,248.233398 Z M96.1972656,247.283203 C96.1972656,248.226567 96.0480158,249.043454 95.7495117,249.733887 C95.4510076,250.42432 95.0328803,250.972329 94.4951172,251.37793 L96.2041016,252.710938 L95.0830078,253.722656 L92.9638672,252.047852 C92.685871,252.107097 92.3873714,252.136719 92.0683594,252.136719 C91.266272,252.136719 90.5496451,251.939618 89.918457,251.54541 C89.287269,251.151202 88.7996436,250.589522 88.4555664,249.860352 C88.1114892,249.131181 87.9371745,248.290369 87.9326172,247.337891 L87.9326172,246.777344 C87.9326172,245.806636 88.1046532,244.949874 88.4487305,244.207031 C88.7928077,243.464189 89.2781544,242.895673 89.9047852,242.501465 C90.5314159,242.107257 91.2480428,241.910156 92.0546875,241.910156 C92.8750041,241.910156 93.5984669,242.104979 94.2250977,242.494629 C94.8517284,242.884279 95.3359358,243.444821 95.6777344,244.17627 C96.019533,244.907719 96.1927083,245.758784 96.1972656,246.729492 L96.1972656,247.283203 Z M94.4609375,246.763672 C94.4609375,245.642573 94.2513042,244.792646 93.8320312,244.213867 C93.4127583,243.635088 92.8203163,243.345703 92.0546875,243.345703 C91.3118452,243.345703 90.7296571,243.638506 90.3081055,244.224121 C89.8865539,244.809736 89.671224,245.635737 89.6621094,246.702148 L89.6621094,247.283203 C89.6621094,248.358729 89.872882,249.199541 90.2944336,249.805664 C90.7159852,250.411787 91.3072879,250.714844 92.0683594,250.714844 C92.8385455,250.714844 93.4298482,250.42318 93.8422852,249.839844 C94.2547221,249.256507 94.4609375,248.404302 94.4609375,247.283203 L94.4609375,246.763672 Z M100.107422,248.240234 C100.107422,247.082677 100.371742,246.164391 100.900391,245.485352 C101.429039,244.806312 102.144527,244.466797 103.046875,244.466797 C103.871749,244.466797 104.525714,244.756182 105.008789,245.334961 L105.104492,244.603516 L106.581055,244.603516 L106.581055,254.84375 L104.919922,254.84375 L104.919922,251.371094 C104.436847,251.881513 103.807947,252.136719 103.033203,252.136719 C102.149084,252.136719 101.440432,251.791507 100.907227,251.101074 C100.374021,250.410641 100.107422,249.457037 100.107422,248.240234 Z M101.768555,248.383789 C101.768555,249.140303 101.917804,249.733885 102.216309,250.164551 C102.514813,250.595217 102.928383,250.810547 103.457031,250.810547 C104.113285,250.810547 104.60091,250.530276 104.919922,249.969727 L104.919922,246.606445 C104.60091,246.068682 104.117842,245.799805 103.470703,245.799805 C102.942055,245.799805 102.526206,246.011717 102.223145,246.435547 C101.920083,246.859377 101.768555,247.508785 101.768555,248.383789 Z M120.922852,248.165039 L118.995117,248.165039 L118.995117,252 L117.265625,252 L117.265625,242.046875 L120.765625,242.046875 C121.914068,242.046875 122.800453,242.304359 123.424805,242.819336 C124.049157,243.334312 124.361328,244.079422 124.361328,245.054688 C124.361328,245.720055 124.200685,246.277179 123.879395,246.726074 C123.558104,247.17497 123.110354,247.520181 122.536133,247.761719 L124.771484,251.911133 L124.771484,252 L122.918945,252 L120.922852,248.165039 Z M118.995117,246.777344 L120.772461,246.777344 C121.355797,246.777344 121.811522,246.630373 122.139648,246.336426 C122.467775,246.042479 122.631836,245.640302 122.631836,245.129883 C122.631836,244.596677 122.480308,244.184246 122.177246,243.892578 C121.874185,243.60091 121.421878,243.450521 120.820312,243.441406 L118.995117,243.441406 L118.995117,246.777344 Z M132.338867,246.121094 C132.120116,246.084635 131.894532,246.066406 131.662109,246.066406 C130.901038,246.066406 130.388348,246.35807 130.124023,246.941406 L130.124023,252 L128.462891,252 L128.462891,244.603516 L130.048828,244.603516 L130.089844,245.430664 C130.490887,244.788083 131.046871,244.466797 131.757812,244.466797 C131.994793,244.466797 132.190754,244.498698 132.345703,244.5625 L132.338867,246.121094 Z M147.487305,249.436523 C147.487305,248.999021 147.333498,248.661785 147.025879,248.424805 C146.71826,248.187824 146.163415,247.948569 145.361328,247.707031 C144.559241,247.465494 143.921226,247.196616 143.447266,246.900391 C142.54036,246.330726 142.086914,245.587895 142.086914,244.671875 C142.086914,243.869788 142.413896,243.208987 143.067871,242.689453 C143.721846,242.169919 144.570633,241.910156 145.614258,241.910156 C146.30697,241.910156 146.924476,242.037759 147.466797,242.292969 C148.009117,242.548178 148.43522,242.911619 148.745117,243.383301 C149.055015,243.854983 149.209961,244.377927 149.209961,244.952148 L147.487305,244.952148 C147.487305,244.432615 147.324383,244.02588 146.998535,243.731934 C146.672687,243.437987 146.206709,243.291016 145.600586,243.291016 C145.035479,243.291016 144.596844,243.411783 144.284668,243.65332 C143.972492,243.894858 143.816406,244.232094 143.816406,244.665039 C143.816406,245.029624 143.985024,245.33382 144.322266,245.577637 C144.659507,245.821453 145.215491,246.05843 145.990234,246.288574 C146.764978,246.518719 147.387042,246.78076 147.856445,247.074707 C148.325849,247.368654 148.669921,247.70589 148.888672,248.086426 C149.107423,248.466962 149.216797,248.912432 149.216797,249.422852 C149.216797,250.252283 148.898929,250.911944 148.263184,251.401855 C147.627438,251.891767 146.764979,252.136719 145.675781,252.136719 C144.955726,252.136719 144.293786,252.003419 143.689941,251.736816 C143.086097,251.470214 142.616701,251.102216 142.281738,250.632812 C141.946776,250.163409 141.779297,249.61654 141.779297,248.992188 L143.508789,248.992188 C143.508789,249.557294 143.695636,249.99479 144.069336,250.304688 C144.443036,250.614585 144.978512,250.769531 145.675781,250.769531 C146.277347,250.769531 146.729653,250.647625 147.032715,250.403809 C147.335776,250.159992 147.487305,249.837567 147.487305,249.436523 Z M157.344727,249.990234 C157.344727,249.694009 157.22282,249.468425 156.979004,249.313477 C156.735188,249.158528 156.330732,249.02181 155.765625,248.90332 C155.200518,248.78483 154.728843,248.634441 154.350586,248.452148 C153.521155,248.051105 153.106445,247.470056 153.106445,246.708984 C153.106445,246.07096 153.375323,245.537763 153.913086,245.109375 C154.450849,244.680987 155.134436,244.466797 155.963867,244.466797 C156.847986,244.466797 157.562335,244.685545 158.106934,245.123047 C158.651533,245.560549 158.923828,246.127926 158.923828,246.825195 L157.262695,246.825195 C157.262695,246.506183 157.144207,246.240724 156.907227,246.028809 C156.670246,245.816893 156.355796,245.710938 155.963867,245.710938 C155.599282,245.710938 155.301922,245.795247 155.071777,245.963867 C154.841633,246.132488 154.726562,246.358072 154.726562,246.640625 C154.726562,246.895835 154.833658,247.094075 155.047852,247.235352 C155.262045,247.376628 155.694984,247.519042 156.34668,247.662598 C156.998376,247.806153 157.509927,247.97705 157.881348,248.175293 C158.252769,248.373536 158.528482,248.611652 158.708496,248.889648 C158.88851,249.167645 158.978516,249.504881 158.978516,249.901367 C158.978516,250.566735 158.702802,251.105629 158.151367,251.518066 C157.599932,251.930503 156.877609,252.136719 155.984375,252.136719 C155.378252,252.136719 154.838219,252.027345 154.364258,251.808594 C153.890297,251.589843 153.52116,251.289064 153.256836,250.90625 C152.992512,250.523436 152.860352,250.111005 152.860352,249.668945 L154.473633,249.668945 C154.496419,250.060874 154.64453,250.362792 154.917969,250.574707 C155.191408,250.786622 155.553709,250.892578 156.004883,250.892578 C156.442385,250.892578 156.775064,250.809408 157.00293,250.643066 C157.230795,250.476724 157.344727,250.259116 157.344727,249.990234 Z M176.102539,243.441406 L172.999023,243.441406 L172.999023,252 L171.283203,252 L171.283203,243.441406 L168.207031,243.441406 L168.207031,242.046875 L176.102539,242.046875 L176.102539,243.441406 Z M181.954102,242.805664 L181.954102,244.603516 L183.259766,244.603516 L183.259766,245.833984 L181.954102,245.833984 L181.954102,249.962891 C181.954102,250.245444 182.009928,250.449381 182.121582,250.574707 C182.233236,250.700033 182.432616,250.762695 182.719727,250.762695 C182.911134,250.762695 183.104817,250.739909 183.300781,250.694336 L183.300781,251.979492 C182.922524,252.08431 182.557944,252.136719 182.207031,252.136719 C180.930983,252.136719 180.292969,251.432624 180.292969,250.024414 L180.292969,245.833984 L179.076172,245.833984 L179.076172,244.603516 L180.292969,244.603516 L180.292969,242.805664 L181.954102,242.805664 Z M200.705078,242.046875 L200.705078,248.698242 C200.705078,249.755539 200.366703,250.592933 199.689941,251.210449 C199.01318,251.827965 198.111985,252.136719 196.986328,252.136719 C195.847,252.136719 194.942386,251.832523 194.272461,251.224121 C193.602536,250.61572 193.267578,249.77149 193.267578,248.691406 L193.267578,242.046875 L194.990234,242.046875 L194.990234,248.705078 C194.990234,249.370446 195.158852,249.878579 195.496094,250.229492 C195.833335,250.580405 196.330075,250.755859 196.986328,250.755859 C198.317064,250.755859 198.982422,250.054043 198.982422,248.650391 L198.982422,242.046875 L200.705078,242.046875 Z M209.496094,251.275391 C209.008461,251.849612 208.31576,252.136719 207.417969,252.136719 C206.615881,252.136719 206.008628,251.902021 205.596191,251.432617 C205.183754,250.963214 204.977539,250.284184 204.977539,249.395508 L204.977539,244.603516 L206.638672,244.603516 L206.638672,249.375 C206.638672,250.313807 207.028316,250.783203 207.807617,250.783203 C208.614262,250.783203 209.158853,250.493818 209.441406,249.915039 L209.441406,244.603516 L211.102539,244.603516 L211.102539,252 L209.537109,252 L209.496094,251.275391 Z M225.198242,249.833008 L227.727539,242.046875 L229.62793,242.046875 L226.045898,252 L224.371094,252 L220.802734,242.046875 L222.696289,242.046875 L225.198242,249.833008 Z M235.746094,249.894531 L237.311523,244.603516 L239.027344,244.603516 L236.463867,252 L235.021484,252 L232.4375,244.603516 L234.160156,244.603516 L235.746094,249.894531 Z M256.766602,249.539062 L258.297852,242.046875 L260.013672,242.046875 L257.716797,252 L256.0625,252 L254.168945,244.733398 L252.234375,252 L250.573242,252 L248.276367,242.046875 L249.992188,242.046875 L251.537109,249.525391 L253.4375,242.046875 L254.886719,242.046875 L256.766602,249.539062 Z M270.240234,249.709961 L271.416016,244.603516 L273.036133,244.603516 L271.019531,252 L269.652344,252 L268.066406,246.920898 L266.507812,252 L265.140625,252 L263.117188,244.603516 L264.737305,244.603516 L265.933594,249.655273 L267.451172,244.603516 L268.702148,244.603516 L270.240234,249.709961 Z M286.46875,245.642578 L288.560547,242.046875 L290.556641,242.046875 L287.548828,246.982422 L290.625,252 L288.608398,252 L286.46875,248.349609 L284.322266,252 L282.3125,252 L285.395508,246.982422 L282.380859,242.046875 L284.376953,242.046875 L286.46875,245.642578 Z M297.023438,247.037109 L298.431641,244.603516 L300.277344,244.603516 L298.014648,248.24707 L300.352539,252 L298.520508,252 L297.043945,249.470703 L295.574219,252 L293.728516,252 L296.066406,248.24707 L293.810547,244.603516 L295.642578,244.603516 L297.023438,247.037109 Z M313.552734,246.763672 L315.842773,242.046875 L317.756836,242.046875 L314.420898,248.335938 L314.420898,252 L312.68457,252 L312.68457,248.335938 L309.341797,242.046875 L311.262695,242.046875 L313.552734,246.763672 Z M323.751953,249.621094 L325.255859,244.603516 L327.026367,244.603516 L324.086914,253.121094 C323.63574,254.365241 322.870123,254.987305 321.790039,254.987305 C321.548501,254.987305 321.281903,254.946289 320.990234,254.864258 L320.990234,253.579102 L321.304688,253.599609 C321.72396,253.599609 322.03955,253.523276 322.251465,253.370605 C322.46338,253.217935 322.630859,252.96159 322.753906,252.601562 L322.993164,251.96582 L320.395508,244.603516 L322.186523,244.603516 L323.751953,249.621094 Z M338.503906,250.619141 L343.822266,250.619141 L343.822266,252 L336.412109,252 L336.412109,250.878906 L341.55957,243.441406 L336.446289,243.441406 L336.446289,242.046875 L343.658203,242.046875 L343.658203,243.140625 L338.503906,250.619141 Z M349.543945,250.673828 L353.481445,250.673828 L353.481445,252 L347.479492,252 L347.479492,250.913086 L351.232422,245.943359 L347.547852,245.943359 L347.547852,244.603516 L353.337891,244.603516 L353.337891,245.65625 L349.543945,250.673828 Z M8.23242188,286.80957 C8.23242188,288.240567 7.96468367,289.319495 7.42919922,290.046387 C6.89371477,290.773278 6.07910703,291.136719 4.98535156,291.136719 C3.90982535,291.136719 3.09977486,290.782393 2.55517578,290.07373 C2.0105767,289.365068 1.73144538,288.315762 1.71777344,286.925781 L1.71777344,285.203125 C1.71777344,283.772128 1.98551165,282.698897 2.52099609,281.983398 C3.05648054,281.2679 3.8733669,280.910156 4.97167969,280.910156 C6.06087784,280.910156 6.87320696,281.258786 7.40869141,281.956055 C7.94417585,282.653324 8.21874993,283.696933 8.23242188,285.086914 L8.23242188,286.80957 Z M6.57128906,284.950195 C6.57128906,284.015946 6.44368617,283.33122 6.18847656,282.895996 C5.93326695,282.460773 5.52767205,282.243164 4.97167969,282.243164 C4.42935927,282.243164 4.03060023,282.449379 3.77539062,282.861816 C3.52018102,283.274253 3.38574226,283.917964 3.37207031,284.792969 L3.37207031,287.048828 C3.37207031,287.97852 3.50195183,288.671222 3.76171875,289.126953 C4.02148567,289.582685 4.4293592,289.810547 4.98535156,289.810547 C5.51855735,289.810547 5.91275914,289.599774 6.16796875,289.178223 C6.42317836,288.756671 6.55761712,288.09701 6.57128906,287.199219 L6.57128906,284.950195 Z M22.9365234,291 L21.2822266,291 L21.2822266,283.008789 L18.8417969,283.842773 L18.8417969,282.441406 L22.7246094,281.012695 L22.9365234,281.012695 L22.9365234,291 Z M41.8242188,291 L35.1318359,291 L35.1318359,289.858398 L38.4472656,286.242188 C38.9257836,285.708982 39.2664378,285.263511 39.4692383,284.905762 C39.6720388,284.548013 39.7734375,284.189129 39.7734375,283.829102 C39.7734375,283.355141 39.6401381,282.972332 39.3735352,282.680664 C39.1069323,282.388996 38.7480491,282.243164 38.296875,282.243164 C37.7591119,282.243164 37.3421239,282.407225 37.0458984,282.735352 C36.749673,283.063478 36.6015625,283.512367 36.6015625,284.082031 L34.9404297,284.082031 C34.9404297,283.475908 35.0782864,282.930178 35.3540039,282.444824 C35.6297214,281.95947 36.0239232,281.582358 36.5366211,281.313477 C37.049319,281.044595 37.6406217,280.910156 38.3105469,280.910156 C39.2766975,280.910156 40.0388969,281.15283 40.597168,281.638184 C41.155439,282.123538 41.4345703,282.794592 41.4345703,283.651367 C41.4345703,284.148114 41.294435,284.66878 41.0141602,285.213379 C40.7338853,285.757978 40.2747428,286.376624 39.6367188,287.069336 L37.203125,289.673828 L41.8242188,289.673828 L41.8242188,291 Z M53.7460938,285.264648 L54.7578125,285.264648 C55.2682317,285.260091 55.6726873,285.127931 55.9711914,284.868164 C56.2696955,284.608397 56.4189453,284.232424 56.4189453,283.740234 C56.4189453,283.266274 56.2947604,282.898276 56.0463867,282.63623 C55.7980131,282.374185 55.4186223,282.243164 54.9082031,282.243164 C54.4615863,282.243164 54.094728,282.371906 53.8076172,282.629395 C53.5205064,282.886883 53.3769531,283.22298 53.3769531,283.637695 L51.7158203,283.637695 C51.7158203,283.127276 51.8513984,282.662437 52.1225586,282.243164 C52.3937188,281.823891 52.7719702,281.496909 53.2573242,281.262207 C53.7426782,281.027505 54.2861298,280.910156 54.8876953,280.910156 C55.8811899,280.910156 56.6616183,281.159665 57.2290039,281.658691 C57.7963896,282.157717 58.0800781,282.851558 58.0800781,283.740234 C58.0800781,284.186851 57.9376642,284.607257 57.652832,285.001465 C57.3679999,285.395673 57.0000023,285.693033 56.5488281,285.893555 C57.0957059,286.080405 57.5115546,286.374347 57.7963867,286.775391 C58.0812189,287.176434 58.2236328,287.654945 58.2236328,288.210938 C58.2236328,289.104171 57.917158,289.815102 57.3041992,290.34375 C56.6912404,290.872398 55.8857472,291.136719 54.8876953,291.136719 C53.9306593,291.136719 53.1468129,290.881513 52.5361328,290.371094 C51.9254527,289.860675 51.6201172,289.181645 51.6201172,288.333984 L53.28125,288.333984 C53.28125,288.771487 53.4282212,289.126952 53.722168,289.400391 C54.0161148,289.673829 54.4114558,289.810547 54.9082031,289.810547 C55.4231797,289.810547 55.8287746,289.673829 56.125,289.400391 C56.4212254,289.126952 56.5693359,288.730471 56.5693359,288.210938 C56.5693359,287.686846 56.4143896,287.28353 56.1044922,287.000977 C55.7945948,286.718423 55.3343129,286.577148 54.7236328,286.577148 L53.7460938,286.577148 L53.7460938,285.264648 Z M74.1376953,287.452148 L75.375,287.452148 L75.375,288.785156 L74.1376953,288.785156 L74.1376953,291 L72.4765625,291 L72.4765625,288.785156 L68.1767578,288.785156 L68.1289062,287.773438 L72.421875,281.046875 L74.1376953,281.046875 L74.1376953,287.452148 Z M69.8720703,287.452148 L72.4765625,287.452148 L72.4765625,283.295898 L72.3535156,283.514648 L69.8720703,287.452148 Z M85.65625,286.064453 L86.1962891,281.046875 L91.5419922,281.046875 L91.5419922,282.482422 L87.5771484,282.482422 L87.3037109,284.861328 C87.7639997,284.597004 88.2835258,284.464844 88.8623047,284.464844 C89.8102261,284.464844 90.5473606,284.767901 91.0737305,285.374023 C91.6001003,285.980146 91.8632812,286.795893 91.8632812,287.821289 C91.8632812,288.833013 91.5716175,289.638506 90.9882812,290.237793 C90.404945,290.83708 89.6051483,291.136719 88.5888672,291.136719 C87.6774043,291.136719 86.9220408,290.878095 86.3227539,290.36084 C85.7234671,289.843585 85.3987633,289.161137 85.3486328,288.313477 L86.9550781,288.313477 C87.0188805,288.796552 87.1920559,289.166828 87.4746094,289.424316 C87.7571629,289.681805 88.1262998,289.810547 88.5820312,289.810547 C89.0924505,289.810547 89.4900702,289.628257 89.7749023,289.263672 C90.0597345,288.899087 90.2021484,288.402347 90.2021484,287.773438 C90.2021484,287.167315 90.0449234,286.687665 89.7304688,286.334473 C89.4160141,285.981281 88.9830757,285.804688 88.4316406,285.804688 C88.1308579,285.804688 87.8756521,285.844563 87.6660156,285.924316 C87.4563792,286.004069 87.2285169,286.160155 86.9824219,286.392578 L85.65625,286.064453 Z M107.073242,280.999023 L107.073242,282.373047 L106.868164,282.373047 C105.938472,282.386719 105.195641,282.641925 104.639648,283.138672 C104.083656,283.635419 103.753256,284.339514 103.648438,285.250977 C104.181643,284.690427 104.862952,284.410156 105.692383,284.410156 C106.571945,284.410156 107.265785,284.720049 107.773926,285.339844 C108.282066,285.959639 108.536133,286.759435 108.536133,287.739258 C108.536133,288.750982 108.238773,289.570147 107.644043,290.196777 C107.049313,290.823408 106.268885,291.136719 105.302734,291.136719 C104.30924,291.136719 103.503747,290.76986 102.88623,290.036133 C102.268714,289.302405 101.959961,288.340826 101.959961,287.151367 L101.959961,286.583984 C101.959961,284.838533 102.384924,283.471359 103.234863,282.482422 C104.084802,281.493485 105.307284,280.999023 106.902344,280.999023 L107.073242,280.999023 Z M105.289062,285.75 C104.924477,285.75 104.590659,285.852538 104.287598,286.057617 C103.984536,286.262696 103.76237,286.536131 103.621094,286.87793 L103.621094,287.383789 C103.621094,288.122074 103.77604,288.708819 104.085938,289.144043 C104.395835,289.579266 104.796873,289.796875 105.289062,289.796875 C105.781252,289.796875 106.170897,289.612307 106.458008,289.243164 C106.745119,288.874022 106.888672,288.388675 106.888672,287.787109 C106.888672,287.185544 106.74284,286.69564 106.451172,286.317383 C106.159504,285.939126 105.772138,285.75 105.289062,285.75 Z M125.222656,281.969727 L121.244141,291 L119.500977,291 L123.472656,282.379883 L118.325195,282.379883 L118.325195,281.046875 L125.222656,281.046875 L125.222656,281.969727 Z M141.560547,283.671875 C141.560547,284.159508 141.435223,284.593585 141.18457,284.974121 C140.933918,285.354657 140.592125,285.654296 140.15918,285.873047 C140.678714,286.114585 141.078612,286.444985 141.358887,286.864258 C141.639162,287.283531 141.779297,287.757484 141.779297,288.286133 C141.779297,289.161137 141.483076,289.854978 140.890625,290.367676 C140.298174,290.880374 139.509771,291.136719 138.525391,291.136719 C137.536453,291.136719 136.744632,290.879234 136.149902,290.364258 C135.555173,289.849281 135.257812,289.15658 135.257812,288.286133 C135.257812,287.752927 135.399087,287.274416 135.681641,286.850586 C135.964194,286.426756 136.360675,286.100913 136.871094,285.873047 C136.442706,285.654296 136.104331,285.354657 135.855957,284.974121 C135.607583,284.593585 135.483398,284.159508 135.483398,283.671875 C135.483398,282.824215 135.756833,282.152021 136.303711,281.655273 C136.850589,281.158526 137.588863,280.910156 138.518555,280.910156 C139.452804,280.910156 140.193357,281.158526 140.740234,281.655273 C141.287112,282.152021 141.560547,282.824215 141.560547,283.671875 Z M140.118164,288.204102 C140.118164,287.711912 139.971193,287.314292 139.677246,287.01123 C139.383299,286.708169 138.994794,286.556641 138.511719,286.556641 C138.028643,286.556641 137.642417,286.70703 137.353027,287.007812 C137.063638,287.308595 136.918945,287.707354 136.918945,288.204102 C136.918945,288.691734 137.061359,289.081379 137.346191,289.373047 C137.631024,289.664715 138.024086,289.810547 138.525391,289.810547 C139.026695,289.810547 139.417479,289.669272 139.697754,289.386719 C139.978029,289.104165 140.118164,288.709963 140.118164,288.204102 Z M139.90625,283.733398 C139.90625,283.300454 139.780926,282.943849 139.530273,282.663574 C139.279621,282.383299 138.942385,282.243164 138.518555,282.243164 C138.094724,282.243164 137.759767,282.376464 137.513672,282.643066 C137.267577,282.909669 137.144531,283.27311 137.144531,283.733398 C137.144531,284.18913 137.268716,284.551431 137.51709,284.820312 C137.765463,285.089194 138.10156,285.223633 138.525391,285.223633 C138.949221,285.223633 139.285318,285.089194 139.533691,284.820312 C139.782065,284.551431 139.90625,284.18913 139.90625,283.733398 Z M156.695312,286.836914 C156.13932,287.424808 155.489913,287.71875 154.74707,287.71875 C153.872066,287.71875 153.174807,287.412275 152.655273,286.799316 C152.13574,286.186358 151.875977,285.380864 151.875977,284.382812 C151.875977,283.726559 152.008137,283.131839 152.272461,282.598633 C152.536785,282.065427 152.912758,281.650718 153.400391,281.354492 C153.888023,281.058267 154.453122,280.910156 155.095703,280.910156 C156.098312,280.910156 156.893552,281.28385 157.481445,282.03125 C158.069339,282.77865 158.363281,283.778965 158.363281,285.032227 L158.363281,285.49707 C158.363281,287.292652 157.957686,288.662105 157.146484,289.605469 C156.335282,290.548833 155.125334,291.027344 153.516602,291.041016 L153.318359,291.041016 L153.318359,289.666992 L153.557617,289.666992 C154.53744,289.65332 155.289385,289.417483 155.813477,288.959473 C156.337568,288.501463 156.63151,287.79395 156.695312,286.836914 Z M155.095703,286.419922 C155.428387,286.419922 155.740558,286.32422 156.032227,286.132812 C156.323895,285.941405 156.549478,285.677085 156.708984,285.339844 L156.708984,284.69043 C156.708984,283.956702 156.558595,283.366539 156.257812,282.919922 C155.95703,282.473305 155.567385,282.25 155.088867,282.25 C154.610349,282.25 154.22868,282.447101 153.943848,282.841309 C153.659016,283.235516 153.516602,283.733395 153.516602,284.334961 C153.516602,284.959313 153.660155,285.462889 153.947266,285.845703 C154.234376,286.228518 154.617185,286.419922 155.095703,286.419922 Z" id="Aa-Bb-Cc-Dd-Ee-Ff-Gg"></path>
                </g>
            </g>
        </g>
    </g>
</svg>