<?xml version="1.0" encoding="UTF-8"?>
<svg width="354px" height="276px" viewBox="0 0 354 276" version="1.1" xmlns="http://www.w3.org/2000/svg" xmlns:xlink="http://www.w3.org/1999/xlink">
    <!-- Generator: Sketch 52.6 (67491) - http://www.bohemiancoding.com/sketch -->
    <title>Group 2</title>
    <desc>Created with Sketch.</desc>
    <g id="Projets" stroke="none" stroke-width="1" fill="none" fill-rule="evenodd">
        <g id="TOKKUN" transform="translate(-622.000000, -2597.000000)" fill="#171717">
            <g id="TYPOGRAPHY" transform="translate(152.000000, 2403.000000)">
                <g id="Group-2" transform="translate(470.000000, 194.000000)">
                    <path d="M128.8,134 L109.8,134 L98,104.2 L31.6,104.2 L19.8,134 L0.8,134 L54.6,0.6 L75.2,0.6 L128.8,134 Z M93.2,89.6 L64.8,17.6 L36.6,89.6 L93.2,89.6 Z M160.386667,107.8 C165.586667,116.2 177.386667,123 189.386667,123 C208.786667,123 220.386667,107.2 220.386667,85.8 C220.386667,64.4 208.786667,48.4 189.386667,48.4 C177.386667,48.4 165.586667,55.6 160.386667,64 L160.386667,107.8 Z M160.386667,134 L145.386667,134 L145.386667,0.6 L160.386667,0.6 L160.386667,52 C168.186667,41.4 179.986667,35 192.986667,35 C218.386667,35 235.986667,54.8 235.986667,85.8 C235.986667,117.2 218.186667,136.4 192.986667,136.4 C179.386667,136.4 167.586667,129.4 160.386667,119.6 L160.386667,134 Z M302.773333,136.4 C273.973333,136.4 254.573333,114.2 254.573333,85.6 C254.573333,57 273.973333,35 302.773333,35 C320.373333,35 330.773333,42.2 338.173333,51.8 L328.173333,60.8 C321.773333,52 313.573333,48.4 303.573333,48.4 C283.173333,48.4 270.173333,64.2 270.173333,85.6 C270.173333,107 283.173333,123 303.573333,123 C313.573333,123 321.773333,119 328.173333,110.4 L338.173333,119.6 C330.773333,129.2 320.373333,136.4 302.773333,136.4 Z" id="Abc"></path>
                    <path d="M10.086,197 L8.756,197 L7.93,194.914 L3.282,194.914 L2.456,197 L1.126,197 L4.892,187.662 L6.334,187.662 L10.086,197 Z M7.594,193.892 L5.606,188.852 L3.632,193.892 L7.594,193.892 Z M19.165,197 L18.115,197 L18.115,196.23 C17.569,196.846 16.785,197.168 15.875,197.168 C14.741,197.168 13.523,196.398 13.523,194.928 C13.523,193.402 14.727,192.702 15.875,192.702 C16.799,192.702 17.569,192.996 18.115,193.612 L18.115,192.394 C18.115,191.498 17.387,190.98 16.407,190.98 C15.595,190.98 14.937,191.26 14.335,191.918 L13.845,191.19 C14.573,190.434 15.441,190.07 16.547,190.07 C17.989,190.07 19.165,190.714 19.165,192.352 L19.165,197 Z M16.267,196.412 C16.995,196.412 17.709,196.132 18.115,195.572 L18.115,194.284 C17.709,193.738 16.995,193.458 16.267,193.458 C15.273,193.458 14.587,194.074 14.587,194.928 C14.587,195.796 15.273,196.412 16.267,196.412 Z M34.453,197 L30.197,197 L30.197,187.662 L34.355,187.662 C35.979,187.662 36.973,188.642 36.973,190.042 C36.973,191.218 36.189,192.002 35.335,192.184 C36.329,192.338 37.155,193.36 37.155,194.48 C37.155,195.978 36.161,197 34.453,197 Z M34.159,191.708 C35.209,191.708 35.769,191.064 35.769,190.21 C35.769,189.37 35.209,188.698 34.159,188.698 L31.359,188.698 L31.359,191.708 L34.159,191.708 Z M34.229,195.964 C35.307,195.964 35.951,195.348 35.951,194.354 C35.951,193.5 35.363,192.744 34.229,192.744 L31.359,192.744 L31.359,195.964 L34.229,195.964 Z M42.636,195.166 C43,195.754 43.826,196.23 44.666,196.23 C46.024,196.23 46.836,195.124 46.836,193.626 C46.836,192.128 46.024,191.008 44.666,191.008 C43.826,191.008 43,191.512 42.636,192.1 L42.636,195.166 Z M42.636,197 L41.586,197 L41.586,187.662 L42.636,187.662 L42.636,191.26 C43.182,190.518 44.008,190.07 44.918,190.07 C46.696,190.07 47.928,191.456 47.928,193.626 C47.928,195.824 46.682,197.168 44.918,197.168 C43.966,197.168 43.14,196.678 42.636,195.992 L42.636,197 Z M62.978,197.168 C60.29,197.168 58.176,195.208 58.176,192.338 C58.176,189.468 60.29,187.508 62.978,187.508 C64.63,187.508 65.778,188.292 66.52,189.356 L65.554,189.902 C65.022,189.104 64.042,188.544 62.978,188.544 C60.934,188.544 59.38,190.098 59.38,192.338 C59.38,194.55 60.934,196.132 62.978,196.132 C64.042,196.132 65.022,195.558 65.554,194.774 L66.534,195.306 C65.75,196.384 64.63,197.168 62.978,197.168 Z M73.583,197.168 C71.567,197.168 70.209,195.614 70.209,193.612 C70.209,191.61 71.567,190.07 73.583,190.07 C74.815,190.07 75.543,190.574 76.061,191.246 L75.361,191.876 C74.913,191.26 74.339,191.008 73.639,191.008 C72.211,191.008 71.301,192.114 71.301,193.612 C71.301,195.11 72.211,196.23 73.639,196.23 C74.339,196.23 74.913,195.95 75.361,195.348 L76.061,195.992 C75.543,196.664 74.815,197.168 73.583,197.168 Z M89.655,197 L86.463,197 L86.463,187.662 L89.655,187.662 C92.567,187.662 94.443,189.692 94.443,192.338 C94.443,194.998 92.567,197 89.655,197 Z M89.655,195.964 C91.923,195.964 93.239,194.34 93.239,192.338 C93.239,190.322 91.965,188.698 89.655,188.698 L87.625,188.698 L87.625,195.964 L89.655,195.964 Z M104.796,197 L103.746,197 L103.746,195.992 C103.242,196.678 102.416,197.168 101.464,197.168 C99.7,197.168 98.454,195.824 98.454,193.626 C98.454,191.456 99.7,190.07 101.464,190.07 C102.374,190.07 103.2,190.518 103.746,191.26 L103.746,187.662 L104.796,187.662 L104.796,197 Z M101.73,196.23 C102.556,196.23 103.382,195.74 103.746,195.152 L103.746,192.1 C103.382,191.512 102.556,191.008 101.73,191.008 C100.358,191.008 99.546,192.128 99.546,193.626 C99.546,195.124 100.358,196.23 101.73,196.23 Z M121.932,197 L115.814,197 L115.814,187.662 L121.932,187.662 L121.932,188.698 L116.976,188.698 L116.976,191.708 L121.834,191.708 L121.834,192.744 L116.976,192.744 L116.976,195.964 L121.932,195.964 L121.932,197 Z M129.429,197.168 C127.413,197.168 125.971,195.726 125.971,193.612 C125.971,191.652 127.371,190.07 129.303,190.07 C131.347,190.07 132.551,191.666 132.551,193.696 L132.551,193.962 L127.091,193.962 C127.175,195.236 128.057,196.3 129.513,196.3 C130.297,196.3 131.067,195.992 131.613,195.432 L132.117,196.118 C131.431,196.79 130.521,197.168 129.429,197.168 Z M131.515,193.178 C131.501,192.184 130.829,190.938 129.289,190.938 C127.847,190.938 127.133,192.156 127.077,193.178 L131.515,193.178 Z M144.325,197 L143.163,197 L143.163,187.662 L149.281,187.662 L149.281,188.698 L144.325,188.698 L144.325,191.708 L149.183,191.708 L149.183,192.744 L144.325,192.744 L144.325,197 Z M154.804,197 L153.754,197 L153.754,191.162 L152.634,191.162 L152.634,190.238 L153.754,190.238 L153.754,189.72 C153.754,188.334 154.524,187.522 155.714,187.522 C156.26,187.522 156.722,187.648 157.142,188.04 L156.708,188.712 C156.484,188.516 156.218,188.39 155.882,188.39 C155.182,188.39 154.804,188.852 154.804,189.72 L154.804,190.238 L156.176,190.238 L156.176,191.162 L154.804,191.162 L154.804,197 Z M170.778,197.182 C168.118,197.182 165.976,195.236 165.976,192.338 C165.976,189.426 168.118,187.508 170.778,187.508 C172.444,187.508 173.592,188.236 174.404,189.244 L173.48,189.832 C172.892,189.076 171.898,188.544 170.778,188.544 C168.734,188.544 167.18,190.098 167.18,192.338 C167.18,194.55 168.734,196.132 170.778,196.132 C171.898,196.132 172.822,195.6 173.298,195.124 L173.298,193.234 L170.078,193.234 L170.078,192.198 L174.446,192.198 L174.446,195.558 C173.578,196.538 172.304,197.182 170.778,197.182 Z M181.635,199.744 C180.501,199.744 179.717,199.52 178.905,198.722 L179.437,197.966 C179.997,198.624 180.669,198.876 181.635,198.876 C182.755,198.876 183.819,198.33 183.819,196.902 L183.819,195.88 C183.315,196.566 182.489,197.084 181.537,197.084 C179.773,197.084 178.527,195.768 178.527,193.584 C178.527,191.414 179.759,190.07 181.537,190.07 C182.447,190.07 183.273,190.518 183.819,191.26 L183.819,190.238 L184.869,190.238 L184.869,196.902 C184.869,199.044 183.287,199.744 181.635,199.744 Z M181.803,196.146 C182.629,196.146 183.441,195.642 183.819,195.054 L183.819,192.086 C183.441,191.512 182.629,191.008 181.803,191.008 C180.431,191.008 179.619,192.086 179.619,193.584 C179.619,195.068 180.431,196.146 181.803,196.146 Z M203.671,197 L202.509,197 L202.509,192.716 L197.049,192.716 L197.049,197 L195.887,197 L195.887,187.662 L197.049,187.662 L197.049,191.68 L202.509,191.68 L202.509,187.662 L203.671,187.662 L203.671,197 Z M214.066,197 L213.016,197 L213.016,192.548 C213.016,191.344 212.414,191.008 211.49,191.008 C210.678,191.008 209.894,191.512 209.502,192.058 L209.502,197 L208.452,197 L208.452,187.662 L209.502,187.662 L209.502,191.218 C209.964,190.644 210.888,190.07 211.91,190.07 C213.324,190.07 214.066,190.756 214.066,192.226 L214.066,197 Z M226.246,197 L225.084,197 L225.084,187.662 L226.246,187.662 L226.246,197 Z M231.545,189.272 C231.153,189.272 230.831,188.964 230.831,188.572 C230.831,188.18 231.153,187.858 231.545,187.858 C231.937,187.858 232.245,188.18 232.245,188.572 C232.245,188.964 231.937,189.272 231.545,189.272 Z M232.063,197 L231.013,197 L231.013,190.238 L232.063,190.238 L232.063,197 Z M244.579,197.168 C243.599,197.168 242.787,196.846 242.143,196.09 L242.759,195.208 C243.151,195.698 243.697,196.132 244.509,196.132 C245.657,196.132 246.385,195.334 246.385,194.172 L246.385,187.662 L247.547,187.662 L247.547,194.186 C247.547,196.202 246.245,197.168 244.579,197.168 Z M252.846,189.272 C252.454,189.272 252.132,188.964 252.132,188.572 C252.132,188.18 252.454,187.858 252.846,187.858 C253.238,187.858 253.546,188.18 253.546,188.572 C253.546,188.964 253.238,189.272 252.846,189.272 Z M251.362,199.744 C250.676,199.744 250.312,199.576 249.892,199.24 L250.256,198.456 C250.494,198.694 250.802,198.876 251.222,198.876 C251.852,198.876 252.314,198.512 252.314,197.658 L252.314,190.238 L253.364,190.238 L253.364,197.658 C253.364,198.988 252.664,199.744 251.362,199.744 Z M271.48,197 L270.024,197 L266.482,192.8 L265.544,193.864 L265.544,197 L264.382,197 L264.382,187.662 L265.544,187.662 L265.544,192.478 L269.674,187.662 L271.13,187.662 L267.238,192.086 L271.48,197 Z M281.329,197 L279.985,197 L277.563,193.962 L276.429,195.068 L276.429,197 L275.379,197 L275.379,187.662 L276.429,187.662 L276.429,193.836 L279.985,190.238 L281.315,190.238 L278.319,193.304 L281.329,197 Z M296.841,197 L291.339,197 L291.339,187.662 L292.501,187.662 L292.501,195.964 L296.841,195.964 L296.841,197 Z M302.028,197 L300.978,197 L300.978,187.662 L302.028,187.662 L302.028,197 Z M322.188,197 L321.026,197 L321.026,189.146 L317.862,197 L317.386,197 L314.208,189.146 L314.208,197 L313.046,197 L313.046,187.662 L314.712,187.662 L317.624,194.858 L320.522,187.662 L322.188,187.662 L322.188,197 Z M336.167,197 L335.117,197 L335.117,192.408 C335.117,191.554 334.753,191.008 333.871,191.008 C333.171,191.008 332.429,191.498 332.079,192.044 L332.079,197 L331.029,197 L331.029,192.408 C331.029,191.554 330.679,191.008 329.783,191.008 C329.097,191.008 328.369,191.512 328.005,192.058 L328.005,197 L326.955,197 L326.955,190.238 L328.005,190.238 L328.005,191.218 C328.299,190.784 329.195,190.07 330.203,190.07 C331.225,190.07 331.813,190.63 332.009,191.33 C332.387,190.714 333.297,190.07 334.277,190.07 C335.509,190.07 336.167,190.756 336.167,192.114 L336.167,197 Z M9.82,236 L8.7,236 L3.254,228.552 L3.254,236 L2.092,236 L2.092,226.662 L3.282,226.662 L8.658,233.956 L8.658,226.662 L9.82,226.662 L9.82,236 Z M20.201,236 L19.165,236 L19.165,231.576 C19.165,230.372 18.549,230.008 17.639,230.008 C16.813,230.008 16.043,230.512 15.637,231.058 L15.637,236 L14.587,236 L14.587,229.238 L15.637,229.238 L15.637,230.218 C16.113,229.644 17.037,229.07 18.059,229.07 C19.459,229.07 20.201,229.784 20.201,231.254 L20.201,236 Z M35.489,236.168 C32.731,236.168 30.855,234.096 30.855,231.338 C30.855,228.58 32.731,226.508 35.489,226.508 C38.247,226.508 40.137,228.58 40.137,231.338 C40.137,234.096 38.247,236.168 35.489,236.168 Z M35.489,235.132 C37.575,235.132 38.933,233.508 38.933,231.338 C38.933,229.154 37.575,227.544 35.489,227.544 C33.389,227.544 32.059,229.154 32.059,231.338 C32.059,233.508 33.389,235.132 35.489,235.132 Z M47.48,236.168 C45.422,236.168 44.134,234.572 44.134,232.612 C44.134,230.652 45.422,229.07 47.48,229.07 C49.538,229.07 50.826,230.652 50.826,232.612 C50.826,234.572 49.538,236.168 47.48,236.168 Z M47.48,235.23 C48.922,235.23 49.72,233.998 49.72,232.612 C49.72,231.24 48.922,230.008 47.48,230.008 C46.038,230.008 45.24,231.24 45.24,232.612 C45.24,233.998 46.038,235.23 47.48,235.23 Z M62.614,236 L61.452,236 L61.452,226.662 L65.204,226.662 C67.08,226.662 68.13,227.95 68.13,229.476 C68.13,231.002 67.066,232.29 65.204,232.29 L62.614,232.29 L62.614,236 Z M65.064,231.254 C66.17,231.254 66.926,230.526 66.926,229.476 C66.926,228.426 66.17,227.698 65.064,227.698 L62.614,227.698 L62.614,231.254 L65.064,231.254 Z M75.585,236.168 C74.661,236.168 73.863,235.72 73.303,234.978 L73.303,238.576 L72.253,238.576 L72.253,229.238 L73.303,229.238 L73.303,230.246 C73.793,229.56 74.633,229.07 75.585,229.07 C77.363,229.07 78.595,230.414 78.595,232.612 C78.595,234.796 77.363,236.168 75.585,236.168 Z M75.319,235.23 C76.677,235.23 77.489,234.11 77.489,232.612 C77.489,231.114 76.677,230.008 75.319,230.008 C74.493,230.008 73.667,230.498 73.303,231.086 L73.303,234.138 C73.667,234.726 74.493,235.23 75.319,235.23 Z M93.435,236.168 C90.677,236.168 88.801,234.096 88.801,231.338 C88.801,228.58 90.677,226.508 93.435,226.508 C96.193,226.508 98.083,228.58 98.083,231.338 C98.083,232.724 97.607,233.928 96.795,234.796 L97.677,235.734 L96.879,236.434 L95.969,235.468 C95.269,235.916 94.401,236.168 93.435,236.168 Z M93.435,235.132 C94.107,235.132 94.709,234.964 95.213,234.656 L93.883,233.214 L94.695,232.528 L96.011,233.956 C96.557,233.284 96.879,232.374 96.879,231.338 C96.879,229.154 95.521,227.544 93.435,227.544 C91.335,227.544 90.005,229.154 90.005,231.338 C90.005,233.508 91.335,235.132 93.435,235.132 Z M105.314,235.23 C106.14,235.23 106.966,234.726 107.33,234.138 L107.33,231.086 C106.966,230.498 106.14,230.008 105.314,230.008 C103.956,230.008 103.144,231.114 103.144,232.612 C103.144,234.11 103.956,235.23 105.314,235.23 Z M105.048,236.168 C103.27,236.168 102.038,234.796 102.038,232.612 C102.038,230.414 103.27,229.07 105.048,229.07 C106,229.07 106.84,229.56 107.33,230.246 L107.33,229.238 L108.38,229.238 L108.38,238.576 L107.33,238.576 L107.33,234.978 C106.77,235.72 105.972,236.168 105.048,236.168 Z M126.174,236 L124.802,236 L122.436,232.29 L120.56,232.29 L120.56,236 L119.398,236 L119.398,226.662 L123.15,226.662 C124.858,226.662 126.09,227.754 126.09,229.476 C126.09,231.156 124.928,232.08 123.654,232.192 L126.174,236 Z M123.01,231.268 C124.116,231.268 124.886,230.526 124.886,229.476 C124.886,228.412 124.116,227.698 123.01,227.698 L120.56,227.698 L120.56,231.268 L123.01,231.268 Z M131.557,236 L130.507,236 L130.507,229.238 L131.557,229.238 L131.557,230.316 C132.103,229.616 132.887,229.084 133.811,229.084 L133.811,230.162 C133.685,230.148 133.559,230.134 133.405,230.134 C132.747,230.134 131.865,230.666 131.557,231.212 L131.557,236 Z M147.069,236.168 C145.459,236.168 144.255,235.552 143.485,234.684 L144.185,233.788 C144.787,234.488 145.795,235.132 147.111,235.132 C148.777,235.132 149.309,234.236 149.309,233.508 C149.309,231.1 143.779,232.444 143.779,229.112 C143.779,227.572 145.151,226.508 146.999,226.508 C148.413,226.508 149.519,226.998 150.303,227.824 L149.603,228.678 C148.903,227.894 147.923,227.558 146.901,227.558 C145.795,227.558 144.983,228.16 144.983,229.042 C144.983,231.142 150.513,229.938 150.513,233.424 C150.513,234.768 149.589,236.168 147.069,236.168 Z M156.988,236.168 C155.868,236.168 154.944,235.818 154.258,235.104 L154.79,234.348 C155.238,234.866 156.092,235.314 157.016,235.314 C158.052,235.314 158.626,234.824 158.626,234.152 C158.626,232.514 154.44,233.522 154.44,231.016 C154.44,229.952 155.336,229.07 156.946,229.07 C158.108,229.07 158.92,229.504 159.452,230.05 L158.962,230.778 C158.556,230.288 157.828,229.924 156.946,229.924 C156.022,229.924 155.448,230.386 155.448,230.988 C155.448,232.458 159.634,231.492 159.634,234.124 C159.634,235.258 158.724,236.168 156.988,236.168 Z M173.732,236 L172.57,236 L172.57,227.698 L169.616,227.698 L169.616,226.662 L176.7,226.662 L176.7,227.698 L173.732,227.698 L173.732,236 Z M182.545,236.168 C181.537,236.168 181.033,235.594 181.033,234.586 L181.033,230.162 L179.913,230.162 L179.913,229.238 L181.033,229.238 L181.033,227.39 L182.097,227.39 L182.097,229.238 L183.469,229.238 L183.469,230.162 L182.097,230.162 L182.097,234.362 C182.097,234.866 182.321,235.23 182.769,235.23 C183.077,235.23 183.343,235.09 183.483,234.936 L183.791,235.734 C183.525,235.986 183.147,236.168 182.545,236.168 Z M197.665,236.168 C195.145,236.168 193.857,234.67 193.857,232.374 L193.857,226.662 L195.033,226.662 L195.033,232.346 C195.033,234.054 195.943,235.132 197.665,235.132 C199.387,235.132 200.311,234.054 200.311,232.346 L200.311,226.662 L201.487,226.662 L201.487,232.36 C201.487,234.684 200.199,236.168 197.665,236.168 Z M211.868,236 L210.818,236 L210.818,235.048 C210.3,235.636 209.418,236.168 208.41,236.168 C206.996,236.168 206.254,235.468 206.254,234.012 L206.254,229.238 L207.304,229.238 L207.304,233.69 C207.304,234.88 207.906,235.23 208.83,235.23 C209.642,235.23 210.426,234.754 210.818,234.208 L210.818,229.238 L211.868,229.238 L211.868,236 Z M227.128,236 L225.686,236 L221.92,226.662 L223.25,226.662 L226.4,234.726 L229.55,226.662 L230.88,226.662 L227.128,236 Z M237.453,236 L236.305,236 L233.491,229.238 L234.639,229.238 L236.879,234.782 L239.133,229.238 L240.267,229.238 L237.453,236 Z M258.677,236 L257.417,236 L255.359,228.468 L253.301,236 L252.041,236 L249.381,226.662 L250.669,226.662 L252.741,234.446 L254.883,226.662 L255.849,226.662 L257.991,234.446 L260.049,226.662 L261.351,226.662 L258.677,236 Z M272.138,236 L271.074,236 L269.31,230.568 L267.546,236 L266.496,236 L264.34,229.238 L265.432,229.238 L267.084,234.628 L268.862,229.238 L269.772,229.238 L271.536,234.628 L273.188,229.238 L274.294,229.238 L272.138,236 Z M292.284,236 L290.87,236 L287.888,232.024 L284.906,236 L283.492,236 L287.132,231.212 L283.702,226.662 L285.116,226.662 L287.888,230.386 L290.646,226.662 L292.074,226.662 L288.644,231.198 L292.284,236 Z M301.727,236 L300.523,236 L298.479,233.228 L296.449,236 L295.245,236 L297.835,232.528 L295.385,229.238 L296.603,229.238 L298.479,231.814 L300.369,229.238 L301.573,229.238 L299.123,232.528 L301.727,236 Z M315.741,236 L314.579,236 L314.579,232.052 L310.897,226.662 L312.255,226.662 L315.153,231.002 L318.051,226.662 L319.409,226.662 L315.741,232.052 L315.741,236 Z M322.006,238.646 L322.16,237.694 C322.314,237.764 322.566,237.806 322.734,237.806 C323.196,237.806 323.504,237.652 323.742,237.092 L324.19,236.07 L321.362,229.238 L322.51,229.238 L324.75,234.782 L327.004,229.238 L328.138,229.238 L324.75,237.372 C324.344,238.352 323.658,238.73 322.762,238.744 C322.538,238.744 322.188,238.702 322.006,238.646 Z M344.574,236 L337.728,236 L337.728,235.034 L342.978,227.698 L337.728,227.698 L337.728,226.662 L344.476,226.662 L344.476,227.628 L339.212,234.964 L344.574,234.964 L344.574,236 Z M353.751,236 L348.599,236 L348.599,235.174 L352.323,230.162 L348.599,230.162 L348.599,229.238 L353.695,229.238 L353.695,230.036 L349.943,235.076 L353.751,235.076 L353.751,236 Z M5.284,275.168 C2.722,275.168 1.714,272.606 1.714,270.338 C1.714,268.056 2.722,265.522 5.284,265.522 C7.832,265.522 8.854,268.056 8.854,270.338 C8.854,272.606 7.832,275.168 5.284,275.168 Z M5.284,274.132 C7.062,274.132 7.664,272.2 7.664,270.338 C7.664,268.476 7.062,266.558 5.284,266.558 C3.506,266.558 2.904,268.476 2.904,270.338 C2.904,272.2 3.506,274.132 5.284,274.132 Z M22.098,275 L20.936,275 L20.936,267.188 L19.438,268.784 L18.738,268.07 L21.076,265.662 L22.098,265.662 L22.098,275 Z M39.234,275 L32.822,275 L32.822,274.062 C36.182,271.43 38.016,269.876 38.016,268.266 C38.016,267.062 37.022,266.558 36.056,266.558 C34.936,266.558 34.068,267.034 33.522,267.734 L32.808,266.992 C33.522,266.04 34.74,265.522 36.056,265.522 C37.61,265.522 39.192,266.404 39.192,268.266 C39.192,270.17 37.26,271.906 34.656,273.964 L39.234,273.964 L39.234,275 Z M52.898,275.168 C51.316,275.168 50.154,274.468 49.58,273.628 L50.266,272.9 C50.812,273.628 51.764,274.132 52.87,274.132 C54.228,274.132 55.054,273.446 55.054,272.382 C55.054,271.22 54.102,270.73 52.73,270.73 C52.338,270.73 51.904,270.73 51.764,270.744 L51.764,269.68 C51.918,269.694 52.352,269.694 52.73,269.694 C53.906,269.694 54.9,269.232 54.9,268.154 C54.9,267.118 53.948,266.558 52.814,266.558 C51.792,266.558 51.036,266.95 50.35,267.692 L49.706,266.964 C50.378,266.138 51.456,265.522 52.912,265.522 C54.704,265.522 56.062,266.432 56.062,268 C56.062,269.358 54.928,270.03 54.06,270.17 C54.9,270.254 56.216,270.968 56.216,272.48 C56.216,274.034 54.956,275.168 52.898,275.168 Z M71.896,275 L70.734,275 L70.734,272.634 L66.296,272.634 L66.296,271.668 L70.3,265.662 L71.896,265.662 L71.896,271.612 L73.212,271.612 L73.212,272.634 L71.896,272.634 L71.896,275 Z M70.734,271.612 L70.734,266.74 L67.458,271.612 L70.734,271.612 Z M86.75,275.168 C85.182,275.168 84.16,274.594 83.46,273.67 L84.174,272.886 C84.79,273.684 85.616,274.132 86.75,274.132 C88.024,274.132 88.906,273.264 88.906,272.13 C88.906,270.898 88.024,270.114 86.764,270.114 C85.952,270.114 85.238,270.38 84.608,270.982 L83.754,270.688 L83.754,265.662 L89.466,265.662 L89.466,266.698 L84.916,266.698 L84.916,269.946 C85.378,269.498 86.162,269.106 87.1,269.106 C88.668,269.106 90.082,270.156 90.082,272.088 C90.082,273.978 88.626,275.168 86.75,275.168 Z M103.998,275.168 C101.38,275.168 100.386,272.886 100.386,270.338 C100.386,267.818 101.562,265.522 104.194,265.522 C105.384,265.522 106.196,265.97 106.77,266.642 L106.182,267.51 C105.706,266.95 105.16,266.558 104.194,266.558 C102.374,266.558 101.562,268.392 101.562,270.226 L101.562,270.59 C101.968,269.946 103.004,269.134 104.208,269.134 C105.888,269.134 107.26,270.128 107.26,272.116 C107.26,273.726 106.028,275.168 103.998,275.168 Z M103.942,274.132 C105.384,274.132 106.084,273.04 106.084,272.158 C106.084,270.786 105.132,270.142 103.942,270.142 C103.004,270.142 102.108,270.716 101.604,271.528 C101.702,272.69 102.318,274.132 103.942,274.132 Z M119.804,275 L118.516,275 L122.282,266.698 L117.256,266.698 L117.256,265.662 L123.626,265.662 L123.626,266.46 L119.804,275 Z M136.982,275.168 C135.134,275.168 133.636,274.23 133.636,272.634 C133.636,271.388 134.7,270.534 135.862,270.184 C134.784,269.876 133.79,269.162 133.79,267.944 C133.79,266.264 135.428,265.522 136.982,265.522 C138.522,265.522 140.188,266.264 140.188,267.944 C140.188,269.162 139.18,269.876 138.102,270.184 C139.264,270.534 140.328,271.388 140.328,272.634 C140.328,274.216 138.816,275.168 136.982,275.168 Z M136.982,269.708 C137.556,269.61 139.012,269.232 139.012,268.098 C139.012,267.132 138.102,266.558 136.982,266.558 C135.848,266.558 134.966,267.132 134.966,268.098 C134.966,269.232 136.422,269.61 136.982,269.708 Z M136.982,274.132 C138.13,274.132 139.152,273.516 139.152,272.508 C139.152,271.29 137.556,270.772 136.982,270.702 C136.408,270.772 134.812,271.29 134.812,272.508 C134.812,273.516 135.82,274.132 136.982,274.132 Z M153.698,275.154 C152.508,275.154 151.696,274.692 151.108,274.034 L151.696,273.166 C152.172,273.726 152.732,274.118 153.698,274.118 C155.588,274.118 156.33,272.228 156.33,270.45 C156.33,270.338 156.33,270.212 156.316,270.086 C155.91,270.73 154.874,271.542 153.684,271.542 C152.004,271.542 150.618,270.548 150.618,268.56 C150.618,266.95 151.85,265.508 153.894,265.508 C156.498,265.508 157.506,267.79 157.506,270.338 C157.506,272.858 156.316,275.154 153.698,275.154 Z M153.95,270.534 C154.874,270.534 155.784,269.96 156.288,269.134 C156.176,267.986 155.56,266.544 153.936,266.544 C152.508,266.544 151.794,267.622 151.794,268.518 C151.794,269.89 152.746,270.534 153.95,270.534 Z" id="Aa-Bb-Cc-Dd-Ee-Ff-Gg"></path>
                </g>
            </g>
        </g>
    </g>
</svg>